<?xml version="1.0" encoding="utf-8"?>
<!DOCTYPE svg PUBLIC "-//W3C//DTD SVG 1.1//EN" "http://www.w3.org/Graphics/SVG/1.1/DTD/svg11.dtd">
<svg x="0" y="0" width="32" height="32" overflow="hidden" viewBox="0, 0, 48, 48" preserveAspectRatio="xMidYMid" font-size="0" id="svg" xml:space="default" xmlns="http://www.w3.org/2000/svg" xmlns:xlink="http://www.w3.org/1999/xlink" xmlns:xml="http://www.w3.org/XML/1998/namespace" version="1.1">
  <defs id="id0" xml:space="default">
    <linearGradient x1="0%" y1="0%" x2="100%" y2="0%" gradientUnits="objectBoundingBox" id="id7" xml:space="default">
      <stop offset="0%" stop-color="#FFFFFF" stop-opacity="0.8" id="J" xml:space="default" />
      <stop offset="100%" stop-color="#FFFFFF" stop-opacity="0" id="K" xml:space="default" />
    </linearGradient>
    <linearGradient x1="0%" y1="0%" x2="100%" y2="0%" gradientUnits="objectBoundingBox" id="id8" xml:space="default">
      <stop offset="0%" stop-color="#888A85" stop-opacity="1" id="L" xml:space="default" />
      <stop offset="78%" stop-color="#555753" stop-opacity="1" id="M" xml:space="default" />
      <stop offset="100%" stop-color="#2E3436" stop-opacity="1" id="N" xml:space="default" />
    </linearGradient>
    <linearGradient x1="0%" y1="0%" x2="100%" y2="0%" gradientUnits="objectBoundingBox" id="id9" xml:space="default">
      <stop offset="0%" stop-color="#2E3436" stop-opacity="1" id="O" xml:space="default" />
      <stop offset="100%" stop-color="#2E3436" stop-opacity="0" id="P" xml:space="default" />
    </linearGradient>
    <linearGradient x1="0%" y1="0%" x2="100%" y2="0%" gradientUnits="objectBoundingBox" id="A" xml:space="default">
      <stop offset="0%" stop-color="#FFFFFF" stop-opacity="0.45" id="Q" xml:space="default" />
      <stop offset="100%" stop-color="#FFFFFF" stop-opacity="0" id="R" xml:space="default" />
    </linearGradient>
    <linearGradient x1="0%" y1="0%" x2="100%" y2="0%" gradientUnits="objectBoundingBox" id="B" xml:space="default">
      <stop offset="0%" stop-color="#FFFFFF" stop-opacity="0.679" id="S" xml:space="default" />
      <stop offset="100%" stop-opacity="0.333" id="T" xml:space="default" />
    </linearGradient>
    <linearGradient x1="0%" y1="3.1" x2="0" y2="122.9" gradientUnits="userSpaceOnUse" id="C" xml:space="default">
      <stop offset="0%" stop-color="#888A85" stop-opacity="1" id="U" xml:space="default" />
      <stop offset="100%" stop-color="#BABDB6" stop-opacity="1" id="V" xml:space="default" />
    </linearGradient>
    <radialGradient cx="26.434" cy="46.14" r="13.818" fx="26.434" fy="46.14" gradientUnits="userSpaceOnUse" xlink:href="#id9" gradientTransform="matrix(1, 0, 0, 0.1, 0, 41.52385)" id="D" xml:space="default" />
    <radialGradient cx="16.791" cy="8.822" r="20.676" fx="16.791" fy="8.822" gradientUnits="userSpaceOnUse" xlink:href="#A" id="E" xml:space="default" />
    <linearGradient x1="86.13" y1="105.11" x2="84.64" y2="20.895" gradientUnits="userSpaceOnUse" xlink:href="#B" gradientTransform="matrix(0.2879622, -0.1167595, 0.1167595, 0.2879622, -1.785419, 12.56404)" id="F" xml:space="default" />
    <radialGradient cx="25.25" cy="41.18" r="22" fx="25.25" fy="41.18" gradientUnits="userSpaceOnUse" xlink:href="#C" gradientTransform="matrix(0.6210894, -1.817629, 1.611067, 0.5505064, -50.37825, 62.13838)" id="G" xml:space="default" />
    <linearGradient x1="2.35" y1="1.35" x2="45.65" y2="44.65" gradientUnits="userSpaceOnUse" xlink:href="#id8" gradientTransform="matrix(0.9576328, 0, 0, 0.9576328, 1.016813, 1.207498)" id="H" xml:space="default" />
    <linearGradient x1="0%" y1="2.39" x2="0" y2="43.61" gradientUnits="userSpaceOnUse" xlink:href="#id7" id="I" xml:space="default" />
  </defs>
  <path d="M40.25158 46.13762 A13.81771 1.381771 0 1 1 12.61617 46.13762 A13.81771 1.381771 0 1 1 40.25158 46.13762 z" opacity="0.628" transform="matrix(1.25067, 0, 0, 2.35113, -8.918204, -66.22424)" id="id1" xml:space="default" style="fill:url(#D);" />
  <path d="M13.6289 5.220998 C12.878 5.525465 12.52256 6.394908 12.83223 7.158647 L13.92298 9.848749 C12.72536 10.7509 11.66153 11.81144 10.76451 12.97008 L8.07504 11.83239 C7.695532 11.67185 7.314079 11.66 6.963445 11.79872 C6.612811 11.93744 6.308056 12.20743 6.150217 12.58055 L3.924315 17.84257 C3.608636 18.58883 3.968926 19.42383 4.727942 19.7449 L7.417416 20.88259 C7.210677 22.33322 7.190507 23.83524 7.377179 25.32296 L4.687076 26.41372 C3.923337 26.72339 3.546955 27.58397 3.851423 28.33488 L5.987945 33.60415 C6.292412 34.35505 7.161854 34.71049 7.925593 34.40082 L10.6157 33.31007 C11.51784 34.50769 12.57838 35.57152 13.73702 36.46854 L12.59934 39.15801 C12.27826 39.91703 12.60124 40.76715 13.3475 41.08284 L18.60951 43.30874 C19.35577 43.62442 20.19077 43.26413 20.51185 42.50511 L21.64953 39.81564 C23.10017 40.02237 24.60219 40.04255 26.08991 39.85588 L27.18066 42.54598 C27.49033 43.30972 28.35092 43.6861 29.10182 43.38163 L34.37109 41.24511 C35.122 40.94064 35.47744 40.0712 35.16777 39.30746 L34.07702 36.61736 C35.27464 35.71521 36.33847 34.65467 37.23549 33.49603 L39.92496 34.63372 C40.68397 34.95479 41.5341 34.63182 41.84978 33.88556 L44.07568 28.62354 C44.39136 27.87728 44.03107 27.04228 43.27206 26.72121 L40.58258 25.58352 C40.78932 24.13289 40.80949 22.63087 40.62282 21.14314 L43.31292 20.05239 C44.07666 19.74272 44.45304 18.88214 44.14857 18.13123 L42.01205 12.86196 C41.70759 12.11106 40.83815 11.75561 40.07441 12.06528 L37.3843 13.15604 C36.48215 11.95841 35.42162 10.89458 34.26298 9.997566 L35.40066 7.308093 C35.72173 6.549077 35.39876 5.698947 34.6525 5.38327 L29.39049 3.157368 C28.64423 2.841689 27.80923 3.20198 27.48815 3.960996 L26.35047 6.650469 C24.89983 6.44373 23.39781 6.42356 21.91009 6.610231 L20.81934 3.920129 C20.50967 3.15639 19.64908 2.780008 18.89818 3.084476 L13.6289 5.220998 z M21.66107 17.46458 C24.84526 16.17349 28.47738 17.70993 29.76847 20.89412 C31.05956 24.07832 29.52312 27.71043 26.33893 29.00152 C23.15474 30.29261 19.52262 28.75618 18.23153 25.57198 C16.94044 22.38779 18.47688 18.75567 21.66107 17.46458 z" display="block" stroke="url(#H)" stroke-width="0.958" stroke-linejoin="round" id="id2" xml:space="default" style="fill:url(#G);" />
  <path d="M19.0625 2.9375 L18.90625 3 L13.53125 5.15625 C13.28322 5.256816 13.18065 5.487326 13.3125 5.8125 A0.5858986 0.5858986 0 0 1 13.3125 5.84375 A0.5858986 0.5858986 0 0 1 13.34375 5.875 L13.34375 5.9375 A0.5858986 0.5858986 0 0 1 13.375 6 L14.4375 8.65625 A0.5858986 0.5858986 0 0 1 14.46875 8.65625 C14.63376 9.091317 14.46803 9.598549 14.09375 9.875 C12.92038 10.75889 11.91436 11.76558 11.03125 12.90625 C10.75291 13.30494 10.22894 13.43314 9.78125 13.25 L9.75 13.25 L6.96875 12.0625 C6.772003 11.97927 6.719326 11.98157 6.59375 12.03125 C6.468697 12.08073 6.407401 12.13078 6.34375 12.28125 A0.5858986 0.5858986 0 0 1 6.28125 12.40625 A0.5858986 0.5858986 0 0 1 6.1875 12.53125 L3.96875 17.78125 C3.911059 17.91763 3.926076 18.00417 3.96875 18.09375 C4.011424 18.18333 4.101315 18.29889 4.28125 18.375 L7.09375 19.5625 C7.544806 19.74385 7.797995 20.20786 7.71875 20.6875 L7.75 20.6875 C7.549248 22.09612 7.539431 23.57966 7.71875 25.03125 C7.72004 25.04169 7.71744 25.05206 7.71875 25.0625 C7.77074 25.53451 7.474881 25.99003 7.03125 26.15625 C7.016858 26.16165 7.014729 26.18272 7 26.1875 L4.21875 27.28125 C3.912232 27.40553 3.825521 27.63008 3.9375 27.90625 A0.5858986 0.5858986 0 0 1 3.9375 27.9375 A0.5858986 0.5858986 0 0 1 3.96875 27.96875 L3.96875 28 A0.5858986 0.5858986 0 0 1 4 28.0625 L4 28.09375 L6.15625 33.46875 C6.256817 33.71678 6.487326 33.81935 6.8125 33.6875 A0.5858986 0.5858986 0 0 1 6.84375 33.6875 A0.5858986 0.5858986 0 0 1 6.875 33.65625 L6.9375 33.65625 A0.5858986 0.5858986 0 0 1 7 33.625 L9.65625 32.5625 A0.5858986 0.5858986 0 0 1 9.65625 32.53125 C10.09132 32.36624 10.59855 32.53197 10.875 32.90625 C11.75888 34.07962 12.76558 35.08564 13.90625 35.96875 C14.30494 36.24709 14.43314 36.77106 14.25 37.21875 L14.25 37.25 L13.0625 40.03125 C12.9199 40.36835 12.98451 40.53072 13.28125 40.65625 A0.5858986 0.5858986 0 0 1 13.40625 40.71875 A0.5858986 0.5858986 0 0 1 13.53125 40.8125 L18.78125 43.03125 C18.91763 43.08894 19.00416 43.07393 19.09375 43.03125 C19.18334 42.98857 19.29889 42.89869 19.375 42.71875 L20.5625 39.90625 C20.74385 39.45519 21.20786 39.20201 21.6875 39.28125 L21.6875 39.25 C23.09612 39.45075 24.57966 39.46057 26.03125 39.28125 C26.04169 39.27995 26.05206 39.28255 26.0625 39.28125 C26.53451 39.22926 26.99003 39.52512 27.15625 39.96875 C27.15925 39.97685 27.15345 39.9918 27.15625 40 C27.15845 40.0064 27.18541 39.9936 27.1875 40 L28.28125 42.78125 C28.40553 43.08777 28.63008 43.17448 28.90625 43.0625 A0.5858986 0.5858986 0 0 1 28.9375 43.0625 A0.5858986 0.5858986 0 0 1 28.96875 43.03125 L29.03125 43.03125 A0.5858986 0.5858986 0 0 1 29.09375 43 L34.46875 40.84375 C34.71678 40.74318 34.81935 40.51268 34.6875 40.1875 A0.5858986 0.5858986 0 0 1 34.6875 40.15625 L34.65625 40.125 A0.5858986 0.5858986 0 0 1 34.625 40 L33.5625 37.34375 A0.5858986 0.5858986 0 0 1 33.53125 37.34375 C33.36624 36.90868 33.53197 36.40145 33.90625 36.125 C35.07962 35.24112 36.08564 34.23442 36.96875 33.09375 C37.24709 32.69506 37.77106 32.56686 38.21875 32.75 L38.25 32.75 L41.03125 33.9375 C41.36835 34.0801 41.53072 34.01549 41.65625 33.71875 A0.5858986 0.5858986 0 0 1 41.71875 33.59375 A0.5858986 0.5858986 0 0 1 41.75 33.5625 L41.78125 33.53125 A0.5858986 0.5858986 0 0 1 41.8125 33.46875 L44.03125 28.21875 C44.08894 28.08237 44.07393 27.99584 44.03125 27.90625 C43.98857 27.81666 43.89869 27.70111 43.71875 27.625 L40.90625 26.4375 C40.45519 26.25615 40.20201 25.79214 40.28125 25.3125 L40.25 25.3125 C40.45075 23.90388 40.46057 22.42034 40.28125 20.96875 C40.27975 20.95841 40.28235 20.94783 40.28125 20.9375 C40.22926 20.46549 40.52512 20.00997 40.96875 19.84375 L41 19.84375 L41 19.8125 L43.78125 18.71875 C44.08777 18.59447 44.17448 18.36992 44.0625 18.09375 A0.5858986 0.5858986 0 0 1 44.0625 18.0625 L44.03125 18.03125 A0.5858986 0.5858986 0 0 1 44.03125 18 L44.03125 17.96875 A0.5858986 0.5858986 0 0 1 44 17.90625 L41.84375 12.53125 C41.74318 12.28322 41.51267 12.18065 41.1875 12.3125 A0.5858986 0.5858986 0 0 1 41.15625 12.3125 L41 12.375 L38.34375 13.4375 A0.5858986 0.5858986 0 0 1 38.34375 13.46875 C37.90868 13.63376 37.40145 13.46803 37.125 13.09375 C36.24112 11.92038 35.23442 10.91436 34.09375 10.03125 C33.69506 9.75291 33.56686 9.228944 33.75 8.78125 L33.75 8.75 L34.9375 5.96875 C35.0801 5.631653 35.01549 5.469275 34.71875 5.34375 A0.5858986 0.5858986 0 0 1 34.59375 5.28125 A0.5858986 0.5858986 0 0 1 34.5625 5.25 L34.53125 5.21875 A0.5858986 0.5858986 0 0 1 34.46875 5.1875 L29.21875 2.96875 C29.08237 2.911059 28.99584 2.926076 28.90625 2.96875 C28.81666 3.011424 28.70111 3.101317 28.625 3.28125 L27.4375 6.09375 C27.25615 6.544806 26.79214 6.797995 26.3125 6.71875 L26.3125 6.75 C24.90388 6.549248 23.42034 6.539431 21.96875 6.71875 C21.95841 6.72021 21.94783 6.71761 21.9375 6.71875 C21.46549 6.77074 21.00997 6.474881 20.84375 6.03125 C20.83836 6.016858 20.81728 6.014729 20.8125 6 L19.71875 3.21875 C19.59447 2.912232 19.36992 2.825521 19.09375 2.9375 A0.5858986 0.5858986 0 0 1 19.0625 2.9375 z M24.09375 15.4375 C27.03646 15.48203 29.82811 17.26604 31 20.15625 C32.56201 24.00862 30.6953 28.43832 26.84375 30 C22.99138 31.56201 18.56168 29.6953 17 25.84375 C15.43799 21.99138 17.3047 17.56168 21.15625 16 C22.12471 15.60732 23.12039 15.42277 24.09375 15.4375 z" display="block" stroke="url(#I)" stroke-linejoin="round" opacity="0.8" transform="matrix(0.9576328, 0, 0, 0.9576328, 1.016813, 1.207498)" id="id3" xml:space="default" style="fill:none;" />
  <path d="M19.14222 11.25239 C12.53608 13.93097 9.340757 21.48469 12.01934 28.09083 C14.69791 34.69697 22.25164 37.89229 28.85778 35.21371 C35.46392 32.53514 38.65924 24.98141 35.98066 18.37527 C33.30209 11.76914 25.74836 8.573811 19.14222 11.25239 z" stroke="url(#F)" stroke-width="0.958" id="id4" xml:space="default" style="fill:none;" />
  <path d="M24 10 C16.83168 9.999999 11 15.83168 11 23 C11 30.16832 16.83168 36 24 36 C31.16832 36 37 30.16832 37 23 C37 15.83168 31.16832 10 24 10 z M24 16 C27.864 16 31 19.136 31 23 C31 26.864 27.864 30 24 30 C20.136 30 17 26.864 17 23 C17 19.136 20.136 16 24 16 z" opacity="0.24" transform="matrix(0.8874565, -0.3598353, 0.3598353, 0.8874565, -5.575169, 11.4576)" id="id5" xml:space="default" style="fill:#FFFFFF;" />
  <path d="M18.84375 2.40625 L13.34375 4.625 L13.3125 4.625 C12.7838 4.853937 12.55052 5.4622 12.78125 6.03125 A0.4583694 0.4583694 0 0 1 12.78125 6.0625 L13.90625 8.875 A0.4583694 0.4583694 0 0 1 13.75 9.40625 C12.53351 10.32261 11.47564 11.38305 10.5625 12.5625 A0.4583694 0.4583694 0 0 1 10 12.71875 L7.1875 11.53125 C6.886436 11.4039 6.630927 11.39875 6.375 11.5 C6.112351 11.60391 5.926742 11.79243 5.8125 12.0625 A0.4583694 0.4583694 0 0 1 5.78125 12.0625 L3.4375 17.5625 L3.46875 17.5625 C3.235264 18.11446 3.47864 18.65927 4.0625 18.90625 L6.875 20.09375 A0.4583694 0.4583694 0 0 1 7.15625 20.59375 C6.94639 22.06629 6.935121 23.61172 7.125 25.125 A0.4583694 0.4583694 0 0 1 6.8125 25.625 L4.03125 26.75 L4 26.75 C3.441957 26.99012 3.186615 27.58332 3.40625 28.125 A0.4583694 0.4583694 0 0 1 3.40625 28.15625 L5.625 33.65625 L5.625 33.6875 C5.853937 34.2162 6.4622 34.44948 7.03125 34.21875 A0.4583694 0.4583694 0 0 1 7.0625 34.21875 L9.875 33.09375 A0.4583694 0.4583694 0 0 1 10.40625 33.25 C11.32261 34.46649 12.38305 35.52436 13.5625 36.4375 A0.4583694 0.4583694 0 0 1 13.71875 37 L12.53125 39.8125 C12.28624 40.39171 12.50839 40.9531 13.0625 41.1875 A0.4583694 0.4583694 0 0 1 13.0625 41.21875 L18.5625 43.5625 L18.5625 43.53125 C19.11445 43.76474 19.65927 43.52135 19.90625 42.9375 L21.09375 40.125 A0.4583694 0.4583694 0 0 1 21.59375 39.84375 C23.06629 40.05361 24.61172 40.06488 26.125 39.875 A0.4583694 0.4583694 0 0 1 26.625 40.1875 L27.75 42.96875 L27.75 43 C27.99012 43.55804 28.58332 43.81339 29.125 43.59375 A0.4583694 0.4583694 0 0 1 29.15625 43.59375 L34.65625 41.375 C34.66375 41.3719 34.68006 41.3782 34.6875 41.375 C35.2162 41.14606 35.44948 40.5378 35.21875 39.96875 A0.4583694 0.4583694 0 0 1 35.21875 39.9375 L34.09375 37.125 A0.4583694 0.4583694 0 0 1 34.25 36.59375 C35.46649 35.67739 36.52436 34.61695 37.4375 33.4375 A0.4583694 0.4583694 0 0 1 38 33.28125 L40.8125 34.46875 C41.39171 34.71376 41.9531 34.49161 42.1875 33.9375 A0.4583694 0.4583694 0 0 1 42.21875 33.9375 L44.5625 28.4375 L44.53125 28.4375 C44.76474 27.88554 44.52135 27.34073 43.9375 27.09375 L41.125 25.90625 A0.4583694 0.4583694 0 0 1 40.84375 25.40625 C41.05361 23.93371 41.06488 22.38828 40.875 20.875 A0.4583694 0.4583694 0 0 1 41.1875 20.375 L43.96875 19.25 C43.97665 19.2468 43.99218 19.2534 44 19.25 C44.55804 19.00988 44.81339 18.41668 44.59375 17.875 A0.4583694 0.4583694 0 0 1 44.59375 17.84375 L42.375 12.34375 L42.375 12.3125 C42.14606 11.7838 41.5378 11.55052 40.96875 11.78125 A0.4583694 0.4583694 0 0 1 40.9375 11.78125 L38.125 12.90625 A0.4583694 0.4583694 0 0 1 37.59375 12.75 C36.67739 11.53351 35.61695 10.47563 34.4375 9.5625 A0.4583694 0.4583694 0 0 1 34.28125 9 L35.46875 6.1875 C35.71376 5.60829 35.49161 5.046897 34.9375 4.8125 A0.4583694 0.4583694 0 0 1 34.9375 4.78125 L29.4375 2.4375 L29.4375 2.46875 C28.88554 2.235265 28.34073 2.47864 28.09375 3.0625 L26.90625 5.875 A0.4583694 0.4583694 0 0 1 26.40625 6.15625 C24.93371 5.94639 23.38828 5.935121 21.875 6.125 A0.4583694 0.4583694 0 0 1 21.375 5.8125 L20.25 3.03125 L20.25 3 C20.00988 2.441957 19.41668 2.186615 18.875 2.40625 A0.4583694 0.4583694 0 0 1 18.84375 2.40625 z M24.09375 16.03125 C26.80663 16.0723 29.38749 17.7083 30.46875 20.375 C31.91054 23.93087 30.1797 28.02743 26.625 29.46875 C23.06913 30.91054 18.97257 29.1797 17.53125 25.625 C16.08946 22.06913 17.8203 17.97257 21.375 16.53125 C22.26551 16.17018 23.19256 16.01761 24.09375 16.03125 z" display="block" transform="matrix(0.9576328, 0, 0, 0.9576328, 1.016813, 1.207498)" id="id6" xml:space="default" style="fill:url(#E);" />
</svg>