<?xml version="1.0" encoding="utf-8"?>
<!DOCTYPE svg PUBLIC "-//W3C//DTD SVG 1.1//EN" "http://www.w3.org/Graphics/SVG/1.1/DTD/svg11.dtd">
<svg x="0px" y="0px" width="32" height="45.22766" overflow="hidden" viewBox="0, 0, 433.8305, 613.1605" preserveAspectRatio="xMidYMid" font-size="0" id="Ebene_1" xml:space="preserve" xmlns="http://www.w3.org/2000/svg" xmlns:xlink="http://www.w3.org/1999/xlink" xmlns:xml="http://www.w3.org/XML/1998/namespace" version="1.1">
  <defs id="defs9" xml:space="preserve">
    <linearGradient x1="0%" y1="0%" x2="100%" y2="0%" gradientUnits="objectBoundingBox" id="linearGradient3528" xml:space="preserve">
      <stop offset="0%" stop-color="#05FF00" stop-opacity="1" id="stop3530" xml:space="preserve" />
      <stop offset="100%" stop-color="#0D8D0B" stop-opacity="0.7927461" id="stop3532" xml:space="preserve" />
    </linearGradient>
    <radialGradient cx="356.6385" cy="420.3705" r="312.8807" fx="356.6385" fy="420.3705" gradientUnits="userSpaceOnUse" xlink:href="#linearGradient2070" gradientTransform="matrix(0.420135, 0, 0, 0.457467, 94.65933, 78.20887)" id="radialGradient2076" xml:space="preserve" />
    <linearGradient x1="0%" y1="0%" x2="100%" y2="0%" gradientUnits="objectBoundingBox" id="linearGradient2070" xml:space="preserve">
      <stop offset="0%" stop-color="#FF0000" stop-opacity="1" id="stop2072" xml:space="preserve" />
      <stop offset="100%" stop-color="#9A1A00" stop-opacity="1" id="stop2074" xml:space="preserve" />
    </linearGradient>
  </defs>
  <path d="M433.8278 274.6469 C433.8278 263.8145 425.2583 255.486 414.6911 255.486 L357.2728 255.486 L357.2728 184.5735 C391.1786 154.7757 433.8305 108.5915 433.8305 95.80959 C433.8305 84.97453 425.261 76.64874 414.6938 76.64874 L357.2755 76.64874 L357.2755 68.0364 C357.2755 58.68494 350.3288 51.09827 341.7781 51.09827 L329.4514 51.09827 C324.8533 51.09827 320.7427 48.64258 317.8424 44.7863 C297.6372 18.08966 260.1644 0 216.9153 0 C173.6661 0 136.196 18.08966 115.9854 44.78898 C113.0825 48.64526 108.9691 51.09828 104.371 51.09828 L92.04437 51.09828 C83.49897 51.09828 76.55235 58.68495 76.55235 68.03641 L76.55235 76.6434 L19.13941 76.6434 C8.56949 76.6454 0 84.97187 0 95.80692 C0 108.5835 42.6466 154.7757 76.55234 184.5708 L76.55234 255.4833 L19.13941 255.4833 C8.56949 255.486 0 263.8118 0 274.6469 C0 287.4234 42.6466 333.613 76.55234 363.4107 L76.55234 434.3232 L19.13941 434.3232 C8.56949 434.3253 0 442.6437 0 453.4868 C0 466.2634 42.6466 512.4583 76.55234 542.248 L76.55234 596.2465 C76.55234 605.5685 83.49628 613.1605 92.04436 613.1605 L341.754 613.1605 C350.3262 613.1605 357.2728 605.5578 357.2728 596.225 L357.2728 542.2479 C391.1785 512.4583 433.8305 466.266 433.8305 453.4868 C433.8305 442.6437 425.261 434.3259 414.6938 434.3259 L357.2755 434.3259 L357.2755 363.4133 C391.1759 333.6103 433.8278 287.4314 433.8278 274.6468 z M216.9153 562.0649 C181.6732 562.0649 153.1154 533.4776 153.1154 498.1927 C153.1154 462.9052 181.6732 434.3232 216.9153 434.3232 C252.1519 434.3232 280.7151 462.9052 280.7151 498.1927 C280.7131 533.4777 252.1492 562.0649 216.9153 562.0649 z M216.9153 383.2276 C181.6732 383.2276 153.1154 354.6323 153.1154 319.3582 C153.1154 284.0759 181.6732 255.486 216.9153 255.486 C252.1519 255.486 280.7151 284.0759 280.7151 319.3582 C280.7131 354.6323 252.1492 383.2277 216.9153 383.2277 z M216.9153 204.385 C181.6839 204.385 153.1154 175.7951 153.1154 140.5129 C153.1154 105.236 181.6732 76.64604 216.9153 76.64604 C252.1519 76.64604 280.7151 105.236 280.7151 140.5182 C280.7131 175.7951 252.1492 204.385 216.9153 204.385 z" stroke-width="2.677966" id="path2" xml:space="preserve" style="fill:#000000;" />
  <g transform="matrix(0.3946303, 0, 0, 0.3946303, 118.7467, 32.46923)" id="g1369" xml:space="preserve">
    <path d="M237.0851 413.3998 C228.2982 412.7256 218.5265 410.9087 215.629 409.4104 L214.3128 408.7298 L215.2321 407.7513 C215.7377 407.213 217.2931 406.1642 218.6884 405.4205 C222.3509 403.4684 222.8005 402.9045 222.8005 400.2622 C222.8005 399.0352 221.5719 390.7043 220.0703 381.7491 C216.6051 361.083 214.4725 346.0995 212.3193 327.2891 C207.5344 285.4893 206.9517 282.2803 202.6436 273.9995 C199.1859 267.3535 193.7979 262.9426 185.8356 260.2397 C177.4544 257.3947 166.2834 255.7736 151.3775 255.2392 C147.3337 255.0942 143.2215 254.7753 142.2393 254.5306 C140.3939 254.0709 138.8034 252.5886 137.4276 250.0463 C136.7424 248.7802 136.5998 248.7238 134.0824 248.7238 C132.6361 248.7238 128.9801 249.1296 125.958 249.6255 C120.6941 250.4892 120.3988 250.4966 118.9319 249.8005 C118.0129 249.3644 116.8121 248.206 115.9286 246.9032 C110.5176 238.9244 113.0917 226.1201 120.5359 223.9852 C121.941 223.5822 124.2563 224.1316 128.0601 225.7707 C129.9955 226.6046 131.2946 226.8592 133.6545 226.8669 C136.8963 226.8774 137.6632 226.6199 140.0339 224.7246 C143.4946 221.9581 151.093 220.4745 174.2749 218.0393 C192.5245 216.1222 191.0051 216.5375 214.1876 207.1289 C218.809 205.2533 223.0156 203.3191 223.5356 202.8306 C224.2709 202.1398 224.481 201.4769 224.481 199.8478 C224.481 197.8486 224.3705 197.646 222.0583 195.4045 C220.7258 194.1128 218.431 192.0293 216.9587 190.7745 C213.6546 187.9584 211.4206 184.4558 205.8024 173.7901 C200.1841 163.1244 201.2446 164.3697 191.3956 160.4397 C185.1863 157.962 183.3078 156.9994 183.3078 156.2953 C183.3078 155.1552 188.9726 153.353 198.3505 151.5097 C206.7919 149.8505 207.294 149.5894 214.1877 143.2738 C227.343 131.2219 237.2778 126.6745 248.7156 127.4698 C259.5499 128.223 270.3585 133.6661 280.359 142.4617 C290.3595 151.2574 290.2487 150.9428 299.3142 153.1117 C305.8098 154.6658 310.0313 156.0487 310.9694 156.9297 C311.4426 157.3741 311.2272 157.6488 309.709 158.5371 C308.7018 159.1264 305.5608 160.5944 302.7289 161.7993 C299.897 163.0041 296.8562 164.6094 295.9717 165.3665 C294.8616 166.3168 293.4998 168.4211 291.575 172.1608 C286.4503 182.1178 282.3507 186.9572 274.6896 192.0935 C268.5102 196.2363 267.7549 197.0651 267.7549 199.7031 C267.7549 201.6598 269.0746 203.0808 272.2063 204.4961 C279.8698 207.9595 298.3022 215.6012 300.7355 216.3236 C304.6719 217.4924 307.1002 217.8269 320.902 219.1011 C341.3127 220.9855 348.4001 222.1758 351.5719 224.2517 C353.7254 225.6612 356.6506 225.9189 360.6776 225.054 C367.6898 223.5479 369.573 223.7258 371.9677 226.1205 C375.9369 230.0897 377.0376 236.7953 374.8161 243.4722 C373.7552 246.6606 372.3683 248.4926 370.164 249.6171 C367.8706 250.7872 365.858 250.5329 360.0029 248.3336 C357.4984 247.3929 355.0495 246.627 354.5609 246.6317 C353.9639 246.6377 352.7082 247.8047 350.7316 250.1916 C347.2955 254.341 348.3412 254.0288 336.6571 254.3938 C322.183 254.8459 311.3009 256.0555 306.1642 257.7831 C300.2611 259.7686 296.0976 263.0308 294.1238 267.2173 C291.5751 272.6229 289.7536 283.424 287.9255 303.9717 C285.631 329.7612 282.5051 350.6738 276.341 381.4726 C274.6083 390.1302 273.0743 398.5891 272.9323 400.2701 L272.6739 403.3265 L274.5208 404.1076 C275.5367 404.5371 277.2627 405.2149 278.3565 405.6137 C279.4503 406.0125 280.7643 406.678 281.2764 407.0927 L282.2075 407.8466 L280.9142 408.5154 C277.8797 410.0846 267.1283 412.1942 259.5624 412.9622 C251.9964 413.7303 242.5025 413.8156 237.0852 413.3999 z" id="path1371" xml:space="preserve" connector-curvature="0" nodetypes="ccccssssssssssssssssssssssszssssszsssssssssssssssssssssssscccsccccc" style="fill:url(#radialGradient2076);" />
  </g>
</svg>