<?xml version="1.0" encoding="utf-8"?>
<!DOCTYPE svg PUBLIC "-//W3C//DTD SVG 1.1//EN" "http://www.w3.org/Graphics/SVG/1.1/DTD/svg11.dtd">
<svg x="0" y="0" width="32" height="32" overflow="hidden" viewBox="0, 0, 200, 200" preserveAspectRatio="xMidYMid" font-size="0" id="svg950" xml:space="default" xmlns="http://www.w3.org/2000/svg" xmlns:xlink="http://www.w3.org/1999/xlink" xmlns:xml="http://www.w3.org/XML/1998/namespace" version="1.1">
  <defs id="defs944" xml:space="default" />
  <g transform="translate(0, -97)" id="layer1" xml:space="default">
    <g transform="matrix(0.1357508, 0, 0, 0.06126005, 31.48516, 172.9844)" id="XMLID_2_" xml:space="preserve">
      <g id="g2815" xml:space="preserve">
        <path d="M1239 1257 C1237.99 1296.33 1234.51 1333.18 1231 1370 C1186 1370 1141 1370 1096 1370 C1099.95 1334.62 1103.41 1298.75 1103 1259 C1102.96 1257.29 1103.74 1256.41 1105 1256 C1149.48 1256.52 1196.12 1254.88 1239 1257 z" id="path2817" xml:space="preserve" connector-curvature="0" />
        <path d="M1236 1170 C753.97 1170 272.05 1170 -210 1170 C-210.07 1154.93 -207.05 1142.95 -206 1129 C-205.14 1128.19 -205.41 1126.26 -204 1126 C274.62 1127.73 752.27 1127.68 1231 1126 C1232.94 1140.39 1234.81 1154.85 1236 1170 z" id="path2819" xml:space="preserve" connector-curvature="0" />
        <path d="M1094 1388 C1139 1388 1184 1388 1229 1388 C1217.55 1460.21 1201.65 1527.98 1180 1590 C1138 1592.33 1100.327 1591.34 1056.657 1592 C1071.827 1528.17 1080.73 1457.06 1094 1388 z" id="path2821" xml:space="preserve" connector-curvature="0" nodetypes="ccccc" />
        <path d="M1218 1061.125 C1220.33 1075.727 1223.102 1089.623 1226 1105 C751.35 1104.33 273.96 1106.33 -199 1104 C-197.21 1088.45 -194.4 1073.93 -190 1061 C283 1063.26 742.34 1063.515 1218 1061.125 z" id="path2823" xml:space="preserve" connector-curvature="0" nodetypes="ccccc" />
        <path d="M1208 1018 C1140.67 1018 1073.33 1018 1006 1018 C1017.77 1008.85 1042.25 999.55 1057.5 991 C1105.694 990.6182 1127.668 990.5 1200 990 C1202.877 999.9184 1204.85 1007.47 1208 1018 z" id="path2825" xml:space="preserve" connector-curvature="0" nodetypes="ccccc" />
        <path d="M1212.283 1039.6 C1061.02 1039.356 -171.8717 1039.657 -183.0659 1039.6 C-182.6336 1037.106 -182.3824 1034.192 -181.476 1030.981 C-171.0508 1031 1205.267 1031.277 1210.424 1030.961 C1211.114 1033.538 1211.649 1035.282 1212.283 1037.351 L1212.283 1039.601 z" id="path2827" xml:space="preserve" connector-curvature="0" nodetypes="cccccc" />
        <path d="M1052.496 1622.646 C1095.435 1623 1128 1622 1172 1622 C1165.41 1642.98 1153.44 1666.22 1145 1688 C1100.293 1688 1080.86 1687.707 1035.092 1687.354 C1041.403 1660.759 1047.484 1645.375 1052.496 1622.646 z" id="path2829" xml:space="preserve" connector-curvature="0" nodetypes="ccccc" />
        <path d="M1134 -537 C1087.33 -537 1042.438 -537 995.7678 -537 C995.5778 -555.48 994.88 -575.21 992 -591 C1038.33 -591 1084.67 -591 1131 -591 C1132.63 -573.63 1132.25 -554.24 1134 -537 z" id="path2831" xml:space="preserve" connector-curvature="0" nodetypes="ccccc" />
        <path d="M994.2929 -519.3536 C1040.293 -519.3536 1087 -519 1133 -519 C1132.47 -503.53 1134.15 -485.85 1132 -472 C1085 -472.66 1035.34 -470.67 990 -473 C991.7493 -490.7255 993.1713 -502.4145 994.2929 -519.3536 z" id="path2833" xml:space="preserve" connector-curvature="0" nodetypes="ccccc" />
        <path d="M988 -443 C1035.33 -443 1082.67 -443 1130 -443 C1128.48 -423.85 1126.03 -405.63 1124 -387 C1074.33 -387 1024.67 -387 975 -387 C979.6271 -406.08 984.9249 -423.7822 988 -443 z" id="path2835" xml:space="preserve" connector-curvature="0" nodetypes="ccccc" />
        <path d="M1128 -621 C1082 -621 1036 -621 990 -621 C988.87 -632.92 984.02 -646.05 983 -661 C1030 -661 1077 -661 1124 -661 C1125.41 -647.74 1126.48 -634.15 1128 -621 z" id="path2837" xml:space="preserve" connector-curvature="0" />
        <path d="M1118 -692 C1070.67 -692 1023.33 -692 976 -692 C962.14 -748.14 940.65 -796.65 917 -843 C968 -843 1019 -843 1070 -843 C1091.84 -798.5 1106.65 -746.99 1118 -692 z" id="path2839" xml:space="preserve" connector-curvature="0" />
        <path d="M965 -345 C1016 -345 1067 -345 1118 -345 C1113.98 -325.69 1111.45 -304.88 1107 -286 C1053 -286 999 -286 945 -286 C951.34 -305.99 957.8307 -323.0109 965 -345 z" id="path2841" xml:space="preserve" connector-curvature="0" nodetypes="ccccc" />
        <path d="M936 -258 C991 -258 1046 -258 1101 -258 C1092.056 -221.1393 1083.16 -189.18 1072 -157 C1012.67 -157 953.33 -157 894 -157 C905.7 -188.98 921.84 -225.15 936 -258 z" id="path2843" xml:space="preserve" connector-curvature="0" nodetypes="ccccc" />
        <path d="M1098 1255 C1035.111 1317.571 1012.427 1335.673 962.4142 1369.707 C659.9226 1368.648 369.5152 1369.78 61.51471 1369.354 C11.16846 1342.606 -34.5165 1297.817 -75 1255 C308.8471 1254.516 735.645 1257.217 1098 1255 z" id="path2845" xml:space="preserve" connector-curvature="0" nodetypes="ccccc" />
        <path d="M1137.172 1711.328 C1102.262 1772.088 1081.38 1807.21 1046 1854 C1016.33 1854 1002.57 1854.414 972.8995 1854.414 C992.1495 1804.004 1011.172 1762.528 1028.642 1710.328 C1069.852 1710.448 1097.382 1709.788 1137.172 1711.328 z" id="path2847" xml:space="preserve" connector-curvature="0" nodetypes="ccccc" />
        <path d="M1075 141 C700.34 141 325.65 141 -49 141 C-47.09 125.58 -47.87 107.46 -41 97 C328.87 99.05 698.1 99 1068 97 C1073.08 108.92 1072.6 126.4 1075 141 z" id="path2849" xml:space="preserve" connector-curvature="0" />
        <path d="M-48 172 C326.34 172 700.65 172 1075 172 C1071.88 187.54 1074.05 208.38 1068 221 C697.99 221 328.01 221 -42 221 C-47.08 208.41 -48.23 186.57 -48 172 z" id="path2851" xml:space="preserve" connector-curvature="0" />
        <path d="M880 -129 C941.33 -129 1002.67 -129 1064 -129 C1062.62 -121.71 1059.93 -115.74 1058 -109 C995 -109 932 -109 869 -109 C872.38 -115.95 875.17 -123.49 880 -129 z" id="path2853" xml:space="preserve" connector-curvature="0" />
        <path d="M1055 -874 C1003 -874 951 -874 899 -874 C890.39 -891.73 877.63 -905.3 868 -922 C921 -922 974 -922 1027 -922 C1037.96 -907.63 1047.1 -891.43 1055 -874 z" id="path2855" xml:space="preserve" connector-curvature="0" />
        <path d="M-28 -100 C332.99 -100 694.02 -100 1055 -100 C1053.18 -92.16 1049.6 -86.07 1048 -78 C698.27 -75.67 334.27 -77.66 -21 -77 C-24.23 -82.77 -25.68 -90.32 -28 -97 C-28.69 -97.81 -29.56 -99.74 -28 -100 z" id="path2857" xml:space="preserve" connector-curvature="0" />
        <path d="M-25 268 C334.01 268 693 268 1052 268 C1031.591 317.4484 995.5525 357.2435 966 401 C664.34 401 359.8315 401 58.17157 401 C33.59661 371.8973 -4.712202 309.8532 -25 271 C-25.69 270.19 -26.56 268.26 -25 268 z" id="path2859" xml:space="preserve" connector-curvature="0" nodetypes="cccccc" />
        <path d="M1036 21 C1046.1 31.57 1053.49 50.17 1057 64 C693.06 62.15 331.94 62.17 -32 64 C-26.46 48.21 -20.22 33.12 -11 21 C338 21 687.01 21 1036 21 z" id="path2861" xml:space="preserve" connector-curvature="0" />
        <path d="M-9 -51 C339 -51 687.01 -51 1035 -51 C1030.71 -35.96 1025.8 -21.53 1019 -9 C681.99 -9 345.01 -9 8 -9 C-0.61 -19.06 -3.49 -34.84 -9 -48 C-9.69 -48.81 -10.56 -50.74 -9 -51 z" id="path2863" xml:space="preserve" connector-curvature="0" />
        <path d="M965.3137 1878.172 C990.3137 1878.172 1006.672 1878.672 1031.672 1878.672 C1011.774 1902.184 1006.018 1909.732 989 1927 C969.33 1927 960.5842 1927 940.9142 1927 C953.28 1903.78 958.8208 1892.936 965.3137 1878.172 z" id="path2865" xml:space="preserve" connector-curvature="0" nodetypes="ccccc" />
        <path d="M1009 -948 C970.41 -948 931.55 -948 891 -948 C879.49 -948 861.49 -945.12 852 -948 C845.16 -950.07 834.23 -968.46 829 -975 C819.09 -987.38 811.5 -994.71 805 -1006 C838.64 -1006 886.3 -1006 925 -1006 C936.87 -1006 955.34 -1008.74 964 -1006 C970.67 -1003.89 983.58 -983.82 988 -978 C995.72 -967.83 1002.85 -958.65 1009 -948 z" id="path2867" xml:space="preserve" connector-curvature="0" />
        <path d="M974 990 C974 999.33 974 1008.67 974 1018 C667.34 1018 360.66 1018 54 1018 C54 1009.67 54 1001.33 54 993 C53.91 991.58 53.83 990.17 55 990 C361.34 990 667.66 990 974 990 z" id="path2869" xml:space="preserve" connector-curvature="0" />
        <path d="M973 786 C973 809.33 973 832.67 973 856 C666.01 856 358.99 856 52 856 C52 833.67 52 811.33 52 789 C51.91 787.58 51.83 786.17 53 786 C360.1 787.56 663.93 788.23 973 786 z" id="path2871" xml:space="preserve" connector-curvature="0" />
        <path d="M968.4645 670 C968.4645 690.33 968.4645 711.3771 968.4645 731.7071 C662.4545 731.7071 360.01 731 54 731 C54 711.33 54 691.67 54 672 C53.91 670.58 53.83 669.17 55 669 C361.13 671.12 666.9845 669.19 968.4645 670 z" id="path2873" xml:space="preserve" connector-curvature="0" nodetypes="cccccc" />
        <path d="M966.4645 540 C966.4645 570.67 966.4645 602.7442 966.4645 633.4142 C661.7944 633.4142 362.9781 632 58.2981 632 C58.1526 581.6219 58.12922 572.1752 58.23743 540 C363.8574 542.02 659.0645 542.79 966.4645 540 z" id="path2875" xml:space="preserve" connector-curvature="0" nodetypes="ccccc" />
        <path d="M929 1953.5 C944.33 1953.5 953.67 1954 969 1954 C948.99 1969.99 929.74 1986.74 906 1999 C914.08 1984.36 920.73 1970.48 929 1953.5 z" id="path2877" xml:space="preserve" connector-curvature="0" nodetypes="cccc" />
        <path d="M966.8787 426 C966.7329 468.545 967.9729 488.4342 967 516 C664.34 516 360.4225 515.8232 57.76257 515.8232 C57.30574 481.8522 57.40993 451.6744 57.2929 425 C360.6229 425.67 665.2187 423.67 966.8787 426 z" id="path2879" xml:space="preserve" connector-curvature="0" nodetypes="ccccc" />
        <path d="M941 1386 C926.4223 1400.946 851.3858 1431.271 831 1439 C792.97 1452.41 759.72 1463.28 715 1473 C669.33 1482.92 616.69 1490 563 1490 C490.68 1490 414.3387 1494.818 349 1482 C334.95 1479.92 320.51 1475.27 306 1472 C241.64 1457.5 182.66 1437.47 129 1412 C112.43 1404.14 98.51 1394.72 83 1387 C370.86 1385.17 651.49 1387.19 941 1386 z" id="path2881" xml:space="preserve" connector-curvature="0" nodetypes="cccsccccc" />
        <path d="M902 -1063 C864.67 -1063 830.07 -1063 792 -1063 C780.12 -1063 766.11 -1060.56 756 -1063 C747.39 -1065.08 732.84 -1084.03 725 -1092 C712.99 -1104.2 703.52 -1115.45 692 -1124 C707.23 -1125.79 733.92 -1125 756 -1125 C777.73 -1125 801.65 -1128.75 819 -1125 C825.97 -1123.49 834.1 -1115.96 842 -1111 C864.67 -1096.77 886.07 -1079.62 902 -1063 z" id="path2883" xml:space="preserve" connector-curvature="0" />
        <path d="M843 -345 C852.38 -328.95 857.56 -308.68 854 -286 C629.33 -284.33 398.2453 -284.9053 173.5753 -286.5753 C168.9563 -305.4253 178.6016 -331.3763 187.328 -345.7258 C402.668 -345.8858 623.62 -342.97 843 -345 z" id="path2885" xml:space="preserve" connector-curvature="0" nodetypes="ccccc" />
        <path d="M853 -109 C626.66 -109 400.34 -109 174 -109 C182.6438 -117.9724 190.8888 -120.9654 200 -128.3779 C376.92 -130.2079 644.4196 -129.2094 825.1195 -129.2094 C831.7015 -123.5221 839.157 -120.229 853 -109 z" id="path2887" xml:space="preserve" connector-curvature="0" nodetypes="ccccc" />
        <path d="M846 -259 C846.37 -252.24 834.6672 -230.1234 827.3709 -218.3171 C814.4445 -199.1376 820.3669 -206.2991 806.1775 -186.6022 C798.0475 -176.5764 787.5027 -164.4836 780 -157 C602 -157 419.3978 -155.8495 241.3978 -155.8495 C229.2275 -168.9559 222.4806 -181.1803 217.2632 -187.8604 C205.4512 -205.1964 209.4633 -199.2635 196.2473 -221.0807 C190.7463 -233.2583 188.1737 -235.8605 179.7258 -258.4247 C402.3958 -258.4247 623.33 -259 846 -259 z" id="path2889" xml:space="preserve" connector-curvature="0" nodetypes="ccccccccc" />
        <path d="M815 -386 C614 -386 413 -386 212 -386 C222.7815 -410.0876 270.8587 -436.9269 295 -443 C306.48 -447.02 333.9253 -446.3011 352.5753 -446.3011 C458.7153 -446.3011 568.26 -446.8764 676 -446.8764 C694.43 -446.8764 714.09 -446.44 729 -444 C739.24 -442.33 751.4911 -436.9664 760.3011 -431.8764 C781.9011 -419.3864 803.8 -403.53 815 -386 z" id="path2891" xml:space="preserve" connector-curvature="0" nodetypes="cccssccc" />
        <path d="M593 -1218 C656.75 -1204.75 708.45 -1179.45 762 -1156 C729.37 -1154.3 695.4 -1153.94 661 -1154 C639.69 -1175.36 616.9 -1195.23 594 -1215 C591.92 -1215.56 591.88 -1216.56 593 -1218 z" id="path2893" xml:space="preserve" connector-curvature="0" />
        <path d="M431 -1218 C431.67 -1218 432.33 -1218 433 -1218 C423.48 -1205.2 409.61 -1196.71 398 -1186 C386.59 -1175.47 375.93 -1164.03 364 -1154 C330.27 -1152.6 296.97 -1156.96 265 -1154 C268.48 -1159.1 275.36 -1161.44 281 -1164 C323.21 -1183.13 374.57 -1205.93 424 -1217 C426.27 -1217.51 429.03 -1216.1 431 -1218 z" id="path2895" xml:space="preserve" connector-curvature="0" />
        <path d="M203 -1123 C242.36 -1127.64 290.31 -1123.69 333 -1125 C312.74 -1104.26 292.11 -1083.89 272 -1063 C223 -1063 174 -1063 125 -1063 C123.6 -1066.47 128.58 -1068.92 131 -1071 C151.86 -1088.96 178.07 -1108.54 203 -1123 z" id="path2897" xml:space="preserve" connector-curvature="0" />
        <path d="M61 -1006 C114.33 -1006 167.67 -1006 221 -1006 C206.62 -985.72 190.82 -966.85 175 -948 C122.67 -948 70.33 -948 18 -948 C16.21 -953.11 22.93 -956.96 26 -961 C35.94 -974.09 47.27 -990.13 58 -1003 C58.56 -1004.44 59.56 -1005.44 61 -1006 z" id="path2899" xml:space="preserve" connector-curvature="0" />
        <path d="M-2 -922 C51.33 -922 104.67 -922 158 -922 C148.3 -905.36 135.22 -892.12 127 -874 C74.67 -874 22.33 -874 -30 -874 C-21.15 -890.48 -12.17 -906.83 -2 -922 z" id="path2901" xml:space="preserve" connector-curvature="0" />
        <path d="M156 -109 C93.33 -109 30.67 -109 -32 -109 C-33.39 -115.29 -38.91 -122.74 -37 -129 C24 -129 85 -129 146 -129 C149.97 -122.97 154 -117 156 -109 z" id="path2903" xml:space="preserve" connector-curvature="0" />
        <path d="M132 -157 C72.67 -157 13.33 -157 -46 -157 C-56.59 -188.75 -69.52 -223.48 -74 -258 C-19 -258 36 -258 91 -258 C103.06 -223.38 120.61 -188.95 132 -157 z" id="path2905" xml:space="preserve" connector-curvature="0" />
        <path d="M100 1954 C104.97 1970.03 114.26 1983.74 120 1999 C97.47 1985.37 80.54 1968.62 59.5 1954 C72.5 1954.17 85.33 1954.66 100 1954 z" id="path2907" xml:space="preserve" connector-curvature="0" nodetypes="cccc" />
        <path d="M-44 -843 C7 -843 58 -843 109 -843 C85.07 -796.93 63.61 -748.39 50 -692 C2.669998 -692 -44.67 -692 -92 -692 C-81.02 -747.35 -66.04 -798.71 -44 -843 z" id="path2909" xml:space="preserve" connector-curvature="0" />
        <path d="M71.5 1879.5 C76.47 1895.53 85.73 1913.27 91 1929 C69.98 1928.95 55.19 1928.85 38 1929 C30.12 1922.05 5.98 1888.25 -2 1880 C23.67 1880 45.83 1879.5 71.5 1879.5 z" id="path2911" xml:space="preserve" connector-curvature="0" nodetypes="ccccc" />
        <path d="M81 -286 C26.67 -286 -27.67 -286 -82 -286 C-83.73 -306.27 -90.94 -326.39 -91 -345 C-40 -345 11 -345 62 -345 C68.07 -325.07 75.08 -306.08 81 -286 z" id="path2913" xml:space="preserve" connector-curvature="0" />
        <path d="M65 1855 C36.45564 1856.073 14.15304 1855.467 -19 1854 C-52.74926 1811.571 -84.4569 1758.552 -110 1710.5 C-70.67 1710.67 -28 1711.17 13 1710.5 C30.2 1757.97 47.51 1808.82 65 1855 z" id="path2915" xml:space="preserve" connector-curvature="0" nodetypes="ccccc" />
        <path d="M51 -387 C1.330002 -387 -48.33 -387 -98 -387 C-100.05 -404.61 -103.85 -425.81 -103 -443 C-55.67 -443 -8.330002 -443 39 -443 C42.63 -423.97 47.03 -405.7 51 -387 z" id="path2917" xml:space="preserve" connector-curvature="0" />
        <path d="M-97 -661 C-50.33 -661 -3.669998 -661 43 -661 C41.68 -646.36 36.95 -633.1 36 -621 C-10 -621 -56 -621 -102 -621 C-99.97 -633.97 -101.15 -650.15 -97 -661 z" id="path2919" xml:space="preserve" connector-curvature="0" />
        <path d="M32 -519 C33.14 -503.47 34.87 -488.54 35 -472 C-12 -472.66 -61.66 -470.67 -107 -473 C-105.98 -488.69 -108.58 -506.08 -107 -519 C-60.67 -519 -14.33 -519 32 -519 z" id="path2921" xml:space="preserve" connector-curvature="0" />
        <path d="M-105 -591 C-58.67 -591 -12.33 -591 34 -591 C30.97 -575.36 32.27 -555.4 32 -537 C-14.67 -537 -61.33 -537 -108 -537 C-107.33 -555.33 -107.04 -574.04 -105 -591 z" id="path2923" xml:space="preserve" connector-curvature="0" />
        <path d="M22 1018 C-45.33 1018 -111.6093 1017.823 -178.9393 1017.823 C-176.1365 1007.003 -174.49 1001.34 -171 990 C-115.8256 990.3757 -75.94488 990.6516 -29 990 C-4.040001 1001.56 7.150002 1011.65 22 1018 z" id="path2925" xml:space="preserve" connector-curvature="0" nodetypes="ccccc" />
        <path d="M8 1687.5 C-36 1687.5 -76 1687 -120 1687 C-126.45 1665.62 -137.06 1645.39 -143 1624 C-99 1624 -55 1623 -11 1623 C-4.48 1643.82 2.75 1665.42 8 1687.5 z" id="path2927" xml:space="preserve" connector-curvature="0" nodetypes="ccccc" />
        <path d="M-22 1591 C-66 1591 -110 1591 -154 1591 C-174.75 1528.75 -193.56 1459.23 -202 1388 C-157 1388 -112 1388 -67 1388 C-55.87 1459.54 -37.65 1523.98 -22 1591 z" id="path2929" xml:space="preserve" connector-curvature="0" />
        <path d="M-70 1370 C-115 1370 -160 1370 -205 1370 C-209.52 1334.19 -211.59 1295.92 -213 1257 C-169.79 1254.87 -122.82 1256.52 -78 1256 C-75.78 1294.45 -75.83 1335.16 -70 1370 z" id="path2931" xml:space="preserve" connector-curvature="0" />
      </g>
      <g id="g2933" xml:space="preserve" />
    </g>
  </g>
</svg>