<?xml version="1.0" encoding="utf-8"?>
<!DOCTYPE svg PUBLIC "-//W3C//DTD SVG 1.1//EN" "http://www.w3.org/Graphics/SVG/1.1/DTD/svg11.dtd">
<svg x="0px" y="0px" width="32" height="32" overflow="hidden" viewBox="0, 0, 512.001, 512.001" preserveAspectRatio="xMidYMid" font-size="0" id="Layer_1" xml:space="preserve" xmlns="http://www.w3.org/2000/svg" xmlns:xlink="http://www.w3.org/1999/xlink" xmlns:xml="http://www.w3.org/XML/1998/namespace" version="1.1">
  <path d="M477.259 49.728 C477.259 26.848 458.539 8.126999 435.657 8.126999 L76.34 8.126999 C53.46 8.126999 34.74 26.847 34.74 49.728 L34.74 462.272 C34.74 485.152 53.46 503.872 76.34 503.872 L435.659 503.872 C458.539 503.872 477.26 485.152 477.26 462.271 L477.26 49.728 L477.259 49.728 z" xml:space="preserve" style="fill:#5C6670;" />
  <path d="M435.659 8.127 L76.34 8.127 C53.46 8.127 34.74 26.847 34.74 49.728 L34.74 173.164 L477.26 173.164 L477.26 49.728 C477.259 26.847 458.539 8.127 435.659 8.127 z" xml:space="preserve" style="fill:#333E48;" />
  <path d="M412.165 62.515 C412.165 55.65 406.549 50.034 399.683 50.034 L112.315 50.034 C105.449 50.034 99.833 55.65 99.833 62.515 L99.833 118.774 C99.833 125.639 105.449 131.255 112.315 131.255 L399.683 131.255 C406.549 131.255 412.165 125.639 412.165 118.774 L412.165 62.515 z" xml:space="preserve" style="fill:#0082CA;" />
  <g xml:space="preserve">
    <path d="M376.279 117.321 C371.791 117.321 368.152 113.683 368.152 109.194 L368.152 72.097 C368.152 67.608 371.791 63.97 376.279 63.97 C380.767 63.97 384.406 67.608 384.406 72.097 L384.406 109.193 C384.406 113.682 380.767 117.321 376.279 117.321 z" xml:space="preserve" style="fill:#FFFFFF;" />
    <path d="M341.604 117.321 C337.116 117.321 333.477 113.683 333.477 109.194 L333.477 72.097 C333.477 67.608 337.116 63.97 341.604 63.97 C346.092 63.97 349.731 67.608 349.731 72.097 L349.731 109.193 C349.731 113.682 346.092 117.321 341.604 117.321 z" xml:space="preserve" style="fill:#FFFFFF;" />
    <path d="M306.929 117.321 C302.441 117.321 298.802 113.683 298.802 109.194 L298.802 72.097 C298.802 67.608 302.441 63.97 306.929 63.97 C311.417 63.97 315.056 67.608 315.056 72.097 L315.056 109.193 C315.056 113.682 311.417 117.321 306.929 117.321 z" xml:space="preserve" style="fill:#FFFFFF;" />
  </g>
  <path d="M331.829 317.791 C331.829 310.165 338.069 303.924 345.696 303.924 L415.635 303.924 C423.262 303.924 429.502 310.164 429.502 317.791 L429.502 446.776 C429.502 454.403 423.262 460.643 415.635 460.643 L345.696 460.643 C338.069 460.643 331.829 454.404 331.829 446.776 L331.829 317.791 z" xml:space="preserve" style="fill:#D49000;" />
  <g xml:space="preserve">
    <path d="M331.829 222.099 C331.829 214.473 338.069 208.232 345.696 208.232 L415.635 208.232 C423.262 208.232 429.502 214.472 429.502 222.099 L429.502 255.391 C429.502 263.017 423.262 269.258 415.635 269.258 L345.696 269.258 C338.069 269.258 331.829 263.018 331.829 255.391 L331.829 222.099 z" xml:space="preserve" style="fill:#333E48;" />
    <path d="M207.163 222.099 C207.163 214.473 213.403 208.232 221.03 208.232 L290.97 208.232 C298.597 208.232 304.837 214.472 304.837 222.099 L304.837 255.391 C304.837 263.017 298.597 269.258 290.97 269.258 L221.03 269.258 C213.404 269.258 207.163 263.018 207.163 255.391 L207.163 222.099 z" xml:space="preserve" style="fill:#333E48;" />
    <path d="M82.496 222.099 C82.496 214.473 88.736 208.232 96.363 208.232 L166.303 208.232 C173.929 208.232 180.17 214.472 180.17 222.099 L180.17 255.391 C180.17 263.017 173.93 269.258 166.303 269.258 L96.36301 269.258 C88.73601 269.258 82.49601 263.018 82.49601 255.391 L82.49601 222.099 z" xml:space="preserve" style="fill:#333E48;" />
    <path d="M207.163 317.791 C207.163 310.165 213.403 303.924 221.03 303.924 L290.97 303.924 C298.597 303.924 304.837 310.164 304.837 317.791 L304.837 351.083 C304.837 358.709 298.597 364.95 290.97 364.95 L221.03 364.95 C213.404 364.95 207.163 358.71 207.163 351.083 L207.163 317.791 z" xml:space="preserve" style="fill:#333E48;" />
    <path d="M82.496 317.791 C82.496 310.165 88.736 303.924 96.363 303.924 L166.303 303.924 C173.929 303.924 180.17 310.164 180.17 317.791 L180.17 351.083 C180.17 358.709 173.93 364.95 166.303 364.95 L96.36301 364.95 C88.73601 364.95 82.49601 358.71 82.49601 351.083 L82.49601 317.791 z" xml:space="preserve" style="fill:#333E48;" />
    <path d="M207.163 413.485 C207.163 405.859 213.403 399.618 221.03 399.618 L290.97 399.618 C298.597 399.618 304.837 405.858 304.837 413.485 L304.837 446.777 C304.837 454.403 298.597 460.644 290.97 460.644 L221.03 460.644 C213.404 460.644 207.163 454.404 207.163 446.777 L207.163 413.485 z" xml:space="preserve" style="fill:#333E48;" />
    <path d="M82.496 413.485 C82.496 405.859 88.736 399.618 96.363 399.618 L166.303 399.618 C173.929 399.618 180.17 405.858 180.17 413.485 L180.17 446.777 C180.17 454.403 173.93 460.644 166.303 460.644 L96.36301 460.644 C88.73601 460.644 82.49601 454.404 82.49601 446.777 L82.49601 413.485 z" xml:space="preserve" style="fill:#333E48;" />
  </g>
  <path d="M435.659 0 L76.34 0 C48.92 0 26.613 22.308 26.613 49.728 L26.613 462.272 C26.613 489.692 48.921 512 76.341 512 L435.66 512 C463.08 512 485.388 489.692 485.388 462.272 L485.388 49.728 C485.386 22.308 463.079 0 435.659 0 z M469.132 462.272 C469.132 480.729 454.115 495.746 435.657 495.746 L76.34 495.746 C57.882 495.746 42.865 480.729 42.865 462.272 L42.865 181.292 L469.132 181.292 L469.132 462.272 z M469.132 165.037 L42.867 165.037 L42.867 49.728 C42.867 31.27 57.882 16.253 76.34 16.253 L435.659 16.253 C454.117 16.253 469.133 31.269 469.133 49.728 L469.133 165.037 L469.132 165.037 z M345.696 468.77 L415.635 468.77 C427.763 468.77 437.629 458.904 437.629 446.776 L437.629 317.791 C437.629 305.664 427.763 295.797 415.635 295.797 L345.696 295.797 C333.568 295.797 323.702 305.663 323.702 317.791 L323.702 446.776 C323.702 458.904 333.569 468.77 345.696 468.77 z M339.956 317.791 C339.956 314.626 342.531 312.051 345.696 312.051 L415.635 312.051 C418.8 312.051 421.375 314.626 421.375 317.791 L421.375 446.776 C421.375 449.941 418.8 452.516 415.635 452.516 L345.696 452.516 C342.531 452.516 339.956 449.941 339.956 446.776 L339.956 317.791 z M345.696 277.384 L415.635 277.384 C427.763 277.384 437.629 267.518 437.629 255.39 L437.629 222.098 C437.629 209.971 427.763 200.104 415.635 200.104 L345.696 200.104 C333.568 200.104 323.702 209.97 323.702 222.098 L323.702 255.39 C323.702 267.518 333.569 277.384 345.696 277.384 z M339.956 222.099 C339.956 218.934 342.531 216.359 345.696 216.359 L415.635 216.359 C418.8 216.359 421.375 218.934 421.375 222.099 L421.375 255.391 C421.375 258.556 418.8 261.131 415.635 261.131 L345.696 261.131 C342.531 261.131 339.956 258.556 339.956 255.391 L339.956 222.099 z M96.363 277.384 L166.303 277.384 C178.431 277.384 188.297 267.518 188.297 255.39 L188.297 222.098 C188.297 209.971 178.431 200.104 166.303 200.104 L96.36301 200.104 C84.23501 200.104 74.369 209.97 74.369 222.098 L74.369 255.39 C74.369 267.518 84.235 277.384 96.363 277.384 z M90.623 222.099 C90.623 218.934 93.199 216.359 96.363 216.359 L166.303 216.359 C169.468 216.359 172.043 218.934 172.043 222.099 L172.043 255.391 C172.043 258.556 169.468 261.131 166.303 261.131 L96.36301 261.131 C93.19801 261.131 90.62301 258.556 90.62301 255.391 L90.62301 222.099 z M221.03 277.384 L290.97 277.384 C303.098 277.384 312.964 267.518 312.964 255.39 L312.964 222.098 C312.964 209.971 303.098 200.104 290.97 200.104 L221.03 200.104 C208.902 200.104 199.036 209.97 199.036 222.098 L199.036 255.39 C199.036 267.518 208.902 277.384 221.03 277.384 z M215.29 222.099 C215.29 218.934 217.865 216.359 221.03 216.359 L290.97 216.359 C294.135 216.359 296.71 218.934 296.71 222.099 L296.71 255.391 C296.71 258.556 294.135 261.131 290.97 261.131 L221.03 261.131 C217.865 261.131 215.29 258.556 215.29 255.391 L215.29 222.099 z M96.363 373.077 L166.303 373.077 C178.431 373.077 188.297 363.211 188.297 351.083 L188.297 317.791 C188.297 305.664 178.431 295.797 166.303 295.797 L96.36301 295.797 C84.23501 295.797 74.369 305.663 74.369 317.791 L74.369 351.083 C74.369 363.211 84.235 373.077 96.363 373.077 z M90.623 317.791 C90.623 314.626 93.199 312.051 96.363 312.051 L166.303 312.051 C169.468 312.051 172.043 314.626 172.043 317.791 L172.043 351.083 C172.043 354.248 169.468 356.823 166.303 356.823 L96.36301 356.823 C93.19801 356.823 90.62301 354.248 90.62301 351.083 L90.62301 317.791 z M221.03 373.077 L290.97 373.077 C303.098 373.077 312.964 363.211 312.964 351.083 L312.964 317.791 C312.964 305.664 303.098 295.797 290.97 295.797 L221.03 295.797 C208.902 295.797 199.036 305.663 199.036 317.791 L199.036 351.083 C199.036 363.211 208.902 373.077 221.03 373.077 z M215.29 317.791 C215.29 314.626 217.865 312.051 221.03 312.051 L290.97 312.051 C294.135 312.051 296.71 314.626 296.71 317.791 L296.71 351.083 C296.71 354.248 294.135 356.823 290.97 356.823 L221.03 356.823 C217.865 356.823 215.29 354.248 215.29 351.083 L215.29 317.791 z M221.03 468.77 L290.97 468.77 C303.098 468.77 312.964 458.904 312.964 446.776 L312.964 413.484 C312.964 401.357 303.098 391.49 290.97 391.49 L221.03 391.49 C208.902 391.49 199.036 401.356 199.036 413.484 L199.036 446.776 C199.036 458.904 208.902 468.77 221.03 468.77 z M215.29 413.485 C215.29 410.32 217.865 407.745 221.03 407.745 L290.97 407.745 C294.135 407.745 296.71 410.32 296.71 413.485 L296.71 446.777 C296.71 449.942 294.135 452.517 290.97 452.517 L221.03 452.517 C217.865 452.517 215.29 449.942 215.29 446.777 L215.29 413.485 z M96.363 468.77 L166.303 468.77 C178.431 468.77 188.297 458.904 188.297 446.776 L188.297 413.484 C188.297 401.357 178.431 391.49 166.303 391.49 L96.36301 391.49 C84.23501 391.49 74.369 401.356 74.369 413.484 L74.369 446.776 C74.369 458.904 84.235 468.77 96.363 468.77 z M90.623 413.485 C90.623 410.32 93.199 407.745 96.363 407.745 L166.303 407.745 C169.468 407.745 172.043 410.32 172.043 413.485 L172.043 446.777 C172.043 449.942 169.468 452.517 166.303 452.517 L96.36301 452.517 C93.19801 452.517 90.62301 449.942 90.62301 446.777 L90.62301 413.485 z" xml:space="preserve" style="fill:#1E252B;" />
  <g xml:space="preserve" />
  <g xml:space="preserve" />
  <g xml:space="preserve" />
  <g xml:space="preserve" />
  <g xml:space="preserve" />
  <g xml:space="preserve" />
  <g xml:space="preserve" />
  <g xml:space="preserve" />
  <g xml:space="preserve" />
  <g xml:space="preserve" />
  <g xml:space="preserve" />
  <g xml:space="preserve" />
  <g xml:space="preserve" />
  <g xml:space="preserve" />
  <g xml:space="preserve" />
</svg>