<?xml version="1.0" encoding="utf-8"?>
<!DOCTYPE svg PUBLIC "-//W3C//DTD SVG 1.1//EN" "http://www.w3.org/Graphics/SVG/1.1/DTD/svg11.dtd">
<svg xmlns:xml="http://www.w3.org/XML/1998/namespace" x="0" y="0" width="32" height="32" overflow="hidden" viewBox="0, 0, 1024, 1024" preserveAspectRatio="xMidYMid" font-size="0" id="svg" xml:space="preserve"  xmlns="http://www.w3.org/2000/svg" version="1.1">
  <g xml:space="preserve">
    <path d="M934.314 249.037 L934.314 849.765 C934.314 896.375 896.496 934.165 849.851 934.165 L174.148 934.165 C127.503 934.165 89.685 896.3751 89.685 849.765 L89.685 247.835 L934.314 249.037 z" xml:space="preserve" style="fill:#B3B3B3;" />
    <g xml:space="preserve">
      <path d="M904.314 249.037 C904.314 274.205 904.314 299.374 904.314 324.542 C904.314 382.584 904.314 440.626 904.314 498.669 C904.314 563.391 904.314 628.113 904.314 692.835 C904.314 738.042 904.314 783.249 904.314 828.4561 C904.314 839.178 904.9041 850.2131 903.588 860.876 C903.945 858.218 904.303 855.5601 904.659 852.9 C903.595 860.513 901.586 867.855 898.617 874.946 C899.625 872.5571 900.633 870.1691 901.641 867.78 C899.693 872.233 897.42 876.484 894.8 880.579 C894.092 881.6851 893.333 882.759 892.574 883.83 C889.479 888.203 897.428 877.75 894.071 881.92 C892.427 883.962 890.644 885.887 888.821 887.7661 C886.996 889.647 885.043 891.399 883.053 893.1011 C881.364 894.5471 877.087 897.6411 885.011 891.6641 C883.962 892.4551 882.878 893.196 881.794 893.9371 C877.429 896.9211 872.728 899.3841 867.889 901.498 C870.278 900.4901 872.666 899.481 875.055 898.4741 C867.958 901.441 860.612 903.4481 852.993 904.5121 C855.651 904.1551 858.309 903.7971 860.968 903.4411 C852.1199 904.5301 843.0729 904.1661 834.171 904.1661 C818.2289 904.1661 802.287 904.1661 786.345 904.1661 C732.555 904.1661 678.765 904.1661 624.975 904.1661 C559.26 904.1661 493.545 904.1661 427.83 904.1661 C370.929 904.1661 314.028 904.1661 257.128 904.1661 C229.78 904.1661 202.433 904.1661 175.086 904.1661 C171.05 904.1661 167.034 903.9351 163.026 903.4411 C165.684 903.7971 168.343 904.1551 171.001 904.5121 C163.383 903.4481 156.036 901.4411 148.939 898.4741 C151.328 899.4821 153.717 900.4911 156.106 901.498 C151.65 899.5521 147.395 897.2811 143.298 894.663 C142.191 893.955 141.117 893.196 140.044 892.438 C135.669 889.3461 146.125 897.2921 141.951 893.9371 C139.908 892.295 137.982 890.5141 136.101 888.6911 C134.219 886.8681 132.467 884.9171 130.762 882.9281 C129.316 881.2401 126.213 876.9661 132.197 884.8891 C131.405 883.8411 130.663 882.7571 129.922 881.6741 C126.937 877.313 124.471 872.6151 122.356 867.7791 C123.364 870.168 124.373 872.556 125.38 874.9451 C122.411 867.8541 120.403 860.5121 119.338 852.899 C119.695 855.558 120.052 858.2161 120.41 860.8751 C119.248 851.4521 119.684 841.7711 119.684 832.2931 C119.684 814.7611 119.684 797.2301 119.684 779.6971 C119.684 722.4471 119.684 665.1971 119.684 607.9471 C119.684 542.9151 119.684 477.8821 119.684 412.8491 C119.684 366.1941 119.684 319.5381 119.684 272.8831 C119.684 264.5331 119.684 256.183 119.684 247.8331 C109.684 257.8331 99.68398 267.8331 89.68398 277.8331 C108.516 277.8601 127.347 277.8871 146.178 277.9141 C193.813 277.9821 241.448 278.0491 289.083 278.1171 C352.232 278.2071 415.382 278.2971 478.531 278.3871 C543.907 278.48 609.282 278.5741 674.658 278.666 C728.97 278.743 783.283 278.821 837.5959 278.898 C867.556 278.94 897.517 278.983 927.478 279.026 C929.756 279.029 932.0359 279.032 934.314 279.036 C950.668 279.0591 964.314 265.372 964.314 249.036 C964.314 232.665 950.668 219.059 934.314 219.036 C915.483 219.009 896.6509 218.982 877.8199 218.955 C830.1849 218.8871 782.5499 218.8201 734.916 218.752 C671.767 218.662 608.616 218.5721 545.4669 218.482 C480.0919 218.389 414.7169 218.295 349.3409 218.203 C295.0289 218.126 240.7159 218.048 186.4029 217.971 C156.4419 217.929 126.4819 217.886 96.5209 217.843 C94.24191 217.84 91.96391 217.837 89.68491 217.833 C73.3309 217.81 59.68491 231.497 59.68491 247.833 C59.68491 273.001 59.68491 298.168 59.68491 323.336 C59.68491 381.399 59.68491 439.463 59.68491 497.527 C59.68491 562.327 59.68491 627.1271 59.68491 691.926 C59.68491 737.302 59.68491 782.678 59.68491 828.054 C59.68491 835.283 59.68491 842.513 59.68491 849.742 C59.68491 878.04 70.4509 903.822 88.33691 925.351 C106.9489 947.755 134.6859 959.946 163.0279 963.437 C171.8769 964.526 180.9229 964.162 189.8249 964.162 C205.7669 964.162 221.7089 964.162 237.6509 964.162 C291.4409 964.162 345.2309 964.162 399.0209 964.162 C464.7359 964.162 530.4509 964.162 596.1659 964.162 C653.0669 964.162 709.9679 964.162 766.8689 964.162 C794.2169 964.162 821.5629 964.162 848.9109 964.162 C892.5839 964.162 935.6909 938.662 953.4499 898.06 C960.3879 882.198 964.3139 866.056 964.3139 848.61 C964.3139 845.271 964.3139 841.932 964.3139 838.594 C964.3139 798.391 964.3139 758.188 964.3139 717.985 C964.3139 654.469 964.3139 590.953 964.3139 527.437 C964.3139 466.802 964.3139 406.168 964.3139 345.533 C964.3139 313.974 964.3139 282.415 964.3139 250.856 C964.3139 250.249 964.3139 249.641 964.3139 249.033 C964.3139 232.679 950.6679 219.033 934.3139 219.033 C917.9599 219.033 904.314 232.684 904.314 249.037 z" xml:space="preserve" style="fill:#B3B3B3;" />
    </g>
  </g>
  <g xml:space="preserve">
    <g xml:space="preserve">
      <path d="M849.852 90.564 L174.148 90.564 C127.503 90.564 89.685 128.354 89.685 174.964 L89.685 248.234 L934.314 249.436 L934.314 174.964 C934.314 128.354 896.496 90.564 849.852 90.564 z M300.843 211.541 C277.521 211.541 258.611 192.646 258.611 169.341 C258.611 146.036 277.521 127.141 300.843 127.141 C324.165 127.141 343.074 146.036 343.074 169.341 C343.074 192.646 324.165 211.541 300.843 211.541 z M723.158 211.541 C699.834 211.541 680.926 192.646 680.926 169.341 C680.926 146.036 699.834 127.141 723.158 127.141 C746.48 127.141 765.388 146.036 765.388 169.341 C765.389 192.646 746.48 211.541 723.158 211.541 z" xml:space="preserve" style="fill:#ED1C24;" />
      <g xml:space="preserve">
        <path d="M723.158 181.541 C721.308 181.511 719.49 181.395 717.652 181.186 C720.3101 181.543 722.9691 181.9 725.6281 182.258 C722.063 181.736 718.665 180.846 715.3041 179.549 C717.6931 180.557 720.0811 181.565 722.4701 182.573 C720.0411 181.546 717.7431 180.357 715.5031 178.967 C713.5531 177.758 709.7301 174.423 717.3831 180.588 C716.3721 179.774 715.4401 178.87 714.5091 177.968 C713.5771 177.065 712.7311 176.079 711.8871 175.096 C718.0401 182.263 714.8641 179.022 713.5051 176.979 C712.0541 174.796 710.9161 172.425 709.8971 170.017 C710.9061 172.406 711.9141 174.795 712.9211 177.184 C711.6231 173.826 710.7331 170.43 710.2101 166.868 C710.5671 169.527 710.9241 172.185 711.2811 174.843 C710.8611 171.153 710.8611 167.531 711.2811 163.841 C710.9241 166.499 710.5671 169.158 710.2101 171.816 C710.7321 168.254 711.6231 164.858 712.9211 161.5 C711.9131 163.889 710.9051 166.277 709.8971 168.666 C710.9251 166.239 712.1151 163.943 713.5051 161.705 C714.7181 159.754 718.0551 155.9431 711.8871 163.588 C712.7011 162.578 713.6071 161.646 714.5091 160.716 C715.4121 159.785 716.3991 158.9391 717.3831 158.0961 C710.2071 164.2471 713.4611 161.0731 715.5031 159.7171 C717.6881 158.2671 720.0611 157.1301 722.4701 156.1111 C720.0811 157.119 717.6931 158.1271 715.3041 159.1351 C718.6651 157.8371 722.063 156.9481 725.6281 156.4261 C722.97 156.7831 720.311 157.1401 717.652 157.4981 C721.345 157.0781 724.97 157.0781 728.663 157.4981 C726.005 157.1411 723.347 156.7841 720.688 156.4261 C724.2521 156.9481 727.6511 157.8381 731.011 159.1351 C728.6221 158.1271 726.2341 157.119 723.845 156.1111 C726.274 157.138 728.571 158.3271 730.812 159.7171 C732.761 160.9261 736.585 164.2611 728.931 158.0961 C729.942 158.91 730.875 159.8141 731.8051 160.716 C732.7371 161.619 733.5831 162.6051 734.428 163.588 C728.274 156.4211 731.45 159.662 732.809 161.705 C734.26 163.8871 735.398 166.259 736.417 168.666 C735.408 166.277 734.4 163.8891 733.393 161.5 C734.691 164.858 735.581 168.2531 736.104 171.816 C735.747 169.158 735.39 166.499 735.033 163.841 C735.453 167.531 735.453 171.153 735.033 174.843 C735.39 172.185 735.747 169.527 736.104 166.868 C735.582 170.43 734.691 173.826 733.393 177.184 C734.401 174.795 735.409 172.406 736.417 170.017 C735.39 172.444 734.199 174.74 732.809 176.979 C731.597 178.93 728.259 182.741 734.428 175.096 C733.613 176.106 732.7081 177.038 731.8051 177.968 C730.902 178.899 729.915 179.745 728.931 180.588 C736.1071 174.436 732.853 177.611 730.812 178.967 C728.627 180.417 726.254 181.554 723.845 182.573 C726.234 181.565 728.622 180.556 731.011 179.549 C727.6511 180.847 724.2521 181.736 720.688 182.258 C723.3461 181.901 726.004 181.544 728.663 181.186 C726.826 181.395 725.007 181.511 723.158 181.541 C706.809 181.806 693.158 194.987 693.158 211.541 C693.158 227.694 706.804 241.806 723.158 241.541 C756.224 241.006 787.754 217.593 793.764 184.161 C796.9921 166.207 794.523 148.441 785.304 132.527 C776.343 117.058 762.06 107.108 745.73 100.802 C731.6691 95.37199 713.319 95.88499 699.353 101.277 C682.913 107.625 669.289 118.234 660.355 133.656 C643.735 162.344 649.7891 202.74 675.9661 223.828 C689.7371 234.922 705.274 241.251 723.157 241.541 C739.511 241.806 753.157 227.694 753.157 211.541 C753.158 194.987 739.507 181.806 723.158 181.541 z" xml:space="preserve" style="fill:#ED1C24;" />
        <path d="M300.843 181.541 C298.994 181.511 297.175 181.395 295.338 181.186 C297.997 181.543 300.655 181.9 303.314 182.258 C299.749 181.736 296.351 180.846 292.99 179.549 C295.379 180.557 297.768 181.565 300.157 182.573 C297.728 181.546 295.431 180.357 293.19 178.967 C291.24 177.758 287.416 174.423 295.07 180.588 C294.059 179.774 293.127 178.87 292.196 177.968 C291.264 177.065 290.418 176.079 289.573 175.096 C295.727 182.263 292.55 179.022 291.192 176.979 C289.741 174.796 288.603 172.425 287.584 170.017 C288.592 172.406 289.6 174.795 290.608 177.184 C289.309 173.826 288.419 170.43 287.897 166.868 C288.254 169.527 288.611 172.185 288.968 174.843 C288.548 171.153 288.548 167.531 288.968 163.841 C288.611 166.499 288.254 169.158 287.897 171.816 C288.419 168.254 289.31 164.858 290.608 161.5 C289.6 163.889 288.592 166.277 287.584 168.666 C288.612 166.239 289.801 163.943 291.192 161.705 C292.404 159.754 295.742 155.9431 289.573 163.588 C290.388 162.578 291.293 161.646 292.196 160.716 C293.1 159.785 294.086 158.9391 295.07 158.0961 C287.894 164.2471 291.149 161.0731 293.19 159.7171 C295.374 158.2671 297.748 157.1301 300.157 156.1111 C297.768 157.119 295.379 158.1271 292.99 159.1351 C296.351 157.8371 299.749 156.9481 303.314 156.4261 C300.655 156.7831 297.997 157.1401 295.338 157.4981 C299.031 157.0781 302.656 157.0781 306.348 157.4981 C303.69 157.1411 301.032 156.7841 298.373 156.4261 C301.938 156.9481 305.336 157.8381 308.697 159.1351 C306.308 158.1271 303.92 157.119 301.531 156.1111 C303.96 157.138 306.257 158.3271 308.498 159.7171 C310.447 160.9261 314.271 164.2611 306.618 158.0961 C307.629 158.91 308.562 159.8141 309.493 160.716 C310.425 161.619 311.271 162.6051 312.115 163.588 C305.962 156.4211 309.138 159.662 310.496 161.705 C311.947 163.8871 313.085 166.259 314.104 168.666 C313.096 166.277 312.088 163.8891 311.08 161.5 C312.3791 164.858 313.269 168.2531 313.791 171.816 C313.4341 169.158 313.0771 166.499 312.72 163.841 C313.14 167.531 313.14 171.153 312.72 174.843 C313.077 172.185 313.434 169.527 313.791 166.868 C313.269 170.43 312.3781 173.826 311.08 177.184 C312.088 174.795 313.096 172.406 314.104 170.017 C313.076 172.445 311.887 174.74 310.496 176.979 C309.284 178.93 305.946 182.741 312.115 175.096 C311.3 176.106 310.395 177.038 309.493 177.968 C308.589 178.899 307.602 179.745 306.618 180.588 C313.794 174.437 310.539 177.611 308.498 178.967 C306.313 180.417 303.94 181.554 301.531 182.573 C303.92 181.565 306.308 180.556 308.697 179.549 C305.336 180.847 301.938 181.736 298.373 182.258 C301.032 181.901 303.69 181.544 306.348 181.186 C304.511 181.395 302.692 181.511 300.843 181.541 C284.494 181.806 270.843 194.987 270.843 211.541 C270.843 227.694 284.489 241.806 300.843 241.541 C333.909 241.006 365.439 217.593 371.45 184.161 C374.678 166.207 372.21 148.441 362.991 132.527 C354.029 117.058 339.746 107.108 323.416 100.802 C309.3549 95.37299 291.0049 95.88499 277.0389 101.277 C260.5989 107.625 246.9759 118.234 238.0409 133.656 C221.4199 162.344 227.4759 202.74 253.6529 223.828 C267.424 234.922 282.9589 241.251 300.8429 241.541 C317.1969 241.806 330.8429 227.694 330.8429 211.541 C330.843 194.987 317.191 181.806 300.843 181.541 z" xml:space="preserve" style="fill:#ED1C24;" />
        <path d="M849.852 60.564 C827.022 60.564 804.191 60.564 781.361 60.564 C726.696 60.564 672.0309 60.564 617.366 60.564 C551.605 60.564 485.845 60.564 420.084 60.564 C363.967 60.564 307.851 60.564 251.733 60.564 C225.999 60.564 200.265 60.564 174.531 60.564 C123.793 60.564 79.27498 94.444 64.33298 142.614 C59.63498 157.759 59.68498 173.497 59.68498 189.142 C59.68498 204.642 59.68498 220.142 59.68498 235.642 C59.68498 239.839 59.68498 244.037 59.68498 248.234 C59.68498 264.605 73.33098 278.211 89.68498 278.234 C108.517 278.261 127.348 278.288 146.179 278.315 C193.814 278.382 241.449 278.45 289.084 278.518 C352.233 278.608 415.383 278.698 478.532 278.788 C543.908 278.881 609.283 278.975 674.659 279.067 C728.971 279.144 783.284 279.222 837.597 279.299 C867.557 279.341 897.518 279.384 927.479 279.427 C929.757 279.43 932.037 279.433 934.315 279.437 C950.669 279.46 964.315 265.773 964.315 249.437 C964.315 225.407 964.315 201.376 964.315 177.346 C964.315 154.984 958.734 132.813 946.611 113.867 C931.204 89.78998 907.2 72.05397 879.629 64.47498 C870.035 61.837 859.787 60.645 849.852 60.564 C833.498 60.43 819.852 74.312 819.852 90.564 C819.852 107.019 833.5 120.43 849.852 120.564 C853.579 120.594 857.272 120.834 860.971 121.289 C858.313 120.932 855.655 120.575 852.996 120.217 C860.614 121.281 867.9611 123.288 875.058 126.255 C872.6691 125.247 870.2811 124.239 867.892 123.231 C872.348 125.177 876.603 127.448 880.7 130.066 C881.807 130.774 882.882 131.532 883.955 132.291 C888.33 135.383 877.874 127.437 882.048 130.791 C884.0911 132.433 886.017 134.214 887.898 136.037 C889.78 137.86 891.533 139.812 893.237 141.8 C894.684 143.488 897.787 147.761 891.802 139.839 C892.594 140.887 893.336 141.971 894.077 143.054 C897.063 147.415 899.528 152.113 901.643 156.949 C900.634 154.56 899.626 152.171 898.619 149.782 C901.588 156.873 903.597 164.214 904.661 171.827 C904.305 169.169 903.947 166.51 903.59 163.852 C905.386 178.411 904.316 193.592 904.316 208.217 C904.316 221.957 904.316 235.696 904.316 249.436 C914.316 239.436 924.316 229.436 934.316 219.436 C915.485 219.409 896.653 219.382 877.822 219.355 C830.187 219.287 782.552 219.22 734.918 219.152 C671.769 219.062 608.618 218.972 545.469 218.882 C480.094 218.789 414.719 218.695 349.343 218.603 C295.031 218.526 240.718 218.448 186.405 218.371 C156.444 218.329 126.484 218.286 96.52298 218.243 C94.24398 218.24 91.96598 218.237 89.68698 218.233 C99.68698 228.233 109.687 238.233 119.687 248.233 C119.687 234.691 119.687 221.15 119.687 207.608 C119.687 193.181 118.641 178.213 120.413 163.851 C120.056 166.509 119.699 169.168 119.341 171.826 C120.406 164.213 122.415 156.872 125.383 149.781 C124.375 152.17 123.367 154.558 122.359 156.948 C124.307 152.494 126.58 148.243 129.199 144.149 C129.907 143.042 130.666 141.969 131.425 140.897 C134.52 136.524 126.571 146.978 129.928 142.807 C131.572 140.766 133.354 138.841 135.178 136.962 C137.003 135.081 138.956 133.33 140.946 131.627 C142.635 130.181 146.912 127.088 138.988 133.064 C140.037 132.273 141.121 131.532 142.206 130.791 C146.57 127.807 151.272 125.344 156.111 123.231 C153.722 124.239 151.334 125.247 148.944 126.255 C156.041 123.288 163.388 121.281 171.006 120.217 C168.348 120.574 165.689 120.931 163.031 121.289 C171.88 120.199 180.926 120.564 189.828 120.564 C205.77 120.564 221.712 120.564 237.654 120.564 C291.444 120.564 345.234 120.564 399.024 120.564 C464.739 120.564 530.454 120.564 596.169 120.564 C653.07 120.564 709.971 120.564 766.872 120.564 C794.22 120.564 821.566 120.564 848.914 120.564 C849.227 120.564 849.541 120.564 849.854 120.564 C866.208 120.564 879.854 106.918 879.854 90.564 C879.854 74.21001 866.205 60.564 849.852 60.564 z" xml:space="preserve" style="fill:#ED1C24;" />
      </g>
    </g>
    <line x1="59.5" y1="247.369" x2="964.5" y2="248.631" stroke="#ED1C24" stroke-width="62" stroke-miterlimit="10" xml:space="preserve" />
  </g>
  <g xml:space="preserve">
    <path d="M489.441 835.404 L131.434 835.404 C135.536 800.054 147.987 766.802 168.788 735.648 C189.589 704.497 228.6 667.729 285.829 625.345 C320.788 599.3701 343.15 579.642 352.919 566.165 C362.683 552.688 367.567 539.897 367.567 527.786 C367.567 514.702 362.733 503.519 353.065 494.241 C343.397 484.967 331.239 480.325 316.59 480.325 C301.356 480.325 288.904 485.113 279.236 494.68 C269.568 504.252 263.072 521.147 259.754 545.364 L140.223 535.696 C144.911 502.105 153.502 475.884 166.004 457.033 C178.501 438.187 196.129 423.735 218.885 413.674 C241.636 403.617 273.13 398.586 313.367 398.586 C355.357 398.586 388.023 403.374 411.365 412.941 C434.702 422.513 453.062 437.212 466.443 457.033 C479.819 476.859 486.511 499.074 486.511 523.684 C486.511 549.858 478.843 574.8569 463.513 598.684 C448.178 622.514 420.3 648.6849 379.87 677.2 C355.847 693.803 339.779 705.4249 331.677 712.0629 C323.57 718.705 314.048 727.3969 303.113 738.1369 L489.441 738.1369 L489.441 835.404 z" xml:space="preserve" style="fill:#FFFFFF;" />
    <path d="M588.758 405.912 L872.059 405.912 L872.059 501.127 L680.164 501.127 L669.91 565.58 C683.189 559.331 696.323 554.643 709.314 551.518 C722.3 548.395 735.141 546.83 747.839 546.83 C790.805 546.83 825.668 559.82 852.429 585.795 C879.1849 611.7731 892.566 644.488 892.566 683.9401 C892.566 711.675 885.681 738.3361 871.912 763.92 C858.142 789.5081 838.609 809.037 813.318 822.514 C788.022 835.991 755.649 842.7291 716.199 842.7291 C687.877 842.7291 663.611 840.0411 643.396 834.6721 C623.181 829.303 605.992 821.295 591.834 810.649 C577.671 800.006 566.199 787.944 557.41 774.467 C548.621 760.9901 541.297 744.1951 535.437 724.076 L656.14 710.892 C659.0699 730.228 665.9039 744.926 676.6479 754.984 C687.387 765.045 700.181 770.072 715.027 770.072 C731.626 770.072 745.349 763.773 756.189 751.176 C767.0289 738.579 772.449 719.781 772.449 694.78 C772.449 669.195 766.978 650.445 756.043 638.53 C745.103 626.618 730.555 620.6591 712.391 620.6591 C700.865 620.6591 689.732 623.4921 678.993 629.155 C670.982 633.257 662.193 640.6801 652.626 651.421 L550.9659 636.773 L588.758 405.912 z" xml:space="preserve" style="fill:#FFFFFF;" />
  </g>
</svg>