<?xml version="1.0" encoding="utf-8"?>
<!DOCTYPE svg PUBLIC "-//W3C//DTD SVG 1.1//EN" "http://www.w3.org/Graphics/SVG/1.1/DTD/svg11.dtd">
<svg x="0" y="0" width="32" height="37.84156" overflow="hidden" viewBox="0, 0, 95.88416, 113.3877" preserveAspectRatio="xMidYMid" font-size="0" id="svg2" xml:space="default" xmlns="http://www.w3.org/2000/svg" xmlns:xlink="http://www.w3.org/1999/xlink" xmlns:xml="http://www.w3.org/XML/1998/namespace" version="1.1">
  <defs id="d1" xml:space="default">
    <linearGradient x1="0%" y1="0%" x2="100%" y2="0%" gradientUnits="objectBoundingBox" id="linearGradient4439" xml:space="default">
      <stop offset="0%" stop-color="#FF0000" stop-opacity="1" id="stop4441" xml:space="default" />
      <stop offset="90.4295%" stop-color="#BC0000" stop-opacity="1" id="stop4447" xml:space="default" />
      <stop offset="91.72011%" stop-color="#9F0000" stop-opacity="1" id="stop4449" xml:space="default" />
      <stop offset="100%" stop-color="#5D0000" stop-opacity="1" id="stop4443" xml:space="default" />
    </linearGradient>
    <linearGradient x1="0%" y1="0%" x2="100%" y2="0%" gradientUnits="objectBoundingBox" id="linearGradient4423" xml:space="default">
      <stop offset="0%" stop-color="#7D4B00" stop-opacity="1" id="stop4425" xml:space="default" />
      <stop offset="100%" stop-color="#580000" stop-opacity="1" id="stop4427" xml:space="default" />
    </linearGradient>
    <linearGradient x1="170.5859" y1="146.6378" x2="173.0639" y2="148.4259" gradientUnits="userSpaceOnUse" xlink:href="#linearGradient4423" id="linearGradient4429" xml:space="default" />
    <linearGradient x1="143.3374" y1="181.0671" x2="155.8376" y2="210.5426" gradientUnits="userSpaceOnUse" xlink:href="#linearGradient4439" id="linearGradient4445" xml:space="default" />
  </defs>
  <g transform="translate(-98.92002, -116.4941)" id="layer1" xml:space="default">
    <path d="M115.2837 187.2928 C111.5867 190.2565 107.267 191.6633 102.9093 192.9749 L105.5609 194.4901 L105.6872 196.5105 L107.2024 196.3842 L108.7177 197.1418 L108.4651 198.2782 L110.2329 199.4146 C111.1168 200.0305 112.1901 199.705 113.0739 199.6672 C112.2212 202.3362 113.0504 201.8814 113.2633 202.5714 C114.5114 203.2926 115.9519 202.7864 117.3671 202.0032 C117.0196 203.885 117.1895 204.9389 117.6828 205.4756 C119.1688 205.8142 120.0657 205.6815 120.7132 205.3493 C120.6214 206.6114 120.7725 207.7 121.8496 208.1272 C122.7561 208.6071 122.7491 208.4809 123.1755 208.3797 L125.6377 206.17 C125.2172 207.1978 126.506 205.9056 123.9962 209.7687 C124.3452 209.971 124.1281 210.5507 125.3852 210.1475 L128.7944 207.3696 C127.9414 208.9433 127.4047 210.7427 127.7211 212.4835 C128.8155 211.1802 129.9098 209.815 131.0042 209.3268 C130.3518 210.561 129.6994 212.3942 129.047 213.9356 C129.3168 214.2868 130.641 212.9509 131.6986 212.0415 C131.4965 213.6663 131.3745 215.2452 132.33 216.2084 C133.0326 216.1534 133.0376 215.4008 133.0876 214.6932 C133.2796 215.6876 133.623 216.8546 134.2872 217.5343 C134.9444 213.6329 136.7494 210.4001 138.1384 206.8645 C136.9563 210.7377 135.3748 214.7107 136.1181 218.1025 L137.002 217.3449 C136.01 220.3098 137.4889 219.8239 138.5172 219.4283 C139.7961 220.6993 140.9407 221.0301 142.0527 221.1329 L142.9366 218.355 C143.0208 220.712 143.61 221.9747 144.7044 222.1431 C144.9476 223.5311 145.3033 223.9077 145.7145 223.7846 C146.3666 223.6928 146.3991 222.3581 146.5984 221.5117 C147.6723 224.2093 148.2226 223.7648 148.9975 224.6684 C149.3586 225.1538 149.6219 226.2251 150.1339 225.8049 L151.2072 223.974 C151.8476 225.414 152.609 225.2806 153.4169 224.5422 C152.7159 223.1076 151.5555 220.534 151.1564 218.8092 C150.6285 216.528 150.3123 215.0061 150.5127 212.5466 z" stroke="#FF0000" fill-rule="evenOdd" stroke-width="0.3543307" id="path4392" xml:space="default" connector-curvature="0" nodetypes="cccccccccccccccccccccccccccccccccccccccscc" style="fill:#FFE146;" />
    <path d="M150.5127 212.6729 C153.5221 212.4943 156.5316 211.5461 159.541 210.0212 C161.5699 213.3752 163.3591 216.8788 166.6752 219.4283 L165.1599 220.1859 L163.7079 219.8702 C163.6784 220.7499 164.1907 222.1262 162.2558 221.2592 L160.6774 220.7541 L159.9829 222.585 L158.2151 222.8375 C158.5484 223.6337 158.2231 223.7719 157.8995 223.9108 C157.145 224.4502 156.6802 224.2652 156.258 223.9739 C155.9813 224.8127 154.815 224.7617 153.5432 224.6053 C152.6193 222.8789 151.5153 220.5294 150.9719 218.3197 C150.5432 216.576 150.5826 215.1337 150.5127 212.6729 z" stroke="#00FF00" fill-rule="evenOdd" stroke-width="0.3543307" id="path4417" xml:space="default" connector-curvature="0" nodetypes="ccccccccccccsc" style="fill:#FFC400;" />
    <path d="M115.9641 186.6368 C115.8518 186.6408 115.7436 186.6802 115.6552 186.75 C111.6193 189.9599 107.0172 191.5506 103.0993 192.3851 C102.6375 192.4834 102.5257 193.0938 102.9225 193.3506 L105.1722 194.8096 L105.3296 196.606 C105.3589 196.9409 105.6868 197.1645 106.0076 197.0683 C106.3163 196.9762 106.6276 196.8638 106.9401 196.7425 C107.0453 196.9547 107.1907 197.1622 107.4258 197.2945 C107.6177 197.4026 107.9153 197.3945 108.166 197.4311 C108.0979 197.7089 107.9523 197.9707 108.0416 198.2718 C108.1994 198.8032 108.6972 199.1928 109.3957 199.3972 C109.4708 199.4189 109.5498 199.4235 109.6269 199.4109 C109.9953 199.8735 110.5378 200.1474 111.115 200.2438 C111.5236 200.312 111.9764 200.1942 112.4167 200.1404 C112.3199 200.3651 112.2122 200.5323 112.1505 200.7958 C112.0125 201.3852 112.0597 202.1175 112.5468 202.7385 C112.5736 202.772 112.6042 202.8021 112.6381 202.8282 C112.7773 202.937 112.9371 202.991 113.1005 203.0233 C113.3858 203.3625 113.8365 203.493 114.2759 203.4992 C114.7956 203.5062 115.3765 203.3789 115.9913 203.1501 C116.278 203.0434 116.57 202.8389 116.8636 202.6878 C116.5874 203.7557 116.8317 204.9138 117.2832 205.8496 C117.3867 206.0636 117.6193 206.1823 117.8524 206.1402 L117.8544 206.1402 C118.7294 206.3316 119.1668 206.4026 119.599 206.3431 C119.8437 206.3094 120.1414 206.2013 120.3877 206.1207 C120.3787 206.5036 120.2569 206.8661 120.3937 207.2559 C120.6394 207.9571 121.6783 209.2517 121.9635 208.5772 C122.1077 209.17 122.4721 209.1006 122.6532 209.1772 C122.9843 209.1637 123.227 209.0081 123.5041 208.7968 C123.9601 208.4491 124.6547 207.6912 125.4546 206.8112 C124.8343 208.2777 124.3971 208.3865 123.4978 209.778 C123.332 210.0374 123.7031 210.3836 123.9727 210.5309 C124.7154 210.9357 125.3602 210.594 126.1463 210.1681 C126.5884 209.9287 127.6758 208.6256 128.1265 208.2347 C128.1059 208.2856 127.3697 209.5615 127.3502 209.6125 C126.8933 210.8078 126.7855 211.6392 127.2673 212.7545 C127.4239 213.1178 127.907 213.1875 128.1591 212.8833 C128.4078 212.5831 129.6581 210.7933 130.1624 210.4829 C129.5899 211.1544 128.6245 213.0032 128.5379 213.5426 C128.4806 213.8167 128.6216 214.0992 128.6563 214.2935 C128.8146 214.6711 129.1379 214.5533 129.412 214.6543 C129.6511 214.6077 129.787 214.5005 129.9287 214.3891 C130.3522 214.0237 130.7747 213.5873 131.1255 213.248 C131.0881 213.7719 130.8995 214.3362 131.0089 214.7928 C131.2246 215.6928 131.6985 216.4635 132.4776 216.7394 C132.663 216.8054 132.8696 216.7626 133.0138 216.6283 C133.0716 216.817 133.1224 217.029 133.1906 217.1842 C133.3132 217.463 133.4413 217.7113 133.7307 217.8863 C133.8754 217.9739 134.0751 218.0242 134.261 217.9975 C134.637 218.0188 134.7189 217.6602 134.8943 217.5177 C135.0545 216.9418 135.9502 212.5702 136.3554 211.9405 C136.1074 212.6204 135.4056 216.8398 135.4577 217.2992 C135.5288 217.9251 135.5317 219.2446 136.2963 218.4281 C136.2243 218.6138 136.2105 219.2425 136.2271 219.398 C136.4268 219.7318 136.6707 219.9862 136.9887 220.106 C137.3066 220.2259 137.6433 220.1691 137.894 220.0573 C138.1046 219.9634 138.2147 219.8231 138.3777 219.6926 C138.5352 220.1068 138.7591 220.4606 139.0752 220.6796 C139.4014 220.9056 139.7551 221.0296 140.1106 221.1262 C140.1166 221.183 140.1166 221.2413 140.1242 221.2979 C140.1437 221.4494 140.2272 221.5852 140.3535 221.6704 C141.4865 222.4344 142.5417 222.1688 142.8411 219.5567 C142.8036 220.6493 142.8842 221.4071 143.1452 221.727 C143.4449 222.0944 143.8793 222.3806 144.4371 222.5696 C144.4863 222.9904 144.5472 223.4023 144.6314 223.7946 C144.6526 223.8943 144.7017 223.9856 144.7732 224.0579 C144.9241 224.2097 145.0872 224.3342 145.3036 224.3953 C145.5199 224.4564 145.7863 224.4145 145.9641 224.3055 C146.3197 224.0878 146.4234 223.7841 146.5392 223.4902 C146.6446 223.2226 146.6434 222.603 146.7328 222.3444 C146.9739 222.7282 147.18 223.6621 147.5125 223.9427 C147.7925 224.1791 148.0975 224.37 148.4139 224.5162 C148.5196 224.9959 148.8098 225.3185 149.0317 225.6592 C149.3702 225.8493 149.7086 226.3892 150.0438 226.3346 C150.379 226.28 150.6431 225.6218 150.8054 225.3998 C150.9418 225.2132 150.9675 225.0365 151.0444 224.8419 C151.0793 224.8705 151.1178 224.8853 151.1532 224.9121 C151.2099 225.0346 151.2598 225.163 151.3222 225.2808 C151.3698 225.3702 151.442 225.4439 151.53 225.4934 C151.8685 225.6835 152.207 225.782 152.5422 225.7274 C152.8774 225.6728 153.1415 225.456 153.3038 225.2339 C153.4988 225.3022 153.6497 225.1768 153.7451 225.1611 C153.7789 225.1501 153.9684 225.0097 153.9993 224.9921 C154.2022 225.0961 154.4367 225.1251 154.6346 225.1853 C155.2734 225.2393 155.8606 225.0426 156.4005 224.8693 C156.5812 224.811 156.7169 224.6599 156.756 224.4734 C157.3298 224.4837 157.863 224.3133 158.3549 224.1554 C158.6682 224.0549 158.815 223.6947 158.6619 223.4025 C159.2543 223.4243 159.8035 223.2469 160.3093 223.0846 C160.6277 222.9811 160.7714 222.6104 160.6065 222.318 C160.6454 222.2684 160.6973 222.2224 160.727 222.1717 C160.8433 221.9729 160.849 221.7952 160.9057 221.5944 C161.2739 221.8386 161.6624 221.9953 162.0461 221.9884 C162.1543 221.9864 162.2568 221.9679 162.3608 221.9533 L162.3725 221.965 C162.4475 222.0335 162.5406 222.0788 162.6406 222.0957 C163.0232 222.1599 163.375 222.1378 163.6722 221.9728 C163.9694 221.8078 164.1439 221.5131 164.222 221.2492 C164.2875 221.0277 164.252 220.8534 164.259 220.6445 C164.6748 220.7929 165.0888 220.8509 165.4596 220.7518 C166.0791 220.5862 166.5658 220.2006 167.0158 219.8545 C167.2907 219.6427 167.2916 219.227 167.0178 219.0139 C163.8972 216.5905 162.0816 213.5997 159.7966 208.8692 C159.737 208.7464 159.6327 208.6514 159.5052 208.6039 C156.9718 207.2515 150.8154 208.6972 150.0596 211.4244 C144.2822 206.5896 137.6725 202.2376 132.0195 198.2583 L132.0255 198.2483 L128.4217 195.5897 L128.1905 195.6775 C128.1825 195.6685 128.174 195.6603 128.1652 195.6521 L126.4614 194.1346 C126.3678 194.0517 126.2481 194.0047 126.1234 194.002 L126.1154 194.002 L123.9648 192.5001 C123.9295 192.3895 123.8593 192.2936 123.7647 192.227 L121.7073 190.7816 L121.7073 190.7796 C121.6742 190.7368 121.635 190.6993 121.5907 190.6685 L118.2007 188.2576 C118.1779 188.2414 118.1539 188.227 118.1288 188.2147 C118.0976 188.1665 118.059 188.1237 118.0141 188.088 L116.3103 186.7479 C116.2117 186.671 116.0893 186.6317 115.9646 186.6367 z M115.552 187.6967 L117.1857 188.9881 C116.0548 189.9723 114.3891 190.8255 113.0785 191.8531 C111.7426 192.7505 108.6067 193.7635 107.2278 194.2769 C107.0213 193.9927 110.5485 192.4862 111.5948 191.7116 C112.0606 191.4425 112.441 190.8543 111.9036 190.8468 C111.8027 190.8458 111.618 190.9268 111.618 190.9268 C109.8223 192.0065 108.3955 192.9631 107.9018 193.1965 C107.408 193.4298 107.219 193.8139 105.833 194.1437 L105.2011 193.8619 L103.6921 193.0125 C107.357 192.127 111.8005 190.5783 115.552 187.6967 z M117.8971 189.3461 L120.6819 191.3668 C119.6694 192.2251 118.6423 192.9302 117.8806 193.7159 C115.2936 195.7751 113.7528 197.5471 109.7609 198.5532 C109.4608 198.4335 109.0818 198.1247 109.0538 198.0305 C109.0292 197.9476 109.0628 197.707 109.1315 197.4935 C111.1342 197.32 112.4503 196.2912 114.8581 194.3489 C115.2604 194.0351 117.0723 192.8202 116.563 192.5163 C116.1609 192.456 114.5073 193.8864 114.4154 193.9632 C111.9219 195.9747 110.6451 196.3816 108.7896 196.4636 C108.7511 196.4633 108.7126 196.4676 108.675 196.4753 C108.2578 196.4743 108.021 196.4123 107.9426 196.368 C107.9101 196.3497 107.8982 196.3397 107.8863 196.3271 C110.1322 195.2762 112.4119 193.6203 114.4916 191.9228 C115.567 191.1652 116.6779 190.3134 117.8972 189.3462 z M121.1085 191.7251 L122.2897 192.4845 L122.4978 192.715 C120.9875 194.0462 119.1397 195.5771 117.5303 196.8153 C115.9653 198.0193 114.5667 198.9226 113.3508 199.2434 C113.3153 199.2454 112.8406 199.3448 112.4609 199.3536 C111.796 199.5333 111.6802 199.4982 111.1937 199.417 C111.0287 199.3894 110.5565 199.0792 110.4336 199.0269 C112.9249 198.2596 115.4716 196.7249 116.5819 195.9623 C117.1466 195.4499 117.6815 194.9094 118.2254 194.359 C119.3227 193.4842 120.1617 192.5485 121.1085 191.7251 z M123.4359 193.4247 L125.3947 194.713 C125.1964 194.892 124.938 195.3024 124.7413 195.4876 C122.6162 197.4032 120.6593 199.2813 119.3736 201.3945 C118.8169 202.2875 118.2454 203.5042 117.7974 204.4773 C117.4908 203.8768 117.5716 203.2293 117.6599 202.806 C117.7211 202.5128 117.998 201.9012 118.3363 201.5291 C118.5054 201.3431 118.8021 200.9501 118.9437 200.7818 C119.4011 200.2378 119.6509 199.8818 119.8767 199.5073 C120.2125 198.9504 120.7728 198.4453 120.5393 198.1862 C120.3613 198.0518 119.3592 199.2518 118.9785 199.7561 C118.285 200.6749 117.143 201.7751 116.1742 202.1984 C116.0645 202.2463 115.731 202.1154 115.6241 202.1553 C115.5813 202.1713 114.49 202.7002 114.3222 202.4309 C114.2751 202.0154 115.281 201.6832 115.8916 201.2527 C116.6853 200.5976 117.145 200.2805 118.2009 199.302 C119.691 197.9212 121.0123 196.0384 122.5344 194.3025 C122.8577 193.964 123.1457 193.697 123.4359 193.4247 z M106.5788 194.6906 C106.5271 195.4857 109.9894 194.203 110.056 194.2331 C110.1264 194.3731 107.2575 195.7059 107.2722 195.893 C107.1433 195.9451 106.132 196.1087 106.0044 196.1553 L106.2291 194.7725 C106.3632 194.7411 106.4627 194.7178 106.5788 194.6906 z M126.1149 195.2465 L127.0416 196.0735 C126.8438 196.2536 126.6602 196.4438 126.4704 196.6294 C124.2526 198.2905 123.256 200.9384 122.4829 203.0629 C122.3092 203.5402 122.2253 204.3249 122.1957 204.8307 C122.0367 205.6317 122.0316 206.8162 121.9658 207.7405 C121.8669 207.5986 121.4218 207.3369 121.3902 206.9048 C121.2217 206.4237 121.2499 205.8633 121.3436 205.6603 C121.532 205.2513 121.1591 204.8074 120.7258 204.925 C119.9811 205.1263 119.6793 205.2608 119.4552 205.2917 C119.3443 205.307 118.9752 205.225 118.7675 205.1981 C119.8705 202.2153 122.4739 198.2547 126.1149 195.2465 z M127.5592 196.3717 C127.3583 196.6389 128.6654 197.2535 128.6546 197.2697 C126.9941 199.8056 125.1794 201.2084 123.7073 202.0432 C124.3999 200.6396 125.3115 198.4074 126.3863 197.3258 C126.8225 196.961 127.0381 196.6068 127.5592 196.3717 z M122.0971 193.6697 C121.9519 194.3903 117.8485 198.7411 117.3059 199.3411 C116.3036 200.4495 115.23 200.7949 114.4779 201.3887 C114.1019 201.6856 113.7703 201.8814 113.5532 201.9583 C113.3947 202.0144 113.387 201.9926 113.3589 201.9817 C113.1505 201.6679 113.0971 201.3924 113.1802 201.0376 C113.2548 200.7188 113.4246 200.3688 113.592 200.0175 C115.0417 199.603 115.856 198.7033 117.4197 197.5003 C117.6497 197.3234 121.7729 193.6024 122.0971 193.6697 z M129.132 197.355 L130.6745 198.4921 C130.6123 198.6249 130.8299 198.9077 130.7667 199.0379 L128.5892 202.5413 C128.4115 202.8271 126.8379 205.7392 126.6306 205.9989 C126.4771 206.1913 125.8064 207.8984 125.6992 208.0036 C125.6347 208.0669 126.0252 206.4108 126.0122 206.0049 C126.1324 205.2796 126.7816 204.1024 126.5618 203.7557 C126.0737 204.0494 125.6479 205.5709 125.1319 206.0952 C123.9812 207.2642 123.5801 207.6698 123.09 208.064 C122.267 208.2029 122.7734 205.6093 122.8081 205.1145 C123.9298 204.8213 125.1716 204.4081 125.8466 203.7706 C126.5955 203.0574 126.8631 202.6945 127.8125 201.7728 C128.1592 201.4362 129.1946 200.2567 128.9011 200.0188 C128.7635 200.0148 128.1894 200.5974 127.5233 201.2607 C126.7232 202.0574 125.8273 202.8634 125.0886 203.41 C124.6127 203.7621 124.2115 203.8455 123.1503 204.1367 C123.2632 203.6661 123.3936 203.221 123.5408 202.7967 C123.6851 202.8408 123.8413 202.821 123.9701 202.7421 C126.0129 201.4947 127.1365 200.4084 129.099 197.4113 C129.1112 197.3931 129.1221 197.3743 129.132 197.3548 z M131.471 199.169 L132.2773 199.7346 L132.2753 199.7366 C130.5767 201.719 128.4204 205.58 126.8349 207.0884 C128.3039 204.4635 130.1007 201.2785 131.471 199.169 z M133.1398 200.3412 L135.5368 202.071 C134.9615 203.3794 134.0812 204.3868 133.2972 205.4672 C132.8809 206.0025 132.0911 207.074 131.6693 207.6124 C130.3377 209.1925 129.3024 210.0464 128.0945 211.3929 C128.0732 210.8361 128.1472 210.2429 128.3995 209.5829 C128.8 208.5352 129.5019 207.4128 130.2743 206.3664 C131.0467 205.3201 131.8863 204.3484 132.5589 203.5694 C133.1856 202.6571 132.9539 202.4175 132.1894 202.9404 C130.3592 205.1206 129.3747 205.8129 127.7914 207.4488 C127.1889 208.0714 126.0824 209.3102 125.8225 208.8484 C128.0033 206.7056 130.4603 203.4813 133.0757 200.4289 C133.1 200.4019 133.1214 200.3725 133.1397 200.3411 z M137.5012 203.463 C136.9845 204.418 136.235 205.8853 135.7502 206.9859 C134.4142 210.1478 133.025 212.826 132.5689 215.6456 C132.4624 215.463 132.1001 214.8111 132.0363 214.545 C131.8744 213.8691 131.9016 212.9878 132.2287 212.1283 C132.4098 211.6579 131.8969 211.2229 131.4652 211.4807 C130.836 211.8528 130.3116 212.5159 129.8449 213.0216 C131.1492 210.1633 132.7258 207.7415 134.223 205.4079 C134.7968 204.6116 135.4986 203.2328 135.9537 202.3926 C136.5405 202.6375 137.0051 203.0747 137.5012 203.463 z M141.6062 206.4835 C141.1804 207.499 140.5304 208.6755 139.8423 209.9242 C139.3661 210.7344 138.8811 211.5468 138.4279 212.3838 C137.6239 213.8689 136.8193 215.7606 136.4124 217.2679 C136.1965 216.1849 136.4576 215.1697 136.5559 214.0942 C136.8387 210.998 137.3602 210.1558 138.0643 207.8914 C138.1488 207.6197 138.8694 206.2398 138.4767 206.0978 C138.0297 205.9362 137.3741 208.0352 137.3718 208.0403 C135.8231 211.3696 135.0574 213.3237 134.115 216.5792 C133.9726 216.2064 133.5714 215.5704 133.4383 214.7805 C134.2276 211.9755 135.5844 208.9697 136.7979 206.3038 C137.2153 205.5413 137.4341 204.554 137.8894 203.7835 C138.9227 204.9023 140.3476 205.6324 141.6062 206.4835 z M143.3469 207.6596 C141.0361 211.3831 139.0724 214.8952 138.562 218.2685 C138.2048 219.1087 137.5004 219.3483 137.3476 219.2733 C137.28 219.1726 137.2795 218.6317 137.3341 218.1671 C138.1843 214.5123 139.9098 211.0583 141.391 208.1944 C142.4469 206.9174 142.1084 206.8762 143.3469 207.6597 z M145.8492 209.4424 C145.7557 209.8742 145.6603 210.366 145.5636 210.8292 C144.7019 214.2788 144.1167 217.27 144.3183 220.1898 C144.3153 220.5558 144.3368 220.9059 144.3514 221.2607 C143.7774 221.0493 143.733 220.5098 143.6093 220.0533 C143.5319 219.2312 143.4487 218.3707 143.3989 217.4353 C143.2471 214.5894 144.0404 213.3068 144.6911 211.6248 C144.8369 211.2669 145.1615 210.4362 144.7767 210.1367 C144.5639 210.1458 144.2828 211.6056 144.2085 211.8061 C142.907 215.1429 142.9133 215.7108 142.5892 217.4479 C142.3607 218.673 141.9017 219.5988 141.4022 220.7398 C140.141 220.6806 141.4052 216.3792 141.9404 214.5261 C142.552 212.7923 143.1785 211.0176 143.7796 209.3625 C144.7411 208.8179 145.1828 209.1259 145.8493 209.4425 z M158.8054 209.4633 C159.929 212.8641 160.9347 217.6129 163.1647 220.6774 C163.3363 220.968 162.6632 221.2408 162.3748 220.9036 C161.1609 219.5776 160.2668 217.8458 159.2755 215.6587 C159.0708 215.2068 158.2202 212.8055 157.6942 211.4063 C157.4568 210.7746 158.2149 209.9455 158.8053 209.4633 z M125.6601 209.5529 C125.9095 209.9904 125.5024 209.7309 125.5375 209.7512 C125.4902 209.7482 124.5975 209.8335 124.544 209.8438 C124.5594 209.821 124.7342 208.9137 125.1264 208.6072 C125.287 208.8872 125.5738 209.1983 125.6601 209.5529 z M156.1923 210.6343 C156.2914 211.5395 156.3878 212.0057 156.5108 212.8228 C156.5698 213.4978 156.6337 214.5372 156.711 215.2141 C157.0152 217.8782 158.3013 220.0474 159.5089 221.9099 C159.4702 222.0683 158.4648 222.4415 158.444 222.44 C158.1004 222.4109 158.1389 222.4007 157.8368 221.8636 C157.8098 221.8165 157.354 220.7438 157.1706 220.3025 C155.9712 217.4169 155.4453 215.7521 154.9851 211.4605 C154.9707 211.3256 155.1722 211.1068 155.0694 211.0188 L154.9878 210.9505 C154.9284 209.2239 154.8892 209.5265 156.1923 210.6343 z M142.9312 209.934 C142.3383 211.3765 141.7926 212.7866 141.379 214.1452 C140.7894 216.0997 140.131 218.1724 140.0695 219.9578 C139.914 219.9149 139.7668 219.8691 139.6752 219.8056 C139.4083 219.6208 139.255 219.4109 139.24 218.8752 C139.4348 218.8138 139.3572 218.267 139.3855 218.0639 C139.8879 214.4788 141.2099 212.155 142.9312 209.934 z M146.2359 209.9572 L147.5355 210.7143 C147.56 211.2101 147.6268 211.7315 147.5744 212.2825 C147.3617 214.5177 147.3745 216.6136 147.5355 218.6159 C147.6545 220.0964 148.3085 222.6167 148.8698 224.0363 C147.9174 223.7431 147.257 222.3539 147.1406 221.8724 C147.035 221.4352 146.9561 221.3515 146.532 220.8616 C146.1602 221.3674 146.0849 223.0108 145.6122 222.9617 C145.2674 222.9258 145.3431 221.9832 145.2968 221.7856 C145.1754 221.2678 145.1184 219.1128 145.1152 218.8259 C145.071 214.9475 145.5138 213.3801 146.2359 209.9572 z M154.7253 211.6503 C154.7047 213.129 154.6817 214.5395 154.4727 216.198 C154.4499 216.3785 154.1583 218.4486 154.1624 218.6298 C153.152 217.5178 152.8697 214.2072 152.6873 212.5052 C154.1598 211.4776 153.4876 210.6172 154.7253 211.6503 z M151.079 211.3911 L152.0213 212.1928 C152.0051 213.7684 151.9486 215.4808 151.9689 217.1881 C151.9779 217.9639 152.4053 220.6677 152.4604 221.4207 C151.5281 220.575 150.8905 216.4043 150.7356 214.551 C150.6446 213.4624 151.0988 212.3404 151.079 211.3911 z M159.575 210.8804 C161.3344 214.23 163.416 217.2528 165.8671 219.3161 C165.634 219.4695 165.3783 219.6746 165.1871 219.7257 C164.854 219.8148 164.5893 219.8011 164.1245 219.398 C163.8172 219.1339 163.3403 219.2999 163.2619 219.6984 C161.664 217.3695 160.3925 214.2606 159.575 210.8804 z M148.6895 211.6505 L150.1482 212.6479 C150.2275 213.3725 150.0679 213.9889 150.0965 214.6622 C150.1415 215.7263 150.174 217.3142 150.1872 218.4064 C150.2107 220.351 150.321 221.6516 150.7718 223.3136 C150.7921 223.279 150.9111 224.0285 150.6643 224.2979 C150.5676 224.5563 150.1527 225.1273 150.0742 225.3311 C150.0046 225.395 149.6001 224.7921 149.4917 224.5015 C148.9063 222.9311 148.31 219.3096 148.1447 217.5796 C147.9256 215.2854 148.1095 214.0013 148.1276 212.0784 C148.1296 211.8171 148.3908 211.3994 148.6895 211.6505 z M157.4531 211.7873 C157.8366 212.9285 158.2274 214.2912 158.6615 215.4619 C159.2978 217.1777 160.0121 218.8364 160.9131 220.2036 C160.6116 220.0237 160.2224 220.1831 160.1322 220.5235 C160.0681 220.7679 160.0139 221.0069 159.9612 221.2081 C158.4712 218.9924 156.7275 215.7308 156.8415 212.2904 C156.6907 211.9074 157.162 211.8478 157.4531 211.7873 z M154.9857 214.6791 C155.4888 214.503 156.0732 220.1057 156.9404 221.6721 C157.6728 222.9952 158.9217 223.6631 157.1287 223.8162 C156.6421 223.9491 156.2011 222.8347 156.1165 222.8408 C153.9163 221.1233 154.744 216.9172 154.9857 214.6791 z M153.0315 217.3168 C153.4554 219.3178 154.7178 222.2511 155.9095 223.7931 C155.6109 224.6667 154.3207 224.3193 154.1057 224.1962 C153.3162 223.7442 152.4721 218.062 152.4663 217.7582 C152.3137 215.9414 152.7236 215.6872 153.0315 217.3168 z M151.1509 219.8544 C151.5749 221.2284 152.1116 222.5108 152.8003 223.7555 C152.7363 223.9333 152.6747 224.0965 152.6196 224.2392 C152.4713 224.2763 152.3317 224.3028 152.2252 224.2938 C152.1636 224.2888 152.1084 224.2766 152.0523 224.2645 C151.5383 223.0608 151.2693 221.5303 151.1509 219.8544 z" display="inline" enable-background="accumulate" fill-rule="evenOdd" stroke-width="1.062992" stroke-linejoin="round" shape-rendering="auto" baseline-shift="baseline" font-family="sans-serif" font-style="normal" font-weight="400" color="#000000" id="path4153-2-20-6" xml:space="default" connector-curvature="0" nodetypes="ccccccccccscccccccccscccccccccscccccccccccccccccscccccccccccccccccccccccscccccccccccccccccccccccccccccccccccccccccccccccccccccccccccscccccccccccccccccccccccccccccccccccsssscsccccscccccccccccscccccccccccccccsccccccccccccccccsscccscccccccccccccccccccccccsccccccscccccscccccccccssssccccccccccccccccccsscccccccccssccccccccccccscccccccccccccsscscssscccccccccscccccccccccscccssccccccccccccccccccsccccccccc" line-height="normal" text-indent="0" text-align="start" text-decoration-line="none" text-decoration-style="solid" text-decoration-color="#000" text-transform="none" block-progression="tb" white-space="normal" isolation="auto" mix-blend-mode="normal" solid-color="#000" solid-opacity="1" font-stretch="normal" letter-spacing="normal" word-spacing="normal" direction="ltr" writing-mode="lr-tb" overflow="visible" color-interpolation="sRGB" color-interpolation-filters="linearRGB" color-rendering="auto" image-rendering="auto" text-rendering="auto" style="fill:#000000;" />
    <g transform="matrix(0.9946805, 0, 0, 0.9986704, 0.5462093, 0.3009461)" id="g4333" xml:space="default" style="fill:#FFFFFF;">
      <path d="M114.9847 183.4833 C116.79 181.8506 118.823 181.9245 122.574 181.6083 C125.6683 181.3475 126.3602 181.6291 128.0872 182.8398 C136.4664 188.7137 157.6625 203.4537 159.6275 205.0012 C161.0911 206.356 161.9622 208.8547 158.9133 210.269 C154.8541 212.152 152.6732 212.9674 151.5918 212.6797 L115.699 187.4119 C114.3568 186.5164 114.0761 184.9103 114.9847 183.4833 z" stroke="#000000" fill-rule="evenOdd" stroke-width="1.777567" id="path4151" xml:space="default" nodetypes="csscsccc" connector-curvature="0" style="fill:url(#linearGradient4445);" />
      <path d="M116.1454 187.6797 L150.6097 211.9654 C154.214 214.7221 155.9795 209.9068 153.2883 208.394 L118.824 183.9297 C115.5609 181.4946 112.485 184.96 116.1454 187.6797 z" stroke="#000000" fill-rule="evenOdd" stroke-width="1.777567" id="path4147" xml:space="default" nodetypes="ccccc" connector-curvature="0" style="fill:#FF0000;" />
      <path d="M137.3801 192.1963 L187.3801 121.482 C189.3211 119.5169 191.9136 122.1206 190.4158 124.1606 L140.4158 194.3392 C139.4391 195.4646 136.3159 193.4124 137.3801 192.1963 z" stroke="#000000" fill-rule="evenOdd" stroke-width="1.777567" id="path4149" xml:space="default" nodetypes="ccccc" connector-curvature="0" style="fill:url(#linearGradient4429);" />
    </g>
  </g>
</svg>