<?xml version="1.0" encoding="utf-8"?>
<!DOCTYPE svg PUBLIC "-//W3C//DTD SVG 1.1//EN" "http://www.w3.org/Graphics/SVG/1.1/DTD/svg11.dtd">
<svg x="0px" y="0px" width="32" height="24" overflow="hidden" viewBox="0, 0, 800, 600" preserveAspectRatio="xMidYMid" font-size="0" id="Layer_1" xml:space="preserve" xmlns="http://www.w3.org/2000/svg" xmlns:xlink="http://www.w3.org/1999/xlink" xmlns:xml="http://www.w3.org/XML/1998/namespace" version="1.1">
  <g transform="matrix(3.260417, 0, 0, 2.79847, -907.2241, -576.6553)" id="g4" xml:space="preserve">
    <path d="M359.05 215.74 C361.097 215.74 363.739 216.679 366.981 218.554 C374.312 223.158 377.981 227.168 377.981 230.577 C377.981 231.772 376.958 233.135 374.911 234.67 C372.865 236.549 370.73 239.019 368.515 242.089 C361.352 251.47 354.273 259.74 347.282 266.903 C349.329 270.145 351.119 273.642 352.655 277.392 C357.427 291.89 359.818 311.671 359.818 336.742 C359.818 359.426 358.539 376.138 355.981 386.882 C353.763 396.436 350.353 403.422 345.749 407.86 C341.824 411.609 338.926 413.488 337.051 413.488 C335.172 413.488 333.382 412.209 331.679 409.65 C325.196 401.804 317.9489 394.133 309.934 386.627 C309.934 385.947 310.274 385.604 310.957 385.604 C318.799 388.334 326.134 389.698 332.957 389.698 C335.683 389.698 337.646 388.591 338.841 386.372 C340.888 383.135 342.507 375.972 343.702 364.884 C345.237 351.413 346.004 337 346.004 321.651 C346.004 320.799 346.004 320.033 346.004 319.349 C341.399 326 336.623 332.139 331.678 337.768 C325.195 345.102 317.948 351.158 309.933 355.93 C302.938 360.368 294.668 363.949 285.119 366.675 C284.435 366.675 284.096 366.335 284.096 365.6519 C284.096 364.972 285.119 363.9489 287.166 362.5818 C302.003 351.3258 312.832 341.8608 319.655 334.1859 C326.646 326.511 334.065 316.5349 341.911 304.2549 C343.102 302.0399 344.125 299.9059 344.981 297.86 C344.469 293.599 343.87 289.59 343.19 285.8369 C342.335 282.0869 341.055 278.4178 339.353 274.8369 C338.669 275.3488 337.986 275.86 337.307 276.3719 C329.121 284.218 319.824 290.7859 309.423 296.0699 C302.428 299.8228 297.655 301.697 295.097 301.697 C293.73 301.697 293.051 301.358 293.051 300.675 C293.051 300.163 293.902 299.312 295.609 298.1169 C305.1581 290.7859 314.707 282.1718 324.26 272.2788 C326.9861 269.3808 329.716 266.3948 332.446 263.3248 C328.5211 258.2088 321.1021 251.0458 310.19 241.8368 C307.972 240.3018 306.864 238.9388 306.864 237.7438 C306.864 236.3808 307.544 235.6978 308.91 235.6978 C310.613 235.6978 315.306 238.4278 322.98 243.8838 C328.948 247.2978 334.064 251.2188 338.329 255.6518 C341.911 250.8798 345.2361 246.0188 348.306 241.0698 C352.739 233.7388 354.957 226.9158 354.957 220.6048 C354.958 217.3619 356.32 215.7399 359.05 215.7399 z M408.935 212.67 C412.344 212.67 416.522 214.037 421.47 216.763 C426.586 219.665 429.996 222.479 431.703 225.205 C433.237 228.447 434.005 231.601 434.005 234.67 C434.005 239.107 432.726 242.177 430.168 243.879 C433.405 243.027 436.563 242.004 439.633 240.809 C445.261 238.763 449.01 237.739 450.889 237.739 C452.424 237.739 457.197 239.446 465.215 242.855 C471.01 245.925 473.912 248.571 473.912 250.786 C473.912 251.809 473.312 253.176 472.121 254.879 C469.903 257.437 467.94 262.042 466.238 268.693 L455.749 306.554 C454.215 312.014 451.228 314.74 446.796 314.74 C445.089 314.74 443.638 313.378 442.447 310.647 C438.009 310.647 434.005 311.075 430.424 311.926 L409.702 314.739 C405.777 315.251 402.879 315.507 401.004 315.507 C399.298 315.507 397.847 315.423 396.656 315.251 C396.312 333.158 396.056 355.247 395.888 381.508 C395.888 384.238 396.228 385.601 396.911 385.601 C398.446 385.601 407.312 381.252 423.515 372.555 C426.074 371.192 427.521 370.508 427.865 370.508 C428.545 370.508 428.888 370.852 428.888 371.531 C428.888 372.898 427.865 374.6 425.818 376.647 C409.274 391.656 398.614 401.629 393.841 406.578 C391.111 409.815 388.808 411.438 386.934 411.438 C384.544 411.438 382.585 410.159 381.05 407.601 C379.004 403.163 377.98 399.838 377.98 397.623 C377.98 394.214 378.748 390.461 380.282 386.367 C381.817 382.446 382.752 373.92 383.096 360.786 C384.287 343.051 384.887 312.352 384.887 268.692 C384.715 261.361 383.692 255.733 381.817 251.808 C380.7939 249.933 380.194 248.227 380.026 246.692 C380.026 244.646 381.305 243.622 383.863 243.622 C387.445 243.622 390.854 244.645 394.095 246.692 C395.798 247.887 397.165 248.994 398.188 250.018 C407.226 249.338 415.839 247.888 424.025 245.669 C421.4669 245.669 418.054 241.408 413.793 232.878 C409.189 223.157 406.887 217.105 406.887 214.715 C406.889 213.525 407.568 212.842 408.935 212.67 z M397.423 284.81 C397.251 291.122 397.079 298.712 396.911 307.578 C406.633 306.555 415.67 304.935 424.027 302.717 C428.972 301.355 432.298 300.671 434.005 300.671 C435.707 300.671 438.354 301.526 441.936 303.229 C442.104 303.061 442.192 302.889 442.192 302.717 C443.894 298.6241 445.685 290.438 447.563 278.159 C446.369 278.843 444.834 279.354 442.959 279.694 C439.377 280.378 436.307 280.889 433.749 281.229 C431.359 281.741 425.475 282.764 416.098 284.299 C410.81 285.1541 407.057 285.578 404.842 285.578 C401.771 285.578 399.298 285.322 397.423 284.81 z M399.726 257.438 C399.554 260.68 399.214 263.921 398.703 267.159 C398.359 270.229 398.019 274.154 397.68 278.927 C398.532 278.759 399.299 278.671 399.982 278.671 C410.383 277.136 420.531 274.922 430.425 272.02 C433.151 271.169 434.602 270.741 434.774 270.741 C436.308 270.741 439.291 271.169 443.728 272.02 C445.774 272.704 447.308 273.299 448.332 273.811 C449.355 266.648 449.867 260.252 449.867 254.624 C449.867 250.703 448.5 248.74 445.774 248.74 C443.556 248.74 435.03 250.619 420.193 254.368 C413.367 256.247 406.545 257.27 399.726 257.438 z M464.959 313.718 C466.834 313.718 469.987 315.596 474.424 319.346 C478.686 322.759 480.82 325.829 480.82 328.555 C480.82 330.602 479.369 332.136 476.471 333.159 C471.522 334.866 465.895 337.341 459.586 340.578 C452.592 344.331 447.307 346.89 443.727 348.253 C455.833 359.681 465.299 367.61 472.122 372.044 C480.648 377.504 494.378 383.899 513.309 391.23 C515.696 391.914 516.8909 392.681 516.8909 393.533 C516.8909 394.9 515.6119 395.924 513.054 396.603 C499.408 399.84 489.8589 401.463 484.4019 401.463 C480.989 401.463 477.4958 400.352 473.9138 398.137 C469.989 395.411 458.9879 382.876 440.9138 360.533 C435.4529 353.542 430.2538 347.658 425.3088 342.882 C420.5328 337.766 416.0118 334.272 411.7498 332.393 C409.8719 332.054 408.937 331.115 408.937 329.58 C408.937 327.533 410.5558 326.51 413.7968 326.51 C418.4019 326.51 424.9648 330.52 433.4948 338.533 C436.2209 341.092 438.7788 343.482 441.1698 345.696 C445.4308 341.947 449.1838 337.938 452.4258 333.673 C455.4958 329.752 458.7328 323.952 462.1469 316.277 C462.9959 314.573 463.9359 313.718 464.959 313.718 z" id="path2" xml:space="preserve" connector-curvature="0" style="fill:#BF2121;" />
  </g>
</svg>