<?xml version="1.0" encoding="utf-8"?>
<!DOCTYPE svg PUBLIC "-//W3C//DTD SVG 1.1//EN" "http://www.w3.org/Graphics/SVG/1.1/DTD/svg11.dtd">
<svg xmlns:xml="http://www.w3.org/XML/1998/namespace" x="0" y="0" width="32" height="32" overflow="hidden"
     viewBox="0, 0, 668.9063, 668.9063" preserveAspectRatio="xMidYMid" font-size="0" id="svg" xml:space="default"
     xmlns="http://www.w3.org/2000/svg" version="1.1">
    <g transform="translate(-32.2986, -152.4998)" id="layer1" xml:space="default">
        <circle cx="366.7548" cy="486.9514" r="321.5804" stroke-width="2.89533" stroke-linecap="round"
                stroke-linejoin="round" id="circle4485" xml:space="default" style="fill:#FFFFFF;"/>
        <path d="M366.7595 153.9473 C182.9794 153.9473 33.74609 303.1651 33.74609 486.9452 C33.74609 670.7252 182.9794 819.9586 366.7595 819.9586 C550.5396 819.9586 699.7574 670.7252 699.7574 486.9452 C699.7574 303.1651 550.5396 153.9473 366.7595 153.9473 z M366.7595 176.7967 C538.1874 176.7967 676.908 315.5173 676.908 486.9452 C676.908 658.373 538.1874 797.1091 366.7595 797.1091 C195.3316 797.1091 56.59558 658.373 56.59558 486.9452 C56.59558 315.5173 195.3316 176.7967 366.7595 176.7967 z"
              display="inline" enable-background="accumulate" stroke="#000000" stroke-width="2.895"
              stroke-linecap="round" stroke-linejoin="round" shape-rendering="auto" baseline-shift="baseline"
              font-family="sans-serif" font-style="normal" font-weight="400" color="#000000" id="path4147"
              xml:space="default" connector-curvature="0" line-height="normal" text-indent="0" text-align="start"
              text-decoration-line="none" text-decoration-style="solid" text-decoration-color="#000"
              text-transform="none" block-progression="tb" white-space="normal" isolation="auto" mix-blend-mode="normal"
              solid-color="#000" solid-opacity="1" font-stretch="normal" letter-spacing="normal" word-spacing="normal"
              direction="ltr" writing-mode="lr-tb" overflow="visible" color-interpolation="sRGB"
              color-interpolation-filters="linearRGB" color-rendering="auto" image-rendering="auto"
              text-rendering="auto" style="fill:#E91111;"/>
        <path d="M367.2683 177.2439 L366.2353 177.2592 C365.9507 177.259 365.7266 177.4985 365.7265 177.7835 L365.7265 191.7984 C365.7265 192.0842 365.9498 192.3226 366.2353 192.3226 L367.2837 192.3226 C367.5693 192.3225 367.793 192.0834 367.7925 191.7984 L367.7771 177.7835 C367.777 177.4985 367.5555 177.2431 367.2683 177.2439 z M393.7872 184.6136 A1.803795 1.803795 0 0 0 392.0758 186.1246 A1.803795 1.803795 0 0 0 393.5406 188.206 A1.803795 1.803795 0 0 0 395.4678 187.2039 A1.803795 1.803795 0 0 0 395.622 186.7413 A1.803795 1.803795 0 0 0 395.6374 186.5563 A1.803795 1.803795 0 0 0 395.6374 186.2017 A1.803795 1.803795 0 0 0 395.0515 185.0916 A1.803795 1.803795 0 0 0 394.1573 184.6599 A1.803795 1.803795 0 0 0 393.9722 184.629 A1.803795 1.803795 0 0 0 393.7872 184.6136 z M336.1393 185.2767 A1.803795 1.803795 0 0 0 334.3817 187.1114 A1.803795 1.803795 0 0 0 336.2164 188.869 A1.803795 1.803795 0 0 0 337.9278 187.5276 A1.803795 1.803795 0 0 0 337.974 187.0343 A1.803795 1.803795 0 0 0 337.9586 186.8647 A1.803795 1.803795 0 0 0 337.9278 186.6797 L337.9432 186.6643 A1.803795 1.803795 0 0 0 337.8661 186.5101 A1.803795 1.803795 0 0 0 337.7274 186.1863 L337.7428 186.1709 A1.803795 1.803795 0 0 0 337.6657 186.0321 L337.6503 186.0321 A1.803795 1.803795 0 0 0 337.1106 185.5387 A1.803795 1.803795 0 0 0 336.1393 185.2767 z M424.3303 188.9615 A1.803795 1.803795 0 0 0 422.8193 190.2875 A1.803795 1.803795 0 0 0 424.0836 192.5076 A1.803795 1.803795 0 0 0 426.1033 191.7059 A1.803795 1.803795 0 0 0 426.3038 191.2434 A1.803795 1.803795 0 0 0 426.3346 191.0738 A1.803795 1.803795 0 0 0 426.3808 190.7192 A1.803795 1.803795 0 0 0 425.9028 189.5628 A1.803795 1.803795 0 0 0 425.0394 189.0386 A1.803795 1.803795 0 0 0 424.8698 188.9923 A1.803795 1.803795 0 0 0 424.5152 188.9614 A1.803795 1.803795 0 0 0 424.3302 188.9614 z M303.1756 190.4879 A1.803795 1.803795 0 0 0 303.0369 190.5033 A1.803795 1.803795 0 0 0 301.4951 192.5385 A1.803795 1.803795 0 0 0 303.5302 194.0803 A1.803795 1.803795 0 0 0 305.0721 192.5385 A1.803795 1.803795 0 0 0 305.0721 192.0759 A1.803795 1.803795 0 0 0 305.0413 191.8755 A1.803795 1.803795 0 0 0 304.9796 191.7059 A1.803795 1.803795 0 0 0 304.9178 191.5518 L304.9333 191.5363 A1.803795 1.803795 0 0 0 304.8562 191.3821 A1.803795 1.803795 0 0 0 304.0544 190.6575 A1.803795 1.803795 0 0 0 303.3452 190.4879 A1.803795 1.803795 0 0 0 303.1756 190.4879 z M459.3445 197.8885 A1.803795 1.803795 0 0 0 457.6948 199.0141 A1.803795 1.803795 0 0 0 458.6662 201.3576 A1.803795 1.803795 0 0 0 460.7784 200.818 A1.803795 1.803795 0 0 0 461.0251 200.4017 A1.803795 1.803795 0 0 0 461.0869 200.2166 A1.803795 1.803795 0 0 0 461.1639 199.862 A1.803795 1.803795 0 0 0 460.8401 198.6594 A1.803795 1.803795 0 0 0 460.0384 198.0427 A1.803795 1.803795 0 0 0 459.8842 197.9811 A1.803795 1.803795 0 0 0 459.5296 197.904 L459.5296 197.8886 A1.803795 1.803795 0 0 0 459.3446 197.8886 z M268.7164 200.155 A1.803795 1.803795 0 0 0 268.2384 200.2167 A1.803795 1.803795 0 0 0 266.9279 202.4215 A1.803795 1.803795 0 0 0 269.1327 203.7012 A1.803795 1.803795 0 0 0 270.4894 202.0052 A1.803795 1.803795 0 0 0 270.4277 201.4964 A1.803795 1.803795 0 0 0 270.366 201.3422 A1.803795 1.803795 0 0 0 270.3043 201.188 L270.3043 201.1571 L270.3197 201.1571 A1.803795 1.803795 0 0 0 270.2426 201.0029 L270.2272 201.0029 A1.803795 1.803795 0 0 0 269.2405 200.2475 A1.803795 1.803795 0 0 0 268.7163 200.155 z M490.2885 209.8221 A1.803795 1.803795 0 0 0 488.8854 210.7626 A1.803795 1.803795 0 0 0 489.5947 213.1986 A1.803795 1.803795 0 0 0 491.7378 212.8902 A1.803795 1.803795 0 0 0 492.0307 212.4894 A1.803795 1.803795 0 0 0 492.1078 212.3352 A1.803795 1.803795 0 0 0 492.2157 211.9806 A1.803795 1.803795 0 0 0 492.0307 210.7626 A1.803795 1.803795 0 0 0 491.3214 210.0534 A1.803795 1.803795 0 0 0 491.1673 209.9609 A1.803795 1.803795 0 0 0 490.458 209.8221 A1.803795 1.803795 0 0 0 490.2885 209.8221 z M239.746 211.7647 A1.803795 1.803795 0 0 0 239.2988 211.8727 A1.803795 1.803795 0 0 0 238.235 214.1853 A1.803795 1.803795 0 0 0 240.5323 215.2492 A1.803795 1.803795 0 0 0 241.7041 213.4145 A1.803795 1.803795 0 0 0 241.6116 212.9365 A1.803795 1.803795 0 0 0 241.5345 212.7669 A1.803795 1.803795 0 0 0 241.442 212.6127 A1.803795 1.803795 0 0 0 241.3495 212.474 A1.803795 1.803795 0 0 0 240.2856 211.7956 A1.803795 1.803795 0 0 0 239.746 211.7647 z M212.4715 218.4715 L211.5773 218.9958 C211.3307 219.1379 211.2497 219.4571 211.3923 219.705 L218.392 231.8544 C218.5348 232.1015 218.8696 232.1823 219.1167 232.0394 L220.0109 231.5306 C220.2582 231.3877 220.3233 231.0677 220.1805 230.8214 L213.1807 218.672 C213.038 218.4249 212.7199 218.3271 212.4715 218.4715 z M521.1553 218.487 C520.909 218.3441 520.5886 218.438 520.446 218.6875 L513.4463 230.8214 C513.3035 231.0693 513.3839 231.4031 513.6313 231.546 L514.5255 232.0549 C514.7729 232.1978 515.0927 232.1039 515.2347 231.8544 L522.2345 219.7205 C522.3769 219.4734 522.2985 219.1387 522.0495 218.9958 L521.1553 218.487 z M540.4586 238.4225 A1.803795 1.803795 0 0 0 539.1018 239.0854 A1.803795 1.803795 0 0 0 539.3177 241.6294 A1.803795 1.803795 0 0 0 541.4916 241.7219 A1.803795 1.803795 0 0 0 541.8617 241.3981 A1.803795 1.803795 0 0 0 541.9696 241.244 A1.803795 1.803795 0 0 0 542.1392 240.9356 A1.803795 1.803795 0 0 0 542.1854 239.6867 A1.803795 1.803795 0 0 0 541.6304 238.8696 A1.803795 1.803795 0 0 0 541.4916 238.7462 A1.803795 1.803795 0 0 0 541.3375 238.6383 A1.803795 1.803795 0 0 0 540.4586 238.4225 z M190.1154 240.7815 A1.803795 1.803795 0 0 0 189.3291 241.0281 A1.803795 1.803795 0 0 0 188.7278 243.495 A1.803795 1.803795 0 0 0 191.1946 244.0963 A1.803795 1.803795 0 0 0 191.9964 242.0919 A1.803795 1.803795 0 0 0 191.7959 241.6448 A1.803795 1.803795 0 0 0 191.7034 241.4906 A1.803795 1.803795 0 0 0 191.5801 241.3519 L191.5801 241.3365 A1.803795 1.803795 0 0 0 191.4413 241.244 A1.803795 1.803795 0 0 0 191.1638 241.0127 L191.1638 240.9973 A1.803795 1.803795 0 0 0 191.0251 240.9202 A1.803795 1.803795 0 0 0 190.3004 240.7815 A1.803795 1.803795 0 0 0 190.1154 240.7815 z M564.7266 257.5408 A1.803795 1.803795 0 0 0 563.6318 258.065 A1.803795 1.803795 0 0 0 563.6165 260.6244 A1.803795 1.803795 0 0 0 565.775 260.9327 A1.803795 1.803795 0 0 0 566.1759 260.6398 A1.803795 1.803795 0 0 0 566.2838 260.501 A1.803795 1.803795 0 0 0 566.4997 260.2235 A1.803795 1.803795 0 0 0 566.6693 258.9746 A1.803795 1.803795 0 0 0 566.1913 258.0958 A1.803795 1.803795 0 0 0 566.068 257.9725 A1.803795 1.803795 0 0 0 565.775 257.772 A1.803795 1.803795 0 0 0 565.6053 257.6795 A1.803795 1.803795 0 0 0 564.7266 257.5407 z M164.2286 261.7345 A1.803795 1.803795 0 0 0 163.2727 262.1199 A1.803795 1.803795 0 0 0 162.9643 264.6331 A1.803795 1.803795 0 0 0 165.4774 264.9569 A1.803795 1.803795 0 0 0 166.0479 262.86 A1.803795 1.803795 0 0 0 165.832 262.4438 A1.803795 1.803795 0 0 0 165.6933 262.305 A1.803795 1.803795 0 0 0 165.5545 262.1816 A1.803795 1.803795 0 0 0 165.4158 262.0737 L165.4312 262.0583 A1.803795 1.803795 0 0 0 165.2924 261.9503 L165.2924 261.9658 A1.803795 1.803795 0 0 0 164.2285 261.7345 z M590.4283 282.6876 A1.803795 1.803795 0 0 0 589.4725 283.0576 A1.803795 1.803795 0 0 0 589.1487 285.5707 A1.803795 1.803795 0 0 0 591.2455 286.1721 A1.803795 1.803795 0 0 0 591.6619 285.9254 A1.803795 1.803795 0 0 0 591.816 285.802 A1.803795 1.803795 0 0 0 592.0627 285.5244 A1.803795 1.803795 0 0 0 592.3865 284.3219 A1.803795 1.803795 0 0 0 592.001 283.3968 A1.803795 1.803795 0 0 0 591.8931 283.258 A1.803795 1.803795 0 0 0 591.6157 283.0114 L591.631 282.9958 A1.803795 1.803795 0 0 0 591.4769 282.9189 A1.803795 1.803795 0 0 0 590.4284 282.6876 z M139.2515 287.39 A1.803795 1.803795 0 0 0 139.0665 287.4055 A1.803795 1.803795 0 0 0 138.8814 287.4518 A1.803795 1.803795 0 0 0 137.9872 287.9297 A1.803795 1.803795 0 0 0 137.9718 290.4738 A1.803795 1.803795 0 0 0 140.5158 290.4892 A1.803795 1.803795 0 0 0 140.8396 288.3461 A1.803795 1.803795 0 0 0 140.5312 287.9453 A1.803795 1.803795 0 0 0 140.4078 287.8219 A1.803795 1.803795 0 0 0 140.2691 287.7294 L140.2537 287.6985 L140.2691 287.683 A1.803795 1.803795 0 0 0 140.1149 287.606 A1.803795 1.803795 0 0 0 139.2515 287.3901 z M611.4277 308.559 A1.803795 1.803795 0 0 0 610.6106 308.8365 A1.803795 1.803795 0 0 0 610.0092 311.3034 A1.803795 1.803795 0 0 0 612.029 312.1051 A1.803795 1.803795 0 0 0 612.4761 311.9047 A1.803795 1.803795 0 0 0 612.6149 311.8122 A1.803795 1.803795 0 0 0 612.8924 311.5501 A1.803795 1.803795 0 0 0 613.3395 310.4092 A1.803795 1.803795 0 0 0 613.0775 309.4378 A1.803795 1.803795 0 0 0 613.0004 309.2837 A1.803795 1.803795 0 0 0 612.4454 308.8057 A1.803795 1.803795 0 0 0 612.3066 308.7132 A1.803795 1.803795 0 0 0 611.5974 308.559 A1.803795 1.803795 0 0 0 611.4277 308.559 z M120.1486 311.8276 A1.803795 1.803795 0 0 0 119.9482 311.843 A1.803795 1.803795 0 0 0 119.5781 311.9355 A1.803795 1.803795 0 0 0 118.761 312.4906 A1.803795 1.803795 0 0 0 118.9922 315.0191 A1.803795 1.803795 0 0 0 121.5208 314.7879 A1.803795 1.803795 0 0 0 121.6133 312.6294 A1.803795 1.803795 0 0 0 121.2895 312.2593 A1.803795 1.803795 0 0 0 121.1353 312.1514 A1.803795 1.803795 0 0 0 120.9966 312.0435 A1.803795 1.803795 0 0 0 120.8424 311.9819 A1.803795 1.803795 0 0 0 120.1486 311.8277 z M99.53473 331.4393 C99.28741 331.2964 98.96822 331.3765 98.8255 331.6243 L98.3167 332.5186 C98.17414 332.7648 98.25433 333.0857 98.50172 333.2278 L110.6357 340.243 C110.883 340.3859 111.2177 340.2904 111.3603 340.0425 L111.8691 339.1483 C112.0121 338.9012 111.9157 338.5966 111.6687 338.4545 L99.53472 331.4393 z M633.9843 331.4702 L621.8503 338.4854 C621.6024 338.6283 621.507 338.9475 621.6498 339.1946 L622.1741 340.0888 C622.317 340.3359 622.6354 340.4183 622.8833 340.2738 L635.0173 333.2587 C635.2643 333.1158 635.3614 332.7973 635.2177 332.5495 L634.6935 331.6552 C634.5515 331.4081 634.2321 331.3257 633.9843 331.4702 z M640.6757 358.3592 A1.803795 1.803795 0 0 0 640.0128 358.4825 A1.803795 1.803795 0 0 0 638.9489 360.7952 A1.803795 1.803795 0 0 0 640.7836 361.9516 A1.803795 1.803795 0 0 0 641.2615 361.8591 A1.803795 1.803795 0 0 0 641.4311 361.782 A1.803795 1.803795 0 0 0 641.7394 361.597 A1.803795 1.803795 0 0 0 642.4025 360.5332 A1.803795 1.803795 0 0 0 642.3254 359.5464 A1.803795 1.803795 0 0 0 642.2637 359.3768 A1.803795 1.803795 0 0 0 642.1866 359.2072 A1.803795 1.803795 0 0 0 640.6757 358.3593 z M91.54822 361.7511 A1.803795 1.803795 0 0 0 90.85442 361.9824 A1.803795 1.803795 0 0 0 90.14519 362.6916 A1.803795 1.803795 0 0 0 90.85442 365.1277 A1.803795 1.803795 0 0 0 93.29045 364.4185 A1.803795 1.803795 0 0 0 92.98209 362.2754 A1.803795 1.803795 0 0 0 92.58123 361.9825 A1.803795 1.803795 0 0 0 92.42706 361.9055 A1.803795 1.803795 0 0 0 92.24203 361.8438 L92.24203 361.8283 A1.803795 1.803795 0 0 0 92.07244 361.8129 A1.803795 1.803795 0 0 0 91.71783 361.7666 L91.71783 361.7511 A1.803795 1.803795 0 0 0 91.54823 361.7511 z M652.1004 387.1292 A1.803795 1.803795 0 0 0 651.7921 387.1909 A1.803795 1.803795 0 0 0 650.4969 389.3957 A1.803795 1.803795 0 0 0 652.1929 390.7371 A1.803795 1.803795 0 0 0 652.7017 390.6908 A1.803795 1.803795 0 0 0 652.8559 390.6291 A1.803795 1.803795 0 0 0 653.1951 390.4903 A1.803795 1.803795 0 0 0 653.9506 389.5036 A1.803795 1.803795 0 0 0 653.9814 388.486 A1.803795 1.803795 0 0 0 653.9351 388.3164 A1.803795 1.803795 0 0 0 653.7809 387.9926 A1.803795 1.803795 0 0 0 653.6884 387.8384 A1.803795 1.803795 0 0 0 652.1003 387.1292 z M79.7843 392.8338 A1.803795 1.803795 0 0 0 78.7513 393.173 A1.803795 1.803795 0 0 0 78.11916 393.9748 A1.803795 1.803795 0 0 0 79.10592 396.3183 A1.803795 1.803795 0 0 0 81.44945 395.3315 A1.803795 1.803795 0 0 0 80.8944 393.2347 A1.803795 1.803795 0 0 0 80.49354 392.988 A1.803795 1.803795 0 0 0 80.30852 392.9263 A1.803795 1.803795 0 0 0 80.1235 392.8955 A1.803795 1.803795 0 0 0 79.9539 392.8646 L79.9539 392.8492 A1.803795 1.803795 0 0 0 79.78431 392.8337 z M661.7984 421.7426 A1.803795 1.803795 0 0 0 661.6596 421.7581 A1.803795 1.803795 0 0 0 660.1178 423.7624 A1.803795 1.803795 0 0 0 661.6442 425.3196 A1.803795 1.803795 0 0 0 662.1221 425.3351 A1.803795 1.803795 0 0 0 662.3226 425.2888 A1.803795 1.803795 0 0 0 662.6618 425.1808 A1.803795 1.803795 0 0 0 663.5406 424.302 A1.803795 1.803795 0 0 0 663.6794 423.2999 A1.803795 1.803795 0 0 0 663.6486 423.1303 A1.803795 1.803795 0 0 0 663.5406 422.7911 L663.5561 422.7756 A1.803795 1.803795 0 0 0 663.4636 422.6214 A1.803795 1.803795 0 0 0 661.7984 421.7426 z M70.81104 427.6323 A1.803795 1.803795 0 0 0 69.65469 428.1102 A1.803795 1.803795 0 0 0 69.13048 428.9737 A1.803795 1.803795 0 0 0 70.37933 431.1938 A1.803795 1.803795 0 0 0 72.59953 429.9295 A1.803795 1.803795 0 0 0 71.79778 427.9098 A1.803795 1.803795 0 0 0 71.33524 427.7094 A1.803795 1.803795 0 0 0 71.16565 427.6786 A1.803795 1.803795 0 0 0 70.99606 427.6631 L70.98064 427.6476 L70.98064 427.6322 A1.803795 1.803795 0 0 0 70.81104 427.6322 z M666.9017 454.6446 A1.803795 1.803795 0 0 0 665.3292 456.4639 A1.803795 1.803795 0 0 0 666.6705 458.1754 A1.803795 1.803795 0 0 0 667.1639 458.2216 A1.803795 1.803795 0 0 0 667.3334 458.2216 A1.803795 1.803795 0 0 0 667.7035 458.1292 A1.803795 1.803795 0 0 0 668.6594 457.3582 A1.803795 1.803795 0 0 0 668.9214 456.4023 A1.803795 1.803795 0 0 0 668.9214 456.2173 A1.803795 1.803795 0 0 0 668.6902 455.5389 A1.803795 1.803795 0 0 0 668.5977 455.3847 A1.803795 1.803795 0 0 0 667.0867 454.6446 A1.803795 1.803795 0 0 0 666.9017 454.6446 z M66.4632 458.3604 A1.803795 1.803795 0 0 0 66.2936 458.3758 A1.803795 1.803795 0 0 0 65.1835 458.9617 A1.803795 1.803795 0 0 0 64.75179 459.8559 A1.803795 1.803795 0 0 0 66.21651 461.9373 A1.803795 1.803795 0 0 0 68.29794 460.4726 A1.803795 1.803795 0 0 0 67.29577 458.5453 A1.803795 1.803795 0 0 0 66.83323 458.3912 A1.803795 1.803795 0 0 0 66.64821 458.3758 A1.803795 1.803795 0 0 0 66.4632 458.3604 z M57.58232 485.8814 C57.29671 485.8813 57.05709 486.1037 57.05811 486.3903 L57.05811 487.4233 C57.05798 487.7083 57.29688 487.9474 57.58232 487.9474 L71.59729 487.9474 C71.8829 487.9475 72.12135 487.7083 72.1215 487.4233 L72.1215 486.3903 C72.12163 486.1045 71.88258 485.8814 71.59729 485.8814 L57.58232 485.8814 z M661.9063 485.8814 C661.6205 485.8812 661.3813 486.1037 661.3821 486.3903 L661.3821 487.4233 C661.3818 487.709 661.6205 487.9474 661.9063 487.9474 L675.9212 487.9474 C676.207 487.9477 676.4454 487.709 676.4454 487.4233 L676.4454 486.3903 C676.4456 486.1045 676.2062 485.8814 675.9212 485.8814 L661.9063 485.8814 z M667.5184 511.9224 A1.803795 1.803795 0 0 0 667.3489 511.9379 A1.803795 1.803795 0 0 0 666.2387 512.5237 A1.803795 1.803795 0 0 0 665.807 513.4335 A1.803795 1.803795 0 0 0 667.2717 515.5149 A1.803795 1.803795 0 0 0 669.3531 514.0502 A1.803795 1.803795 0 0 0 668.351 512.1075 A1.803795 1.803795 0 0 0 667.8884 511.9688 A1.803795 1.803795 0 0 0 667.7035 511.9534 A1.803795 1.803795 0 0 0 667.5184 511.938 L667.5184 511.9225 z M66.80228 516.2395 A1.803795 1.803795 0 0 0 65.04463 518.0742 A1.803795 1.803795 0 0 0 66.37057 519.7701 A1.803795 1.803795 0 0 0 66.87937 519.8318 A1.803795 1.803795 0 0 0 67.04897 519.8163 A1.803795 1.803795 0 0 0 67.40359 519.7393 A1.803795 1.803795 0 0 0 68.3595 518.9684 A1.803795 1.803795 0 0 0 68.6216 517.997 A1.803795 1.803795 0 0 0 68.63702 517.8275 A1.803795 1.803795 0 0 0 68.39034 517.1182 A1.803795 1.803795 0 0 0 68.29783 516.9795 A1.803795 1.803795 0 0 0 66.80228 516.2394 z M663.186 542.6505 A1.803795 1.803795 0 0 0 662.0297 543.1285 A1.803795 1.803795 0 0 0 661.5054 543.9764 A1.803795 1.803795 0 0 0 662.7697 546.1967 A1.803795 1.803795 0 0 0 664.9744 544.9478 A1.803795 1.803795 0 0 0 664.1727 542.928 A1.803795 1.803795 0 0 0 663.7256 542.7276 A1.803795 1.803795 0 0 0 663.5406 542.6967 A1.803795 1.803795 0 0 0 663.3557 542.6658 L663.3557 542.6505 A1.803795 1.803795 0 0 0 663.186 542.6505 z M71.9519 549.126 A1.803795 1.803795 0 0 0 71.82854 549.1415 A1.803795 1.803795 0 0 0 70.25591 551.1611 A1.803795 1.803795 0 0 0 71.7823 552.703 A1.803795 1.803795 0 0 0 72.29109 552.7184 A1.803795 1.803795 0 0 0 72.47611 552.6722 A1.803795 1.803795 0 0 0 72.79989 552.5797 A1.803795 1.803795 0 0 0 73.69414 551.6854 A1.803795 1.803795 0 0 0 73.8329 550.6833 A1.803795 1.803795 0 0 0 73.81748 550.4982 A1.803795 1.803795 0 0 0 73.61704 550.0049 A1.803795 1.803795 0 0 0 73.52454 549.8507 A1.803795 1.803795 0 0 0 71.9519 549.126 z M654.3052 577.4334 A1.803795 1.803795 0 0 0 654.1201 577.4488 A1.803795 1.803795 0 0 0 653.2568 577.7726 A1.803795 1.803795 0 0 0 652.6555 578.5743 A1.803795 1.803795 0 0 0 653.6113 580.9178 A1.803795 1.803795 0 0 0 655.9857 579.9311 A1.803795 1.803795 0 0 0 655.4153 577.8496 A1.803795 1.803795 0 0 0 654.999 577.5875 A1.803795 1.803795 0 0 0 654.814 577.5412 A1.803795 1.803795 0 0 0 654.6444 577.495 A1.803795 1.803795 0 0 0 654.4749 577.4642 L654.4902 577.4487 A1.803795 1.803795 0 0 0 654.3052 577.4333 z M81.57275 583.7239 A1.803795 1.803795 0 0 0 81.26439 583.7856 A1.803795 1.803795 0 0 0 79.96928 585.975 A1.803795 1.803795 0 0 0 81.66526 587.3318 A1.803795 1.803795 0 0 0 82.15864 587.2701 A1.803795 1.803795 0 0 0 82.32824 587.2085 A1.803795 1.803795 0 0 0 82.66743 587.0697 A1.803795 1.803795 0 0 0 83.43833 586.0829 A1.803795 1.803795 0 0 0 83.46916 585.0808 A1.803795 1.803795 0 0 0 83.39207 584.9113 A1.803795 1.803795 0 0 0 83.25331 584.5875 L83.25331 584.5721 A1.803795 1.803795 0 0 0 81.57273 583.724 z M642.4025 608.547 A1.803795 1.803795 0 0 0 641.5236 608.7782 A1.803795 1.803795 0 0 0 640.8145 609.4875 A1.803795 1.803795 0 0 0 641.5236 611.9235 A1.803795 1.803795 0 0 0 643.9597 611.2144 A1.803795 1.803795 0 0 0 643.6513 609.0712 A1.803795 1.803795 0 0 0 643.2504 608.7783 A1.803795 1.803795 0 0 0 643.0809 608.7167 A1.803795 1.803795 0 0 0 642.9113 608.6396 L642.9113 608.6241 A1.803795 1.803795 0 0 0 642.7417 608.6088 A1.803795 1.803795 0 0 0 642.5721 608.5779 L642.5721 608.5625 A1.803795 1.803795 0 0 0 642.4025 608.5471 z M93.33661 612.494 A1.803795 1.803795 0 0 0 92.70448 612.6019 A1.803795 1.803795 0 0 0 91.62521 614.9146 A1.803795 1.803795 0 0 0 93.47537 616.1018 A1.803795 1.803795 0 0 0 93.93791 615.9939 A1.803795 1.803795 0 0 0 94.10751 615.9014 A1.803795 1.803795 0 0 0 94.41587 615.7472 A1.803795 1.803795 0 0 0 95.09426 614.6833 A1.803795 1.803795 0 0 0 95.00175 613.6812 A1.803795 1.803795 0 0 0 94.94009 613.4961 A1.803795 1.803795 0 0 0 94.84758 613.3419 A1.803795 1.803795 0 0 0 93.33662 612.494 z M622.8987 633.6012 C622.6516 633.4583 622.3323 633.5384 622.1894 633.7863 L621.6806 634.6805 C621.5377 634.9276 621.6178 635.2469 621.8657 635.3898 L633.9996 642.405 C634.2467 642.5479 634.5814 642.4524 634.7242 642.2045 L635.2331 641.3103 C635.376 641.0632 635.2805 640.7586 635.0327 640.6165 L622.8987 633.6013 z M110.6202 633.6321 L98.48621 640.6473 C98.23921 640.7902 98.14297 641.1095 98.28577 641.3566 L98.80998 642.2508 C98.95278 642.4979 99.2715 642.5802 99.51921 642.4357 L111.6532 635.4205 C111.9002 635.2776 111.9978 634.9592 111.8536 634.7113 L111.3294 633.8171 C111.1872 633.57 110.8688 633.4876 110.6202 633.632 z M613.8792 658.748 A1.803795 1.803795 0 0 0 613.3242 658.8405 A1.803795 1.803795 0 0 0 612.507 659.411 A1.803795 1.803795 0 0 0 612.7228 661.955 A1.803795 1.803795 0 0 0 615.2668 661.7237 A1.803795 1.803795 0 0 0 615.3593 659.5344 A1.803795 1.803795 0 0 0 615.0355 659.1797 A1.803795 1.803795 0 0 0 614.8813 659.0872 A1.803795 1.803795 0 0 0 614.7426 658.9793 L614.7426 658.9639 A1.803795 1.803795 0 0 0 614.5884 658.8868 A1.803795 1.803795 0 0 0 613.8792 658.748 z M122.3379 662.0629 A1.803795 1.803795 0 0 0 121.5516 662.325 A1.803795 1.803795 0 0 0 120.9503 664.7919 A1.803795 1.803795 0 0 0 122.9546 665.5936 A1.803795 1.803795 0 0 0 123.4172 665.3931 A1.803795 1.803795 0 0 0 123.5559 665.3006 A1.803795 1.803795 0 0 0 123.8335 665.0539 A1.803795 1.803795 0 0 0 124.2806 663.8976 A1.803795 1.803795 0 0 0 124.0185 662.9262 A1.803795 1.803795 0 0 0 123.926 662.772 A1.803795 1.803795 0 0 0 123.3709 662.2941 A1.803795 1.803795 0 0 0 123.2168 662.2015 A1.803795 1.803795 0 0 0 122.3379 662.0627 z M594.7609 683.1855 A1.803795 1.803795 0 0 0 594.5759 683.201 A1.803795 1.803795 0 0 0 594.3754 683.2474 A1.803795 1.803795 0 0 0 593.4966 683.7099 A1.803795 1.803795 0 0 0 593.4811 686.2693 A1.803795 1.803795 0 0 0 596.0251 686.2847 A1.803795 1.803795 0 0 0 596.3335 684.1416 A1.803795 1.803795 0 0 0 596.056 683.7407 A1.803795 1.803795 0 0 0 595.9018 683.6328 A1.803795 1.803795 0 0 0 595.7631 683.5094 L595.7631 683.494 A1.803795 1.803795 0 0 0 595.6243 683.4015 A1.803795 1.803795 0 0 0 594.7609 683.1856 z M143.476 687.9188 A1.803795 1.803795 0 0 0 142.3659 688.3043 A1.803795 1.803795 0 0 0 142.0113 690.8328 A1.803795 1.803795 0 0 0 144.1081 691.4033 A1.803795 1.803795 0 0 0 144.5553 691.1721 A1.803795 1.803795 0 0 0 144.694 691.0488 A1.803795 1.803795 0 0 0 144.9253 690.7866 A1.803795 1.803795 0 0 0 145.2491 689.584 A1.803795 1.803795 0 0 0 144.8636 688.6436 A1.803795 1.803795 0 0 0 144.7557 688.4894 A1.803795 1.803795 0 0 0 144.3394 688.1656 A1.803795 1.803795 0 0 0 144.1852 688.0732 A1.803795 1.803795 0 0 0 143.476 687.9189 z M569.46 708.8565 A1.803795 1.803795 0 0 0 568.5349 709.2574 A1.803795 1.803795 0 0 0 568.1957 711.7551 A1.803795 1.803795 0 0 0 570.7396 712.0942 A1.803795 1.803795 0 0 0 571.2947 709.9974 A1.803795 1.803795 0 0 0 571.0634 709.5657 A1.803795 1.803795 0 0 0 570.9246 709.4424 A1.803795 1.803795 0 0 0 570.8013 709.3036 A1.803795 1.803795 0 0 0 570.6625 709.1957 L570.6934 709.1957 A1.803795 1.803795 0 0 0 570.3696 709.0107 A1.803795 1.803795 0 0 0 569.46 708.8565 z M169.1161 713.0502 A1.803795 1.803795 0 0 0 168.9311 713.0656 A1.803795 1.803795 0 0 0 167.8519 713.5898 A1.803795 1.803795 0 0 0 167.821 716.1183 A1.803795 1.803795 0 0 0 169.9641 716.4575 A1.803795 1.803795 0 0 0 170.3804 716.1491 A1.803795 1.803795 0 0 0 170.4884 716.0258 A1.803795 1.803795 0 0 0 170.7196 715.7174 A1.803795 1.803795 0 0 0 170.8738 714.4839 A1.803795 1.803795 0 0 0 170.4113 713.6051 A1.803795 1.803795 0 0 0 170.2571 713.4818 A1.803795 1.803795 0 0 0 169.9642 713.2813 L169.9796 713.2659 A1.803795 1.803795 0 0 0 169.1161 713.0501 z M543.6194 729.8403 A1.803795 1.803795 0 0 0 542.8331 730.1024 A1.803795 1.803795 0 0 0 542.2318 732.5693 A1.803795 1.803795 0 0 0 544.6832 733.1707 A1.803795 1.803795 0 0 0 545.5004 731.1663 A1.803795 1.803795 0 0 0 545.2999 730.7037 A1.803795 1.803795 0 0 0 545.1766 730.5649 A1.803795 1.803795 0 0 0 545.084 730.4108 L545.084 730.3953 A1.803795 1.803795 0 0 0 544.9299 730.3027 A1.803795 1.803795 0 0 0 544.8065 730.1948 L544.8065 730.1794 A1.803795 1.803795 0 0 0 544.6678 730.0715 L544.6678 730.0869 A1.803795 1.803795 0 0 0 543.8044 729.8402 A1.803795 1.803795 0 0 0 543.6194 729.8402 z M193.5383 732.1839 A1.803795 1.803795 0 0 0 192.1661 732.8314 A1.803795 1.803795 0 0 0 192.3974 735.3599 A1.803795 1.803795 0 0 0 194.5867 735.4678 A1.803795 1.803795 0 0 0 194.9259 735.1441 A1.803795 1.803795 0 0 0 195.0338 734.9899 A1.803795 1.803795 0 0 0 195.2343 734.6815 A1.803795 1.803795 0 0 0 195.2805 733.4327 A1.803795 1.803795 0 0 0 194.7101 732.6001 A1.803795 1.803795 0 0 0 194.5559 732.4768 A1.803795 1.803795 0 0 0 194.4017 732.3843 A1.803795 1.803795 0 0 0 193.5383 732.1838 z M514.6335 741.8355 L513.7393 742.3597 C513.4921 742.5018 513.4118 742.8218 513.5543 743.069 L520.5541 755.2029 C520.6967 755.45 521.0314 755.5463 521.2787 755.4034 L522.173 754.8792 C522.4203 754.7363 522.4855 754.4155 522.3426 754.1699 L515.3428 742.0359 C515.2003 741.7889 514.882 741.691 514.6336 741.8355 z M218.978 741.851 C218.7313 741.7081 218.4272 741.802 218.2842 742.0515 L211.2844 754.1854 C211.1418 754.4324 211.2066 754.7517 211.454 754.8946 L212.3636 755.4188 C212.6111 755.5617 212.931 755.4678 213.0729 755.2183 L220.0726 743.0844 C220.2152 742.8373 220.1366 742.5026 219.8876 742.3597 L218.978 741.851 z M494.0659 759.0729 A1.803795 1.803795 0 0 0 493.4184 759.1962 A1.803795 1.803795 0 0 0 492.3546 761.5089 A1.803795 1.803795 0 0 0 494.6673 762.5728 A1.803795 1.803795 0 0 0 495.839 760.738 A1.803795 1.803795 0 0 0 495.7311 760.2601 A1.803795 1.803795 0 0 0 495.654 760.0905 A1.803795 1.803795 0 0 0 495.5769 759.9209 L495.5923 759.9209 A1.803795 1.803795 0 0 0 495.4998 759.7821 A1.803795 1.803795 0 0 0 494.436 759.1191 A1.803795 1.803795 0 0 0 494.0659 759.0728 z M243.4772 760.4913 A1.803795 1.803795 0 0 0 242.0896 761.4318 A1.803795 1.803795 0 0 0 242.7988 763.8679 A1.803795 1.803795 0 0 0 244.9419 763.5596 A1.803795 1.803795 0 0 0 245.2348 763.1586 A1.803795 1.803795 0 0 0 245.312 763.0045 A1.803795 1.803795 0 0 0 245.4199 762.6498 A1.803795 1.803795 0 0 0 245.2349 761.4318 A1.803795 1.803795 0 0 0 244.5256 760.7226 A1.803795 1.803795 0 0 0 244.3715 760.6301 A1.803795 1.803795 0 0 0 243.6468 760.4913 A1.803795 1.803795 0 0 0 243.4772 760.4913 z M465.111 770.6827 A1.803795 1.803795 0 0 0 464.818 770.729 A1.803795 1.803795 0 0 0 463.5383 772.9338 A1.803795 1.803795 0 0 0 465.7123 774.2289 A1.803795 1.803795 0 0 0 467.0691 772.5175 A1.803795 1.803795 0 0 0 467.0074 772.0395 A1.803795 1.803795 0 0 0 466.9456 771.8699 A1.803795 1.803795 0 0 0 466.8994 771.6849 A1.803795 1.803795 0 0 0 466.8069 771.5307 A1.803795 1.803795 0 0 0 465.8201 770.7753 A1.803795 1.803795 0 0 0 465.1109 770.6827 z M274.5599 772.4095 A1.803795 1.803795 0 0 0 273.0952 773.5195 A1.803795 1.803795 0 0 0 274.0665 775.894 A1.803795 1.803795 0 0 0 276.1634 775.3389 A1.803795 1.803795 0 0 0 276.4254 774.9072 A1.803795 1.803795 0 0 0 276.4872 774.7376 A1.803795 1.803795 0 0 0 276.5642 774.3984 A1.803795 1.803795 0 0 0 276.2405 773.1803 A1.803795 1.803795 0 0 0 275.4388 772.5636 A1.803795 1.803795 0 0 0 275.2692 772.4865 A1.803795 1.803795 0 0 0 274.745 772.4095 A1.803795 1.803795 0 0 0 274.5599 772.4095 z M430.7288 780.3498 A1.803795 1.803795 0 0 0 430.4359 780.3806 A1.803795 1.803795 0 0 0 428.8787 782.3696 A1.803795 1.803795 0 0 0 430.9293 783.9422 A1.803795 1.803795 0 0 0 432.4402 782.4003 A1.803795 1.803795 0 0 0 432.4556 781.9069 A1.803795 1.803795 0 0 0 432.4093 781.722 A1.803795 1.803795 0 0 0 432.3631 781.5524 A1.803795 1.803795 0 0 0 432.3014 781.3982 L432.3322 781.3982 A1.803795 1.803795 0 0 0 432.1472 781.0744 A1.803795 1.803795 0 0 0 431.438 780.4886 A1.803795 1.803795 0 0 0 430.7288 780.3498 z M309.4971 781.3365 A1.803795 1.803795 0 0 0 307.8165 782.6779 A1.803795 1.803795 0 0 0 309.0654 784.8827 A1.803795 1.803795 0 0 0 311.0851 784.0964 A1.803795 1.803795 0 0 0 311.2856 783.6338 A1.803795 1.803795 0 0 0 311.3163 783.4642 A1.803795 1.803795 0 0 0 311.3625 783.0942 A1.803795 1.803795 0 0 0 310.8846 781.9379 A1.803795 1.803795 0 0 0 310.0366 781.4136 A1.803795 1.803795 0 0 0 309.8516 781.3828 A1.803795 1.803795 0 0 0 309.497 781.3519 L309.497 781.3365 z M366.2353 781.5833 C365.9502 781.5827 365.7113 781.8217 365.7111 782.1074 L365.7265 796.1224 C365.7265 796.4074 365.9497 796.6466 366.2353 796.6466 L367.2683 796.6466 C367.554 796.6465 367.7932 796.4074 367.7925 796.1224 L367.7771 782.1074 C367.7772 781.8224 367.5557 781.5825 367.2683 781.5833 L366.2353 781.5833 z M397.7497 785.5765 A1.803795 1.803795 0 0 0 395.9921 787.4113 A1.803795 1.803795 0 0 0 397.8268 789.1689 A1.803795 1.803795 0 0 0 399.5228 787.8275 A1.803795 1.803795 0 0 0 399.5845 787.3342 A1.803795 1.803795 0 0 0 399.5382 787.1492 A1.803795 1.803795 0 0 0 399.5228 786.9642 L399.5382 786.9642 A1.803795 1.803795 0 0 0 399.4765 786.81 A1.803795 1.803795 0 0 0 399.4148 786.6404 L399.4302 786.6404 A1.803795 1.803795 0 0 0 399.3531 786.4862 A1.803795 1.803795 0 0 0 398.721 785.8387 A1.803795 1.803795 0 0 0 397.7496 785.5766 z M340.2097 785.6844 A1.803795 1.803795 0 0 0 338.4984 787.18 A1.803795 1.803795 0 0 0 339.9631 789.2614 A1.803795 1.803795 0 0 0 341.9057 788.2593 A1.803795 1.803795 0 0 0 342.0445 787.7968 A1.803795 1.803795 0 0 0 342.0599 787.6117 A1.803795 1.803795 0 0 0 342.0753 787.2571 A1.803795 1.803795 0 0 0 341.4894 786.147 A1.803795 1.803795 0 0 0 340.5798 785.7153 A1.803795 1.803795 0 0 0 340.3948 785.6844 A1.803795 1.803795 0 0 0 340.2097 785.6844 z"
              stroke-width="2.8" stroke-linecap="round" stroke-linejoin="round" id="path4234" xml:space="default"
              connector-curvature="0" style="fill:#800000;"/>
        <path d="M353.8203 42.50391 C342.1064 42.50391 334.52 46.76369 328.2637 55.41602 L337.0488 67.79492 C341.4416 59.80815 346.2327 57.81055 353.0215 57.81055 C361.0082 57.81055 363.8047 62.33745 363.8047 70.32422 C363.8047 76.58054 363.1384 79.50842 359.8105 82.70313 C356.4827 85.89783 351.825 87.36221 347.166 90.42383 C333.7216 98.94305 327.7305 110.2579 327.7305 131.8223 L327.7305 139.4102 L377.248 139.4102 L377.248 125.2988 L342.7734 125.2988 C342.7734 115.0491 345.9674 107.5952 356.084 101.7383 C367.7979 94.94958 377.248 87.49564 377.248 69.52539 C377.248 52.35385 367.5309 42.50391 353.8203 42.50391 z M302.041 43.83398 C301.1093 49.02533 296.9827 52.08697 291.6582 52.48633 L291.6582 65.53125 L298.8457 65.53125 L298.8457 139.4102 L312.0234 139.4102 L312.0234 43.83398 L302.041 43.83398 z M205.3906 77.53711 C204.4588 82.72851 200.3323 85.79012 195.0078 86.18945 L195.0078 99.23438 L202.1953 99.23438 L202.1953 173.1133 L215.375 173.1133 L215.375 77.53711 L205.3906 77.53711 z M238.668 77.53711 C237.7362 82.72851 233.6097 85.79012 228.2852 86.18945 L228.2852 99.23438 L235.4746 99.23438 L235.4746 173.1133 L248.6523 173.1133 L248.6523 77.53711 L238.668 77.53711 z M458.9082 82.81836 C457.9764 88.00976 453.8499 91.07137 448.5254 91.4707 L448.5254 104.5176 L455.7148 104.5176 L455.7148 178.3945 L468.8926 178.3945 L468.8926 82.81836 L458.9082 82.81836 z M547.832 164.2344 C536.1181 164.2344 528.5317 168.4922 522.2754 177.1445 L531.0605 189.5254 C535.4533 181.5386 540.2464 179.541 547.0352 179.541 C555.0219 179.541 557.8164 184.0679 557.8164 192.0547 C557.8164 198.311 557.1501 201.2389 553.8223 204.4336 C550.4944 207.6283 545.8367 209.0927 541.1777 212.1543 C527.7333 220.6735 521.7422 231.9884 521.7422 253.5527 L521.7422 261.1406 L571.2617 261.1406 L571.2617 247.0293 L536.7852 247.0293 C536.7852 236.7796 539.9791 229.3257 550.0957 223.4688 C561.8096 216.68 571.2617 209.2261 571.2617 191.2559 C571.2617 174.0843 561.5427 164.2344 547.832 164.2344 z M161.0801 176.5566 C141.2463 176.5566 130.332 193.8618 130.332 225.6758 C130.332 257.6229 141.3791 274.7949 161.2129 274.7949 C181.9785 274.7949 192.2285 257.6229 192.2285 225.6758 C192.2285 193.7287 181.4464 176.5566 161.0801 176.5566 z M105.0391 177.8887 C104.1073 183.0801 99.98076 186.1417 94.65625 186.541 L94.65625 199.5859 L101.8457 199.5859 L101.8457 273.4629 L115.0234 273.4629 L115.0234 177.8887 L105.0391 177.8887 z M161.2129 190.4004 C174.6573 190.4004 179.1836 202.381 179.1836 225.6758 C179.1836 249.6361 173.5924 260.418 161.2129 260.418 C148.9665 260.418 143.5098 249.6361 143.5098 225.6758 C143.5098 202.381 148.4341 190.4004 161.2129 190.4004 z M596.6465 285.332 C585.7312 285.332 578.1436 293.8522 576.8125 300.5078 L587.5957 305.166 C589.7255 301.572 591.1895 299.4434 596.3809 299.4434 C602.6371 299.4434 605.0332 303.9691 605.0332 310.7578 C605.0332 319.4101 602.3702 323.5371 595.8477 323.5371 L590.9219 323.5371 L590.9219 337.6465 L595.8477 337.6465 C603.8344 337.6465 608.4941 342.5712 608.4941 354.2852 C608.4941 363.3369 604.1008 369.5938 596.6465 369.5938 C590.3902 369.5938 586.5302 366.5313 584.4004 361.3398 L573.3516 369.9922 C577.7443 379.0439 585.465 383.5703 596.6465 383.5703 C612.4869 383.5703 621.8047 371.3239 621.8047 354.1523 C621.8047 341.3735 615.0167 332.3221 608.4941 329.793 C614.218 326.0658 617.1465 319.9427 617.1465 309.8262 C617.1465 293.8526 607.9611 285.332 596.6465 285.332 z M80.08203 285.998 C63.44293 285.998 53.5918 297.7122 53.5918 319.6758 C53.5918 337.646 62.7766 350.1582 76.08789 350.1582 C81.94485 350.1582 88.4686 346.8313 91.13086 341.1074 C88.60171 360.1425 78.21799 369.4605 67.30273 370.5254 L68.90039 383.9688 C89.39977 382.9038 104.3086 356.0162 104.3086 324.6016 C104.3086 301.0406 95.25689 285.998 80.08203 285.998 z M78.88477 300.375 C86.87154 300.375 90.99805 307.5627 90.99805 318.7441 C90.99805 329.9256 86.47145 336.582 78.35156 336.582 C70.36479 336.582 66.10547 329.66 66.10547 318.4785 C66.10547 307.6964 70.89799 300.375 78.88477 300.375 z M118.6895 401.9063 C106.4431 401.9063 98.72266 410.825 98.72266 425.2012 C98.72266 432.6555 100.7195 439.3117 106.4434 443.9707 C98.85593 446.4998 93.13281 457.4145 93.13281 470.1934 C93.13281 489.2285 103.3831 500.1445 118.8242 500.1445 C134.9309 500.1445 145.0469 489.4947 145.0469 470.1934 C145.0469 458.4794 139.9892 446.7665 130.9375 444.6367 C137.7263 439.8446 139.7227 432.9214 139.7227 425.334 C139.7227 409.2273 131.6014 401.9063 118.6895 401.9063 z M550.8652 408.5195 L516.9199 467.3555 L516.9199 479.3359 L551.2637 479.3359 L551.2637 504.0938 L564.3086 504.0938 L564.3086 479.3359 L573.0938 479.3359 L573.0938 465.3594 L564.3086 465.3594 L564.3086 408.5195 L550.8652 408.5195 z M119.2227 414.9512 C125.7452 414.9512 128.0078 419.6098 128.0078 427.1973 C128.0078 433.986 124.9465 438.6465 119.2227 438.6465 C112.8332 438.6465 109.6387 434.7847 109.6387 427.1973 C109.6387 419.6098 112.3008 414.9512 119.2227 414.9512 z M551.2637 430.75 L551.2637 465.3594 L532.0957 465.3594 L551.2637 430.75 z M119.2227 452.0898 C128.8068 452.0898 132.8008 457.6813 132.8008 469.9277 C132.8008 482.1741 127.7419 486.9648 119.2227 486.9648 C110.7034 486.9648 105.3789 481.1092 105.3789 469.9277 C105.3789 458.0807 110.0379 452.0898 119.2227 452.0898 z M194.8438 485.9824 L194.8438 500.2266 L230.6523 500.2266 C216.143 517.6644 207.4896 549.2122 206.0254 581.5586 L220.1367 581.5586 C220.5361 549.4784 230.5191 517.6635 245.4277 502.3555 L245.4277 485.9824 L194.8438 485.9824 z M432.9609 485.9824 L429.6328 532.5723 L441.8789 538.4297 C445.7392 533.6376 450.1307 531.6406 454.5234 531.6406 C461.9778 531.6406 467.8359 537.8978 467.8359 550.2773 C467.8359 561.9913 461.4455 568.1133 451.8613 568.1133 C446.5368 568.1133 441.3462 566.2494 435.0898 561.3242 L428.4336 575.4355 C433.7581 580.0945 439.8825 582.8887 452.1289 582.8887 C468.6349 582.8887 480.6152 571.7082 480.6152 550.4102 C480.6152 529.5114 471.5637 517.1309 455.457 517.1309 C451.0643 517.1309 446.6702 518.7282 443.0762 522.3223 L444.9395 500.2266 L475.5566 500.2266 L475.5566 485.9824 L432.9609 485.9824 z M340.9863 524.0625 C320.7532 525.793 305.8457 551.8842 305.8457 583.2988 C305.8457 606.7267 315.2964 621.3691 330.2051 621.3691 C346.1786 621.3691 356.1621 610.1863 356.1621 588.2227 C356.1621 570.1193 346.8433 557.7402 334.0645 557.7402 C328.3406 557.7402 321.6849 562.2668 318.4902 566.9258 C321.2856 547.3582 331.4033 540.1703 343.1172 537.375 L340.9863 524.0625 z M331.668 571.1855 C339.2554 571.1855 344.1816 578.1076 344.1816 589.2891 C344.1816 600.4705 339.1238 607.3926 331.0039 607.3926 C322.884 607.3926 318.8906 600.3358 318.8906 589.1543 C318.8906 577.9728 323.5481 571.1855 331.668 571.1855 z"
              stroke-width="1px" font-family="'Blue Highway'" font-style="normal" font-weight="400"
              transform="translate(32.2986, 152.4998)" id="path4502" xml:space="default" line-height="125%"
              inkscape-font-specification="'Blue Highway, Normal'" text-align="start" font-stretch="normal"
              letter-spacing="0px" word-spacing="0px" writing-mode="lr-tb" style="fill:#000000;"/>
        <path d="M365.9381 557.751 C371.9485 537.6212 377.959 517.4913 383.9694 497.3615 C377.959 405.5496 371.9485 313.7379 365.9381 221.9261 C359.9276 313.7379 353.9172 405.5496 347.9067 497.3615 C353.9172 517.4913 359.9276 537.6212 365.9381 557.751 z"
              fill-rule="evenOdd" stroke-width="1px" id="path4461" xml:space="default" connector-curvature="0"
              style="fill:#000000;"/>
        <path d="M342.2804 450.742 L350.4046 495.6773 L461.778 657.7178 L377.1333 480.2454 L342.2804 450.742 z"
              fill-rule="evenOdd" stroke-width="1px" id="path4461-3" xml:space="default" connector-curvature="0"
              style="fill:#000000;"/>
        <circle cx="366.7548" cy="486.9514" r="7.042167" stroke-width="2.8" stroke-linecap="round"
                stroke-linejoin="round" id="path4465" xml:space="default" style="fill:#FFFFFF;"/>
    </g>
</svg>