<?xml version="1.0" encoding="utf-8"?>
<!DOCTYPE svg PUBLIC "-//W3C//DTD SVG 1.1//EN" "http://www.w3.org/Graphics/SVG/1.1/DTD/svg11.dtd">
<svg x="0" y="0" width="32" height="32" overflow="hidden" viewBox="0, 0, 500, 500" preserveAspectRatio="xMidYMid" font-size="0" id="svg1893" xml:space="default" xmlns="http://www.w3.org/2000/svg" xmlns:xlink="http://www.w3.org/1999/xlink" xmlns:xml="http://www.w3.org/XML/1998/namespace" version="1.1">
  <defs id="defs1897" xml:space="default" />
  <circle cx="250" cy="250.001" r="199.951" stroke="#000000" stroke-width="4" stroke-miterlimit="10" id="circle1871" xml:space="default" style="fill:#F5F2A4;" />
  <path d="M250 2.5 C386.802 2.5 497.5 113.198 497.5 250 C497.5 386.802 386.802 497.5 250 497.5 C113.198 497.5 2.5 386.802 2.5 250 C2.5 113.198 113.198 2.5 250 2.5 z" stroke="#000000" stroke-width="5" stroke-miterlimit="10" id="path1873" xml:space="default" style="fill:none;" />
  <path d="M50.05 250 C50.05 360.596 139.404 449.95 250 449.95 C360.596 449.95 449.95 360.597 449.95 250 C449.95 139.403 360.597 50.05 250 50.05 C139.403 50.05 50.05 139.403 50.05 250 z" stroke="#000000" stroke-width="4" stroke-miterlimit="10" id="path1875" xml:space="default" style="fill:none;" />
  <g stroke="#000000" stroke-width="3" stroke-miterlimit="10" id="g1879" xml:space="default" style="fill:none;">
    <path d="M250 250 L250 0 M250 250 L190.186 7.324 M250 250 L133.79 28.687 M250 250 L84.23 62.866 M250 250 L44.312 108.032 M250 250 L16.235 161.377 M250 250 L1.83 219.85 M250 250 L1.83 280.15 M250 250 L16.235 338.623 M250 250 L44.312 391.968 M250 250 L84.23 437.134 M250 250 L133.79 471.313 M250 250 L190.186 492.676 M250 250 L250 500 M250 250 L309.814 492.676 M250 250 L366.21 471.313 M250 250 L415.77 437.134 M250 250 L455.688 391.968 M250 250 L483.765 338.623 M250 250 L498.17 280.15 M250 250 L498.17 219.85 M250 250 L483.765 161.377 M250 250 L455.688 108.032 M250 250 L415.77 62.866 M250 250 L366.21 28.687 M250 250 L309.814 7.324" id="path1877" xml:space="default" />
  </g>
  <circle cx="250" cy="250.001" r="154.541" stroke="#000000" stroke-width="4" stroke-miterlimit="10" id="circle1881" xml:space="default" style="fill:#E6E7E8;" />
  <circle cx="250" cy="250" r="165" id="circle1883" xml:space="default" style="fill:none;" />
  <path d="M283.135 88.036 L282.963 88.133 C281.708 87.97501 280.496 87.80701 279.323 87.633 C278.15 87.456 276.978 87.28101 275.806 87.107 C275.65 86.664 275.536 85.897 275.46 84.814 C275.384 83.729 275.284 82.954 275.157 82.486 C274.94 81.051 274.807 80.226 274.755 80.006 C274.702 79.786 274.528 79.486 274.232 79.106 C273.746 78.963 273.086 78.826 272.252 78.69399 C271.422 78.56199 270.952 78.48999 270.848 78.47599 L268.888 78.22599 C268.236 78.14599 267.595 78.06399 266.968 77.98399 C266.7079 77.952 266.4879 78.04399 266.318 78.26199 C266.142 78.48 265.82 79.146 265.346 80.25999 L263.276 85.12 C263.266 85.198 263.206 85.257 263.096 85.297 L258.354 84.695 C258.31 84.61 258.291 84.555 258.294 84.528 C258.298 84.503 258.274 84.486 258.222 84.478 C260.394 80.958 262.384 77.555 264.195 74.268 C266.005 70.98 267.808 67.498 269.601 63.824 C269.737 63.39 269.668 62.877 269.399 62.284 C269.129 61.694 268.967 61.289 268.916 61.069 C268.923 61.016 268.96 60.98899 269.026 60.98199 C269.092 60.97799 269.13 60.94999 269.136 60.897 C270.442 61.063 271.744 61.25399 273.046 61.472 C274.344 61.692 275.449 61.87 276.36 62.012 C276.516 62.032 276.606 62.057 276.6299 62.086 C276.6499 62.116 276.825 63.406 277.153 65.956 C277.4799 68.506 278.133 71.846 279.1079 75.976 C280.084 80.109 281.4259 84.129 283.1349 88.036 z M273.687 75.25101 C273.594 74.52301 273.497 73.92101 273.399 73.44301 C273.299 72.96601 273.082 72.00901 272.746 70.57301 C272.411 69.13701 272.219 68.40301 272.17 68.371 C272.135 68.445 272.065 68.47601 271.96 68.46301 C271.513 69.067 271.11 69.66901 270.756 70.271 C270.402 70.873 269.629 72.299 268.441 74.551 C268.399 74.888 268.431 75.063 268.536 75.076 C269.423 75.401 270.35 75.62601 271.316 75.748 C271.944 75.828 272.602 75.871 273.292 75.878 C273.459 75.82 273.584 75.724 273.668 75.588 C273.748 75.453 273.758 75.341 273.688 75.252 z M319.486 90.406 C319.433 91.089 319.266 91.813 318.986 92.57899 C318.289 94.48199 317.149 95.78899 315.568 96.49899 C314.584 97.036 313.511 97.28099 312.348 97.23299 C311.185 97.185 309.972 96.92999 308.708 96.467 C308.164 96.267 307.576 96.03 306.946 95.757 C306.316 95.48499 305.646 95.161 304.939 94.78999 C303.996 94.44699 302.513 93.87399 300.489 93.076 C298.463 92.27599 297.326 91.83299 297.079 91.742 C297.307 91.348 297.609 90.88599 297.989 90.352 C298.366 89.81599 298.739 89.182 299.106 88.447 C299.472 87.713 299.946 86.651 300.526 85.265 C301.103 83.877 301.736 82.245 302.426 80.365 L304.138 75.693 L305.836 71.057 C305.914 70.16 305.988 69.262 306.066 68.365 C306.084 68.31499 306.15 68.285 306.266 68.271 C306.983 68.534 307.696 68.80099 308.406 69.076 C309.116 69.35 309.84 69.62299 310.579 69.893 C311.959 70.39899 313.2491 70.84299 314.449 71.227 C315.649 71.612 316.793 71.917 317.882 72.14899 C319.3101 72.672 320.5991 73.39099 321.742 74.30099 C322.889 75.211 323.575 76.129 323.796 77.05099 C323.978 78.15499 323.851 79.30099 323.416 80.48799 C323.008 81.59999 322.394 82.46799 321.576 83.09499 C321.156 83.55799 320.586 83.939 319.874 84.23899 C319.162 84.53899 318.386 84.75899 317.55 84.89899 C317.338 85.019 317.276 85.19299 317.36 85.41899 C318.032 86.05899 318.583 86.83599 319.012 87.75099 C319.444 88.66599 319.602 89.55099 319.486 90.40699 z M312.494 91.92599 C312.824 91.48599 313.076 91.02999 313.248 90.56 C313.574 89.67 313.638 88.86 313.441 88.128 C313.244 87.396 312.653 86.591 311.665 85.708 C310.677 84.828 309.661 84.196 308.619 83.813 C308.444 83.75 308.307 83.7 308.209 83.663 C307.911 83.553 307.616 83.58701 307.329 83.76 L306.609 85.717 C306.176 86.899 305.821 87.96301 305.546 88.909 C305.271 89.855 305.076 90.783 304.97 91.692 C305.012 91.959 305.133 92.184 305.334 92.37 C305.534 92.556 305.981 92.776 306.676 93.03001 C307.746 93.423 308.818 93.535 309.894 93.37 C310.969 93.202 311.836 92.72 312.494 91.925 z M317.774 76.946 C317.662 76.26 317.227 75.59 316.472 74.934 C315.716 74.278 314.842 73.769 313.855 73.407 C313.283 73.365 312.853 73.37 312.568 73.419 C312.283 73.469 312.036 73.665 311.826 74.009 C311.316 74.63599 310.796 75.44099 310.266 76.424 C309.738 77.408 309.121 78.864 308.413 80.794 C308.386 80.868 308.413 80.962 308.499 81.076 C308.582 81.19199 308.617 81.26299 308.609 81.286 C309.036 81.49899 309.361 81.646 309.584 81.726 C310.696 82.136 311.814 82.279 312.939 82.158 C314.062 82.036 315.032 81.67 315.845 81.056 C316.659 80.443 317.235 79.678 317.568 78.763 C317.805 78.121 317.873 77.515 317.772 76.945 z M366.887 103.727 C366.754 103.923 366.535 103.967 366.227 103.855 C364.514 103.522 362.807 103.178 361.107 102.823 C360.977 102.735 360.847 102.646 360.715 102.558 C360.477 100.935 359.969 99.45399 359.19 98.118 C358.41 96.778 357.365 95.668 356.057 94.781 C354.387 94.007 352.587 93.729 350.655 93.95399 C348.723 94.17899 347.1 94.77999 345.788 95.759 C344.474 96.739 343.425 97.80699 342.64 98.967 C341.812 100.194 341.24 101.497 340.925 102.88 C340.609 104.262 340.603 105.646 340.905 107.03 C341.188 108.116 341.615 109.116 342.19 110.03 C342.765 110.944 343.487 111.697 344.36 112.287 C344.86 112.627 346.18 113.18 348.317 113.945 C350.454 114.71 353.469 115.199 357.364 115.409 C356.244 116.504 355.239 117.424 354.354 118.169 C353.476 118.853 352.824 119.371 352.397 119.722 C352.213 119.662 352.107 119.655 352.079 119.699 C351.051 119.196 350.033 118.635 349.019 118.015 C348.009 117.395 346.936 116.7 345.802 115.933 L345.342 115.623 L344.952 115.358 L343.707 114.515 L342.497 113.697 L342.137 113.453 L341.237 112.843 L340.502 112.346 C338.712 111.136 337.3391 109.761 336.377 108.22 C335.4171 106.68 334.9771 104.817 335.057 102.63 C335.137 100.442 335.937 98.22599 337.457 95.97999 C338.282 94.75799 339.269 93.67599 340.414 92.73499 C341.559 91.79198 342.769 91.08498 344.044 90.61098 C348.471 89.28098 352.67 89.96098 356.64 92.64398 C357.7101 93.17598 358.626 93.64398 359.388 94.04798 C360.148 94.44998 360.812 94.84398 361.378 95.22798 C361.814 95.52298 362.376 95.97398 363.063 96.58198 C363.748 97.18798 364.59 98.48198 365.589 100.46 C366.585 102.437 367.019 103.524 366.886 103.72 z M397.207 136.982 C396.35 139.09 394.997 140.952 393.15 142.562 C391.74 143.794 390.166 144.749 388.43 145.425 C386.69 146.103 384.93 146.399 383.142 146.317 C381.46 146.317 379.922 145.947 378.525 145.207 C377.129 144.47 375.892 143.574 374.815 142.521 C373.74 141.468 372.371 139.991 370.707 138.085 C370.017 137.291 369.025 136.075 367.737 134.439 C366.449 132.802 365.579 131.726 365.129 131.209 C365.495 131.029 366.101 130.814 366.949 130.564 C367.796 130.314 368.553 129.959 369.219 129.5 C369.884 129.04 370.805 128.343 371.979 127.405 C373.154 126.467 374.564 125.281 376.209 123.843 L376.776 123.35 L377.282 122.908 L377.729 122.518 L378.114 122.181 L378.442 121.897 L379.455 121.013 L380.495 120.105 L380.795 119.845 C382.242 118.581 383.319 117.152 384.025 115.557 C384.205 115.365 384.331 115.307 384.401 115.387 C385.369 116.497 386.323 117.611 387.261 118.727 L390.094 122.092 L390.561 122.628 C391.754 123.994 392.965 125.241 394.191 126.368 L395.229 127.556 C396.561 129.081 397.436 130.506 397.859 131.831 C398.2791 133.159 398.062 134.876 397.206 136.983 z M391.437 135.302 C392.359 133.592 392.739 132.079 392.577 130.772 C392.415 129.462 392.085 128.362 391.587 127.468 C391.087 126.574 390.742 126.018 390.553 125.802 C390.19 125.385 389.59 124.982 388.758 124.588 C387.926 124.194 387.303 123.893 386.888 123.678 C386.473 123.463 385.893 123.593 385.151 124.066 C384.411 124.54 383.697 125.006 383.011 125.464 C381.956 126.384 380.447 127.622 378.481 129.181 C376.515 130.741 375.441 131.598 375.263 131.753 C374.806 132.153 374.347 132.57 373.886 133.006 C373.426 133.442 372.996 133.89 372.589 134.349 C372.477 134.621 372.417 134.893 372.407 135.163 C372.397 135.433 372.485 135.853 372.671 136.428 C372.855 137 373.234 137.615 373.804 138.268 C374.636 139.221 375.694 139.922 376.98 140.373 C378.265 140.823 379.7 141.093 381.282 141.18 C382.684 141.142 384.072 140.876 385.442 140.38 C386.812 139.883 388.034 139.166 389.108 138.23 C389.565 137.83 389.998 137.383 390.405 136.888 C390.813 136.392 391.155 135.864 391.438 135.303 z M422.198 170.365 C421.774 170.409 421.11 170.535 420.208 170.742 C419.303 170.949 418.768 171.066 418.605 171.094 L418.285 170.821 C417.815 169.921 417.082 168.461 416.088 166.438 C415.092 164.418 414.548 163.314 414.45 163.128 C414.178 163.006 413.97 162.953 413.83 162.968 C413.5 163.081 413.112 163.238 412.665 163.443 C412.219 163.647 411.785 163.858 411.361 164.079 C411.011 164.263 410.481 164.539 409.778 164.906 L408.228 165.714 C408.17 165.774 408.148 165.904 408.163 166.104 C408.36 166.71 408.571 167.258 408.798 167.748 C409.021 168.236 409.31 168.818 409.663 169.493 C410.173 170.471 410.663 171.33 411.14 172.073 C411.617 172.815 412.198 173.673 412.883 174.646 C412.369 174.916 411.7 175.211 410.875 175.536 C410.049 175.863 409.428 176.106 409.005 176.266 C408.885 176.151 408.772 176.046 408.665 175.953 C408.3221 175.297 407.815 174.183 407.143 172.61 C406.471 171.036 405.996 169.98 405.713 169.442 C405.42 168.879 405.08 168.312 404.6931 167.737 C404.4231 167.61 404.2751 167.553 404.2511 167.565 C404.0681 167.662 403.8651 167.767 403.6471 167.881 L403.1471 168.143 C402.7541 168.348 402.1701 168.69 401.3931 169.169 C400.6151 169.649 400.0191 169.997 399.6031 170.213 C399.1411 170.453 398.9971 170.736 399.166 171.063 C399.523 172.207 400.0081 173.36 400.613 174.523 C401.063 175.383 401.549 176.195 402.073 176.958 C402.593 177.721 403.153 178.375 403.753 178.921 C403.85 179.107 403.771 179.267 403.513 179.401 L403.129 179.601 C402.849 179.806 402.575 179.979 402.307 180.121 L401.5201 180.531 L400.9231 180.841 C400.7131 180.951 400.5171 181.045 400.3351 181.125 C400.1551 181.205 399.9871 181.269 399.8351 181.319 C399.3971 180.479 398.7551 179.149 397.9131 177.332 C397.0691 175.516 396.403 174.14 395.9151 173.206 L392.6301 166.902 L392.5731 166.797 C394.3701 166.187 396.1671 165.465 397.968 164.631 C399.768 163.795 401.8021 162.786 404.0731 161.601 L404.8111 161.217 L405.4761 160.869 L406.0361 160.577 L406.5261 160.321 L406.9821 160.085 C407.4271 159.855 407.8701 159.622 408.3151 159.39 C408.7581 159.16 409.2131 158.92 409.6801 158.677 L410.0651 158.477 C410.9551 158.014 411.8251 157.45 412.6801 156.785 C413.537 156.12 414.26 155.555 414.8501 155.092 L415.0631 155.159 C415.5631 156.115 416.3291 157.727 417.3631 159.995 C418.3971 162.263 419.1211 163.793 419.5351 164.587 C420.1331 165.731 420.6371 166.627 421.0481 167.273 C421.4611 167.919 421.8631 168.489 422.2561 168.983 C422.6501 169.473 422.9121 169.791 423.0461 169.929 C423.0941 170.023 423.0601 170.099 422.9431 170.161 C422.8231 170.218 422.5771 170.286 422.2011 170.364 z M437.564 216.175 C436.121 216.265 434.679 216.353 433.239 216.441 C433.131 216.331 433.049 216.269 432.991 216.256 C432.643 214.741 432.233 212.869 431.761 210.641 C431.289 208.413 431.046 207.273 431.034 207.221 L430.644 206.946 C430.209 207.046 429.372 207.199 428.137 207.403 C426.899 207.606 425.985 207.776 425.397 207.913 C424.831 208.043 424.29 208.208 423.767 208.408 L423.607 208.768 L424.163 211.183 C424.553 212.87 424.891 214.179 425.181 215.108 C425.471 216.038 425.911 217 426.501 217.994 L426.554 218.224 C425.772 218.404 424.948 218.534 424.084 218.611 C423.224 218.687 422.549 218.741 422.061 218.774 C421.974 218.632 421.901 218.488 421.839 218.341 C421.609 217.343 421.331 216.048 421.005 214.454 C420.679 212.859 420.489 211.948 420.437 211.718 L420.199 210.683 C420.122 210.351 420.009 209.973 419.857 209.551 L419.497 209.391 C417.982 209.741 416.475 210.087 414.974 210.431 C413.474 210.779 411.964 211.125 410.45 211.474 L410.27 211.394 C410.117 210.724 409.88 209.704 409.566 208.334 L408.863 205.274 C408.993 205.244 409.069 205.171 409.097 205.056 C411.114 204.862 413.217 204.58 415.411 204.21 C417.605 203.84 420.004 203.368 422.611 202.795 C425.218 202.222 427.731 201.657 430.155 201.1 C431.3 200.674 432.465 200.162 433.652 199.565 L433.802 199.855 C434.042 200.907 434.379 202.545 434.812 204.77 C435.242 206.995 435.582 208.66 435.838 209.762 C436.091 210.866 436.355 211.892 436.6281 212.842 C436.9001 213.792 437.2151 214.688 437.5681 215.525 C437.588 215.602 437.6981 215.692 437.9001 215.795 C438.1021 215.895 438.2071 215.96 438.213 215.985 C438.226 216.035 438.188 216.079 438.101 216.113 C438.013 216.146 437.8351 216.167 437.567 216.175 z M434.7 267 C434.597 266.865 434.52 266.8 434.467 266.8 C434.323 265.322 434.209 264.064 434.127 263.024 C434.045 261.984 434.007 261.067 434.017 260.277 C434.667 259.941 435.287 259.487 435.865 258.912 C436.443 258.339 436.788 257.722 436.897 257.065 C437.087 256.409 437.254 255.699 437.407 254.937 C437.557 254.174 437.634 253.464 437.6411 252.807 C437.6511 251.752 437.4611 250.829 437.076 250.035 C436.618 248.503 435.738 247.059 434.436 245.705 C433.134 244.35 431.822 243.508 430.498 243.18 C429.173 242.85 427.998 242.682 426.975 242.673 C425.291 242.656 423.725 242.99 422.273 243.675 C420.821 244.359 419.588 245.381 418.577 246.741 L417.292 249.258 C416.862 250.228 416.645 251.148 416.637 252.018 C416.634 252.28 416.633 252.544 416.629 252.808 C416.706 253.071 416.819 253.592 416.971 254.37 C417.121 255.147 417.5331 256.066 418.207 257.126 C418.881 258.186 419.837 258.854 421.071 259.128 C421.518 259.291 422.0041 259.408 422.531 259.478 C423.055 259.548 423.649 259.588 424.307 259.594 L425.65 259.606 L426.953 259.619 C427.003 260.009 427.023 260.549 427.017 261.237 C427.009 261.925 427.017 262.477 427.039 262.894 L427.015 265.389 C426.989 265.415 426.9691 265.453 426.955 265.505 C426.94 265.557 426.92 265.609 426.893 265.66 C426.05 265.653 424.8 265.503 423.1451 265.21 C421.488 264.92 420.3181 264.77 419.632 264.764 C418.9481 264.757 418.342 264.811 417.8141 264.924 C417.287 265.038 416.851 265.184 416.506 265.366 L415.3961 265.948 C414.9991 266.155 414.7081 266.284 414.5231 266.335 C414.5231 266.202 414.5111 266.118 414.4861 266.078 C414.4601 266.038 414.4331 266.018 414.4061 266.018 C414.6861 264.413 414.8331 262.728 414.8491 260.965 C414.8591 259.938 414.8091 258.265 414.6991 255.947 C414.5891 253.627 414.5391 252.087 414.5451 251.324 C414.3981 250.294 414.3281 249.228 414.3401 248.122 C414.3601 246.172 414.7241 244.294 415.4371 242.482 C416.1521 240.672 417.5771 239.238 419.7201 238.178 C421.8601 237.118 424.1771 236.6 426.6741 236.624 C429.2771 236.648 431.6561 237.308 433.8141 238.606 C435.9721 239.903 437.4741 241.728 438.3191 244.08 C438.8591 245.27 439.2211 246.537 439.4071 247.8829 C439.5911 249.228 439.6771 250.7299 439.6611 252.388 C440.0131 254.103 440.1811 255.856 440.1631 257.6479 C440.1461 259.4109 439.9631 260.9229 439.6061 262.1849 C439.2521 263.4449 438.7511 264.3419 438.1001 264.8749 C437.4501 265.4089 436.8601 265.877 436.3301 266.2809 C435.8001 266.688 435.2561 266.9259 434.7001 267.0009 z M431.018 308.83 C429.866 308.107 428.625 307.49 427.295 306.98 C425.965 306.47 424.481 306.01 422.842 305.598 C421.562 305.278 420.282 304.942 419.008 304.595 L415.184 303.555 C413.954 303.245 412.814 302.987 411.764 302.778 C410.714 302.568 409.834 302.436 409.124 302.382 C408.418 302.325 407.887 302.322 407.534 302.369 C407.181 302.416 406.91 302.442 406.718 302.449 L406.6899 302.239 L407.5159 298.942 C407.8889 297.462 408.1619 296.362 408.3419 295.648 C408.5299 295.448 408.8159 295.453 409.2019 295.658 C410.7579 296.321 412.2899 296.916 413.7989 297.443 C415.3059 297.97 416.8189 298.423 418.3369 298.806 C418.7219 298.902 418.9569 298.786 419.0399 298.456 L420.4729 292.744 L421.9159 286.996 C421.8299 286.906 421.7719 286.816 421.7419 286.724 C421.7119 286.631 421.6869 286.566 421.6699 286.529 C420.9359 286.345 419.6819 286.072 417.9039 285.707 C416.1289 285.343 415.1889 285.147 415.0879 285.122 C415.0119 285.102 414.9319 284.995 414.8479 284.798 C414.7619 284.598 414.6599 284.526 414.5379 284.578 C414.3999 284.705 414.3179 284.818 414.2909 284.922 C413.9849 284.845 413.5009 284.777 412.8369 284.72 C412.1709 284.66 411.6739 284.59 411.3429 284.508 C411.5729 283.48 411.8449 282.338 412.1589 281.088 C412.4729 279.838 412.7109 278.892 412.8689 278.253 L413.0529 278.177 C414.8529 278.899 416.7729 279.577 418.8129 280.211 C420.8529 280.845 422.9979 281.444 425.2449 282.008 C426.1909 282.245 427.6269 282.608 429.5569 283.091 C431.4849 283.573 432.9339 283.938 433.9049 284.181 C434.9649 284.281 436.0249 284.397 437.0749 284.529 C437.0049 284.925 436.8869 285.445 436.7249 286.091 C436.5629 286.736 436.4369 287.241 436.3449 287.601 C436.1319 288.455 435.9499 289.177 435.8009 289.771 C435.6529 290.366 435.5209 290.895 435.4029 291.361 C433.2729 290.067 430.9429 289.101 428.4029 288.465 C428.0569 288.323 427.7829 288.221 427.5809 288.155 C427.3789 288.089 427.1509 288.028 426.8939 287.965 C426.5839 287.887 426.3269 287.855 426.1199 287.871 C425.9099 287.886 425.7769 288.011 425.7199 288.241 C425.4949 289.134 425.1029 290.589 424.5399 292.607 C423.9799 294.625 423.6859 295.697 423.6529 295.825 L423.5379 296.285 L423.0179 298.355 C422.9479 298.96 422.8929 299.395 422.8549 299.657 C422.9649 299.874 423.045 299.989 423.097 300.003 L424.287 300.301 C426.493 300.855 428.149 301.227 429.261 301.419 C430.3709 301.609 431.563 301.669 432.836 301.591 L431.066 308.641 L431.019 308.831 z M394.37 330.214 L394.29 329.947 L397.373 324.117 C397.423 324.022 397.503 324.007 397.621 324.069 C401.163 326.594 405.118 329.014 409.487 331.326 C410.555 331.891 412.18 332.646 414.357 333.589 C416.537 334.532 418.087 335.251 419.019 335.742 C419.134 335.802 419.189 335.868 419.181 335.939 C419.173 336.009 419.191 336.057 419.241 336.082 L416.321 341.599 L416.0909 341.701 C414.5509 340.619 412.9409 339.571 411.2589 338.564 C409.575 337.554 407.8059 336.559 405.946 335.576 C402.2039 333.596 398.3459 331.808 394.37 330.213 z M387.645 380.85 C387.625 380.832 387.315 380.46 386.713 379.728 C386.113 378.998 385.695 378.526 385.461 378.316 C383.813 376.841 381.455 374.628 378.391 371.676 C375.326 368.722 373.529 367.008 372.999 366.534 C371.689 364.836 371.147 362.786 371.369 360.387 C371.589 357.989 372.315 355.802 373.549 353.831 C373.913 353.346 374.2289 352.923 374.4969 352.561 C374.7669 352.203 374.989 351.924 375.1649 351.727 C375.6029 351.237 376.0129 350.877 376.3919 350.652 C376.8519 351.206 377.1859 351.652 377.3919 351.997 C377.5959 352.34 377.9089 352.927 378.3289 353.762 C378.171 353.939 377.809 354.109 377.239 354.272 C376.671 354.434 376.299 354.612 376.1219 354.809 C375.999 354.947 375.9149 355.119 375.8719 355.327 C375.796 357.98 376.5259 360.381 378.062 362.534 C379.602 364.684 381.774 367.017 384.5819 369.527 L386.7899 371.502 C387.3969 372.046 388.395 372.788 389.7799 373.728 C391.1669 374.666 392.0649 375.32 392.4769 375.688 C392.1669 376.154 391.7409 376.69 391.1969 377.298 C390.4769 378.104 389.8339 378.783 389.2669 379.338 C388.7019 379.888 388.1599 380.395 387.6469 380.853 z M346.8 413.576 C348.118 408.513 349.367 403.211 350.547 397.668 C350.572 397.428 350.332 397.193 349.824 396.965 C348.056 396.483 346.252 396.017 344.412 395.569 C342.572 395.119 340.805 394.707 339.112 394.333 C337.417 393.959 335.322 393.511 332.822 392.986 C333.236 392.701 333.862 392.256 334.698 391.651 C335.535 391.047 336.181 390.586 336.638 390.271 C337.49 389.688 338.283 389.209 339.018 388.831 C340.811 389.294 342.515 389.731 344.128 390.141 C345.741 390.551 347.171 390.895 348.418 391.174 C349.668 391.45 351.112 391.712 352.758 391.957 C352.808 391.89 352.854 391.827 352.893 391.769 C352.933 391.709 352.931 391.649 352.886 391.582 C352.3061 390.735 351.256 389.379 349.7361 387.515 C348.2161 385.651 347.1991 384.339 346.679 383.578 C346.705 383.526 346.7231 383.482 346.729 383.445 C346.736 383.41 346.731 383.381 346.715 383.359 C347.275 382.977 348.085 382.389 349.149 381.595 C350.213 380.802 350.991 380.235 351.485 379.898 L351.845 380.08 C352.977 381.73 354.503 384.036 356.425 387 C358.345 389.96 359.585 391.854 360.153 392.68 C361.373 394.46 362.378 395.864 363.161 396.89 C363.945 397.917 364.931 399.11 366.117 400.467 L366.043 400.567 L360.927 404.077 L360.732 404.067 C359.298 401.28 357.586 398.432 355.59 395.522 C355.39 395.372 355.235 395.446 355.12 395.749 C354.484 398.076 353.8419 400.769 353.19 403.829 C352.543 406.886 352.082 409.054 351.808 410.329 L346.888 413.705 C346.858 413.66 346.83 413.615 346.801 413.573 z M300.58 411.285 L300.762 407.379 C300.869 407.141 300.936 407.019 300.962 407.009 C303.032 406.233 305.732 405.256 309.059 404.079 C312.385 402.901 314.269 402.229 314.714 402.064 L314.88 402.17 C315.174 403.328 315.535 404.552 315.962 405.843 C316.389 407.133 316.839 408.408 317.312 409.669 C318.082 411.717 319.082 414.272 320.312 417.331 C321.542 420.391 322.162 421.933 322.17 421.957 C322.37 422.334 322.598 422.74 322.86 423.179 C323.123 423.615 323.488 424.196 323.957 424.921 L323.822 425.0139 L322.084 425.666 L320.124 426.4 C319.114 426.78 318.417 427.025 318.039 427.14 C317.704 427.153 317.376 427.1769 317.054 427.213 C316.844 425.748 316.488 424.149 315.991 422.4109 C315.494 420.6729 314.946 419.0079 314.347 417.4059 C313.95 416.3479 313.267 414.6039 312.301 412.174 C311.335 409.744 310.821 408.4539 310.768 408.3069 C310.563 407.99 310.358 407.744 310.152 407.5689 C309.9471 407.3929 309.702 407.3029 309.418 407.2969 C307.888 407.8699 306.498 408.4869 305.24 409.1489 C303.983 409.8089 302.48 410.6589 300.73 411.6929 C300.568 411.5569 300.518 411.4229 300.578 411.2859 z M251.564 415.685 L258.394 414.911 L259.572 414.778 C259.168 415.888 258.92 417.096 258.83 418.408 C258.74 419.721 258.78 421.124 258.95 422.618 C259.054 423.538 259.27 424.92 259.6 426.768 C259.927 428.618 260.142 429.975 260.24 430.842 C260.275 430.918 260.304 430.994 260.326 431.072 C260.346 431.148 260.398 431.196 260.479 431.215 C260.692 431.005 260.846 430.855 260.941 430.763 C261.589 429.043 262.341 426.953 263.196 424.493 C264.05 422.03 264.852 419.695 265.602 417.485 C265.654 417.2401 265.665 416.9991 265.639 416.7631 C265.597 416.3951 265.426 415.9431 265.127 415.4071 C264.827 414.8701 264.654 414.5111 264.607 414.3301 L264.751 414.1941 C265.824 414.0741 266.879 413.9721 267.916 413.8891 L271.009 413.6451 C271.502 414.2511 272.106 415.1371 272.821 416.3021 C273.537 417.4671 274.4211 418.8821 275.4691 420.5541 C276.519 422.2242 277.4611 423.6861 278.2931 424.9442 C279.1251 426.2002 280.0531 427.5012 281.08 428.8412 C281.1631 428.8582 281.2401 428.8282 281.3101 428.7552 C281.3801 428.6822 281.4401 428.6151 281.4861 428.5582 L280.6991 421.6112 L279.9071 414.6252 C279.8871 414.4422 279.8131 414.1582 279.6911 413.7752 C279.5671 413.3912 279.4931 413.0812 279.4651 412.8452 L285.313 412.1832 C285.127 413.5812 285.0511 415.0682 285.083 416.6432 C285.1151 418.2132 285.231 419.8772 285.431 421.6312 C285.534 422.5472 285.685 424.0992 285.879 426.2912 C286.074 428.4812 286.182 429.6552 286.199 429.8112 L286.269 430.4412 C286.429 431.8512 286.666 433.2432 286.9821 434.6132 C287.097 434.9432 287.3361 435.3872 287.6891 435.9432 C288.0431 436.5002 288.2531 436.8272 288.317 436.9252 C288.302 437.0332 288.2971 437.1132 288.304 437.1652 C287.351 437.1932 286.1541 437.2902 284.7101 437.4532 C282.954 437.6512 281.8 437.7831 281.2501 437.8462 C280.6981 437.9102 280.3951 437.9302 280.3401 437.9102 C280.2151 437.7382 279.6741 436.8902 278.7171 435.3651 C277.7601 433.8401 276.8691 432.4251 276.0451 431.1252 C275.2201 429.8252 274.2251 428.3051 273.0581 426.5652 C271.8911 424.8232 270.5961 422.9582 269.1761 420.9691 C269.0631 420.9012 268.9711 420.8521 268.9011 420.8192 C268.8311 420.7892 268.7751 420.8152 268.7311 420.8991 C268.0511 422.6241 267.3611 424.4551 266.6641 426.3922 C265.9691 428.3301 265.2041 430.5021 264.3741 432.9072 C263.5441 435.3122 262.7711 437.5642 262.0541 439.6652 C261.9871 439.7782 261.9301 439.8652 261.8841 439.9232 C260.6241 440.0662 259.3771 440.1931 258.1411 440.3082 L254.3951 440.6532 C254.4301 440.2252 254.535 439.6632 254.711 438.9672 C254.885 438.2722 254.974 437.4992 254.976 436.6522 C254.979 435.8022 254.918 434.5842 254.794 432.9962 C254.67 431.4062 254.508 429.7231 254.306 427.9431 L253.871 424.1161 C253.728 422.8462 253.583 421.5721 253.437 420.2902 C253.345 419.4802 253.144 418.7142 252.83 417.9932 C252.516 417.2732 252.095 416.5052 251.564 415.6912 z M214.208 411.61 L222.354 412.672 L234.176 431.346 L235.87 418.372 C235.9 418.138 235.926 417.895 235.945 417.646 C235.965 417.396 235.919 416.986 235.807 416.416 L235.67 414.41 L242.76 415.337 C242.325 415.812 241.99 416.239 241.755 416.62 C241.52 417 241.297 417.435 241.085 417.928 C240.877 418.418 240.733 418.858 240.655 419.245 C240.578 419.635 240.492 420.181 240.401 420.888 L238.743 433.581 L238.677 434.091 C238.572 434.901 238.517 435.466 238.517 435.784 C238.514 436.102 238.573 436.562 238.694 437.164 C238.814 437.764 238.921 438.169 239.014 438.38 C239.104 438.59 239.479 439.23 240.136 440.3 L233.908 439.487 L233.653 439.453 C233.563 439.441 233.503 439.433 233.477 439.433 C233.084 439.379 232.757 439.25 232.492 439.043 C232.228 438.835 232.032 438.603 231.907 438.349 C231.782 438.095 231.654 437.849 231.524 437.619 L220.244 419.367 L218.634 431.697 C218.546 432.379 218.499 432.9449 218.492 433.397 L218.477 434.734 C218.474 435.172 218.483 435.599 218.509 436.016 C218.534 436.431 218.577 436.923 218.635 437.49 L211.037 436.498 C211.735 436.032 212.265 435.482 212.627 434.853 C212.987 434.223 213.24 433.658 213.385 433.159 C213.529 432.659 213.635 432.149 213.705 431.626 L215.531 417.638 C215.605 417.063 215.669 416.518 215.723 416.008 C215.777 415.498 215.74 414.914 215.613 414.26 C215.373 413.273 214.903 412.39 214.209 411.607 z M169.945 417.104 C169.818 416.124 169.835 415.091 170 414.012 C170.164 412.932 170.438 411.902 170.817 410.918 C171.35 409.543 172.067 408.281 172.963 407.132 C173.861 405.984 175.118 404.889 176.735 403.85 C178.352 402.81 180.367 402.256 182.779 402.19 C185.191 402.122 187.649 402.573 190.153 403.543 C191.676 403.767 193.103 404.135 194.427 404.648 C195.974 405.248 197.314 406.035 198.447 407.011 C199.581 407.988 200.409 409.183 200.932 410.601 C201.457 412.019 201.706 413.541 201.682 415.171 C201.658 416.799 201.352 418.374 200.762 419.898 C200.19 421.37 199.295 422.824 198.075 424.258 C196.855 425.692 195.018 426.808 192.562 427.608 C190.106 428.408 187.748 428.551 185.488 428.043 C183.956 427.619 182.835 427.325 182.121 427.163 C181.409 426.999 180.741 426.895 180.121 426.853 C179.503 426.81 178.957 426.726 178.483 426.6 C178.01 426.472 177.553 426.324 177.11 426.15 C175.146 425.39 173.515 424.187 172.218 422.54 C170.924 420.896 170.165 419.083 169.943 417.104 z M176.295 417.66 C176.573 419.348 177.06 420.645 177.755 421.55 C178.449 422.454 179.225 423.207 180.078 423.807 C180.933 424.407 181.631 424.811 182.171 425.021 C183.105 425.383 184.065 425.515 185.048 425.417 C186.033 425.317 187.185 425.059 188.506 424.639 C189.972 423.992 191.264 423.095 192.386 421.949 C193.509 420.803 194.356 419.492 194.926 418.019 C195.411 416.767 195.64 415.323 195.61 413.689 C195.58 412.052 195.01 410.476 193.904 408.959 C192.797 407.443 191.359 406.343 189.591 405.659 C186.435 404.914 183.747 405.291 181.528 406.789 C179.31 408.289 177.768 410.154 176.901 412.389 C176.187 414.229 175.986 415.986 176.297 417.661 z M132.316 396.45 C132.526 395.172 133.046 393.956 133.88 392.803 C135.052 391.183 136.5 390.123 138.22 389.631 C139.942 389.137 141.63 389.081 143.286 389.467 C144.942 389.851 146.494 390.57 147.946 391.617 C148.394 391.94 148.859 392.321 149.34 392.757 C149.82 393.195 150.26 393.63 150.66 394.067 C150.938 394.267 151.146 394.272 151.284 394.081 C152.007 393.081 152.648 392.138 153.209 391.249 C153.769 390.359 154.787 388.604 156.262 385.979 L156.468 386.033 C157.278 386.619 158.334 387.36 159.636 388.257 C160.938 389.153 161.61 389.617 161.653 389.647 C161.655 389.78 161.638 389.847 161.601 389.854 C160.546 390.911 159.538 392.024 158.576 393.197 C157.616 394.369 156.596 395.702 155.516 397.197 C154.713 398.304 153.918 399.427 153.129 400.563 L150.754 403.983 C149.274 406.033 148.261 408.175 147.716 410.413 L147.496 410.448 L146.022 409.384 C143.12 407.284 141.029 405.83 139.748 405.018 C138.467 404.206 137.023 403.381 135.416 402.5461 C133.902 401.45 132.966 400.4401 132.61 399.518 C132.252 398.592 132.155 397.57 132.314 396.451 z M137.57 399.02 C137.444 399.78 137.486 400.435 137.695 400.996 C137.905 401.556 138.245 402.004 138.712 402.342 C138.988 402.5421 139.272 402.698 139.562 402.812 C139.854 402.922 140.484 403.069 141.455 403.248 C142.425 403.428 143.475 403.096 144.605 402.248 C145.735 401.4001 146.91 400.1331 148.132 398.441 L148.828 397.479 L149.524 396.515 C149.71 396.2581 149.724 396.0381 149.562 395.855 C149.4 395.675 149.255 395.539 149.127 395.445 L148.743 395.168 C147.013 393.918 145.153 393.485 143.153 393.865 C141.155 394.248 139.637 395.155 138.6 396.591 C138.09 397.295 137.746 398.106 137.57 399.021 z M117.42 343.774 C117.5 343.667 117.626 343.531 117.8 343.372 C117.956 343.229 118.187 343.072 118.492 342.898 C118.798 342.726 119.132 342.526 119.497 342.298 L119.697 342.224 C120.64 343.254 122.063 344.804 123.967 346.881 C125.871 348.961 127.287 350.504 128.211 351.513 C129.261 352.658 129.799 354.049 129.825 355.687 C129.851 357.325 129.543 359.009 128.9 360.742 C129.59 361.36 130.18 361.899 130.667 362.364 C131.155 362.828 131.604 363.284 132.013 363.729 L132.413 364.166 C132.52 364.282 132.627 364.398 132.733 364.516 C132.837 364.706 132.925 364.841 132.996 364.918 C134.26 366.298 134.98 368.028 135.16 370.114 C135.34 372.2 135.026 374.148 134.222 375.959 C133.416 377.769 132.266 379.359 130.772 380.729 C129.762 381.655 128.676 382.409 127.514 382.992 C126.351 383.576 125.162 383.925 123.946 384.04 C121.733 384.353 119.616 384.14 117.599 383.4 C115.579 382.66 113.711 381.507 111.989 379.94 C111.051 379.23 110.204 378.55 109.449 377.902 C108.695 377.255 107.979 376.562 107.303 375.822 C106.485 374.93 105.85 374.112 105.398 373.364 C104.945 372.618 104.592 371.754 104.336 370.774 C103.856 369.391 103.584 368.4 103.516 367.8 C103.45 367.2 103.706 365.985 104.28 364.154 C104.855 362.324 105.968 360.65 107.62 359.134 C109.643 357.279 111.604 356.189 113.502 355.86 C115.4 355.5311 117.086 355.467 118.562 355.67 C120.035 355.873 121.488 356.247 122.918 356.793 C123.008 356.856 123.086 356.89 123.151 356.901 C123.216 356.914 123.259 356.874 123.281 356.781 C123.068 354.228 122.915 352.581 122.824 351.843 C122.732 351.1071 122.484 350.208 122.081 349.149 C121.918 348.5851 121.683 348.0591 121.378 347.571 C121.072 347.0811 120.706 346.605 120.278 346.139 C119.905 345.731 119.475 345.331 118.988 344.936 C118.504 344.543 117.98 344.156 117.418 343.776 z M109.496 367.222 C108.981 368.802 108.878 370.326 109.186 371.792 C109.494 373.258 110.116 374.64 111.046 375.929 C111.15 376.119 111.286 376.324 111.452 376.546 C111.62 376.766 111.784 376.966 111.944 377.141 C112.654 377.917 113.521 378.481 114.54 378.834 C115.56 379.184 116.82 379.478 118.318 379.71 C119.79 379.72 121.218 379.474 122.598 378.975 C123.982 378.475 125.188 377.755 126.216 376.812 C126.993 376.099 127.726 375.097 128.416 373.802 C129.106 372.51 129.356 370.844 129.164 368.804 C128.974 366.764 128.374 364.884 127.369 363.162 C125.969 361.945 124.389 361.082 122.629 360.566 C120.873 360.051 119.077 359.992 117.242 360.386 C115.408 360.782 113.742 361.664 112.249 363.036 C110.891 364.282 109.973 365.678 109.495 367.222 z M96.48 313.158 C96.86201 313.498 97.25 313.95 97.645 314.518 C98.04 315.088 98.537 315.96 99.137 317.135 L100.037 318.898 C100.567 320.405 100.179 322.048 98.869 323.828 C97.55701 325.608 96.78101 326.842 96.535 327.53 C95.83 328.542 95.355 329.62 95.107 330.77 C94.86 331.92 94.987 332.986 95.492 333.972 C95.60001 334.184 95.71001 334.3579 95.82401 334.4919 C95.938 334.6259 96.064 334.718 96.20701 334.7639 C96.34901 334.8099 96.57201 334.7539 96.87701 334.5999 L97.757 334.1499 C99.047 333.4919 100.332 332.7799 101.612 332.0149 C102.892 331.2499 104.127 330.4389 105.314 329.5819 C105.42 329.6149 105.491 329.6389 105.526 329.6489 L108.544 335.5589 L108.494 335.8069 C107.094 336.1369 105.647 336.6019 104.15 337.2029 C102.655 337.8049 101.097 338.5179 99.48 339.3449 C98.565 339.8119 97.04601 340.6169 94.924 341.7599 C92.802 342.9039 91.67101 343.5099 91.53001 343.5799 C90.31001 344.2039 89.32001 344.7999 88.56001 345.3639 C87.8 345.9299 87.19801 346.6509 86.758 347.5259 L86.512 347.6509 C85.985 346.6209 85.462 345.5709 84.949 344.5029 C84.432 343.4359 83.911 342.3569 83.384 341.2659 C82.65399 339.8359 82.05199 338.7309 81.58099 337.9519 C81.10999 337.1729 80.48599 336.2879 79.71099 335.2919 C79.31699 334.5189 78.96799 333.5439 78.66299 332.3689 C78.35899 331.1939 78.229 330.4769 78.27299 330.2189 C78.31699 329.9609 78.40099 329.6869 78.52299 329.4029 C78.645 329.1208 78.716 328.8829 78.73799 328.6959 C78.99099 328.1519 79.35499 327.6489 79.82799 327.1839 C80.30099 326.7239 80.87799 326.3179 81.55799 325.9699 C82.42499 325.5269 83.25299 325.2969 84.04199 325.2779 C85.03199 325.1879 86.08799 325.3349 87.217 325.7179 C88.34399 326.1039 89.45699 326.6209 90.55699 327.2729 C90.71199 327.1629 90.87299 326.8079 91.04099 326.2049 C91.20799 325.6019 92.01099 324.0849 93.44599 321.6499 C94.88199 319.2159 95.70399 317.7099 95.91399 317.1299 C95.98399 316.7999 96.048 316.3299 96.10999 315.7219 C96.17199 315.1119 96.22199 314.2949 96.26399 313.2689 L96.47699 313.1589 z M83.362 332.538 C82.966 333.095 82.758 333.761 82.74 334.535 C82.722 335.308 82.89 336.045 83.248 336.745 C83.606 337.445 84.166 338.007 84.928 338.428 C85.688 338.848 86.54 338.994 87.48 338.868 C88.42001 338.741 89.396 338.418 90.40401 337.905 C90.77901 337.713 91.422 337.363 92.33001 336.855 C93.24001 336.345 93.71701 336.081 93.76301 336.057 L94.00901 335.843 C93.83901 335.337 93.65301 334.886 93.44901 334.487 C92.93401 333.479 92.26202 332.639 91.43201 331.969 C90.60201 331.299 89.62601 330.849 88.50601 330.623 C87.19601 330.493 85.99201 330.708 84.89001 331.271 C84.30302 331.571 83.79401 331.994 83.36201 332.538 z M68.31 282.55 L68.50999 282.704 C68.58199 283.446 68.66 283.989 68.743 284.334 C68.827 284.68 68.891 284.942 68.933 285.121 C69.27 286.504 69.808 287.821 70.546 289.081 C70.503 289.126 70.431 289.166 70.331 289.201 C70.231 289.231 70.143 289.261 70.066 289.2769 L69.298 289.464 L68.53001 289.651 C68.07001 289.763 67.71201 289.911 67.45801 290.094 C67.20501 290.278 67.02 290.547 66.90201 290.9 C66.78501 291.253 66.73201 291.618 66.742 291.996 C66.75201 292.373 66.79401 292.716 66.868 293.021 C67.04201 293.739 67.36501 294.453 67.83601 295.165 C68.30801 295.878 68.83801 296.501 69.42801 297.035 C70.01801 297.46 70.62101 297.761 71.23201 297.937 C71.84401 298.114 72.47201 298.124 73.11001 297.969 C73.366 297.907 73.55801 297.859 73.686 297.829 C73.968 297.759 74.21201 297.592 74.41601 297.325 C74.62401 297.057 74.80101 296.728 74.95 296.339 C75.095 295.705 75.14001 295.055 75.08601 294.389 C75.033 293.723 74.92101 293.042 74.75301 292.349 C74.56001 291.554 74.189 290.359 73.63901 288.766 C73.089 287.173 72.78501 286.261 72.729 286.03 C72.665 285.095 72.827 284.195 73.21101 283.33 C73.59701 282.464 74.16601 281.736 74.91701 281.146 C75.90401 280.528 76.91101 280.094 77.93401 279.846 C80.85101 279.136 83.17001 279.421 84.88901 280.696 C86.60901 281.972 87.78901 283.156 88.43401 284.246 C89.079 285.336 89.57401 286.598 89.922 288.031 C90.14001 288.928 90.31801 289.941 90.45701 291.071 C90.55701 291.481 90.75701 292.171 91.06201 293.141 C91.36401 294.111 91.52901 294.646 91.55401 294.748 C91.84601 295.951 91.93101 297.008 91.80901 297.918 C91.687 298.828 91.24901 299.571 90.496 300.148 C89.744 300.723 88.978 301.105 88.2 301.294 C87.008 301.584 85.89201 301.516 84.855 301.09 C84.34 299.644 83.90701 298.428 83.55801 297.442 C83.20801 296.457 82.83401 295.592 82.43301 294.85 C82.80801 294.813 83.30901 294.84 83.93301 294.932 C84.55901 295.022 85.01001 295.07 85.283 295.072 C85.55901 295.072 85.826 295.042 86.08301 294.978 C86.93901 294.771 87.56601 294.246 87.96301 293.404 C88.36301 292.562 88.441 291.641 88.19901 290.644 C88.161 290.49 87.96101 290.031 87.59701 289.264 C87.23301 288.5 86.40301 287.726 85.10701 286.944 C83.81001 286.161 82.73201 285.8 81.87101 285.86 C81.01101 285.92 80.38901 285.9969 80.00101 286.09 C79.48501 286.216 79.03701 286.426 78.658 286.722 C78.27801 287.016 78.04201 287.366 77.94801 287.767 C77.855 288.17 77.82401 288.497 77.85801 288.745 C77.89101 288.995 77.95101 289.298 78.03801 289.657 L78.29001 290.693 L78.73301 292.515 L79.19501 294.4149 C79.64201 296.2579 79.81701 297.835 79.71801 299.145 C79.61801 300.457 79.02801 301.6649 77.94801 302.765 C77.30502 303.3289 76.49802 303.728 75.53201 303.963 C74.59001 304.193 73.61002 304.2329 72.59201 304.088 C71.57201 303.942 70.50501 303.598 69.39001 303.058 C68.275 302.5179 67.37401 301.6899 66.687 300.5829 C65.999 299.477 65.482 298.2059 65.134 296.7729 C65.022 296.313 64.926 295.8059 64.846 295.257 C64.766 294.707 64.706 294.267 64.666 293.937 C64.628 293.61 64.59 293.3409 64.553 293.132 C64.516 292.925 64.479 292.744 64.443 292.5919 C64.305 292.028 64.156 291.468 63.993 290.9099 L63.506 289.2399 C63.27 288.2679 63.176 287.4099 63.226 286.6669 C63.276 285.9239 63.543 285.2349 64.036 284.5999 C64.482 284.1129 64.969 283.7039 65.494 283.3719 C66.019 283.042 66.57401 282.805 67.16 282.662 C67.33801 282.618 67.54 282.59 67.76501 282.576 C67.992 282.564 68.17101 282.556 68.30501 282.55 z M60.146 236.724 C60.91 236.784 61.542 236.834 62.041 236.876 C62.541 236.919 63.055 237.009 63.581 237.146 L63.737 237.343 L63.722 239.299 L63.708 241.253 C63.703 241.883 63.711 242.531 63.733 243.189 C63.755 243.847 63.791 244.349 63.84 244.689 C63.89 245.034 63.947 245.225 64.013 245.265 C64.078 245.305 65.015 245.437 66.823 245.661 C68.633 245.887 71.42599 246.013 75.203 246.041 C78.615 246.066 81.923 245.895 85.12599 245.523 L85.07399 252.279 L84.87799 252.355 C83.53799 252.345 81.46099 252.285 78.64999 252.169 C75.838 252.056 73.89299 251.995 72.81599 251.987 C71.00299 251.972 69.451 252.007 68.16299 252.089 C66.87299 252.173 65.465 252.339 63.939 252.589 C63.78099 252.694 63.675 252.799 63.62099 252.904 C63.60799 254.616 63.65499 256.136 63.764 257.467 C63.874 258.797 64.10799 260.071 64.466 261.284 C64.282 261.361 64.086 261.36 63.874 261.279 C62.454 260.847 61.03699 260.4019 59.618 259.943 C59.62799 258.547 59.684 256.388 59.786 253.465 C59.88599 250.543 59.944 248.345 59.95399 246.87 C59.974 244.08 59.86399 241.458 59.62 239.008 C59.674 238.798 59.68299 238.541 59.645 238.238 C59.609 237.934 59.56499 237.638 59.515 237.348 C59.51699 236.876 59.73 236.668 60.151 236.724 z M93.266 196.245 L92.043 202.619 C91.896 202.662 91.657 202.641 91.325 202.556 L90.751 202.409 C90.395 202.319 90.099 202.309 89.861 202.385 C89.771 202.743 89.741 203.333 89.775 204.157 C89.80901 204.981 89.813 205.499 89.785 205.709 C89.76 205.921 89.77 207.234 89.815 209.651 C89.863 212.069 89.721 213.928 89.388 215.231 C88.95 216.939 88.046 218.189 86.675 218.979 C86.24001 219.195 85.72501 219.329 85.125 219.379 C84.529 219.429 83.915 219.414 83.282 219.334 C80.86 218.714 78.78799 218.204 77.069 217.804 C75.349 217.406 73.269 216.914 70.821 216.328 C68.373 215.742 66.705 215.335 65.811 215.106 C65.49799 215.162 65.031 215.206 64.411 215.238 C63.79099 215.27 63.28799 215.303 62.89799 215.34 L62.86 215.166 C63.16 213.993 63.446 212.816 63.72 211.636 L64.536 208.136 L64.756 208.069 C65.974 208.625 67.406 209.169 69.049 209.699 C70.69299 210.229 72.382 210.716 74.117 211.159 L77.827 212.109 C79.487 212.534 80.724 212.849 81.53999 213.059 C82.65199 213.179 83.66299 213.133 84.57399 212.917 C85.48399 212.702 86.18399 212.182 86.66599 211.354 C86.89899 210.87 87.09599 210.309 87.25999 209.67 C87.80199 207.554 87.546 205.742 86.49 204.235 C85.434 202.728 84.127 201.571 82.567 200.765 C81.007 199.955 79.117 199.269 76.897 198.701 C76.107 198.499 74.80701 198.193 72.994 197.784 C71.18401 197.376 70.264 197.167 70.23901 197.16 C69.90701 197.075 69.40701 197.008 68.73901 196.96 C68.07301 196.91 67.689 196.874 67.58601 196.848 C67.854 195.802 68.10801 194.738 68.34801 193.66 C68.58801 192.58 68.83001 191.486 69.07801 190.38 L69.52801 190.373 C70.728 191.007 72.07801 191.583 73.57801 192.103 C75.07801 192.623 76.58201 193.076 78.09001 193.461 C79.44401 193.809 81.70401 194.313 84.87001 194.973 C88.03601 195.633 90.06601 196.078 90.96001 196.307 L93.26401 196.247 z M88.36 149.372 C89.303 150.68 90.226 151.932 91.126 153.127 C92.026 154.322 93.159 155.835 94.526 157.667 C95.89301 159.499 97.114 161.141 98.191 162.593 C99.26801 164.047 100.623 165.507 102.259 166.973 C102.636 167.443 102.963 167.811 103.239 168.077 C103.514 168.344 103.849 168.582 104.245 168.792 C104.641 169.002 105.017 169.106 105.377 169.105 C105.737 169.102 106.171 169.013 106.683 168.837 L102.841 176.055 C102.585 175.918 102.315 175.797 102.029 175.689 C101.743 175.582 101.399 175.459 100.996 175.319 C100.593 175.179 100.254 175.057 99.98 174.956 C99.705 174.856 99.39201 174.771 99.04 174.703 L81.354 171.865 C80.874 171.759 80.468 171.707 80.138 171.71 C79.808 171.715 79.33 171.744 78.704 171.798 C78.162 171.808 77.731 171.848 77.411 171.915 C77.091 171.985 76.68301 172.095 76.18401 172.245 L79.729 165.587 L97.616 168.889 L87.714 157.396 C87.29 156.962 86.85101 156.58 86.401 156.25 L85.169 155.372 L88.359 149.372 z M124.65 111.452 C124.75 111.868 125.01 112.744 125.43 114.079 C125.848 115.413 126.324 116.643 126.856 117.769 C127.388 118.896 128.038 120.253 128.806 121.843 C129.576 123.433 130.202 124.703 130.684 125.653 C131.167 126.601 131.851 127.873 132.737 129.463 C132.809 129.647 132.937 129.819 133.117 129.983 C133.331 130.173 133.687 130.353 134.189 130.523 C134.691 130.693 134.972 130.788 135.036 130.816 C134.376 131.553 133.541 132.526 132.533 133.734 C131.523 134.944 130.88 135.704 130.601 136.014 C130.349 135.964 129.901 135.784 129.258 135.474 C128.615 135.164 127.763 134.809 126.701 134.404 C125.639 134 124.011 133.384 121.817 132.554 C119.622 131.724 117.533 131.042 115.55 130.506 C115.406 130.436 115.32 130.486 115.288 130.649 C115.26 130.815 115.27 130.919 115.318 130.963 C116.346 133.36 117.035 134.959 117.385 135.761 C117.735 136.561 118.151 137.481 118.632 138.517 C119.112 139.554 119.579 140.54 120.03 141.477 C120.48 142.413 120.904 143.109 121.297 143.564 C121.689 144.02 122.069 144.457 122.437 144.874 L122.45 145.108 L118.905 149.064 C118.665 148.968 118.305 148.77 117.821 148.469 C117.337 148.169 116.821 147.847 116.273 147.502 C114.303 146.536 112.19 145.572 109.933 144.614 C107.676 143.654 105.813 142.888 104.35 142.314 C102.885 141.741 101.742 141.351 100.92 141.148 C99.85 140.924 99.06 140.765 98.557 140.668 C98.759 140.376 98.995 140.063 99.265 139.73 C99.535 139.395 99.963 138.9 100.551 138.245 L101.057 137.681 C101.629 137.041 102.125 136.421 102.544 135.824 C102.664 135.754 102.824 135.794 103.017 135.937 C103.212 136.082 103.38 136.157 103.521 136.167 C107.154 138.21 111.264 140.149 115.851 141.985 C116.074 142.035 116.154 141.945 116.095 141.715 C115.788 140.995 114.898 139.025 113.425 135.8 C111.952 132.574 111.125 130.756 110.945 130.344 C110.765 129.932 110.485 129.526 110.103 129.124 C109.721 128.722 109.477 128.414 109.371 128.201 L113.159 123.974 C113.343 123.902 113.569 123.964 113.837 124.161 C114.107 124.357 114.614 124.636 115.361 124.994 C116.108 125.352 117.248 125.85 118.784 126.488 C120.319 127.126 121.787 127.688 123.19 128.178 C124.592 128.665 126.294 129.231 128.3 129.875 C128.387 129.775 128.412 129.675 128.375 129.565 C128.337 129.459 128.308 129.35 128.285 129.242 L121.072 115.292 C121.082 115.182 121.152 115.052 121.284 114.905 L122.231 113.848 C122.231 113.848 122.921 113.078 123.288 112.668 C123.891 111.996 124.244 111.618 124.345 111.531 C124.445 111.506 124.547 111.477 124.647 111.451 z M152.603 86.552 C152.663 86.639 152.683 86.738 152.663 86.847 C152.643 86.957 152.515 88.321 152.278 90.937 C152.042 93.55399 151.808 97.424 151.582 102.55 C151.782 102.7 151.912 102.82 151.972 102.904 C153.858 103.777 155.934 104.644 158.202 105.51 C160.467 106.375 162.85 107.224 165.349 108.055 L160.543 111.385 C160.479 111.432 160.359 111.515 160.186 111.635 L159.276 112.265 C159.038 112.429 158.816 112.535 158.61 112.583 C158.403 112.631 158.18 112.483 157.94 112.138 C156.403 111.261 154.858 110.371 153.305 109.472 C153.042 109.464 152.715 109.339 152.325 109.1 C151.935 108.86 151.605 108.754 151.335 108.782 L151.133 109.114 C151.048 111.118 150.967 112.839 150.893 114.277 C150.816 115.717 150.667 117.087 150.448 118.385 L144.864 122.255 C144.769 122.258 144.718 122.183 144.707 122.029 C145.235 119.323 145.601 117.379 145.807 116.194 C146.012 115.011 146.227 113.532 146.454 111.756 C146.681 109.98 146.834 108.248 146.912 106.56 C145.307 105.816 143.782 105.165 142.34 104.61 C140.9 104.057 139.272 103.478 137.46 102.876 C135.648 102.274 133.718 101.673 131.67 101.076 C131.74 100.994 131.812 100.912 131.884 100.83 C132.924 100.11 133.964 99.37 135.009 98.60999 L138.139 96.33599 C139.023 96.68599 140.472 97.36599 142.486 98.37599 C144.5 99.38599 146.008 100.106 147.01 100.533 C147.14 100.443 147.213 99.87699 147.228 98.83599 C147.243 97.79299 147.238 96.48299 147.218 94.90299 C147.195 93.32299 147.118 91.78899 146.984 90.30299 C147.278 90.033 147.621 89.76299 148.01 89.493 L148.92 88.863 L150.218 87.963 L151.516 87.063 L152.1 86.658 C152.36 86.478 152.528 86.443 152.603 86.55199 z M191.787 68.736 C191.807 68.786 191.837 68.83 191.881 68.869 C191.871 69.12901 191.753 69.72501 191.528 70.664 C191.303 71.60201 191.042 73.112 190.744 75.194 C190.446 77.28 190.236 79.047 190.114 80.494 C189.99 81.944 189.849 84.229 189.691 87.34801 C189.629 87.76801 189.645 88.201 189.735 88.646 C189.825 89.092 189.972 89.57201 190.175 90.08601 C190.32 90.453 190.547 90.95801 190.857 91.60101 C191.165 92.244 191.377 92.71101 191.494 93.005 C191.688 93.21201 191.922 93.609 192.194 94.19301 C192.468 94.77901 192.61 95.08501 192.619 95.10801 C191.716 95.54801 190.799 95.95201 189.869 96.31801 L189.465 96.47801 C189.048 96.64201 188.625 96.80801 188.197 96.97801 C187.767 97.14501 187.345 97.31201 186.929 97.47601 L186.599 97.60601 L186.393 97.51601 C186.2 97.02602 185.939 96.29301 185.613 95.31602 C185.283 94.33902 185.023 93.60602 184.831 93.11602 C184.541 92.37902 184.275 91.79602 184.036 91.36602 C183.796 90.93602 183.456 90.45302 183.02 89.91602 C181.117 87.88602 179.073 85.91302 176.89 83.99603 C174.707 82.07903 172.41 80.21803 170.003 78.41602 C169.953 78.29302 169.796 78.17902 169.527 78.07102 C169.257 77.96602 169.145 77.81802 169.184 77.63102 L172.768 76.22102 C173.466 75.94801 174.305 75.61702 175.286 75.23102 L184.903 84.35102 C185.148 84.39602 185.281 84.41302 185.306 84.40402 C185.381 84.09203 185.576 82.73402 185.89 80.33402 C186.203 77.93402 186.467 74.73402 186.68 70.74702 L191.787 68.73302 z M238.727 59.857 C238.232 60.77 236.931 63.065 234.823 66.743 C232.715 70.423 231.13 73.311 230.07 75.41 C229.008 77.50999 228.038 79.796 227.158 82.27 C227.12 82.592 227.283 82.73 227.648 82.685 C229.085 82.502 231.42 82.075 234.652 81.39799 C237.885 80.72299 240.062 80.313 241.186 80.17 C241.261 80.347 241.274 80.45 241.226 80.483 C240.653 82.043 240.093 83.58701 239.544 85.116 L239.171 85.32201 C236.665 85.64001 234.155 85.94601 231.644 86.23801 L224.11 87.11501 C221.597 87.40701 219.1 87.71101 216.62 88.02501 C216.54 88.03501 216.475 88.04501 216.423 88.05001 C218.281 84.92001 219.917 82.11801 221.329 79.64301 C222.739 77.16801 224.004 74.85101 225.123 72.69302 C226.243 70.53301 227.385 68.07802 228.549 65.32902 C228.509 65.01501 228.421 64.84102 228.283 64.80502 C227.053 64.96001 224.937 65.37502 221.93 66.04902 C218.923 66.72302 216.768 67.14302 215.462 67.30902 C215.367 67.18902 215.352 67.08202 215.422 66.99502 L217.652 62.61102 C218.749 62.47102 220.387 62.31102 222.568 62.12702 C224.748 61.94302 226.398 61.77902 227.522 61.63702 C228.646 61.49501 230.539 61.14902 233.202 60.59702 C235.867 60.04702 237.696 59.70702 238.689 59.58202 C238.749 59.62802 238.761 59.72002 238.726 59.85601 z" id="path1885" xml:space="default" />
  <g id="g1891" xml:space="default">
    <path d="M45.348 215.334 C64.493 102.308 171.64 26.204 284.666 45.347 C397.693 64.494 473.8 171.64 454.652 284.664 C435.507 397.694 328.362 473.799 215.334 454.654 C102.308 435.508 26.20401 328.361 45.34802 215.334 z" id="path1887" xml:space="default" style="fill:none;" />
    <path d="M208.777 453.84 L208.993 453.715 C210.571 453.912 212.098 454.119 213.573 454.335 C215.049 454.555 216.523 454.771 217.999 454.988 C218.196 455.545 218.343 456.508 218.439 457.871 C218.537 459.237 218.666 460.211 218.826 460.801 C219.102 462.603 219.273 463.641 219.339 463.919 C219.405 464.192 219.626 464.571 219.999 465.052 C220.611 465.23 221.441 465.4 222.489 465.562 C223.537 465.727 224.127 465.818 224.259 465.834 L226.724 466.141 C227.544 466.241 228.351 466.341 229.14 466.441 C229.47 466.481 229.744 466.365 229.96 466.091 C230.176 465.817 230.583 464.976 231.176 463.573 C231.768 462.171 232.631 460.131 233.766 457.453 C233.778 457.353 233.854 457.28 233.996 457.23 L239.961 457.972 C240.016 458.078 240.041 458.148 240.036 458.182 C240.032 458.212 240.062 458.234 240.128 458.244 C237.406 462.678 234.91 466.966 232.643 471.107 C230.375 475.247 228.118 479.63 225.873 484.259 C225.703 484.804 225.791 485.449 226.133 486.194 C226.475 486.936 226.678 487.446 226.743 487.721 C226.733 487.787 226.688 487.823 226.603 487.828 C226.52 487.834 226.473 487.87 226.466 487.936 C224.82 487.731 223.182 487.494 221.546 487.222 C219.91 486.9521 218.52 486.729 217.373 486.552 C217.177 486.528 217.063 486.496 217.033 486.46 C217.005 486.422 216.781 484.8 216.363 481.594 C215.945 478.388 215.116 474.186 213.877 468.991 C212.639 463.799 210.939 458.746 208.777 453.837 z M220.697 469.896 C220.817 470.812 220.94 471.569 221.067 472.17 C221.192 472.77 221.467 473.972 221.894 475.777 C222.319 477.583 222.564 478.507 222.624 478.547 C222.67 478.453 222.759 478.414 222.89 478.431 C223.453 477.671 223.955 476.911 224.4 476.156 C224.845 475.396 225.812 473.6 227.3 470.766 C227.353 470.339 227.314 470.119 227.182 470.103 C226.064 469.697 224.897 469.418 223.682 469.266 C222.892 469.168 222.064 469.116 221.197 469.108 C220.987 469.181 220.831 469.303 220.725 469.474 C220.622 469.644 220.612 469.784 220.698 469.897 z M163.042 450.963 C163.105 450.103 163.312 449.193 163.662 448.228 C164.536 445.831 165.967 444.183 167.952 443.286 C169.189 442.606 170.538 442.2961 172.002 442.3521 C173.464 442.4091 174.992 442.7271 176.582 443.3061 C177.268 443.5561 178.008 443.8511 178.802 444.1931 C179.596 444.536 180.438 444.9391 181.328 445.403 C182.514 445.8351 184.381 446.55 186.931 447.55 C189.483 448.548 190.913 449.105 191.225 449.218 C190.94 449.712 190.56 450.298 190.085 450.971 C189.61 451.644 189.145 452.445 188.685 453.371 C188.225 454.295 187.631 455.631 186.908 457.377 C186.185 459.123 185.392 461.179 184.531 463.545 L182.389 469.428 L180.264 475.265 C180.171 476.3951 180.076 477.5251 179.984 478.653 C179.962 478.716 179.877 478.755 179.729 478.773 C178.829 478.4431 177.931 478.108 177.039 477.7661 C176.145 477.4221 175.233 477.0821 174.303 476.744 C172.567 476.1121 170.943 475.5561 169.433 475.0771 C167.923 474.597 166.481 474.2151 165.111 473.9271 C163.313 473.2731 161.691 472.3741 160.247 471.2321 C158.802 470.0901 157.939 468.9391 157.657 467.7791 C157.427 466.389 157.582 464.9491 158.127 463.455 C158.637 462.0551 159.404 460.959 160.434 460.17 C160.962 459.587 161.674 459.106 162.571 458.7281 C163.468 458.3481 164.443 458.0681 165.494 457.8881 C165.761 457.7381 165.84 457.5181 165.732 457.2341 C164.886 456.4321 164.192 455.4571 163.648 454.3071 C163.103 453.1541 162.901 452.0411 163.044 450.9651 z M165.232 467.889 C165.378 468.751 165.925 469.594 166.878 470.416 C167.83 471.239 168.928 471.876 170.174 472.329 C170.894 472.381 171.434 472.374 171.794 472.309 C172.154 472.244 172.462 471.999 172.724 471.566 C173.367 470.776 174.016 469.762 174.679 468.522 C175.339 467.282 176.114 465.45 176.997 463.022 C177.032 462.928 176.995 462.809 176.889 462.665 C176.783 462.521 176.737 462.433 176.747 462.401 C176.209 462.134 175.8 461.951 175.52 461.849 C174.12 461.339 172.712 461.161 171.298 461.317 C169.885 461.471 168.668 461.937 167.645 462.711 C166.625 463.484 165.905 464.447 165.485 465.599 C165.189 466.409 165.105 467.171 165.232 467.889 z M171.832 449.032 C171.419 449.587 171.104 450.159 170.889 450.75 C170.479 451.873 170.402 452.893 170.652 453.813 C170.902 454.733 171.649 455.743 172.895 456.85 C174.14 457.955 175.419 458.746 176.733 459.225 C176.953 459.305 177.123 459.368 177.25 459.413 C177.626 459.55 177.995 459.509 178.358 459.29 L179.254 456.825 C179.796 455.337 180.239 453.998 180.584 452.807 C180.929 451.617 181.168 450.447 181.301 449.303 C181.247 448.967 181.094 448.683 180.841 448.45 C180.591 448.22 180.026 447.943 179.151 447.624 C177.805 447.134 176.457 446.996 175.103 447.209 C173.749 447.422 172.66 448.029 171.833 449.032 z M103.34 434.313 C103.507 434.065 103.784 434.013 104.17 434.153 C106.326 434.565 108.475 434.993 110.612 435.436 C110.778 435.546 110.942 435.656 111.107 435.768 C111.41 437.808 112.054 439.67 113.037 441.352 C114.023 443.034 115.34 444.429 116.987 445.54 C119.089 446.513 121.354 446.855 123.785 446.567 C126.215 446.28 128.255 445.517 129.905 444.284 C131.555 443.05 132.871 441.702 133.855 440.24 C134.895 438.696 135.611 437.053 136.003 435.314 C136.397 433.574 136.4 431.834 136.017 430.09 C135.657 428.726 135.117 427.47 134.391 426.32 C133.668 425.17 132.756 424.226 131.658 423.486 C131.026 423.06 129.365 422.369 126.675 421.41 C123.987 420.453 120.191 419.847 115.289 419.594 C116.699 418.214 117.959 417.054 119.069 416.114 C120.171 415.251 120.989 414.596 121.529 414.154 C121.757 414.229 121.889 414.239 121.927 414.184 C123.221 414.814 124.503 415.516 125.777 416.294 C127.051 417.07 128.404 417.94 129.833 418.902 L130.409 419.292 L130.904 419.622 C131.424 419.976 131.948 420.327 132.47 420.679 L133.993 421.704 L134.447 422.009 C134.804 422.249 135.181 422.505 135.581 422.773 C135.979 423.043 136.289 423.25 136.509 423.398 C138.763 424.915 140.495 426.64 141.709 428.575 C142.922 430.511 143.479 432.853 143.385 435.605 C143.29 438.355 142.29 441.147 140.383 443.977 C139.348 445.515 138.111 446.877 136.673 448.067 C135.233 449.254 133.713 450.147 132.111 450.747 C126.545 452.43 121.261 451.587 116.259 448.221 C114.911 447.553 113.759 446.967 112.801 446.461 C111.843 445.957 111.008 445.464 110.291 444.981 C109.743 444.611 109.035 444.045 108.171 443.284 C107.306 442.521 106.241 440.898 104.981 438.412 C103.723 435.922 103.176 434.5569 103.341 434.31 z M65.11 392.557 C66.182 389.903 67.878 387.559 70.198 385.525 C71.96799 383.973 73.948 382.768 76.132 381.912 C78.31499 381.056 80.53 380.679 82.779 380.778 C84.893 380.774 86.831 381.235 88.589 382.161 C90.349 383.086 91.906 384.211 93.264 385.531 C94.62 386.853 96.347 388.711 98.444 391.101 C99.316 392.098 100.564 393.624 102.19 395.679 C103.816 397.736 104.914 399.087 105.48 399.735 C105.02 399.963 104.257 400.235 103.19 400.552 C102.126 400.869 101.174 401.318 100.338 401.897 C99.50101 402.475 98.34601 403.357 96.87 404.537 C95.397 405.722 93.625 407.217 91.557 409.03 L90.847 409.652 L90.212 410.21 L89.652 410.7 L89.165 411.126 L88.755 411.486 C88.32999 411.856 87.907 412.226 87.48299 412.599 L86.173 413.745 L85.80099 414.072 C83.98399 415.666 82.631 417.467 81.74899 419.474 C81.521 419.717 81.36299 419.788 81.27599 419.689 C80.05399 418.295 78.85199 416.896 77.66599 415.495 C76.48199 414.095 75.29199 412.685 74.09599 411.269 L73.506 410.597 C72.004 408.881 70.478 407.317 68.92899 405.902 L67.62099 404.409 C65.94299 402.494 64.838 400.703 64.30299 399.039 C63.77299 397.372 64.04099 395.212 65.11299 392.559 z M72.373 394.654 C71.219 396.811 70.745 398.714 70.951 400.358 C71.159 402.005 71.578 403.388 72.207 404.511 C72.839 405.634 73.272 406.331 73.513 406.606 C73.971 407.129 74.725 407.636 75.773 408.126 C76.82101 408.616 77.607 408.998 78.12801 409.268 C78.65101 409.538 79.37801 409.372 80.312 408.775 C81.247 408.178 82.144 407.59 83.00401 407.011 C84.326 405.851 86.22401 404.289 88.69401 402.323 C91.16201 400.357 92.50901 399.276 92.73401 399.079 C93.30801 398.575 93.88401 398.049 94.46101 397.499 C95.03801 396.949 95.58101 396.386 96.091 395.809 C96.231 395.465 96.305 395.123 96.317 394.783 C96.327 394.443 96.217 393.913 95.982 393.193 C95.749 392.473 95.272 391.703 94.552 390.88 C93.502 389.684 92.17 388.803 90.55 388.24 C88.93201 387.676 87.12701 387.342 85.137 387.236 C83.371 387.286 81.627 387.626 79.907 388.253 C78.183 388.883 76.64899 389.786 75.30099 390.968 C74.727 391.471 74.183 392.035 73.671 392.658 C73.158 393.283 72.726 393.948 72.374 394.654 z M33.584 350.628 C34.118 350.571 34.952 350.41 36.09 350.148 C37.227 349.886 37.898 349.738 38.104 349.703 C38.24 349.817 38.374 349.933 38.508 350.046 C39.102 351.176 40.028 353.016 41.283 355.556 C42.54 358.096 43.228 359.482 43.35 359.714 C43.694 359.867 43.955 359.934 44.132 359.914 C44.54601 359.77 45.034 359.571 45.59501 359.314 C46.15701 359.056 46.702 358.79 47.23301 358.51 L49.22501 357.466 L51.172 356.446 C51.24501 356.37 51.272 356.206 51.25201 355.956 C51.00201 355.192 50.73701 354.504 50.45201 353.889 C50.16801 353.274 49.80401 352.542 49.35801 351.695 C48.715 350.468 48.09301 349.388 47.492 348.455 C46.89 347.522 46.15701 346.445 45.292 345.221 C45.938 344.883 46.779 344.508 47.815 344.096 C48.852 343.684 49.635 343.376 50.165 343.174 C50.318 343.32 50.46 343.451 50.597 343.568 C51.03 344.392 51.67 345.793 52.519 347.768 C53.369 349.746 53.969 351.074 54.325 351.748 C54.695 352.4561 55.125 353.17 55.612 353.8911 C55.955 354.0511 56.139 354.1211 56.17 354.106 C56.403 353.984 56.656 353.851 56.932 353.708 C57.206 353.562 57.418 353.453 57.562 353.3781 C58.054 353.118 58.79 352.688 59.766 352.0821 C60.742 351.4761 61.492 351.037 62.012 350.7641 C62.592 350.4601 62.776 350.1041 62.562 349.6961 C62.108 348.2581 61.497 346.8061 60.73 345.3461 C60.16399 344.2661 59.55 343.2441 58.89 342.2861 C58.23 341.3281 57.52399 340.5061 56.77 339.8211 C56.64799 339.5881 56.747 339.3861 57.07 339.2171 L57.554 338.9621 C57.904 338.7041 58.249 338.4851 58.584 338.3101 C58.924 338.132 59.25399 337.9601 59.576 337.7901 L60.324 337.3981 C60.588 337.2601 60.834 337.1411 61.061 337.0411 C61.291 336.9411 61.501 336.8581 61.691 336.7961 C62.245 337.8521 63.055 339.5231 64.12099 341.8061 C65.186 344.0901 66.02799 345.8191 66.64099 346.9921 L70.79299 354.9141 L70.86299 355.0461 C68.60499 355.8191 66.34499 356.7331 64.08499 357.7861 C61.82299 358.8411 59.26499 360.1161 56.40999 361.6101 L55.48199 362.0961 L54.64599 362.5341 L53.94199 362.9041 L53.32599 363.226 L52.75599 363.526 C52.19599 363.818 51.63999 364.111 51.08099 364.403 C50.52499 364.695 49.953 364.993 49.36599 365.303 L48.88299 365.556 C47.76799 366.14 46.67299 366.852 45.59699 367.691 C44.52099 368.5301 43.61499 369.241 42.87399 369.827 L42.60599 369.742 C41.97599 368.54 41.00599 366.512 39.69999 363.662 C38.39299 360.812 37.47699 358.8921 36.95399 357.8921 C36.201 356.455 35.564 355.33 35.04399 354.5181 C34.52399 353.7061 34.01699 352.9921 33.52 352.3721 C33.026 351.7541 32.694 351.3571 32.527 351.1821 C32.464 351.0671 32.507 350.9681 32.657 350.8921 C32.803 350.8121 33.112 350.7251 33.584 350.6261 z M14.128 292.994 L19.566 292.648 C19.703 292.788 19.804 292.866 19.876 292.882 C20.32 294.786 20.841 297.14 21.44 299.942 C22.04 302.746 22.346 304.179 22.362 304.242 L22.85 304.589 C23.4 304.461 24.45 304.267 26.005 304.009 C27.561 303.749 28.71 303.533 29.451 303.362 C30.161 303.197 30.845 302.988 31.501 302.732 L31.701 302.28 L30.995 299.244 C30.503 297.124 30.075 295.477 29.707 294.309 C29.342 293.1389 28.783 291.929 28.037 290.681 C28.031 290.651 28.009 290.551 27.972 290.391 C28.958 290.163 29.994 289.998 31.077 289.899 C32.162 289.799 33.011 289.7289 33.624 289.689 C33.734 289.867 33.827 290.049 33.904 290.234 C34.194 291.488 34.548 293.116 34.962 295.121 C35.376 297.125 35.616 298.271 35.685 298.561 L35.987 299.863 C36.085 300.281 36.229 300.755 36.41999 301.286 L36.875 301.486 C38.779 301.044 40.675 300.603 42.563 300.166 C44.453 299.726 46.348 299.286 48.25299 298.846 L48.479 298.946 L49.372 302.794 C49.772 304.514 50.068 305.797 50.266 306.641 C50.104 306.679 50.006 306.771 49.97 306.9149 C47.435 307.1649 44.787 307.5229 42.03 307.993 C39.27 308.463 36.254 309.063 32.975 309.7899 C29.698 310.52 26.535 311.235 23.49 311.942 C22.052 312.4799 20.587 313.127 19.094 313.8799 L18.907 313.515 C18.599 312.193 18.172 310.132 17.625 307.335 C17.078 304.537 16.643 302.4449 16.32 301.0569 C15.998 299.67 15.665 298.377 15.32 297.183 C14.974 295.9879 14.577 294.865 14.13 293.813 C14.106 293.716 13.968 293.603 13.712 293.476 C13.457 293.3459 13.326 293.2679 13.318 293.236 C13.302 293.172 13.35 293.118 13.46 293.076 C13.568 293.0309 13.79 293.004 14.13 292.994 z M17.606 229.05 C17.739 229.217 17.836 229.3 17.902 229.3 C18.087 231.157 18.232 232.74 18.34 234.05 C18.446 235.36 18.494 236.51 18.487 237.504 C17.667 237.929 16.891 238.504 16.165 239.226 C15.438 239.95 15.008 240.726 14.869 241.552 C14.633 242.378 14.421 243.272 14.233 244.23 C14.046 245.19 13.95 246.084 13.943 246.912 C13.933 248.237 14.173 249.398 14.661 250.395 C15.243 252.321 16.351 254.135 17.993 255.835 C19.633 257.537 21.289 258.595 22.953 259.005 C24.623 259.415 26.1 259.623 27.388 259.633 C29.504 259.65 31.475 259.225 33.3 258.363 C35.124 257.498 36.672 256.21 37.94 254.496 C38.48 253.44 39.015 252.384 39.552 251.326 C40.092 250.106 40.364 248.949 40.372 247.856 L40.379 246.861 C40.282 246.531 40.139 245.875 39.947 244.896 C39.757 243.918 39.235 242.762 38.384 241.431 C37.532 240.101 36.33 239.263 34.774 238.921 C34.214 238.717 33.602 238.571 32.941 238.484 C32.278 238.397 31.533 238.349 30.706 238.342 L29.016 238.332 L27.376 238.319 C27.313 237.827 27.286 237.149 27.292 236.282 C27.299 235.416 27.288 234.722 27.258 234.198 L27.28 231.058 C27.315 231.028 27.34 230.978 27.356 230.912 C27.374 230.848 27.399 230.782 27.432 230.717 C28.492 230.725 30.064 230.911 32.148 231.274 C34.233 231.638 35.706 231.822 36.568 231.829 C37.428 231.835 38.192 231.766 38.854 231.623 C39.518 231.479 40.066 231.293 40.498 231.063 L41.895 230.33 C42.395 230.068 42.759 229.906 42.993 229.84 C42.991 230.007 43.007 230.114 43.04 230.164 C43.072 230.214 43.104 230.24 43.138 230.24 C42.791 232.26 42.612 234.378 42.594 236.597 C42.584 237.889 42.652 239.993 42.794 242.909 C42.939 245.826 43.007 247.764 43 248.725 C43.19 250.019 43.277 251.362 43.26801 252.753 C43.248 255.205 42.79301 257.569 41.90001 259.849 C41.007 262.129 39.215 263.937 36.527 265.275 C33.83701 266.613 30.92 267.27 27.777 267.247 C24.504 267.223 21.507 266.397 18.791 264.769 C16.076 263.142 14.181 260.851 13.111 257.894 C12.429 256.397 11.971 254.804 11.735 253.112 C11.5 251.422 11.389 249.532 11.405 247.445 C10.958 245.29 10.743 243.085 10.759 240.832 C10.776 238.612 11.005 236.709 11.447 235.122 C11.889 233.535 12.519 232.406 13.337 231.732 C14.153 231.062 14.895 230.47 15.561 229.962 C16.226 229.45 16.907 229.149 17.603 229.054 z M22.15 176.394 C23.602 177.301 25.165 178.074 26.838 178.712 C28.512 179.352 30.381 179.927 32.443 180.442 C34.053 180.842 35.663 181.26 37.268 181.694 L42.081 182.994 C43.631 183.381 45.063 183.704 46.386 183.964 C47.709 184.226 48.816 184.391 49.706 184.458 C50.596 184.526 51.263 184.53 51.706 184.47 C52.149 184.41 52.491 184.376 52.733 184.367 L52.769 184.632 C52.545 185.532 52.202 186.915 51.737 188.778 C51.273 190.643 50.927 192.026 50.705 192.925 C50.471 193.175 50.11 193.17 49.625 192.912 C47.665 192.082 45.735 191.338 43.837 190.678 C41.94 190.018 40.035 189.448 38.124 188.973 C37.639 188.853 37.344 189 37.241 189.415 L35.451 196.602 C34.654 199.796 34.055 202.207 33.651 203.836 C33.756 203.948 33.831 204.063 33.868 204.179 C33.90599 204.294 33.938 204.376 33.958 204.424 C34.884 204.654 36.462 204.996 38.698 205.45 C40.934 205.905 42.115 206.148 42.243 206.18 C42.338 206.204 42.438 206.34 42.547 206.59 C42.654 206.838 42.783 206.93 42.935 206.864 C43.111 206.704 43.215 206.558 43.245 206.429 C43.632 206.524 44.243 206.609 45.078 206.679 C45.914 206.752 46.541 206.839 46.958 206.943 C46.67 208.237 46.331 209.673 45.938 211.247 L45.05 214.815 L44.82 214.911 C42.553 214.007 40.136 213.156 37.568 212.363 C35.001 211.571 32.302 210.823 29.473 210.117 L24.048 208.767 C21.621 208.162 19.798 207.707 18.575 207.404 C17.241 207.281 15.911 207.137 14.585 206.974 C14.675 206.478 14.82 205.824 15.025 205.011 C15.225 204.199 15.385 203.565 15.498 203.111 L16.178 200.379 C16.365 199.632 16.53 198.965 16.678 198.379 C19.356 200.003 22.294 201.212 25.488 202.009 C25.925 202.185 26.27 202.314 26.524 202.394 C26.779 202.474 27.067 202.554 27.389 202.634 C27.775 202.732 28.099 202.769 28.363 202.749 C28.627 202.729 28.791 202.574 28.863 202.284 C29.143 201.16 29.635 199.327 30.335 196.787 C31.035 194.247 31.405 192.897 31.445 192.737 L31.59 192.159 C31.807 191.289 32.024 190.423 32.238 189.555 C32.326 188.792 32.393 188.245 32.441 187.915 C32.306 187.643 32.204 187.497 32.139 187.481 L30.639 187.107 C27.864 186.417 25.779 185.953 24.379 185.713 C22.984 185.473 21.484 185.403 19.882 185.503 L22.092 176.629 L22.152 176.393 z M68.193 149.433 L68.297 149.768 L64.432 157.111 C64.369 157.229 64.265 157.249 64.119 157.173 C59.659 154.003 54.679 150.967 49.17599 148.069 C47.82999 147.359 45.786 146.416 43.043 145.234 C40.3 144.051 38.34499 143.154 37.173 142.536 C37.028 142.46 36.96 142.376 36.97 142.288 C36.98 142.2 36.954 142.14 36.896 142.108 L40.554 135.161 L40.844 135.035 C42.784 136.392 44.814 137.705 46.931 138.969 C49.051 140.235 51.281 141.484 53.621 142.716 C58.333 145.196 63.191 147.436 68.194 149.434 z M76.565 85.683 C76.589 85.705 76.98 86.17599 77.735 87.093 C78.493 88.013 79.019 88.603 79.317 88.868 C81.394 90.72 84.365 93.5 88.22701 97.20801 C92.08701 100.915 94.35201 103.066 95.019 103.661 C96.66901 105.797 97.356 108.374 97.08301 111.391 C96.81001 114.411 95.90001 117.161 94.353 119.643 C93.895 120.256 93.50001 120.789 93.161 121.243 C92.82401 121.697 92.54501 122.048 92.325 122.295 C91.775 122.913 91.26 123.365 90.783 123.65 C90.203 122.955 89.785 122.392 89.525 121.96 C89.265 121.528 88.872 120.79 88.341 119.74 C88.541 119.518 88.996 119.304 89.71301 119.1 C90.428 118.894 90.896 118.667 91.11501 118.42 C91.269 118.246 91.37501 118.03 91.42901 117.768 C91.519 114.432 90.59401 111.412 88.65601 108.706 C86.716 106.003 83.98 103.076 80.44301 99.92301 L77.66101 97.44301 C76.89401 96.76001 75.63801 95.83101 73.89301 94.65101 C72.14701 93.47401 71.01501 92.65401 70.49601 92.19101 C70.88601 91.60501 71.42101 90.92901 72.10301 90.16301 C73.00601 89.14901 73.81301 88.29301 74.52501 87.59501 C75.23801 86.89801 75.91501 86.26201 76.56501 85.68501 z M127.896 44.417 C126.249 50.787 124.689 57.461 123.216 64.437 C123.184 64.74 123.486 65.035 124.126 65.32 C126.349 65.924 128.62 66.506 130.936 67.066 C133.252 67.62601 135.476 68.141 137.606 68.608 C139.739 69.075 142.376 69.635 145.521 70.29 C145.001 70.65 144.216 71.21 143.166 71.973 C142.116 72.736 141.302 73.316 140.726 73.713 C139.658 74.447 138.661 75.05299 137.736 75.529 C135.48 74.949 133.336 74.404 131.306 73.889 C129.276 73.379 127.476 72.949 125.906 72.601 C124.336 72.255 122.514 71.929 120.446 71.623 C120.383 71.707 120.326 71.787 120.276 71.86 C120.226 71.936 120.23 72.014 120.286 72.096 C121.018 73.159 122.342 74.864 124.256 77.206 C126.17 79.548 127.456 81.196 128.112 82.151 C128.077 82.215 128.055 82.271 128.048 82.317 C128.038 82.363 128.045 82.4 128.064 82.427 C127.364 82.909 126.344 83.65 125.008 84.651 C123.67 85.651 122.694 86.365 122.073 86.791 L121.618 86.563 C120.191 84.49001 118.268 81.593 115.846 77.869 C113.424 74.147 111.856 71.76701 111.144 70.729 C109.604 68.493 108.339 66.729 107.352 65.439 C106.364 64.149 105.122 62.651 103.626 60.945 L103.719 60.82 L110.149 56.39301 L110.396 56.40501 C112.203 59.90701 114.366 63.48501 116.88 67.14301 C117.13 67.33301 117.327 67.23801 117.47 66.85901 C118.266 63.92701 119.07 60.53901 119.88 56.68901 C120.69 52.84201 121.267 50.11401 121.61 48.50501 L127.79 44.25201 C127.825 44.30801 127.862 44.36201 127.9 44.41602 z M186.025 47.21 L185.805 52.124 C185.669 52.424 185.587 52.578 185.555 52.59 C182.952 53.57 179.558 54.805 175.375 56.293 C171.19 57.78 168.821 58.629 168.263 58.839 L168.053 58.704 C167.683 57.249 167.226 55.71 166.686 54.088 C166.146 52.465 165.578 50.861 164.98 49.278 C164.01 46.701 162.748 43.488 161.192 39.642 C159.636 35.796 158.852 33.857 158.842 33.826 C158.592 33.352 158.302 32.842 157.972 32.292 C157.64 31.742 157.178 31.014 156.588 30.102 L156.756 29.98499 L158.943 29.16299 L161.407 28.23299 C162.677 27.75299 163.553 27.44299 164.027 27.29799 C164.447 27.28199 164.86 27.24999 165.267 27.203 C165.537 29.04499 165.985 31.05799 166.613 33.243 C167.24 35.42599 167.933 37.52299 168.691 39.535 C169.193 40.865 170.054 43.05799 171.276 46.115 C172.499 49.17 173.146 50.79 173.214 50.975 C173.471 51.373 173.728 51.683 173.988 51.903 C174.248 52.123 174.556 52.237 174.913 52.243 C176.836 51.519 178.586 50.74 180.166 49.906 C181.746 49.072 183.636 48.002 185.833 46.696 C186.039 46.866 186.103 47.036 186.026 47.206 z M247.682 41.573 L239.092 42.561 L237.612 42.733 C238.118 41.338 238.426 39.815 238.537 38.165 C238.647 36.515 238.594 34.748 238.377 32.868 C238.245 31.714 237.969 29.973 237.552 27.648 C237.134 25.323 236.864 23.618 236.739 22.528 C236.693 22.432 236.657 22.336 236.629 22.238 C236.603 22.142 236.539 22.083 236.436 22.06 C236.166 22.325 235.974 22.514 235.856 22.628 C235.042 24.794 234.101 27.425 233.032 30.523 C231.964 33.623 230.96 36.563 230.02 39.343 C229.956 39.653 229.94 39.953 229.976 40.251 C230.028 40.714 230.246 41.281 230.622 41.957 C231 42.633 231.218 43.083 231.277 43.311 L231.097 43.481 C229.745 43.638 228.42 43.768 227.115 43.874 L223.225 44.188 C222.603 43.426 221.841 42.313 220.94 40.848 C220.038 39.388 218.923 37.606 217.6 35.508 C216.274 33.408 215.087 31.568 214.038 29.988 C212.988 28.408 211.818 26.778 210.522 25.092 C210.42 25.072 210.324 25.108 210.235 25.2 C210.145 25.295 210.071 25.378 210.015 25.45 C210.241 27.426 210.577 30.34 211.019 34.188 L212.029 42.975 C212.055 43.205 212.146 43.562 212.303 44.045 C212.457 44.525 212.553 44.915 212.587 45.212 L205.231 46.058 C205.461 44.298 205.556 42.428 205.511 40.45 C205.466 38.47001 205.318 36.38 205.064 34.173 C204.932 33.023 204.74 31.07 204.49 28.313 C204.24 25.559 204.104 24.083 204.082 23.885 L203.992 23.095 C203.786 21.317 203.484 19.569 203.087 17.845 C202.939 17.43 202.642 16.872 202.194 16.175 C201.747 15.475 201.484 15.065 201.401 14.939 C201.421 14.804 201.425 14.704 201.418 14.637 C202.616 14.6 204.124 14.477 205.938 14.267 L210.293 13.767 C210.983 13.687 211.365 13.661 211.436 13.684 C211.594 13.902 212.276 14.967 213.483 16.884 C214.69 18.801 215.813 20.574 216.853 22.211 C217.893 23.845 219.149 25.756 220.623 27.941 C222.093 30.129 223.725 32.471 225.518 34.973 C225.661 35.055 225.778 35.118 225.865 35.158 C225.952 35.19801 226.025 35.16401 226.08 35.05801 C226.932 32.88801 227.794 30.58201 228.667 28.14301 C229.537 25.703 230.494 22.97001 231.534 19.943 C232.572 16.917 233.541 14.083 234.44 11.438 C234.524 11.294 234.594 11.186 234.654 11.113 C236.237 10.93001 237.804 10.767 239.359 10.62101 C240.914 10.476 242.484 10.32901 244.069 10.179 C244.026 10.719 243.895 11.425 243.677 12.301 C243.459 13.176 243.349 14.148 243.347 15.214 C243.347 16.284 243.425 17.816 243.584 19.81601 C243.744 21.81601 243.951 23.93301 244.209 26.17101 C244.396 27.783 244.579 29.388 244.763 30.984 L245.318 35.797 C245.434 36.81701 245.69 37.779 246.088 38.68501 C246.481 39.591 247.012 40.555 247.68 41.57801 z M294.73 46.63 L284.478 45.306 L269.572 21.836 L267.465 38.16 C267.425 38.455 267.395 38.76 267.372 39.073 C267.348 39.386 267.406 39.903 267.548 40.62 L267.723 43.142 L258.803 41.99 C259.348 41.392 259.768 40.853 260.065 40.374 C260.36 39.894 260.639 39.346 260.903 38.728 C261.167 38.11 261.347 37.558 261.443 37.068 C261.539 36.58 261.645 35.891 261.76 35.004 L263.823 19.03 L263.905 18.39 C264.037 17.37 264.103 16.66 264.105 16.26 C264.105 15.86 264.031 15.28 263.878 14.527 C263.725 13.772 263.59 13.261 263.474 12.997 C263.359 12.73 262.884 11.927 262.057 10.582 L269.893 11.594 C269.991 11.608 270.098 11.62 270.213 11.636 L270.433 11.664 C270.928 11.727 271.34 11.891 271.673 12.15 C272.009 12.41 272.255 12.7 272.413 13.022 C272.573 13.342 272.733 13.649 272.897 13.937 L287.119 36.877 L289.124 21.361 C289.234 20.506 289.292 19.794 289.298 19.224 C289.303 18.656 289.308 18.094 289.315 17.544 C289.318 16.99 289.305 16.454 289.272 15.93 C289.239 15.406 289.186 14.787 289.11 14.075 L298.673 15.309 C297.793 15.897 297.13 16.589 296.676 17.382 C296.223 18.174 295.906 18.886 295.726 19.514 C295.543 20.142 295.411 20.784 295.326 21.442 L293.054 39.042 C292.959 39.767 292.88 40.449 292.814 41.092 C292.747 41.735 292.794 42.468 292.957 43.29 C293.259 44.535 293.851 45.647 294.727 46.63 z M350.395 39.632 C350.559 40.867 350.538 42.164 350.333 43.522 C350.127 44.882 349.786 46.18 349.31 47.417 C348.64 49.147 347.745 50.737 346.618 52.184 C345.491 53.631 343.912 55.01 341.88 56.321 C339.847 57.633 337.314 58.333 334.278 58.421 C331.242 58.509 328.148 57.948 324.998 56.731 C323.081 56.454 321.288 55.993 319.618 55.348 C317.672 54.598 315.984 53.608 314.558 52.384 C313.131 51.158 312.086 49.654 311.425 47.872 C310.763 46.092 310.445 44.176 310.473 42.127 C310.501 40.078 310.883 38.097 311.623 36.18 C312.338 34.326 313.463 32.494 314.993 30.69 C316.523 28.882 318.835 27.476 321.923 26.465 C325.011 25.455 327.977 25.269 330.821 25.905 C332.747 26.433 334.159 26.801 335.057 27.005 C335.953 27.211 336.791 27.339 337.571 27.391 C338.351 27.443 339.038 27.547 339.634 27.705 C340.229 27.865 340.806 28.051 341.361 28.265 C343.834 29.22 345.887 30.732 347.521 32.8 C349.155 34.865 350.113 37.145 350.396 39.632 z M342.405 38.945 C342.052 36.821 341.439 35.19 340.565 34.053 C339.688 32.916 338.712 31.973 337.635 31.219 C336.559 30.466 335.681 29.957 335 29.696 C333.826 29.243 332.62 29.079 331.382 29.206 C330.144 29.331 328.694 29.659 327.034 30.19 C325.191 31.006 323.564 32.137 322.156 33.582 C320.746 35.027 319.684 36.676 318.968 38.53 C318.36 40.106 318.075 41.924 318.115 43.98 C318.155 46.038 318.875 48.02 320.269 49.924 C321.664 51.83 323.474 53.211 325.699 54.07 C329.673 55 333.053 54.52 335.842 52.63 C338.629 50.742 340.567 48.392 341.652 45.58 C342.55 43.263 342.798 41.05 342.402 38.945 z M397.803 65.572 C397.539 67.18 396.887 68.71 395.841 70.162 C394.368 72.202 392.551 73.537 390.386 74.162 C388.22 74.785 386.096 74.856 384.013 74.375 C381.93 73.895 379.975 72.995 378.149 71.678 C377.584 71.272 376.999 70.794 376.393 70.246 C375.787 69.69801 375.233 69.15 374.73 68.60101 C374.38 68.35101 374.12 68.34501 373.945 68.58601 C373.037 69.84401 372.232 71.03101 371.527 72.15101 C370.823 73.27101 369.545 75.48101 367.695 78.78401 L367.435 78.71901 C366.415 77.98301 365.085 77.05201 363.445 75.92701 C361.807 74.80101 360.96 74.21901 360.907 74.18101 C360.903 74.01501 360.925 73.92901 360.971 73.92101 C362.298 72.591 363.565 71.188 364.773 69.71101 C365.98 68.23401 367.261 66.55701 368.619 64.67601 C369.625 63.28001 370.623 61.86601 371.613 60.43601 C372.603 59.00601 373.597 57.57101 374.595 56.12601 C376.455 53.54901 377.725 50.85201 378.408 48.03601 L378.685 47.99101 L380.539 49.32801 C384.193 51.96301 386.827 53.79002 388.439 54.81001 C390.053 55.83001 391.871 56.86201 393.889 57.91001 C395.799 59.28701 396.979 60.55601 397.427 61.71701 C397.875 62.87801 398.001 64.16301 397.804 65.57201 z M391.188 62.346 C391.346 61.396 391.292 60.566 391.028 59.864 C390.764 59.162 390.335 58.596 389.748 58.172 C389.398 57.922 389.042 57.727 388.676 57.586 C388.31 57.444 387.516 57.262 386.296 57.038 C385.076 56.813 383.756 57.234 382.336 58.301 C380.916 59.368 379.44 60.967 377.903 63.098 L377.028 64.31 L376.154 65.52299 C375.921 65.84699 375.906 66.12299 376.108 66.351 C376.311 66.581 376.493 66.751 376.655 66.869 L377.139 67.21899 C379.314 68.78699 381.659 69.32899 384.1711 68.84699 C386.683 68.36399 388.5911 67.21899 389.894 65.411 C390.5341 64.521 390.9641 63.499 391.187 62.347 z M416.615 131.794 C416.515 131.93 416.355 132.1 416.135 132.302 C415.942 132.482 415.652 132.679 415.267 132.898 C414.883 133.116 414.461 133.368 414.004 133.654 L413.754 133.749 L408.374 127.895 L403.026 122.079 C401.703 120.639 401.024 118.891 400.988 116.831 C400.953 114.771 401.338 112.651 402.142 110.471 C401.272 109.697 400.529 109.018 399.915 108.435 C399.301 107.853 398.735 107.282 398.219 106.72 L397.714 106.172 C397.5789 106.026 397.446 105.879 397.3109 105.734 C397.1809 105.494 397.071 105.324 396.981 105.227 C395.3889 103.497 394.4789 101.317 394.248 98.69398 C394.0179 96.07098 394.408 93.61899 395.418 91.34099 C396.43 89.06299 397.873 87.06099 399.751 85.33398 C401.019 84.16798 402.384 83.21799 403.845 82.48099 C405.305 81.74599 406.802 81.30399 408.332 81.15799 C411.114 80.75999 413.775 81.02199 416.316 81.95099 C418.856 82.87799 421.21 84.32599 423.378 86.29099 C424.56 87.18598 425.626 88.03899 426.578 88.85298 C427.526 89.66599 428.428 90.53698 429.28 91.46298 C430.31 92.58498 431.11 93.61498 431.68 94.55298 C432.25 95.49298 432.697 96.57798 433.02 97.81298 C433.626 99.54998 433.97 100.796 434.056 101.55 C434.141 102.304 433.823 103.833 433.102 106.14 C432.382 108.443 430.984 110.55 428.909 112.46 C426.369 114.794 423.905 116.17 421.517 116.588 C419.129 117.006 417.007 117.088 415.153 116.836 C413.298 116.584 411.469 116.116 409.67 115.431 C409.558 115.357 409.46 115.311 409.378 115.297 C409.296 115.281 409.241 115.332 409.213 115.447 C409.487 118.66 409.683 120.73 409.8 121.659 C409.917 122.586 410.23 123.716 410.738 125.049 C410.946 125.757 411.241 126.419 411.628 127.033 C412.011 127.646 412.474 128.246 413.011 128.831 C413.483 129.344 414.025 129.846 414.637 130.341 C415.249 130.834 415.909 131.319 416.617 131.795 z M426.543 102.284 C427.188 100.294 427.313 98.37701 426.923 96.53201 C426.533 94.686 425.75 92.955 424.576 91.33401 C424.446 91.09401 424.273 90.83401 424.063 90.55601 C423.853 90.27901 423.645 90.02901 423.445 89.81001 C422.547 88.83401 421.457 88.12601 420.175 87.68501 C418.891 87.245 417.307 86.87901 415.419 86.58801 C413.566 86.581 411.772 86.89201 410.034 87.523 C408.294 88.153 406.781 89.063 405.488 90.251 C404.511 91.149 403.591 92.411 402.725 94.041 C401.86 95.668 401.548 97.765 401.791 100.331 C402.035 102.896 402.791 105.261 404.061 107.424 C405.826 108.952 407.815 110.038 410.026 110.682 C412.238 111.328 414.498 111.399 416.806 110.898 C419.112 110.398 421.203 109.285 423.081 107.558 C424.791 105.986 425.941 104.23 426.541 102.285 z M443.018 170.29 C442.538 169.864 442.048 169.295 441.551 168.58 C441.056 167.864 440.429 166.768 439.671 165.29 L438.536 163.075 C437.866 161.18 438.352 159.113 439.998 156.872 C441.644 154.63 442.618 153.077 442.926 152.212 C443.811 150.938 444.406 149.578 444.716 148.132 C445.026 146.687 444.863 145.345 444.228 144.104 C444.091 143.838 443.953 143.621 443.808 143.452 C443.668 143.282 443.505 143.169 443.328 143.112 C443.148 143.052 442.868 143.122 442.486 143.319 L441.381 143.884 C439.761 144.714 438.1429 145.614 436.5349 146.576 C434.925 147.54 433.3749 148.562 431.8799 149.643 L431.6119 149.557 L427.8049 142.125 L427.8689 141.815 C429.6259 141.395 431.4459 140.808 433.3289 140.049 C435.2119 139.29 437.1669 138.389 439.2019 137.347 C440.3519 136.757 442.2619 135.743 444.9289 134.302 C447.5959 132.861 449.0189 132.095 449.1949 132.005 C450.7279 131.22 451.9749 130.47 452.9289 129.757 C453.8849 129.044 454.6389 128.137 455.1919 127.035 L455.5019 126.875 C456.1669 128.173 456.8219 129.493 457.4749 130.835 C458.1229 132.177 458.7819 133.533 459.4479 134.905 C460.3679 136.702 461.1259 138.093 461.7209 139.071 C462.3159 140.051 463.1009 141.166 464.0749 142.415 C464.5729 143.389 465.0149 144.615 465.3999 146.092 C465.7849 147.57 465.9479 148.472 465.8929 148.799 C465.8359 149.125 465.7329 149.467 465.5799 149.823 C465.4279 150.18 465.3379 150.477 465.3099 150.715 C464.9919 151.4 464.5349 152.033 463.9399 152.617 C463.3459 153.201 462.6219 153.712 461.7669 154.149 C460.6729 154.709 459.6329 154.999 458.6399 155.024 C457.3959 155.14 456.0659 154.957 454.6449 154.474 C453.2249 153.991 451.8249 153.342 450.4379 152.527 C450.2459 152.662 450.0429 153.11 449.8339 153.87 C449.6239 154.63 448.6159 156.54 446.8139 159.605 C445.0119 162.668 443.9799 164.565 443.7169 165.295 C443.6289 165.71 443.5469 166.301 443.4709 167.065 C443.394 167.831 443.3309 168.858 443.2809 170.15 L443.015 170.29 z M459.488 145.888 C459.986 145.188 460.246 144.352 460.268 143.378 C460.288 142.402 460.075 141.475 459.624 140.595 C459.172 139.715 458.468 139.01 457.509 138.483 C456.55 137.956 455.479 137.773 454.296 137.933 C453.112 138.093 451.886 138.5 450.62 139.15 C450.148 139.392 449.34 139.833 448.2 140.474 C447.057 141.114 446.458 141.451 446.4 141.481 L446.09 141.751 C446.303 142.386 446.54 142.954 446.795 143.456 C447.443 144.723 448.291 145.778 449.337 146.62 C450.382 147.46 451.609 148.023 453.021 148.306 C454.668 148.466 456.183 148.194 457.571 147.484 C458.308 147.104 458.947 146.574 459.489 145.888 z M478.51 208.75 L478.258 208.556 C478.166 207.623 478.068 206.94 477.962 206.506 C477.856 206.071 477.775 205.74 477.722 205.516 C477.295 203.779 476.617 202.12 475.686 200.539 C475.74 200.479 475.83 200.429 475.956 200.389 C476.083 200.346 476.194 200.312 476.291 200.289 C476.613 200.209 476.935 200.132 477.258 200.053 L478.223 199.818 C478.803 199.675 479.25 199.488 479.571 199.258 C479.887 199.026 480.121 198.688 480.268 198.242 C480.415 197.797 480.482 197.337 480.468 196.862 C480.455 196.388 480.401 195.959 480.306 195.572 C480.086 194.672 479.679 193.772 479.086 192.879 C478.491 191.984 477.822 191.201 477.079 190.531 C476.334 189.997 475.579 189.619 474.809 189.397 C474.037 189.177 473.249 189.165 472.447 189.361 C472.124 189.441 471.882 189.499 471.722 189.538 C471.369 189.624 471.062 189.836 470.802 190.172 C470.542 190.508 470.322 190.922 470.136 191.412 C469.953 192.212 469.898 193.028 469.966 193.866 C470.034 194.706 470.176 195.56 470.39 196.432 C470.634 197.432 471.104 198.935 471.797 200.938 C472.491 202.941 472.872 204.088 472.944 204.378 C473.027 205.552 472.824 206.684 472.34 207.774 C471.857 208.864 471.143 209.78 470.2 210.522 C468.958 211.302 467.693 211.852 466.406 212.165 C462.738 213.061 459.82 212.708 457.656 211.105 C455.491 209.503 454.003 208.017 453.19 206.647 C452.378 205.277 451.752 203.689 451.31 201.887 C451.037 200.76 450.81 199.487 450.632 198.063 C450.506 197.548 450.252 196.681 449.869 195.461 C449.487 194.241 449.277 193.567 449.247 193.441 C448.877 191.927 448.767 190.598 448.921 189.453 C449.071 188.307 449.621 187.373 450.567 186.646 C451.513 185.919 452.474 185.438 453.453 185.199 C454.953 184.832 456.357 184.915 457.663 185.449 L459.303 190.036 C459.743 191.276 460.216 192.362 460.721 193.296 C460.248 193.342 459.618 193.309 458.831 193.194 C458.044 193.08 457.477 193.021 457.133 193.021 C456.787 193.021 456.451 193.061 456.126 193.139 C455.051 193.402 454.263 194.062 453.764 195.123 C453.264 196.183 453.166 197.34 453.474 198.596 C453.52 198.788 453.772 199.366 454.231 200.328 C454.6909 201.29 455.737 202.263 457.368 203.245 C459.0009 204.225 460.3579 204.679 461.4399 204.602 C462.5199 204.524 463.3029 204.426 463.7919 204.308 C464.4389 204.1479 465.0019 203.884 465.4799 203.5119 C465.9559 203.14 466.2499 202.7 466.3699 202.1949 C466.4859 201.6879 466.5229 201.2789 466.4799 200.965 C466.4369 200.651 466.3629 200.271 466.2519 199.8199 C466.1119 199.2399 466.0059 198.8059 465.9349 198.517 L465.3749 196.224 L464.7909 193.834 C464.2259 191.516 464.0029 189.532 464.1249 187.884 C464.2489 186.234 464.9869 184.714 466.3449 183.324 C467.1549 182.614 468.1669 182.114 469.3849 181.814 C470.5689 181.526 471.8019 181.471 473.0829 181.654 C474.3659 181.834 475.709 182.264 477.1129 182.944 C478.515 183.6239 479.6499 184.66 480.516 186.0509 C481.382 187.4419 482.0359 189.039 482.476 190.8409 C482.618 191.4209 482.736 192.0559 482.838 192.7469 C482.938 193.437 483.0139 193.991 483.0649 194.407 C483.1149 194.819 483.1629 195.157 483.2099 195.4189 C483.2559 195.6789 483.3039 195.907 483.3499 196.101 C483.524 196.8089 483.7119 197.513 483.9179 198.213 C484.1209 198.9109 484.3279 199.6109 484.5329 200.313 C484.8329 201.536 484.9509 202.615 484.8899 203.549 C484.8319 204.485 484.4939 205.3519 483.8749 206.151 C483.3119 206.765 482.7019 207.281 482.0419 207.699 C481.3819 208.117 480.6819 208.415 479.9469 208.595 C479.7219 208.6499 479.4689 208.685 479.1869 208.705 C478.9039 208.723 478.6769 208.735 478.5099 208.743 z M488.853 266.416 C487.893 266.344 487.098 266.281 486.469 266.226 C485.839 266.174 485.194 266.061 484.532 265.892 L484.335 265.642 L484.351 263.182 L484.367 260.722 C484.372 259.928 484.361 259.116 484.334 258.287 C484.304 257.459 484.26 256.827 484.196 256.397 C484.133 255.967 484.062 255.727 483.978 255.675 C483.896 255.625 482.716 255.46 480.441 255.181 C478.165 254.901 474.651 254.746 469.899 254.716 C465.609 254.688 461.449 254.91 457.419 255.381 L457.475 246.884 L457.723 246.786 C459.41 246.796 462.02 246.871 465.557 247.01 C469.094 247.148 471.542 247.22 472.897 247.23 C475.177 247.245 477.13 247.2 478.752 247.094 C480.374 246.988 482.144 246.776 484.064 246.457 C484.262 246.325 484.396 246.193 484.464 246.062 C484.477 243.908 484.414 241.995 484.277 240.322 C484.137 238.647 483.842 237.047 483.387 235.52 C483.619 235.422 483.867 235.424 484.133 235.525 C485.918 236.065 487.703 236.625 489.488 237.199 C489.476 238.953 489.408 241.669 489.286 245.346 C489.162 249.023 489.096 251.786 489.083 253.643 C489.061 257.155 489.203 260.453 489.517 263.535 C489.447 263.8 489.437 264.122 489.485 264.505 C489.532 264.885 489.588 265.258 489.652 265.625 C489.645 266.222 489.378 266.485 488.85 266.415 z M447.242 317.408 L448.772 309.388 C448.958 309.333 449.256 309.358 449.674 309.464 L450.397 309.65 C450.847 309.763 451.22 309.773 451.517 309.677 C451.632 309.227 451.667 308.487 451.623 307.447 C451.579 306.407 451.573 305.76 451.608 305.497 C451.64 305.23 451.628 303.577 451.563 300.537 C451.5 297.495 451.6779 295.155 452.095 293.517 C452.643 291.367 453.78 289.793 455.502 288.797 C456.05 288.527 456.699 288.357 457.452 288.293 C458.205 288.229 458.976 288.246 459.772 288.346 C462.82 289.122 465.426 289.762 467.589 290.262 C469.749 290.762 472.372 291.377 475.449 292.11 C478.527 292.842 480.629 293.353 481.752 293.64 C482.147 293.568 482.732 293.512 483.512 293.472 C484.292 293.432 484.927 293.387 485.418 293.342 L485.463 293.559 C485.087 295.035 484.728 296.515 484.383 297.999 C484.038 299.484 483.698 300.954 483.363 302.407 L483.086 302.49 C481.556 301.794 479.753 301.113 477.684 300.45 C475.614 299.783 473.489 299.174 471.304 298.617 L466.634 297.427 C464.546 296.897 462.99 296.499 461.964 296.237 C460.567 296.087 459.294 296.147 458.149 296.42 C457.004 296.693 456.127 297.35 455.519 298.39 C455.227 299 454.979 299.706 454.775 300.51 C454.097 303.173 454.421 305.452 455.751 307.347 C457.081 309.241 458.727 310.695 460.691 311.707 C462.654 312.72 465.033 313.583 467.825 314.294 C468.82 314.548 470.458 314.931 472.738 315.444 C475.016 315.954 476.171 316.214 476.204 316.224 C476.621 316.329 477.249 316.412 478.089 316.474 C478.929 316.534 479.413 316.578 479.541 316.612 C479.207 317.928 478.888 319.266 478.587 320.626 C478.286 321.986 477.983 323.359 477.673 324.751 L477.106 324.761 C475.598 323.967 473.899 323.243 472.01 322.591 C470.122 321.941 468.23 321.371 466.333 320.889 C464.63 320.454 461.786 319.824 457.801 318.997 C453.821 318.17 451.265 317.613 450.141 317.327 L447.243 317.409 z M453.46 376.4 C452.27 374.755 451.107 373.18 449.975 371.68 C448.84 370.177 447.412 368.274 445.692 365.972 C443.969 363.668 442.432 361.605 441.076 359.778 C439.721 357.952 438.013 356.116 435.956 354.273 C435.48 353.683 435.069 353.22 434.722 352.886 C434.375 352.551 433.952 352.251 433.455 351.988 C432.958 351.725 432.485 351.593 432.031 351.598 C431.581 351.601 431.033 351.713 430.391 351.934 L435.215 342.851 C435.537 343.0229 435.877 343.175 436.237 343.3109 C436.595 343.4449 437.03 343.601 437.537 343.7759 C438.043 343.9519 438.47 344.1019 438.815 344.2299 C439.159 344.3549 439.553 344.46 439.997 344.546 L462.249 348.0959 C462.853 348.2299 463.363 348.2939 463.779 348.2899 C464.192 348.2839 464.794 348.2469 465.581 348.18 C466.263 348.1649 466.805 348.116 467.208 348.03 C467.61 347.943 468.124 347.804 468.752 347.612 L464.3 355.994 L441.795 351.86 L454.265 366.305 C454.8 366.851 455.3521 367.332 455.919 367.7469 L457.469 368.851 L453.461 376.4009 z M407.87 424.125 C407.74 423.602 407.412 422.501 406.883 420.822 C406.356 419.142 405.756 417.594 405.085 416.179 C404.415 414.761 403.595 413.053 402.625 411.055 C401.657 409.055 400.869 407.459 400.26 406.267 C399.65 405.073 398.788 403.475 397.672 401.475 C397.58 401.245 397.42 401.028 397.192 400.825 C396.922 400.585 396.474 400.358 395.842 400.147 C395.212 399.935 394.857 399.813 394.777 399.777 C395.607 398.85 396.655 397.624 397.922 396.103 C399.192 394.583 399.998 393.625 400.35 393.233 C400.668 393.295 401.23 393.52 402.04 393.909 C402.85 394.298 403.92 394.745 405.255 395.253 C406.592 395.761 408.641 396.533 411.402 397.575 C414.164 398.615 416.792 399.47 419.287 400.141 C419.467 400.228 419.577 400.168 419.615 399.961 C419.652 399.751 419.64 399.621 419.579 399.566 C418.282 396.55 417.413 394.54 416.972 393.533 C416.532 392.525 416.007 391.37 415.4 390.066 C414.796 388.763 414.208 387.523 413.638 386.346 C413.068 385.169 412.535 384.293 412.04 383.722 C411.545 383.148 411.066 382.6 410.604 382.074 L410.586 381.781 L415.041 376.799 C415.341 376.919 415.797 377.169 416.406 377.546 C417.015 377.923 417.666 378.328 418.356 378.76 C420.836 379.975 423.494 381.183 426.334 382.386 C429.174 383.59 431.517 384.551 433.36 385.272 C435.203 385.992 436.64 386.48 437.675 386.736 C439.023 387.013 440.013 387.213 440.648 387.334 C440.394 387.701 440.098 388.094 439.758 388.516 C439.418 388.936 438.881 389.56 438.142 390.386 L437.507 391.098 C436.787 391.903 436.164 392.682 435.637 393.436 C435.487 393.523 435.287 393.476 435.042 393.293 C434.796 393.109 434.585 393.015 434.408 393.005 C429.835 390.438 424.6609 388.003 418.888 385.7 C418.61 385.637 418.508 385.75 418.582 386.04 C418.969 386.943 420.092 389.422 421.948 393.477 C423.806 397.533 424.848 399.819 425.076 400.337 C425.3029 400.857 425.6559 401.365 426.138 401.871 C426.618 402.377 426.926 402.763 427.06 403.031 L422.3 408.354 C422.0699 408.444 421.7849 408.366 421.447 408.12 C421.1089 407.872 420.469 407.523 419.529 407.073 C418.589 406.623 417.151 405.998 415.219 405.198 C413.289 404.398 411.439 403.693 409.674 403.08 C407.9099 402.468 405.7669 401.758 403.244 400.95 C403.134 401.075 403.101 401.204 403.149 401.34 C403.197 401.475 403.233 401.61 403.262 401.746 L412.3549 419.286 C412.3419 419.426 412.253 419.586 412.0869 419.773 L410.899 421.103 L409.569 422.589 C408.814 423.433 408.372 423.909 408.244 424.019 L407.868 424.124 z M372.72 455.498 C372.643 455.388 372.618 455.266 372.643 455.128 C372.668 454.988 372.828 453.273 373.123 449.982 C373.418 446.689 373.705 441.82 373.983 435.372 C373.733 435.182 373.569 435.034 373.493 434.926 C371.118 433.83 368.507 432.74 365.655 431.656 C362.802 430.568 359.803 429.504 356.659 428.461 L362.699 424.267 L363.146 423.955 L364.29 423.161 C364.59 422.951 364.87 422.818 365.13 422.758 C365.39 422.6979 365.67 422.884 365.974 423.318 C367.91 424.42 369.854 425.5359 371.808 426.666 C372.138 426.676 372.55 426.8319 373.04 427.1339 C373.532 427.4339 373.946 427.5679 374.285 427.532 L374.54 427.116 C374.645 424.596 374.744 422.43 374.837 420.62 C374.931 418.81 375.117 417.087 375.391 415.45 L382.411 410.575 C382.531 410.5729 382.597 410.667 382.611 410.86 C381.951 414.263 381.491 416.71 381.235 418.2 C380.978 419.688 380.709 421.55 380.425 423.784 C380.141 426.017 379.951 428.196 379.855 430.321 C381.875 431.256 383.793 432.071 385.608 432.767 C387.422 433.462 389.468 434.189 391.748 434.945 C394.028 435.7 396.458 436.453 399.036 437.203 C398.946 437.306 398.856 437.408 398.766 437.513 C397.459 438.42 396.151 439.351 394.838 440.306 C393.525 441.262 392.213 442.218 390.898 443.173 C389.788 442.733 387.966 441.88 385.43 440.613 C382.894 439.343 380.997 438.441 379.736 437.903 C379.574 438.017 379.483 438.728 379.466 440.04 C379.446 441.35 379.454 442.998 379.484 444.986 C379.514 446.973 379.614 448.902 379.784 450.772 C379.414 451.112 378.984 451.45 378.494 451.79 L377.351 452.584 L375.719 453.719 L374.087 454.852 L373.353 455.362 C373.023 455.587 372.813 455.632 372.72 455.497 z M323.443 477.957 C323.42 477.894 323.38 477.84 323.323 477.79 C323.34 477.465 323.487 476.712 323.769 475.53 C324.049 474.35 324.377 472.45 324.749 469.83 C325.119 467.207 325.383 464.984 325.535 463.16 C325.688 461.338 325.863 458.464 326.06 454.54 C326.136 454.012 326.117 453.467 326.002 452.907 C325.888 452.347 325.702 451.743 325.447 451.095 C325.265 450.633 324.98 449.998 324.587 449.191 C324.2 448.383 323.931 447.796 323.785 447.426 C323.54 447.166 323.245 446.666 322.901 445.931 C322.557 445.194 322.381 444.811 322.367 444.781 C323.503 444.225 324.655 443.717 325.827 443.255 L326.335 443.055 L327.929 442.425 C328.469 442.213 328.999 442.003 329.523 441.795 L329.94 441.632 L330.198 441.744 C330.44 442.361 330.77 443.284 331.182 444.512 C331.596 445.742 331.924 446.662 332.168 447.282 C332.533 448.2069 332.868 448.9399 333.17 449.482 C333.472 450.02 333.9 450.627 334.45 451.302 C336.845 453.854 339.418 456.332 342.168 458.744 C344.918 461.154 347.808 463.49 350.838 465.754 C350.898 465.908 351.098 466.054 351.438 466.187 C351.778 466.32 351.918 466.505 351.868 466.739 L347.362 468.519 L344.196 469.769 C340.159 465.949 336.124 462.127 332.086 458.309 C331.78 458.249 331.611 458.229 331.58 458.241 C331.486 458.633 331.243 460.341 330.85 463.361 C330.458 466.384 330.13 470.404 329.87 475.423 L323.443 477.958 z M264.4 489.182 C265.02 488.032 266.655 485.142 269.302 480.514 C271.95 475.884 273.94 472.248 275.272 469.607 C276.604 466.964 277.822 464.087 278.927 460.974 C278.977 460.567 278.77 460.394 278.309 460.452 C276.502 460.682 273.565 461.225 269.499 462.079 C265.434 462.932 262.695 463.449 261.281 463.629 C261.186 463.409 261.171 463.276 261.231 463.236 C261.948 461.273 262.651 459.33 263.341 457.406 L263.808 457.144 C266.961 456.742 270.118 456.354 273.276 455.984 L282.753 454.874 C285.913 454.504 289.053 454.119 292.175 453.72 C292.273 453.708 292.355 453.697 292.421 453.69 C290.086 457.627 288.031 461.155 286.259 464.27 C284.489 467.385 282.899 470.302 281.492 473.02 C280.085 475.738 278.652 478.827 277.192 482.287 C277.242 482.682 277.352 482.9 277.525 482.947 C279.071 482.747 281.735 482.223 285.515 481.374 C289.297 480.521 292.01 479.992 293.652 479.782 C293.772 479.932 293.789 480.065 293.704 480.176 L290.902 485.696 C289.522 485.872 287.462 486.076 284.718 486.31 C281.976 486.543 279.898 486.75 278.485 486.93 C277.073 487.112 274.691 487.55 271.339 488.246 C267.989 488.94 265.689 489.368 264.441 489.526 C264.368 489.468 264.353 489.354 264.399 489.182 z" id="path1889" xml:space="default" />
  </g>
</svg>