<?xml version="1.0" encoding="utf-8"?>
<!DOCTYPE svg PUBLIC "-//W3C//DTD SVG 1.1//EN" "http://www.w3.org/Graphics/SVG/1.1/DTD/svg11.dtd">
<svg x="0" y="0" width="32" height="31.93456" overflow="hidden" viewBox="0, 0, 195.6, 195.2" preserveAspectRatio="xMidYMid" font-size="0" xml:space="default" xmlns="http://www.w3.org/2000/svg" xmlns:xlink="http://www.w3.org/1999/xlink" xmlns:xml="http://www.w3.org/XML/1998/namespace" version="1.1">
  <g transform="translate(742.4, -1483)" xml:space="default">
    <use xlink:href="#id1" x="0" y="0" transform="matrix(0.9724, 0.2334, -0.2334, 0.9724, 350.7, 194.1)" xml:space="default" />
    <circle cx="-645.2" cy="1580" r="92.63" fill-opacity="0.23" xml:space="default" style="fill:#FCE94F;" />
    <circle cx="-645.2" cy="1580" r="3.314" xml:space="default" style="fill:#000000;" />
    <text xml:space="default" x="-647.4" y="1510.4" font-family="'Comic Sans MS'" font-size="26.5px" color="#000000" style="fill:#000000;">2</text>
    <text xml:space="default" x="-715.3" y="1538.6" font-family="'Comic Sans MS'" font-size="26.5px" color="#000000" style="fill:#000000;">3</text>
    <text xml:space="default" x="-727" y="1622" font-family="'Comic Sans MS'" font-size="26.5px" color="#000000" style="fill:#000000;">4</text>
    <text xml:space="default" x="-663.5" y="1667.4" font-family="'Comic Sans MS'" font-size="26.5px" color="#000000" style="fill:#000000;">5</text>
    <text xml:space="default" x="-596.3" y="1647.3" font-family="'Comic Sans MS'" font-size="26.5px" color="#000000" style="fill:#000000;">6</text>
    <rect x="-553.9" y="1575" width="6.4" height="10.5" color="#000000" xml:space="default" style="fill:#FFFFFF;" />
    <g transform="translate(-135.8, -29.69)" id="id1" xml:space="default">
      <path d="M-458.6 1529 C-432.1 1545.2 -414.9 1575.1 -413.9 1605.7" stroke="#4E9A06" stroke-width="4.6" xml:space="default" style="fill:none;" />
      <path d="M-423.2 1574 C-426.9 1571.3 -421.8 1567.7 -422.9 1564.6 C-423.2 1563.8 -423.7 1562.8 -424.6 1562.6" stroke="#73D216" stroke-width="0.85" xml:space="default" style="fill:none;" />
      <path d="M-424.6 1570 C-428.3 1567.4 -423.5 1563.7 -424.6 1560.6 C-424.9 1559.8 -425.4 1558.9 -426.3 1558.7" stroke="#73D216" stroke-width="0.85" xml:space="default" style="fill:none;" />
      <path d="M-426.2 1567 C-429.8 1564.9 -426 1561 -426.5 1558.2 C-426.8 1557.2 -427.4 1556.1 -428.5 1555.8" stroke="#73D216" stroke-width="0.85" xml:space="default" style="fill:none;" />
      <path d="M-427.9 1564 C-431.8 1561.8 -427.3 1557.6 -428.8 1554.6 C-429.2 1553.8 -429.8 1553 -430.7 1552.9" stroke="#73D216" stroke-width="0.85" xml:space="default" style="fill:none;" />
      <path d="M-429.9 1561 C-433.8 1558.7 -429.3 1554.6 -430.8 1551.6 C-431.2 1550.8 -431.8 1549.9 -432.7 1549.8" stroke="#73D216" stroke-width="0.85" xml:space="default" style="fill:none;" />
      <path d="M-431.7 1558 C-435.7 1556 -431.4 1551.6 -433 1548.7 C-433.4 1547.9 -434 1547.1 -434.9 1547" stroke="#73D216" stroke-width="0.85" xml:space="default" style="fill:none;" />
      <path d="M-433.7 1555 C-437.8 1553.1 -433.7 1548.6 -435.3 1545.7 C-435.7 1545 -436.4 1544.2 -437.3 1544.1" stroke="#73D216" stroke-width="0.85" xml:space="default" style="fill:none;" />
      <path d="M-435.9 1552 C-440 1550.2 -436 1545.6 -437.8 1542.8 C-438.3 1542 -439 1541.3 -439.9 1541.2" stroke="#73D216" stroke-width="0.85" xml:space="default" style="fill:none;" />
      <path d="M-438.1 1550 C-442.3 1548.3 -438.5 1543.6 -440.4 1540.8 C-440.9 1540.1 -441.6 1539.4 -442.5 1539.3" stroke="#73D216" stroke-width="0.85" xml:space="default" style="fill:none;" />
      <path d="M-440.4 1547 C-444.7 1545.6 -441 1540.7 -443 1538 C-443.5 1537.3 -444.3 1536.6 -445.2 1536.6" stroke="#73D216" stroke-width="0.85" xml:space="default" style="fill:none;" />
      <path d="M-442.8 1544 C-447.2 1542.7 -443.7 1537.7 -445.8 1535 C-446.3 1534.4 -447.1 1533.7 -448 1533.8" stroke="#73D216" stroke-width="0.85" xml:space="default" style="fill:none;" />
      <path d="M-445.4 1542 C-449.8 1540.8 -446.5 1535.7 -448.6 1533.1 C-449.1 1532.4 -449.9 1531.8 -450.8 1531.9" stroke="#73D216" stroke-width="0.85" xml:space="default" style="fill:none;" />
      <path d="M-448.1 1540 C-452.5 1539 -449.3 1533.7 -451.5 1531.3 C-452.1 1530.6 -452.9 1530 -453.8 1530.1" stroke="#73D216" stroke-width="0.85" xml:space="default" style="fill:none;" />
      <path d="M-451 1537 C-455.5 1536.3 -452.7 1530.8 -455.2 1528.5 C-455.8 1527.9 -456.7 1527.4 -457.6 1527.5" stroke="#73D216" stroke-width="0.85" xml:space="default" style="fill:none;" />
      <path d="M-453.8 1535 C-457.7 1534.6 -456.6 1530.3 -457.5 1527.7" stroke="#73D216" stroke-width="0.85" xml:space="default" style="fill:none;" />
      <path d="M-456.4 1533 C-460 1532.3 -459.8 1529.3 -457.2 1527.3" stroke="#73D216" stroke-width="0.85" xml:space="default" style="fill:none;" />
      <path d="M-416.3 1605 C-413.2 1606.8 -410.2 1604.1 -412.5 1601.1" stroke="#73D216" stroke-width="0.85" xml:space="default" style="fill:none;" />
      <path d="M-415.7 1605 C-413.9 1603 -410.2 1600.4 -413 1597.5" stroke="#73D216" stroke-width="0.85" xml:space="default" style="fill:none;" />
      <path d="M-416.2 1605 C-418.6 1601.2 -412.7 1599.6 -412.5 1596.3 C-412.5 1595.5 -412.6 1594.4 -413.3 1593.9" stroke="#73D216" stroke-width="0.85" xml:space="default" style="fill:none;" />
      <path d="M-416.4 1601 C-418.9 1597.2 -413 1595.6 -412.9 1592.2 C-412.9 1591.4 -413 1590.3 -413.8 1589.8" stroke="#73D216" stroke-width="0.85" xml:space="default" style="fill:none;" />
      <path d="M-416.8 1598 C-419.5 1594.3 -413.6 1592.5 -413.7 1589.1 C-413.7 1588.3 -413.9 1587.2 -414.7 1586.7" stroke="#73D216" stroke-width="0.85" xml:space="default" style="fill:none;" />
      <path d="M-417.3 1595 C-420.1 1591.4 -414.3 1589.3 -414.5 1585.9 C-414.6 1585.1 -414.8 1584 -415.6 1583.6" stroke="#73D216" stroke-width="0.85" xml:space="default" style="fill:none;" />
      <path d="M-417.8 1591 C-420.8 1587.6 -415.2 1585.2 -415.6 1581.8 C-415.7 1581 -416 1580 -416.8 1579.6" stroke="#73D216" stroke-width="0.85" xml:space="default" style="fill:none;" />
      <path d="M-418.7 1587 C-421.8 1583.7 -416.2 1581.2 -416.6 1577.8 C-416.7 1577 -417 1576 -417.8 1575.6" stroke="#73D216" stroke-width="0.85" xml:space="default" style="fill:none;" />
      <path d="M-419.6 1584 C-422.8 1580.8 -417.4 1577.9 -418 1574.6 C-418.2 1573.8 -418.5 1572.8 -419.3 1572.5" stroke="#73D216" stroke-width="0.85" xml:space="default" style="fill:none;" />
      <path d="M-420.6 1580 C-424.1 1577.1 -418.8 1573.89 -430 1579.8" stroke="#73D216" stroke-width="0.85" xml:space="default" style="fill:none;" />
      <path d="M-421.8 1577 C-425.3 1574.2 -420.1 1570.8 -421.1 1567.6 C-421.4 1566.7 -421.8 1565.8 -422.6 1565.5" stroke="#73D216" stroke-width="0.85" xml:space="default" style="fill:none;" />
    </g>
    <path d="M-595.7 1502 A92.6 92.6 0 0 1 -552.6 1580.3 L-645.2 1580.3 z" opacity="0.74" xml:space="default" style="fill:#B3DEFD;" />
    <g transform="matrix(0.4725, 0, 0, 0.4725, -504.7, 922.9)" xml:space="default">
      <path d="M-290.2 1392 L-93.20001 1392" stroke="#4E9A06" stroke-width="8.47" xml:space="default" style="fill:none;" />
      <path d="M-169.6 1396 C-170.8 1397 -174.7 1397.3 -177.3 1395.3 C-179 1393.9 -182.6 1388 -184.5 1387.2 C-188.1 1385.7 -191.4 1386.3 -192.4 1387.7" stroke="#73D216" stroke-width="1.8" xml:space="default" style="fill:none;" />
      <path d="M-177.1 1396 C-178.3 1397 -182.2 1397.3 -184.9 1395.3 C-186.6 1393.9 -190.2 1388 -192.1 1387.2 C-195.7 1385.7 -199 1386.3 -200 1387.7" stroke="#73D216" stroke-width="1.8" xml:space="default" style="fill:none;" />
      <path d="M-184.6 1396 C-185.8 1397 -189.7 1397.3 -192.4 1395.3 C-194.1 1393.9 -197.7 1388 -199.6 1387.2 C-203.2 1385.7 -206.5 1386.3 -207.5 1387.7" stroke="#73D216" stroke-width="1.8" xml:space="default" style="fill:none;" />
      <path d="M-192.2 1396 C-193.4 1397 -197.3 1397.3 -200 1395.3 C-201.7 1393.9 -205.3 1388 -207.2 1387.2 C-210.8 1385.7 -214.1 1386.3 -215.1 1387.7" stroke="#73D216" stroke-width="1.8" xml:space="default" style="fill:none;" />
      <path d="M-199.7 1396 C-200.9 1397 -204.8 1397.3 -207.5 1395.3 C-209.2 1393.9 -212.8 1388 -214.7 1387.2 C-218.3 1385.7 -221.6 1386.3 -222.6 1387.7" stroke="#73D216" stroke-width="1.8" xml:space="default" style="fill:none;" />
      <path d="M-207.2 1396 C-208.4 1397 -212.3 1397.3 -215 1395.3 C-216.7 1393.9 -220.3 1388 -222.2 1387.2 C-225.8 1385.7 -229.1 1386.3 -230.1 1387.7" stroke="#73D216" stroke-width="1.8" xml:space="default" style="fill:none;" />
      <path d="M-214.7 1396 C-215.9 1397 -219.8 1397.3 -222.5 1395.3 C-224.2 1393.9 -227.8 1388 -229.7 1387.2 C-233.3 1385.7 -236.6 1386.3 -237.6 1387.7" stroke="#73D216" stroke-width="1.8" xml:space="default" style="fill:none;" />
      <path d="M-222.2 1396 C-223.4 1397 -227.3 1397.3 -230 1395.3 C-231.7 1393.9 -235.3 1388 -237.2 1387.2 C-240.8 1385.7 -244.1 1386.3 -245.1 1387.7" stroke="#73D216" stroke-width="1.8" xml:space="default" style="fill:none;" />
      <path d="M-229.7 1396 C-230.9 1397 -234.8 1397.3 -237.5 1395.3 C-239.2 1393.9 -242.8 1388 -244.7 1387.2 C-248.3 1385.7 -251.6 1386.3 -252.6 1387.7" stroke="#73D216" stroke-width="1.8" xml:space="default" style="fill:none;" />
      <path d="M-237.2 1396 C-238.4 1397 -242.3 1397.3 -245 1395.3 C-246.7 1393.9 -250.3 1388 -252.2 1387.2 C-255.8 1385.7 -259.1 1386.3 -260.1 1387.7" stroke="#73D216" stroke-width="1.8" xml:space="default" style="fill:none;" />
      <path d="M-244.7 1396 C-245.9 1397 -249.8 1397.3 -252.5 1395.3 C-254.2 1393.9 -257.8 1388 -259.7 1387.2 C-263.3 1385.7 -266.6 1386.3 -267.6 1387.7" stroke="#73D216" stroke-width="1.8" xml:space="default" style="fill:none;" />
      <path d="M-252.2 1396 C-253.4 1397 -257.3 1397.3 -260 1395.3 C-261.7 1393.9 -265.3 1388 -267.2 1387.2 C-270.8 1385.7 -274.1 1386.3 -275.1 1387.7" stroke="#73D216" stroke-width="1.8" xml:space="default" style="fill:none;" />
      <path d="M-259.7 1396 C-260.9 1397 -264.8 1397.3 -267.5 1395.3 C-269.2 1393.9 -272.8 1388 -274.7 1387.2 C-278.3 1385.7 -281.6 1386.3 -282.6 1387.7" stroke="#73D216" stroke-width="1.8" xml:space="default" style="fill:none;" />
      <path d="M-267.2 1396 C-268.4 1397 -272.3 1397.3 -274.9 1395.3 C-276.6 1393.9 -280.2 1388 -282.1 1387.2 C-285.7 1385.7 -289 1386.3 -290 1387.7" stroke="#73D216" stroke-width="1.8" xml:space="default" style="fill:none;" />
      <path d="M-274.8 1396 C-276 1397 -279.9 1397.3 -282.5 1395.3 C-284.2 1393.9 -287.8 1388 -289.7 1387.2" stroke="#73D216" stroke-width="1.8" xml:space="default" style="fill:none;" />
      <path d="M-282.3 1396 C-283.5 1397 -287.4 1397.3 -290 1395.3 C-291.7 1393.9 -290.1 1387.8 -290.2 1386.8" stroke="#73D216" stroke-width="1.8" xml:space="default" style="fill:none;" />
      <path d="M-94.6 1396 C-93.5 1395.7 -92.6 1387.8 -103.6 1392.4" stroke="#73D216" stroke-width="1.8" xml:space="default" style="fill:none;" />
      <path d="M-94.8 1396 C-96.5 1394.6 -100.1 1388.7 -102 1387.9 C-105.6 1386.4 -108.9 1387 -109.9 1388.4" stroke="#73D216" stroke-width="1.8" xml:space="default" style="fill:none;" />
      <path d="M-94.5 1396 C-95.7 1397 -99.6 1397.3 -102.2 1395.3 C-103.9 1393.9 -107.5 1388 -109.4 1387.2 C-113 1385.7 -116.3 1386.3 -117.3 1387.7" stroke="#73D216" stroke-width="1.8" xml:space="default" style="fill:none;" />
      <path d="M-102 1396 C-103.2 1397 -107.1 1397.3 -109.8 1395.3 C-111.5 1393.9 -115.1 1388 -117 1387.2 C-120.6 1385.7 -123.9 1386.3 -124.9 1387.7" stroke="#73D216" stroke-width="1.8" xml:space="default" style="fill:none;" />
      <path d="M-109.6 1396 C-110.8 1397 -114.7 1397.3 -117.4 1395.3 C-119.1 1393.9 -122.7 1388 -124.6 1387.2 C-128.2 1385.7 -131.5 1386.3 -132.5 1387.7" stroke="#73D216" stroke-width="1.8" xml:space="default" style="fill:none;" />
      <path d="M-117.1 1396 C-118.3 1397 -122.2 1397.3 -124.9 1395.3 C-126.6 1393.9 -130.2 1388 -132.1 1387.2 C-135.7 1385.7 -139 1386.3 -140 1387.7" stroke="#73D216" stroke-width="1.8" xml:space="default" style="fill:none;" />
      <path d="M-124.6 1396 C-125.8 1397 -129.7 1397.3 -132.4 1395.3 C-134.1 1393.9 -137.7 1388 -139.6 1387.2 C-143.2 1385.7 -146.5 1386.3 -147.5 1387.7" stroke="#73D216" stroke-width="1.8" xml:space="default" style="fill:none;" />
      <path d="M-132.1 1396 C-133.3 1397 -137.2 1397.3 -139.9 1395.3 C-141.6 1393.9 -145.2 1388 -147.1 1387.2 C-150.7 1385.7 -154 1386.3 -155 1387.7" stroke="#73D216" stroke-width="1.8" xml:space="default" style="fill:none;" />
      <path d="M-139.6 1396 C-140.8 1397 -144.7 1397.3 -147.3 1395.3 C-149 1393.9 -152.6 1388 -154.5 1387.2 C-158.1 1385.7 -161.4 1386.3 -162.4 1387.7" stroke="#73D216" stroke-width="1.8" xml:space="default" style="fill:none;" />
      <path d="M-147.1 1396 C-148.3 1397 -152.2 1397.3 -154.8 1395.3 C-156.5 1393.9 -160.1 1388 -162 1387.2 C-165.6 1385.7 -168.9 1386.3 -169.9 1387.7" stroke="#73D216" stroke-width="1.8" xml:space="default" style="fill:none;" />
      <path d="M-154.6 1396 C-155.8 1397 -159.7 1397.3 -162.3 1395.3 C-164 1393.9 -167.6 1388 -169.5 1387.2 C-173.1 1385.7 -176.4 1386.3 -177.4 1387.7" stroke="#73D216" stroke-width="1.8" xml:space="default" style="fill:none;" />
      <path d="M-162.1 1396 C-163.3 1397 -167.2 1397.3 -169.8 1395.3 C-171.5 1393.9 -175.1 1388 -177 1387.2 C-180.6 1385.7 -183.9 1386.3 -184.9 1387.7" stroke="#73D216" stroke-width="1.8" xml:space="default" style="fill:none;" />
    </g>
    <text xml:space="default" x="-1181.9" y="1159.2" text-anchor="end" font-family="'Comic Sans MS'" font-size="18.9px" transform="rotate(-25.11, 0, 0)" text-align="end" style="fill:#F44800;">radian</text>
    <text xml:space="default" x="-576.7" y="1545.1" font-family="'Comic Sans MS'" font-size="26.5px" color="#000000" style="fill:#000000;">1</text>
    <use xlink:href="#id1" x="0" y="0" transform="matrix(0.5358, -0.8444, 0.8444, 0.5358, -1633, 190.5)" xml:space="default" />
    <use xlink:href="#id1" x="0" y="0" transform="matrix(-0.4468, -0.8946, 0.8946, -0.4468, -2343, 1709)" xml:space="default" />
    <use xlink:href="#id1" x="0" y="0" transform="matrix(-0.9908, -0.1356, 0.1356, -0.9908, -1493, 3059)" xml:space="default" />
    <use xlink:href="#id1" x="0" y="0" transform="matrix(-0.6476, 0.762, -0.762, -0.6476, 146.2, 3094)" xml:space="default" />
    <use xlink:href="#id1" x="0" y="0" transform="matrix(0.3497, 0.9368, -0.9368, 0.3497, 1059, 1634)" xml:space="default" />
  </g>
</svg>