<?xml version="1.0" encoding="utf-8"?>
<!DOCTYPE svg PUBLIC "-//W3C//DTD SVG 1.1//EN" "http://www.w3.org/Graphics/SVG/1.1/DTD/svg11.dtd">
<svg xmlns:xml="http://www.w3.org/XML/1998/namespace" x="0" y="0" width="32" height="32" overflow="hidden" viewBox="0, 0, 284.46, 284.46" preserveAspectRatio="xMidYMid" font-size="0" id="svg" xml:space="preserve"  xmlns="http://www.w3.org/2000/svg" version="1.1">
  <g id="g2008" xml:space="preserve">
    <g id="g2010" xml:space="preserve">
      <g id="XMLID_1_" xml:space="preserve">
        <g id="g2013" xml:space="preserve">
          <path d="M242.47 41.99 L242.441 42.02 L217.4 67.06 C198.17 47.83 171.589 35.93 142.23 35.93 L142.23 0.5 C181.4 0.5 216.83 16.35 242.47 41.99 z" id="path2015" xml:space="preserve" />
          <path d="M142.23 0.5 L142.23 35.93 C112.86 35.93 86.3 47.82 67.06 67.06 L42.02 42.02 L41.99 41.99 C67.63 16.35 103.06 0.5 142.23 0.5 z" id="path2017" xml:space="preserve" />
          <path d="M142.23 35.93 L142.23 71.36 C122.64 71.36 104.93 79.28 92.11 92.11 L67.06 67.06 C86.3 47.82 112.86 35.93 142.23 35.93 z" id="path2019" xml:space="preserve" />
          <path d="M67.06 67.06 L92.11 92.11 C79.28 104.93 71.36 122.64 71.36 142.23 L35.93 142.23 C35.93 112.87 47.82 86.29 67.06 67.06 z" id="path2021" xml:space="preserve" />
          <path d="M92.11 192.35 L67.06 217.4 C47.82 198.171 35.93 171.59 35.93 142.23 L71.36 142.23 C71.36 161.819 79.28 179.53 92.11 192.35 z" id="path2023" xml:space="preserve" />
          <path d="M142.23 213.09 L142.23 248.53 C112.86 248.53 86.3 236.639 67.06 217.399 L92.11 192.349 C104.93 205.17 122.64 213.09 142.23 213.09 z" id="path2025" xml:space="preserve" />
          <path d="M142.23 248.53 L142.23 283.96 C103.06 283.96 67.63 268.109 41.99 242.47 L42.02 242.44 L67.06 217.4 C86.3 236.64 112.86 248.53 142.23 248.53 z" id="path2027" xml:space="preserve" />
          <path d="M142.23 283.96 L142.23 248.53 C171.59 248.53 198.17 236.63 217.4 217.399 L242.44 242.439 L242.469 242.469 C216.83 268.109 181.4 283.96 142.23 283.96 z" id="path2029" xml:space="preserve" />
          <path d="M177.66 142.229 L213.09 142.229 C213.09 161.819 205.17 179.53 192.35 192.349 L167.3 167.3 C173.7 160.899 177.66 152.05 177.66 142.229 z" id="path2031" xml:space="preserve" />
          <path d="M167.3 167.3 L192.35 192.35 C179.531 205.17 161.821 213.09 142.23 213.09 L142.23 177.66 C152.03 177.66 160.89 173.71 167.3 167.3 z" id="path2033" xml:space="preserve" />
          <path d="M142.23 177.66 L142.23 213.09 C122.64 213.09 104.93 205.17 92.11 192.35 L117.16 167.31 C123.58 173.72 132.44 177.66 142.23 177.66 z" id="path2035" xml:space="preserve" />
          <path d="M117.16 167.3 L117.16 167.31 L92.11 192.35 C79.28 179.531 71.36 161.82 71.36 142.23 L106.79 142.23 C106.79 152.05 110.75 160.899 117.16 167.3 z" id="path2037" xml:space="preserve" />
        </g>
        <g id="g2039" xml:space="preserve">
          <path d="M142.23 283.96 C103.06 283.96 67.63 268.109 41.99 242.47 C16.35 216.83 0.5 181.399 0.5 142.229 C0.5 103.059 16.35 67.62901 41.99 41.98901 C67.63 16.35 103.06 0.5 142.23 0.5 C181.4 0.5 216.83 16.35 242.47 41.99 C268.111 67.63 283.96 103.06 283.96 142.23 C283.96 181.4 268.11 216.831 242.47 242.47 C216.83 268.109 181.4 283.96 142.23 283.96 z" stroke="#000000" id="path2041" xml:space="preserve" style="fill:none;" />
          <path d="M248.53 142.229 C248.53 112.879 236.639 86.299 217.4 67.05901 C198.17 47.82901 171.589 35.92901 142.23 35.92901 C112.86 35.92901 86.3 47.81901 67.06 67.05901 C47.82 86.289 35.93 112.869 35.93 142.229 C35.93 171.589 47.82 198.169 67.06 217.399 C86.3 236.639 112.86 248.53 142.23 248.53 C171.59 248.53 198.17 236.63 217.4 217.399 C236.64 198.16 248.53 171.58 248.53 142.229 z" stroke="#000000" id="path2043" xml:space="preserve" style="fill:none;" />
          <path d="M142.23 213.09 C122.64 213.09 104.93 205.17 92.11 192.35 C79.28 179.531 71.36 161.82 71.36 142.23 C71.36 122.64 79.28 104.93 92.11 92.11 C104.93 79.28 122.64 71.36 142.23 71.36 C161.82 71.36 179.53 79.28 192.35 92.11 C205.17 104.93 213.09 122.64 213.09 142.23 C213.09 161.82 205.17 179.531 192.35 192.35 C179.53 205.17 161.82 213.09 142.23 213.09 z" stroke="#000000" id="path2045" xml:space="preserve" style="fill:none;" />
          <path d="M117.16 167.31 C123.58 173.72 132.44 177.661 142.23 177.661 C152.03 177.661 160.89 173.711 167.3 167.301 C173.7 160.901 177.66 152.051 177.66 142.231 C177.66 132.412 173.71 123.561 167.3 117.161 C160.901 110.751 152.03 106.801 142.23 106.801 C132.43 106.801 123.57 110.751 117.15 117.151 C110.75 123.551 106.79 132.411 106.79 142.231 C106.79 152.051 110.75 160.901 117.16 167.301" stroke="#000000" id="path2047" xml:space="preserve" style="fill:none;" />
          <polyline points="142.23,142.229 142.23,177.66 142.23,213.09 142.23,248.53 142.23,283.96" stroke="#000000" id="polyline2049" xml:space="preserve" style="fill:none;" />
          <polyline points="142.23,142.229 167.3,167.3 192.35,192.35 217.4,217.399 242.44,242.439" stroke="#000000" id="polyline2051" xml:space="preserve" style="fill:none;" />
          <polyline points="142.23,142.229 177.66,142.229 213.09,142.229 248.53,142.229 283.96,142.229" stroke="#000000" id="polyline2053" xml:space="preserve" style="fill:none;" />
          <polyline points="142.23,142.229 167.3,117.16 192.35,92.11 217.4,67.06 242.44,42.02" stroke="#000000" id="polyline2055" xml:space="preserve" style="fill:none;" />
          <polyline points="142.23,142.229 142.23,106.8 142.23,71.36 142.23,35.93 142.23,0.5" stroke="#000000" id="polyline2057" xml:space="preserve" style="fill:none;" />
          <polyline points="142.23,142.229 117.15,117.15 92.11,92.11 67.06,67.06 42.02,42.02" stroke="#000000" id="polyline2059" xml:space="preserve" style="fill:none;" />
          <polyline points="142.23,142.229 106.79,142.229 71.36,142.229 35.93,142.229 0.5,142.229" stroke="#000000" id="polyline2061" xml:space="preserve" style="fill:none;" />
          <polyline points="142.23,142.229 117.16,167.3 117.16,167.31 92.11,192.35 67.06,217.399 42.02,242.439" stroke="#000000" id="polyline2063" xml:space="preserve" style="fill:none;" />
        </g>
      </g>
    </g>
  </g>
</svg>