<?xml version="1.0" encoding="utf-8"?>
<!DOCTYPE svg PUBLIC "-//W3C//DTD SVG 1.1//EN" "http://www.w3.org/Graphics/SVG/1.1/DTD/svg11.dtd">
<svg x="0" y="0" width="32" height="30.55594" overflow="hidden" viewBox="0, 0, 536.6245, 512.4083" preserveAspectRatio="xMidYMid" font-size="0" id="svg14923" xml:space="default" xmlns="http://www.w3.org/2000/svg" xmlns:xlink="http://www.w3.org/1999/xlink" xmlns:xml="http://www.w3.org/XML/1998/namespace" version="1.1">
  <defs id="defs14925" xml:space="default">
    <filter x="none" y="none" width="none" height="none" color-interpolation-filters="auto" id="filter17009" xml:space="default">
      <feGaussianBlur stdDeviation="7.80796" id="feGaussianBlur17011" xml:space="default" collect="always" />
    </filter>
  </defs>
  <g transform="translate(-108.8306, -279.0152)" id="layer1" xml:space="default">
    <path d="M372.4644 526.6295 L360.0686 506.6883 L357.9128 492.1367 L370.8476 481.8966 C400.2325 476.312 423.0139 456.9202 436.5995 418.3006 L578.8822 283.0242 C616.8539 266.2014 650.2464 316.3892 644.0951 342.3087 L503.4292 479.2019 C457.203 495.7405 437.0595 518.3651 433.9047 544.9537 L421.5089 556.2717 L405.8793 555.7327 L386.4771 542.259 L372.4644 526.6295 z" stroke="#000000" fill-rule="evenOdd" stroke-width="1.25" stroke-linecap="round" stroke-linejoin="round" id="path2223" xml:space="default" nodetypes="ccccccccccccc" style="fill:#000000;" />
    <path d="M594.5383 279.6408 C589.4769 279.61 584.2218 280.6501 578.882 283.0158 L436.6008 418.2971 C423.0153 456.9167 400.2357 476.3062 370.8508 481.8908 L357.9133 492.1408 L360.0695 506.7033 L372.4758 526.6408 L380.507 535.6096 L403.1775 499.0821 C433.5018 486.4628 450.7827 462.9839 471.5887 438.6625 L627.4758 296.0471 C618.685 286.5278 607.2062 279.7179 594.5383 279.6408 z" stroke="#000000" fill-rule="evenOdd" stroke-width="1.25" stroke-linecap="round" stroke-linejoin="round" id="path6171" xml:space="default" nodetypes="cccccccccccc" style="fill:#333333;" />
    <path d="M606.8195 285.7346 C604.6357 285.6743 602.466 286.0067 600.4445 286.7971 L455.4758 424.7658 C444.9209 436.7635 441.1503 446.242 441.9133 452.3283 C443.3324 463.6493 460.3667 463.2264 478.1633 445.3596 L624.6945 306.2033 C628.715 298.3926 621.9314 290.0821 613.2883 286.9846 C611.1959 286.2347 609.0033 285.7949 606.8195 285.7346 z M406.007 484.3283 C401.9925 484.3186 397.0441 484.8651 391.3195 485.6721 L376.4239 498.5105 C378.0454 505.8502 388.2839 520.4644 398.3508 520.4533 L413.4133 507.2346 C421.7608 489.3784 418.0505 484.3576 406.007 484.3283 z" fill-rule="evenOdd" stroke-width="1.25" stroke-linecap="round" stroke-linejoin="round" id="path2225" xml:space="default" nodetypes="cccsccsccccccc" style="fill:#FFCC00;" />
    <path d="M637.6277 315.9001 L468.7189 477.8026 L472.4916 486.2082 L640.9762 324.8902 L637.6277 315.9001 z" stroke="#000000" fill-rule="evenOdd" stroke-width="1.25" stroke-linecap="round" stroke-linejoin="round" id="path2227" xml:space="default" nodetypes="ccccc" style="fill:#333333;" />
    <path d="M640.8614 324.5233 L641.4004 341.7697 L501.8124 474.8903 C492.7638 476.3462 482.7108 480.3334 472.2275 486.0935 L640.8614 324.5233 z" stroke="#000000" fill-rule="evenOdd" stroke-width="1.25" stroke-linecap="round" stroke-linejoin="round" id="path2229" xml:space="default" nodetypes="ccccc" style="fill:#4D4D4D;" />
    <path d="M406.4183 537.4084 L434.4437 510.461 L437.6774 518.0063 L410.7299 543.8759 L406.4183 537.4084 z" stroke="#000000" fill-rule="evenOdd" stroke-width="1.25" stroke-linecap="round" stroke-linejoin="round" id="path2233" xml:space="default" nodetypes="ccccc" style="fill:#333333;" />
    <path d="M437.5638 518.6588 L429.8953 541.3043 L422.275 548.3857 L410.7299 543.5641 L437.5638 518.6588 z" stroke="#000000" fill-rule="evenOdd" stroke-width="1.25" stroke-linecap="round" stroke-linejoin="round" id="path2235" xml:space="default" nodetypes="ccccc" style="fill:#4D4D4D;" />
    <path d="M468.3975 477.9519 L489.4165 452.7933 L632.2382 317.517 L638.1667 315.3611 L468.3975 477.9519 z" stroke="#000000" fill-rule="evenOdd" stroke-width="1.25" stroke-linecap="round" stroke-linejoin="round" id="path2237" xml:space="default" nodetypes="ccccc" style="fill:#1A1A1A;" />
    <path d="M406.9572 536.3306 C406.9572 536.1509 406.9572 535.9713 406.9572 536.3306 z" stroke="#000000" fill-rule="evenOdd" stroke-width="1.25" stroke-linecap="round" stroke-linejoin="round" id="path2239" xml:space="default" style="fill:#FFFFFF;" />
    <path d="M419.8824 519.6231 L413.0935 526.4119 L406.2104 536.8599 L433.9047 510.9999 L419.8824 519.6231 z" stroke="#000000" fill-rule="evenOdd" stroke-width="1.25" stroke-linecap="round" stroke-linejoin="round" id="path2241" xml:space="default" nodetypes="ccccc" style="fill:#1A1A1A;" />
    <path d="M366.536 493.7535 L381.6362 481.4616 L371.9255 484.5914 L361.1465 494.2925 L365.997 500.7599 L366.536 493.7535 z" stroke="#000000" fill-rule="evenOdd" stroke-width="1.25" stroke-linecap="round" stroke-linejoin="round" id="path2243" xml:space="default" nodetypes="cccccc" style="fill:#808080;" />
    <path d="M432.5591 438.911 L448.4564 419.3784 L591.817 281.9463 L580.499 284.1021 L438.7552 418.8395 L432.5591 438.911 z" stroke="#000000" fill-rule="evenOdd" stroke-width="1.25" stroke-linecap="round" stroke-linejoin="round" id="path2245" xml:space="default" nodetypes="cccccc" style="fill:#808080;" />
    <path d="M362.0705 506.5089 C369.1006 492.7215 415.7598 548.8112 411.4297 554.032 C402.2372 561.6175 359.1548 513.479 362.0705 506.5089 z" fill-rule="evenOdd" stroke-width="1.25" stroke-linecap="round" stroke-linejoin="round" id="path4185" xml:space="default" nodetypes="ccc" style="fill:#1A1A1A;" />
    <path d="M373.5031 516.1489 C377.1115 509.1786 401.0609 537.5346 398.8383 540.174 C394.12 544.0089 372.0065 519.6725 373.5031 516.1489 z" stroke="#000000" fill-rule="evenOdd" stroke-width="1.397027" stroke-linecap="round" stroke-linejoin="round" id="path4187" xml:space="default" nodetypes="ccc" style="fill:#000000;" />
    <path d="M379.2148 519.751 L118.9765 764.7559 L109.4556 783.7977 L112.487 788.9847 L116.6104 790.7985 L137.3836 781.8935 L395.0481 536.5237 C396.3755 534.4304 381.8937 516.614 379.2148 519.751 z" stroke="#000000" fill-rule="evenOdd" stroke-width="1.25" stroke-linecap="round" stroke-linejoin="round" id="path4189" xml:space="default" nodetypes="cccccccc" style="fill:#F9F9F9;" />
    <path d="M387.365 525.8575 L127.2279 773.0073 L112.6292 788.8755 L116.8423 790.4175 L137.4663 781.1833 L394.1387 536.444 C393.9339 532.4904 390.266 528.7688 387.365 525.8575 z" fill-rule="evenOdd" stroke-width="1px" id="path12014" xml:space="default" nodetypes="ccccccc" style="fill:#999999;" />
    <path d="M393.3805 533.8105 L135.0695 778.6754 L136.6308 773.4709 L123.5186 771.127 L119.3246 765.1323 L109.8105 783.7988 L112.8061 788.7491 L116.692 789.8823 L136.8275 781.5552 L394.4981 536.1569 C394.2631 535.306 394.0567 534.4409 393.3805 533.8105 z" fill-rule="evenOdd" stroke-width="1px" id="path7152" xml:space="default" nodetypes="ccccccccccc" style="fill:#808080;" />
    <path d="M146.9319 762.5352 L141.1431 764.8446 L128.8259 777.1619 L117.2476 787.0157 L118.3829 788.2748 L134.7381 780.118 L147.3017 768.7861 L141.8822 769.5252 L146.9319 762.5352 z" stroke="#000000" fill-rule="evenOdd" stroke-width="1.25" stroke-linecap="round" stroke-linejoin="round" id="path5168" xml:space="default" nodetypes="ccccccccc" style="fill:#B3B3B3;" />
    <path d="M141.4972 769.6176 L136.4626 770.0179 L141.3895 765.091 L146.9936 762.8432 L141.4972 769.6176 z" stroke="#000000" fill-rule="evenOdd" stroke-width="1.25" stroke-linecap="round" stroke-linejoin="round" id="path5175" xml:space="default" nodetypes="ccccc" style="fill:#ECECEC;" />
    <path d="M123.4941 771.4914 L385.5015 523.9234 C386.8492 525.2559 387.9862 527.3088 389.3733 528.7791 L128.7834 776.072 L127.1188 772.8593 L123.4941 771.4914 z" fill-rule="evenOdd" stroke-width="1px" id="path6181" xml:space="default" nodetypes="cccccc" style="fill:#CCCCCC;" />
    <path d="M374.9944 523.1371 C382.155 529.0355 387.0109 541.1792 373.9535 558.0069 L394.2508 536.1483 C391.8034 528.2028 385.4987 523.1586 380.1988 518.9736 L374.9944 523.1371 z" fill-rule="evenOdd" stroke-width="1px" opacity="0.41" id="path8123" xml:space="default" nodetypes="ccccc" style="fill:#999999;" />
    <path d="M139.0183 754.2214 L135.9699 759.9177 L122.9136 771.496 L113.5524 783.8132 L111.3353 783.0742 L120.2038 765.5837 L134.7381 752.0347 L132.2747 758.1933 L139.0183 754.2214 z" stroke="#000000" fill-rule="evenOdd" stroke-width="1.25" stroke-linecap="round" stroke-linejoin="round" id="path5160" xml:space="default" nodetypes="ccccccccc" style="fill:#CCCCCC;" />
    <path d="M132.0283 758.4396 L132.521 762.8738 L136.4626 759.6714 L138.6487 754.3447 L132.0283 758.4396 z" stroke="#000000" fill-rule="evenOdd" stroke-width="1.25" stroke-linecap="round" stroke-linejoin="round" id="path5166" xml:space="default" nodetypes="ccccc" style="fill:#808080;" />
    <path d="M621.882 292.4846 L445.007 458.0471 C450.9265 462.5999 464.3036 459.2739 478.1633 445.3596 L624.6945 306.2033 C627.1799 301.3749 625.5412 296.3454 621.882 292.4846 z M414.9445 486.2033 L385.6008 513.6721 C389.3761 517.5349 393.867 520.4583 398.3508 520.4533 L413.4133 507.2346 C419.0607 495.1543 419.1815 488.963 414.9445 486.2033 z" fill-rule="evenOdd" stroke-width="1.25" stroke-linecap="round" stroke-linejoin="round" id="path11033" xml:space="default" style="fill:#FFD42A;" />
    <path d="M606.8195 285.7346 C604.6357 285.6743 602.466 286.0067 600.4445 286.7971 L455.4758 424.7658 C448.624 432.5542 444.6629 439.2769 442.9133 444.7033 L610.9445 286.2971 C609.5849 285.9733 608.1996 285.7727 606.8195 285.7346 z M400.5695 484.6096 C397.7676 484.8437 394.6927 485.1966 391.3195 485.6721 L376.4133 498.5158 C376.8095 500.3093 377.7413 502.5482 379.0383 504.8908 L400.5695 484.6096 z" fill-rule="evenOdd" stroke-width="1.25" stroke-linecap="round" stroke-linejoin="round" id="path11038" xml:space="default" style="fill:#D4AA00;" />
  </g>
</svg>