<?xml version="1.0" encoding="utf-8"?>
<!DOCTYPE svg PUBLIC "-//W3C//DTD SVG 1.1//EN" "http://www.w3.org/Graphics/SVG/1.1/DTD/svg11.dtd">
<svg xmlns:xml="http://www.w3.org/XML/1998/namespace" x="0" y="0" width="32" height="32" overflow="hidden" viewBox="0, 0, 1000, 1000"
     preserveAspectRatio="xMidYMid" font-size="0" id="svg" xml:space="default"
     xmlns="http://www.w3.org/2000/svg" version="1.1">
    <path d="M0 500 L0 0 L500 0 L1000 0 L1000 500 L1000 1000 L500 1000 L0 1000 L0 500 z M555.2 77.5 L555 93 L561.8 114.5 Q568.5 136 576.2 152.8 Q584 169.5 596 187.5 Q608 205.5 615 213.5 Q622 221.5 622.2 221.8 L622.5 222 L622.8 222.2 L623 222.5 L623.2 222.8 L623.5 223 L623.8 223.2 L624 223.5 L624.2 223.8 L624.5 224 L624.8 224.2 L625 224.5 L625.2 224.8 L625.5 225 L625.8 225.2 L626 225.5 L626.2 225.8 L626.5 226 L626.8 226.2 L627 226.5 L627.2 226.8 L627.5 227 L627.8 227.5 L628 228 L632 230.8 Q636 233.5 657 241.5 Q678 249.5 681 251 Q684 252.5 685 253 L686 253.5 L686.2 253.8 L686.5 254 L686.8 254.2 L687 254.5 L688.5 255 L690 255.5 L691 256 L692 256.5 L692 256.8 L692 257 L697.2 260.5 Q702.5 264 702.8 265 Q703 266 707.8 270 Q712.5 274 713.5 299.5 Q714.5 325 714 404 Q713.5 483 712 510 Q710.5 537 710 538.5 L709.5 540 L709 542 L708.5 544 L708.2 544.2 L708 544.5 L707.8 544.8 L707.5 545 L707 547 L706.5 549 L706.2 549 L706 549 L703.8 593 Q701.5 637 701.2 648 L701 659 L700.2 674.5 Q699.5 690 699.2 693.2 Q699 696.5 696.8 701.8 Q694.5 707 694.2 707.5 L694 708 L694.8 712.5 Q695.5 717 695.8 721.5 Q696 726 694.5 726 Q693 726 692.5 738.8 Q692 751.5 691.8 755.8 Q691.5 760 690.5 761 Q689.5 762 688 774.5 Q686.5 787 686.5 793 Q686.5 799 685.5 800 Q684.5 801 682.5 815 Q680.5 829 679.5 833 Q678.5 837 676 840.5 Q673.5 844 671.5 847.5 Q669.5 851 668 855.5 Q666.5 860 665.2 861.2 Q664 862.5 662 862.8 Q660 863 660 864 Q660 865 652.2 870.5 Q644.5 876 643 878 Q641.5 880 641.2 880.2 L641 880.5 L636.5 880.8 L632 881 L632 881.2 Q632 881.5 627.8 886.2 Q623.5 891 618.2 893.2 Q613 895.5 603 900.5 Q593 905.5 579 906.8 L565 908 L565 908.2 L565 908.5 L564.8 908.8 L564.5 909 L564.2 909.2 L564 909.5 L562.5 910 L561 910.5 L560.8 910.8 L560.5 911 L560.2 911.2 L560 911.5 L558 912 Q556 912.5 552.5 913.5 Q549 914.5 534.5 915.5 Q520 916.5 495 916.5 Q470 916.5 446.5 914 Q423 911.5 392 903.5 Q361 895.5 343 889.5 Q325 883.5 317.2 878.2 Q309.5 873 308.5 867 Q307.5 861 308.5 858.5 Q309.5 856 314.2 852.8 Q319 849.5 331 845.5 Q343 841.5 380.5 837.2 Q418 833 418.2 832 Q418.5 831 419 832 L419.5 833 L419.8 829.5 L420 826 L419.8 825.5 Q419.5 825 418.2 813.8 Q417 802.5 416.2 797.8 Q415.5 793 414.5 782 Q413.5 771 412.5 757 Q411.5 743 410.2 727 L409 711 L408.8 711 L408.5 711 L408 706.5 Q407.5 702 407 699 Q406.5 696 404 693.5 Q401.5 691 398.5 625.5 Q395.5 560 396.5 458.5 Q397.5 357 400 315 Q402.5 273 405.8 270 L409 267 L409.2 267 L409.5 267 L410 263.5 Q410.5 260 414 256.5 Q417.5 253 421 246 Q424.5 239 434 143.5 Q443.5 48 445.2 42.5 Q447 37 449.2 35.5 Q451.5 34 461.2 31 L471 28 L489.5 25.8 Q508 23.5 525.5 24 Q543 24.5 546.8 26.2 Q550.5 28 552.5 30.5 Q554.5 33 555 47.5 Q555.5 62 555.2 77.5 z"
          stroke="#FFFFFF" fill-rule="evenOdd" stroke-width="0.5px" xml:space="default" style="fill:#FFFFFF;"/>
    <path d="M663 417.2 L666 417 L670 417.5 Q674 418 672.2 533 Q670.5 648 669.8 649.2 Q669 650.5 580 655.5 Q491 660.5 485.5 660.8 L480 661 L480.2 614 Q480.5 567 481 494.5 Q481.5 422 490.2 421.2 L499 420.5 L499 420.2 L499 420 L579.5 418.8 Q660 417.5 663 417.2 z"
          stroke="#B0B1A4" fill-rule="evenOdd" stroke-width="0.5px" xml:space="default" style="fill:#B0B1A4;"/>
    <path d="M651 302 L656 302.5 L658.5 302.8 L661 303 L678.8 306 Q696.5 309 698.8 310 Q701 311 703.8 316.5 Q706.5 322 706.5 421.5 Q706.5 521 706.2 535 L706 549 L703.8 593 Q701.5 637 701.2 648 L701 659 L700.8 659 Q700.5 659 700 666 Q699.5 673 696.8 679.2 Q694 685.5 687 689 Q680 692.5 675.5 692.5 Q671 692.5 665.5 692 Q660 691.5 655.5 693.5 Q651 695.5 648 700.2 Q645 705 636 708.2 Q627 711.5 622 712 Q617 712.5 613.8 710.8 Q610.5 709 604.2 706.8 Q598 704.5 588 704 Q578 703.5 573.5 704.5 Q569 705.5 557 711.5 Q545 717.5 533.5 715 Q522 712.5 521.2 711.2 Q520.5 710 516 706 Q511.5 702 504.8 701 L498 700 L497.8 700 L497.5 700 L497.2 700.2 L497 700.5 L495 701 Q493 701.5 491.5 702.5 Q490 703.5 481.5 702 Q473 700.5 468.5 698 Q464 695.5 461.8 691.2 Q459.5 687 458.2 621.5 L457 556 L457.2 553.5 L457.5 551 L458 553 L458.5 555 L458.8 554.8 L459 554.5 L459.2 554.2 L459.5 554 L460 551.5 Q460.5 549 461 549.5 Q461.5 550 463.8 473 Q466 396 467 396 Q468 396 467.5 395.2 Q467 394.5 466.5 391.2 Q466 388 467 387.8 Q468 387.5 467 387.2 Q466 387 466.2 381 Q466.5 375 467.2 359.5 Q468 344 469 343.8 Q470 343.5 469.2 342.2 Q468.5 341 469.2 328.5 Q470 316 472 315.5 Q474 315 475 312.5 L476 310 L476.2 310 Q476.5 310 476.8 309.5 L477 309 L507.5 305.2 Q538 301.5 555 300.5 Q572 299.5 601.5 300 Q631 300.5 638.5 301 Q646 301.5 651 302 z M669 370.8 L669 371 L672 371 L675 371 L674.5 393.5 Q674 416 670 416.2 Q666 416.5 666 416.8 L666 417 L670 417.5 Q674 418 672.2 533 Q670.5 648 669.8 649.2 Q669 650.5 580 655.5 Q491 660.5 485.5 660.8 L480 661 L480.2 614 Q480.5 567 481 494.5 Q481.5 422 490.2 421.2 L499 420.5 L499 420.2 L499 420 L490.5 420 L482 420 L482 395.5 L482 371 L482.2 364 L482.5 357 L483 355.5 L483.5 354 L483.8 354.2 L484 354.5 L485.5 354.5 L487 354.5 L488 354.2 L489 354 L488.8 355 L488.5 356 L488.2 356.2 L488 356.5 L487.8 356.8 L487.5 357 L487.2 357.2 L487 357.5 L486.8 357.8 L486.5 358 L487.8 359 Q489 360 488.5 360.8 Q488 361.5 487.8 361.2 Q487.5 361 487.2 362.5 L487 364 L488 364.2 L489 364.5 L489.2 364.8 L489.5 365 L489.8 365.2 L490 365.5 L490.2 365.8 L490.5 366 L490.8 365 Q491 364 495.2 363.5 Q499.5 363 499.8 361 Q500 359 501 359 Q502 359 502 361.5 Q502 364 504.5 364 L507 364 L507.2 363 L507.5 362 L507.8 362.2 L508 362.5 L508.2 362.8 L508.5 363 L509.8 362.5 Q511 362 511.5 357.5 Q512 353 523.5 351.2 Q535 349.5 603 349.5 Q671 349.5 671.8 350.2 Q672.5 351 672.8 360 Q673 369 671 369.8 Q669 370.5 669 370.8 z"
          stroke="#000000" fill-rule="evenOdd" stroke-width="0.5px" xml:space="default" style="fill:#000000;"/>
    <path d="M555.2 77.5 L555 93 L554.8 93 Q554.5 93 553.2 96.8 Q552 100.5 551.2 99.8 L550.5 99 L550.2 99.2 L550 99.5 L549.8 99.8 L549.5 100 L550 107 Q550.5 114 552 120.5 Q553.5 127 552.5 133 Q551.5 139 551 138.5 Q550.5 138 549 142.5 Q547.5 147 546.8 153 Q546 159 548.8 160 Q551.5 161 550.2 161.5 Q549 162 549 166.5 Q549 171 550 171 Q551 171 551.8 174.5 Q552.5 178 552.8 178.5 L553 179 L552 179 Q551 179 550.8 184 Q550.5 189 550.2 195 L550 201 L549.8 202 Q549.5 203 549 204 Q548.5 205 540.8 211.8 Q533 218.5 522.5 220.5 Q512 222.5 498.5 225.2 Q485 228 485 229 Q485 230 484 230 Q483 230 480.8 233.5 Q478.5 237 477.5 241 Q476.5 245 478 247.5 Q479.5 250 476 252 L472.5 254 L472.2 254.2 L472 254.5 L473.5 255 L475 255.5 L474.8 255.8 L474.5 256 L474.5 257 L474.5 258 L474.8 257.8 L475 257.5 L475.2 257.2 L475.5 257 L475.8 257.2 L476 257.5 L476.2 257.8 L476.5 258 L476.5 258.5 L476.5 259 L476.2 259.2 L476 259.5 L477 259.8 L478 260 L478 260.2 L478 260.5 L475 261 Q472 261.5 461 264 L450 266.5 L449 266.8 L448 267 L447.8 266.5 L447.5 266 L447 264.5 L446.5 263 L446 261.5 L445.5 260 L445.2 259.8 L445 259.5 L447.5 259 Q450 258.5 450.2 258.2 Q450.5 258 448.8 256.8 Q447 255.5 446.5 254.2 Q446 253 447 252.8 Q448 252.5 453.5 248.5 Q459 244.5 458.2 240.8 Q457.5 237 456.2 236.5 Q455 236 455 235 Q455 234 454 233.8 Q453 233.5 452.8 230.8 L452.5 228 L453 225.5 L453.5 223 L453.8 222 L454 221 L454.2 221 L454.5 221 L455 224 Q455.5 227 456 228.5 L456.5 230 L456.8 230.2 L457 230.5 L460.2 231.8 Q463.5 233 463.8 233.2 Q464 233.5 464.2 233.8 L464.5 234 L464.8 234.2 L465 234.5 L465.2 234.8 L465.5 235 L466 234 Q466.5 233 471.8 230 Q477 227 477.8 225 Q478.5 223 478.5 221 Q478.5 219 479.2 210.8 Q480 202.5 480.8 197.2 Q481.5 192 483.5 182 Q485.5 172 486 165 Q486.5 158 486.8 148.5 Q487 139 488 138.8 Q489 138.5 488.2 137.2 Q487.5 136 488.2 135.5 Q489 135 490 126.5 Q491 118 490 118 Q489 118 489 117 Q489 116 490 116 Q491 116 491.2 98.5 Q491.5 81 492 70.5 Q492.5 60 492.8 51.5 Q493 43 491.5 43 Q490 43 490 41.5 Q490 40 483.5 38.8 Q477 37.5 474 38.8 L471 40 L470.8 41 L470.5 42 L470.2 42.2 L470 42.5 L469 42.8 L468 43 L468.2 42 L468.5 41 L468.8 41 L469 41 L469 40.8 L469 40.5 L469.5 40.2 L470 40 L470 39.8 L470 39.5 L470.2 39.2 L470.5 39 L470.5 36 L470.5 33 L470.2 32.8 L470 32.5 L471.5 31.5 Q473 30.5 472 30.2 Q471 30 471 29 L471 28 L489.5 25.8 Q508 23.5 525.5 24 Q543 24.5 546.8 26.2 Q550.5 28 552.5 30.5 Q554.5 33 555 47.5 Q555.5 62 555.2 77.5 z"
          stroke="#303132" fill-rule="evenOdd" stroke-width="0.5px" xml:space="default" style="fill:#303132;"/>
    <path d="M482 395.5 L482 371 L533 371.2 Q584 371.5 626.5 371.2 L669 371 L672 371 L675 371 L674.5 393.5 Q674 416 670 416.2 Q666 416.5 666 416.8 L666 417 L663 417.2 Q660 417.5 579.5 418.8 L499 420 L490.5 420 L482 420 L482 395.5 z"
          stroke="#B0B1A3" fill-rule="evenOdd" stroke-width="0.5px" xml:space="default" style="fill:#B0B1A3;"/>
    <path d="M405.8 270 L409 267 L409.2 268 L409.5 269 L409.8 269.2 L410 269.5 L410.2 269.8 L410.5 270 L410.8 270.2 L411 270.5 L412.5 270.8 L414 271 L414 273 L414 275 L415 275 Q416 275 416 274 Q416 273 422.5 272.2 Q429 271.5 435 270 Q441 268.5 443 268.2 L445 268 L445 268.2 L445 268.5 L446 268.8 L447 269 L447 270 Q447 271 449.5 271.8 Q452 272.5 451 272.8 Q450 273 448.8 279.5 Q447.5 286 447 298.5 Q446.5 311 446.5 327.5 Q446.5 344 447.2 372 Q448 400 448.8 400.5 Q449.5 401 448.8 404.2 Q448 407.5 449 407.8 Q450 408 449.2 411 Q448.5 414 449 415 Q449.5 416 450 417 L450.5 418 L450.8 417.8 L451 417.5 L451.2 417.2 L451.5 417 L451.8 416.8 L452 416.5 L452.2 416.2 L452.5 416 L453 419 L453.5 422 L453.8 422.2 L454 422.5 L454.2 422.8 L454.5 423 L454.8 421.5 L455 420 L456 420 L457 420 L456.8 435 Q456.5 450 456.5 503 L456.5 556 L456.8 556 L457 556 L458.2 621.5 Q459.5 687 461.8 691.2 Q464 695.5 468.5 698 Q473 700.5 481.5 702 Q490 703.5 491.5 702.5 Q493 701.5 495 701 L497 700.5 L497.2 700.2 L497.5 700 L497.8 700 L498 700 L498 700.2 L498 700.5 L498.2 700.8 L498.5 701 L498.8 701.2 L499 701.5 L499.2 701.8 L499.5 702 L499.8 702.2 L500 702.5 L499.8 702.8 L499.5 703 L499.5 704.5 L499.5 706 L499.8 706.2 L500 706.5 L500.2 706.8 L500.5 707 L500.8 707.2 L501 707.5 L500 708 L499 708.5 L495.2 711.2 Q491.5 714 491.8 715.2 Q492 716.5 491 716.8 Q490 717 489 721.5 Q488 726 489 726 Q490 726 489.5 726.8 Q489 727.5 488.8 727.2 Q488.5 727 488.5 728 L488.5 729 L488.8 730.5 L489 732 L488 732.2 L487 732.5 L486.8 732.8 L486.5 733 L486.2 733.2 L486 733.5 L485 733.5 L484 733.5 L483.8 733.2 L483.5 733 L483.2 733.5 L483 734 L482.8 734 L482.5 734 L482 733 Q481.5 732 479.5 729 Q477.5 726 466.2 721 L455 716 L454 715.8 Q453 715.5 436 708 L419 700.5 L417.5 700.5 L416 700.5 L415.8 700.8 L415.5 701 L415.5 706 L415.5 711 L415.5 712 L415.5 713 L415.2 712.8 L415 712.5 L414.8 712.2 L414.5 712 L414.2 711.8 L414 711.5 L413.8 711.2 L413.5 711 L413.2 710.8 L413 710.5 L411 710.5 L409 710.5 L409 710.8 L409 711 L408.8 711 L408.5 711 L408 706.5 Q407.5 702 407 699 Q406.5 696 404 693.5 Q401.5 691 398.5 625.5 Q395.5 560 396.5 458.5 Q397.5 357 400 315 Q402.5 273 405.8 270 z"
          stroke="#E2BF3C" fill-rule="evenOdd" stroke-width="0.5px" xml:space="default" style="fill:#E2BF3C;"/>
    <path d="M419.8 829.5 L420 826 L423.2 834 Q426.5 842 427.5 839.5 Q428.5 837 430 840.5 Q431.5 844 432 845.5 L432.5 847 L433 848 L433.5 849 L433.8 849.5 L434 850 L435.8 855 Q437.5 860 439 863 Q440.5 866 450.8 874.8 Q461 883.5 471 887.5 Q481 891.5 485 893 Q489 894.5 492.2 894.8 Q495.5 895 496.5 897 Q497.5 899 497.8 899.2 L498 899.5 L499 900 L500 900.5 L501.5 900.8 L503 901 L503 901.2 L503 901.5 L507.5 904.5 Q512 907.5 533.5 908 Q555 908.5 560 908.2 L565 908 L565 908.2 L565 908.5 L564.8 908.8 L564.5 909 L564.2 909.2 L564 909.5 L562.5 910 L561 910.5 L560.8 910.8 L560.5 911 L560.2 911.2 L560 911.5 L558 912 Q556 912.5 552.5 913.5 Q549 914.5 534.5 915.5 Q520 916.5 495 916.5 Q470 916.5 446.5 914 Q423 911.5 392 903.5 Q361 895.5 343 889.5 Q325 883.5 317.2 878.2 Q309.5 873 308.5 867 Q307.5 861 308.5 858.5 Q309.5 856 314.2 852.8 Q319 849.5 331 845.5 Q343 841.5 380.5 837.2 Q418 833 418.2 832 Q418.5 831 419 832 L419.5 833 L419.8 829.5 z"
          stroke="#D8D9DA" fill-rule="evenOdd" stroke-width="0.5px" xml:space="default" style="fill:#D8D9DA;"/>
    <path d="M563.8 858.5 L564 862 L565 861.8 L566 861.5 L566.2 861.2 L566.5 861 L566.8 860.8 L567 860.5 L567.2 860.2 L567.5 860 L568 859 L568.5 858 L568.8 856.5 Q569 855 570 855 Q571 855 571.5 852.2 Q572 849.5 572.5 848.2 Q573 847 574.8 846.5 Q576.5 846 576.8 845 Q577 844 578.5 844 Q580 844 579.5 845.2 Q579 846.5 580.2 846.2 Q581.5 846 581.8 845 Q582 844 583.8 844.5 Q585.5 845 585.8 846.2 Q586 847.5 587 847.2 Q588 847 588.5 848.2 Q589 849.5 590.5 850.2 Q592 851 592.2 856.5 L592.5 862 L592.8 861.8 L593 861.5 L594.5 861.2 L596 861 L596.2 859.5 L596.5 858 L596.8 858.2 L597 858.5 L598 858.8 L599 859 L599 856.5 Q599 854 601.5 854.8 Q604 855.5 604.8 852.2 L605.5 849 L605.8 848.8 L606 848.5 L606.2 848.2 L606.5 848 L606.8 847.8 L607 847.5 L607.2 847.2 L607.5 847 L608 854 L608.5 861 L609 860 L609.5 859 L609.8 858 Q610 857 613.8 857 Q617.5 857 618 857.5 Q618.5 858 620.8 855.8 Q623 853.5 625.5 853.2 Q628 853 627.5 854.2 Q627 855.5 628 855.8 Q629 856 629.5 856.8 Q630 857.5 630.2 857.2 L630.5 857 L631 857.5 Q631.5 858 631.8 858.2 L632 858.5 L632.2 858.8 L632.5 859 L632.8 859.2 L633 859.5 L634 859.8 L635 860 L633.8 863 Q632.5 866 632 872.5 L631.5 879 L631.5 880 L631.5 881 L631.8 881 L632 881 L632 881.2 Q632 881.5 627.8 886.2 Q623.5 891 618.2 893.2 Q613 895.5 603 900.5 Q593 905.5 579 906.8 L565 908 L560 908.2 Q555 908.5 533.5 908 Q512 907.5 507.5 904.5 L503 901.5 L503 901.2 L503 901 L503.5 900.8 L504 900.5 L503.8 900.2 L503.5 900 L503.2 899.8 L503 899.5 L502 899 L501 898.5 L500.8 898.2 L500.5 898 L500.2 897.8 L500 897.5 L499.8 897.2 L499.5 897 L499.2 896.8 L499 896.5 L498.8 896.2 L498.5 896 L498.2 895 L498 894 L500.5 894.2 L503 894.5 L509 894.5 Q515 894.5 517 893.5 Q519 892.5 520.8 889.8 Q522.5 887 523.5 878.5 Q524.5 870 523.5 867 Q522.5 864 523 859 L523.5 854 L523.8 853.8 L524 853.5 L524 853.2 L524 853 L525.5 853 L527 853 L527 855 L527 857 L528 857.2 L529 857.5 L529.5 857.5 L530 857.5 L530.2 857.2 L530.5 857 L530.8 857.2 L531 857.5 L531.5 857.5 L532 857.5 L532.8 856.8 Q533.5 856 533.2 855 Q533 854 535.8 853.5 Q538.5 853 538.8 852 Q539 851 540 851 Q541 851 544 847.8 Q547 844.5 552.2 845.8 Q557.5 847 560.5 851 Q563.5 855 563.8 858.5 z M612.2 858.2 Q612.5 858 612.8 858.2 L613 858.5 L612.5 858.5 Q612 858.5 612.2 858.2 z"
          stroke="#E0BB39" fill-rule="evenOdd" stroke-width="0.5px" xml:space="default" style="fill:#E0BB39;"/>
    <path d="M588 721.5 Q601 721.5 608.2 725.8 Q615.5 730 620 736 Q624.5 742 627 751 Q629.5 760 629 766 Q628.5 772 625 781.5 Q621.5 791 615.5 798 Q609.5 805 600.8 809.8 Q592 814.5 583 815 Q574 815.5 565.5 812.5 Q557 809.5 552 804.5 Q547 799.5 543.2 790.8 Q539.5 782 539 773.5 Q538.5 765 539.5 761 Q540.5 757 545 748 Q549.5 739 554.2 734.2 Q559 729.5 567 725.5 Q575 721.5 588 721.5 z"
          stroke="#292B2C" fill-rule="evenOdd" stroke-width="0.5px" xml:space="default" style="fill:#292B2C;"/>
    <path d="M453.8 726 L455 716 L466.2 721 Q477.5 726 479.5 729 Q481.5 732 482 733 L482.5 734 L482.8 734 L483 734 L483 734.2 L483 734.5 L483.2 734.8 L483.5 735 L483.8 735.2 L484 735.5 L484.2 735.8 L484.5 736 L484.8 736.2 L485 736.5 L485.2 736.8 L485.5 737 L485.8 737.2 L486 737.5 L486.2 737.8 L486.5 738 L486.8 738.2 L487 738.5 L491 740.5 Q495 742.5 496 742.8 L497 743 L496.2 745 Q495.5 747 491.5 748.5 Q487.5 750 486.2 750.5 Q485 751 484.5 752.2 Q484 753.5 483 753.8 Q482 754 480.2 759 Q478.5 764 479 771.5 Q479.5 779 482 783 Q484.5 787 488.8 789.8 Q493 792.5 498 792.5 L503 792.5 L504.5 792 L506 791.5 L501.5 791 Q497 790.5 495.5 790 L494 789.5 L493.8 789.2 L493.5 789 L493.2 788.8 L493 788.5 L492.8 788.2 L492.5 788 L492.2 787.8 L492 787.5 L491.8 787.2 L491.5 787 L491.2 786.8 L491 786.5 L492.5 786 L494 785.5 L493.8 785.2 L493.5 785 L493.5 784 L493.5 783 L495.8 782 Q498 781 497.8 779.5 Q497.5 778 498.2 775.8 Q499 773.5 499.8 774.2 Q500.5 775 501.5 773 Q502.5 771 504 773 Q505.5 775 506.5 773 Q507.5 771 508 772.5 L508.5 774 L509 773 L509.5 772 L510 771 L510.5 770 L510.8 769.8 L511 769.5 L511.2 769.2 L511.5 769 L511.8 768.8 L512 768.5 L511.8 768.2 L511.5 768 L511.2 767.8 Q511 767.5 509.5 766.8 Q508 766 507.2 763.5 L506.5 761 L506.2 760.8 L506 760.5 L505.8 760.2 L505.5 760 L505.2 759 L505 758 L504 757.8 L503 757.5 L503.2 757.2 L503.5 757 L503.8 756.8 L504 756.5 L507 756.5 L510 756.5 L511 757 L512 757.5 L512.2 757.8 L512.5 758 L512.8 758.2 L513 758.5 L515.2 760.8 Q517.5 763 519.8 767.2 Q522 771.5 523 771.8 Q524 772 524.5 770.8 Q525 769.5 526 769.8 L527 770 L527.2 771 Q527.5 772 527.8 772 L528 772 L527.8 775 Q527.5 778 527.2 793.5 L527 809 L526.8 809 Q526.5 809 526 811 L525.5 813 L525 815.5 L524.5 818 L524.2 817.8 L524 817.5 L523.8 817.2 L523.5 817 L523 816 L522.5 815 L518.8 810.8 Q515 806.5 505.5 805.5 Q496 804.5 492.5 806.8 Q489 809 489 810 Q489 811 487.2 812.5 Q485.5 814 483.5 818 Q481.5 822 483 829.5 Q484.5 837 485 838 L485.5 839 L485.8 839.2 L486 839.5 L486.2 839.8 L486.5 840 L486.8 840.2 L487 840.5 L487.2 840.8 L487.5 841 L487.8 841.2 L488 841.5 L488.2 841.8 L488.5 842 L488.8 842.2 L489 842.5 L489.2 842.8 L489.5 843 L489.8 843.2 L490 843.5 L490.2 843.8 L490.5 844 L490.8 844.2 L491 844.5 L492 844.8 L493 845 L492.8 844 L492.5 843 L492.2 842.8 L492 842.5 L491.8 842.2 L491.5 842 L491.2 841.8 L491 841.5 L490 841 L489 840.5 L488.8 840.2 L488.5 840 L488 838.5 Q487.5 837 487 832 L486.5 827 L486.8 826.8 L487 826.5 L487.2 826.2 L487.5 826 L487.8 825.8 L488 825.5 L488.2 825.2 L488.5 825 L488.8 825.2 L489 825.5 L490 825.5 L491 825.5 L492 825.5 L493 825.5 L493.2 825.8 L493.5 826 L494.8 827.8 Q496 829.5 498 827.8 Q500 826 500.2 829 L500.5 832 L501 831 L501.5 830 L502 827.5 Q502.5 825 503 824.5 Q503.5 824 501.8 818.5 L500 813 L501 812.8 L502 812.5 L504 812 L506 811.5 L508.5 811.5 L511 811.5 L515.8 815.2 Q520.5 819 521.5 821.5 Q522.5 824 522.8 826.5 L523 829 L524 829 L525 829 L525.2 828 Q525.5 827 526.5 825.5 L527.5 824 L527.8 824 L528 824 L526.2 836 Q524.5 848 524.5 850 L524.5 852 L524.2 852.5 L524 853 L524 853.2 L524 853.5 L523.8 853.8 L523.5 854 L523 859 Q522.5 864 523.5 867 Q524.5 870 523.5 878.5 Q522.5 887 520.8 889.8 Q519 892.5 517 893.5 Q515 894.5 509 894.5 L503 894.5 L500.5 894.2 L498 894 L498.2 895 L498.5 896 L498.8 896.2 L499 896.5 L499.2 896.8 L499.5 897 L499.8 897.2 L500 897.5 L500.2 897.8 L500.5 898 L500.8 898.2 L501 898.5 L502 899 L503 899.5 L503.2 899.8 L503.5 900 L503.8 900.2 L504 900.5 L503.5 900.8 L503 901 L501.5 900.8 L500 900.5 L499 900 L498 899.5 L497.8 899.2 Q497.5 899 496.5 897 Q495.5 895 492.2 894.8 Q489 894.5 485 893 Q481 891.5 471 887.5 Q461 883.5 450.8 874.8 Q440.5 866 439 863 Q437.5 860 435.8 855 L434 850 L434.5 849.8 L435 849.5 L435.2 849.2 L435.5 849 L435.8 849.2 L436 849.5 L436.5 849.5 L437 849.5 L437.2 849.2 L437.5 849 L437.8 849.2 L438 849.5 L438.2 849.8 L438.5 850 L439 845.5 Q439.5 841 439.8 837.5 Q440 834 441 834 Q442 834 443 832.2 Q444 830.5 444 828.8 Q444 827 446.2 826.5 Q448.5 826 450 823 Q451.5 820 453.5 817.5 Q455.5 815 457.2 814.5 Q459 814 458.2 807.5 Q457.5 801 456.5 786.5 Q455.5 772 455.5 765.5 Q455.5 759 455 757.5 Q454.5 756 454.5 747 Q454.5 738 453.5 737 Q452.5 736 453.8 726 z"
          stroke="#292A2B" fill-rule="evenOdd" stroke-width="0.5px" xml:space="default" style="fill:#292A2B;"/>
    <path d="M523 255.2 L526 255 L525.8 255.5 L525.5 256 L525.2 256.2 L525 256.5 L528 257 L531 257.5 L529.5 257.8 L528 258 L528 259 L528 260 L530.2 260 Q532.5 260 580.8 260.8 Q629 261.5 635.5 262.8 Q642 264 643 265.8 Q644 267.5 645 267.8 Q646 268 646.5 269.2 Q647 270.5 645.8 271.8 Q644.5 273 645.5 275.5 Q646.5 278 647.5 286 Q648.5 294 651.8 296.2 Q655 298.5 657.5 298.8 L660 299 L660.2 300.5 L660.5 302 L660.8 302.5 L661 303 L658.5 302.8 L656 302.5 L651 302 Q646 301.5 638.5 301 Q631 300.5 601.5 300 Q572 299.5 555 300.5 Q538 301.5 507.5 305.2 L477 309 L476.5 309.2 Q476 309.5 476 309.8 L476 310 L475 310.2 Q474 310.5 471.5 312 L469 313.5 L465.8 316.8 Q462.5 320 461 325.5 Q459.5 331 458.5 362.5 Q457.5 394 457.2 407 L457 420 L456 420 L455 420 L454.8 421.5 L454.5 423 L454.2 422.8 L454 422.5 L453.8 422.2 L453.5 422 L453 419 L452.5 416 L452.2 416.2 L452 416.5 L451.8 416.8 L451.5 417 L451.2 417.2 L451 417.5 L450.8 417.8 L450.5 418 L450 417 Q449.5 416 449 415 Q448.5 414 449.2 411 Q450 408 449 407.8 Q448 407.5 448.8 404.2 Q449.5 401 448.8 400.5 Q448 400 447.2 372 Q446.5 344 446.5 327.5 Q446.5 311 447 298.5 Q447.5 286 448.8 279.5 Q450 273 451 272.8 Q452 272.5 449.5 271.8 Q447 271 447 270 L447 269 L446 268.8 L445 268.5 L445 268.2 L445 268 L445 267.8 L445 267.5 L446.5 267.2 L448 267 L449 266.8 L450 266.5 L461 264 Q472 261.5 475 261 L478 260.5 L478 260.2 L478 260 L499 257.8 Q520 255.5 523 255.2 z"
          stroke="#D0A935" fill-rule="evenOdd" stroke-width="0.5px" xml:space="default" style="fill:#D0A935;"/>
    <path d="M682.5 258.5 L684 258.5 L687 259 L690 259.5 L690.2 259.8 L690.5 260 L691 258.5 L691.5 257 L691.8 257 L692 257 L697.2 260.5 Q702.5 264 702.8 265 Q703 266 707.8 270 Q712.5 274 713.5 299.5 Q714.5 325 714 404 Q713.5 483 712 510 Q710.5 537 710 538.5 L709.5 540 L709 542 L708.5 544 L708.2 544.2 L708 544.5 L707.8 544.8 L707.5 545 L707 547 L706.5 549 L706.2 549 L706 549 L706.2 535 Q706.5 521 706.5 421.5 Q706.5 322 703.8 316.5 Q701 311 698.8 310 Q696.5 309 678.8 306 L661 303 L660.8 302.5 L660.5 302 L660.2 300.5 L660 299 L657.5 298.8 Q655 298.5 651.8 296.2 Q648.5 294 647.5 286 Q646.5 278 645.5 275.5 Q644.5 273 645.8 271.8 Q647 270.5 646.5 269.2 Q646 268 645 267.8 Q644 267.5 643 265.8 Q642 264 635.5 262.8 Q629 261.5 580.8 260.8 Q532.5 260 530.2 260 L528 260 L528 259 L528 258 L529.5 257.8 L531 257.5 L528 257 L525 256.5 L525.2 256.2 L525.5 256 L525.8 255.5 L526 255 L527.5 254.8 L529 254.5 L549.5 253 Q570 251.5 593 252 Q616 252.5 648.5 255.5 Q681 258.5 682.5 258.5 z"
          stroke="#E7C848" fill-rule="evenOdd" stroke-width="0.5px" xml:space="default" style="fill:#E7C848;"/>
    <path d="M700.8 659 L701 659 L700.2 674.5 Q699.5 690 699.2 693.2 Q699 696.5 696.8 701.8 Q694.5 707 694.2 707.5 L694 708 L688.2 712 Q682.5 716 680.2 721.2 Q678 726.5 673.5 730 Q669 733.5 659.5 734 Q650 734.5 645.2 741.2 Q640.5 748 638.5 754 Q636.5 760 635.5 799 Q634.5 838 635.5 841.5 Q636.5 845 636.5 850.5 L636.5 856 L636 858 L635.5 860 L635.2 860 L635 860 L634 859.8 L633 859.5 L632.8 859.2 L632.5 859 L632.2 858.8 L632 858.5 L631.8 858.2 Q631.5 858 631 857.5 L630.5 857 L630.2 857.2 Q630 857.5 629.5 856.8 Q629 856 628 855.8 Q627 855.5 627.5 854.2 Q628 853 624.5 853.8 Q621 854.5 621 856.2 Q621 858 619 857.2 Q617 856.5 614.5 857 Q612 857.5 612.5 858 L613 858.5 L611 858.8 L609 859 L608.8 860 L608.5 861 L608 854 L607.5 847 L607.2 847.2 L607 847.5 L606.8 847.8 L606.5 848 L606.2 848.2 L606 848.5 L605.8 848.8 L605.5 849 L604.8 852.2 Q604 855.5 601.5 854.8 Q599 854 599 856.5 L599 859 L598 858.8 L597 858.5 L596.8 858.2 L596.5 858 L596.2 859.5 L596 861 L594.5 861.2 L593 861.5 L592.8 861.8 L592.5 862 L592.2 856.5 Q592 851 590.5 850.2 Q589 849.5 588.5 848.2 Q588 847 587 847.2 Q586 847.5 585.8 846.2 Q585.5 845 583.8 844.5 Q582 844 581.8 845 Q581.5 846 580.2 846.2 Q579 846.5 578.2 845.2 Q577.5 844 577 845 Q576.5 846 574.8 846.5 Q573 847 572.5 848.2 Q572 849.5 571.5 852.2 Q571 855 570 855 Q569 855 568.8 856.5 L568.5 858 L568 859 L567.5 860 L567.2 860.2 L567 860.5 L566.8 860.8 L566.5 861 L566.2 861.2 L566 861.5 L565 861.8 L564 862 L563.8 858.5 Q563.5 855 560.5 851 Q557.5 847 552.2 845.8 Q547 844.5 544 847.8 Q541 851 540 851 Q539 851 538.8 852 Q538.5 853 535.8 853.5 Q533 854 533.2 855 Q533.5 856 532.8 856.8 L532 857.5 L531.5 857.5 L531 857.5 L530.8 857.2 L530.5 857 L530.2 857.2 L530 857.5 L529.5 857.5 L529 857.5 L528 857.2 L527 857 L527 855 L527 853 L525.5 853 L524 853 L524.2 852.5 L524.5 852 L524.5 850 Q524.5 848 526.2 836 L528 824 L527.8 818 Q527.5 812 527.2 810.5 L527 809 L527.2 793.5 Q527.5 778 527.8 775 L528 772 L527.8 766.5 Q527.5 761 527 759.5 Q526.5 758 523.5 753 Q520.5 748 516.2 744.8 Q512 741.5 510 742 Q508 742.5 502.5 742.8 L497 743 L496 742.8 Q495 742.5 491 740.5 L487 738.5 L486.8 738.2 L486.5 738 L486.2 737.8 L486 737.5 L485.8 737.2 L485.5 737 L485.2 736.8 L485 736.5 L484.8 736.2 L484.5 736 L484.2 735.8 L484 735.5 L483.8 735.2 L483.5 735 L483.2 734.8 L483 734.5 L483 734.2 L483 734 L483.2 733.5 L483.5 733 L483.8 733.2 L484 733.5 L485 733.5 L486 733.5 L486.2 733.2 L486.5 733 L486.8 732.8 L487 732.5 L488 732.2 L489 732 L488.8 730.5 L488.5 729 L488.5 728 Q488.5 727 488.8 727.2 Q489 727.5 489.5 726.8 Q490 726 489 726 Q488 726 489 721.5 Q490 717 491 716.8 Q492 716.5 491.8 715.2 Q491.5 714 495.2 711.2 L499 708.5 L500 708 L501 707.5 L500.8 707.2 L500.5 707 L500.2 706.8 L500 706.5 L499.8 706.2 L499.5 706 L499.5 704.5 L499.5 703 L499.8 702.8 L500 702.5 L499.8 702.2 L499.5 702 L499.2 701.8 L499 701.5 L498.8 701.2 L498.5 701 L498.2 700.8 L498 700.5 L498 700.2 L498 700 L504.8 701 Q511.5 702 516 706 Q520.5 710 521.2 711.2 Q522 712.5 533.5 715 Q545 717.5 557 711.5 Q569 705.5 573.5 704.5 Q578 703.5 588 704 Q598 704.5 604.2 706.8 Q610.5 709 613.8 710.8 Q617 712.5 622 712 Q627 711.5 636 708.2 Q645 705 648 700.2 Q651 695.5 655.5 693.5 Q660 691.5 665.5 692 Q671 692.5 675.5 692.5 Q680 692.5 687 689 Q694 685.5 696.8 679.2 Q699.5 673 700 666 Q700.5 659 700.8 659 z M588 721.5 Q601 721.5 608.2 725.8 Q615.5 730 620 736 Q624.5 742 627 751 Q629.5 760 629 766 Q628.5 772 625 781.5 Q621.5 791 615.5 798 Q609.5 805 600.8 809.8 Q592 814.5 583 815 Q574 815.5 565.5 812.5 Q557 809.5 552 804.5 Q547 799.5 543.2 790.8 Q539.5 782 539 773.5 Q538.5 765 539.5 761 Q540.5 757 545 748 Q549.5 739 554.2 734.2 Q559 729.5 567 725.5 Q575 721.5 588 721.5 z"
          stroke="#DBB539" fill-rule="evenOdd" stroke-width="0.5px" xml:space="default" style="fill:#DBB539;"/>
    <path d="M552 179 L553 179 L557.5 181.8 Q562 184.5 563.5 185.2 Q565 186 569.2 194.5 Q573.5 203 574 209.5 Q574.5 216 574 217.5 L573.5 219 L573.2 219.2 L573 219.5 L573 219.8 L573 220 L572.5 220.2 L572 220.5 L572 220.8 L572 221 L571.5 221.2 L571 221.5 L571 221.8 L571 222 L570.5 222.2 L570 222.5 L569.8 222.8 L569.5 223 L569.2 223.2 L569 223.5 L568 223.5 L567 223.5 L566 223 L565 222.5 L564.8 222.2 L564.5 222 L564.2 221.8 L564 221.5 L563 221 Q562 220.5 559 217.5 Q556 214.5 553 207.8 L550 201 L550.2 195 Q550.5 189 550.8 184 Q551 179 552 179 z"
          stroke="#FDFDFD" fill-rule="evenOdd" stroke-width="0.5px" xml:space="default" style="fill:#FDFDFD;"/>
    <path d="M554.8 93 L555 93 L561.8 114.5 Q568.5 136 576.2 152.8 Q584 169.5 596 187.5 Q608 205.5 615 213.5 Q622 221.5 622.2 221.8 L622.5 222 L622.8 222.2 L623 222.5 L623.2 222.8 L623.5 223 L623.8 223.2 L624 223.5 L624.2 223.8 L624.5 224 L624.8 224.2 L625 224.5 L625.2 224.8 L625.5 225 L625.8 225.2 L626 225.5 L626.2 225.8 L626.5 226 L626.8 226.2 L627 226.5 L627.2 226.8 L627.5 227 L627.8 227.5 L628 228 L624.5 227.8 L621 227.5 L619.5 227 Q618 226.5 614 226 Q610 225.5 598.5 225.5 L587 225.5 L589.5 227 Q592 228.5 589.5 229.5 Q587 230.5 587.5 231 Q588 231.5 588.2 231.8 L588.5 232 L588.8 233 L589 234 L588 234.2 L587 234.5 L586 235 L585 235.5 L583.5 235.5 L582 235.5 L581 235 Q580 234.5 577 233 L574 231.5 L573.8 231.2 Q573.5 231 573 230 Q572.5 229 574.5 228 Q576.5 227 574.2 226.5 Q572 226 571.5 224 L571 222 L571.2 222 Q571.5 222 571.8 221.5 L572 221 L572.2 221 Q572.5 221 572.8 220.5 L573 220 L573 219.8 L573 219.5 L573.2 219.2 L573.5 219 L574 217.5 Q574.5 216 574 209.5 Q573.5 203 569.2 194.5 Q565 186 563.5 185.2 Q562 184.5 557.5 181.8 L553 179 L552.8 178.5 Q552.5 178 551.8 174.5 Q551 171 550 171 Q549 171 549 166.5 Q549 162 550.2 161.5 Q551.5 161 548.8 160 Q546 159 546.8 153 Q547.5 147 549 142.5 Q550.5 138 551 138.5 Q551.5 139 552.5 133 Q553.5 127 552 120.5 Q550.5 114 550 107 L549.5 100 L549.8 99.8 L550 99.5 L550.2 99.2 L550.5 99 L551.2 99.8 Q552 100.5 553.2 96.8 Q554.5 93 554.8 93 z"
          stroke="#2D2F31" fill-rule="evenOdd" stroke-width="0.5px" xml:space="default" style="fill:#2D2F31;"/>
    <path d="M549.8 202 L550 201 L553 207.8 Q556 214.5 559 217.5 Q562 220.5 563 221 L564 221.5 L564.2 221.8 L564.5 222 L564.8 222.2 L565 222.5 L566 223 L567 223.5 L568 223.5 L569 223.5 L569.2 223.2 L569.5 223 L570.2 221.8 Q571 220.5 572 220.2 L573 220 L572.2 222 Q571.5 224 571.8 225 Q572 226 574.2 226.5 Q576.5 227 574.5 228 Q572.5 229 573 230 Q573.5 231 573.8 231.2 L574 231.5 L577 233 Q580 234.5 581 235 L582 235.5 L583.5 235.5 L585 235.5 L586 235 L587 234.5 L588 234.2 L589 234 L588.8 233 L588.5 232 L588.2 231.8 Q588 231.5 587.5 231 Q587 230.5 589.5 229.5 Q592 228.5 589.5 227 L587 225.5 L598.5 225.5 Q610 225.5 614 226 Q618 226.5 619.5 227 L621 227.5 L624.5 227.8 L628 228 L632 230.8 Q636 233.5 657 241.5 Q678 249.5 681 251 Q684 252.5 685 253 L686 253.5 L686.2 253.8 L686.5 254 L686.8 254.2 L687 254.5 L688.5 255 L690 255.5 L691 256 L692 256.5 L692 256.8 L692 257 L691.8 257 L691.5 257 L691 258.5 L690.5 260 L690.2 259.8 L690 259.5 L687 259 L684 258.5 L682.5 258.5 Q681 258.5 648.5 255.5 Q616 252.5 593 252 Q570 251.5 549.5 253 L529 254.5 L527.5 254.8 L526 255 L523 255.2 Q520 255.5 499 257.8 L478 260 L477 259.8 L476 259.5 L476.2 259.2 L476.5 259 L476.5 258.5 L476.5 258 L476.2 257.8 L476 257.5 L475.8 257.2 L475.5 257 L475.2 257.2 L475 257.5 L474.8 257.8 L474.5 258 L474.5 257 L474.5 256 L474.8 255.8 L475 255.5 L473.5 255 L472 254.5 L472.2 254.2 L472.5 254 L476 252 Q479.5 250 478 247.5 Q476.5 245 477.5 241 Q478.5 237 480.8 233.5 Q483 230 484 230 Q485 230 485 229 Q485 228 498.5 225.2 Q512 222.5 522.5 220.5 Q533 218.5 540.8 211.8 Q548.5 205 549 204 Q549.5 203 549.8 202 z"
          stroke="#676A6B" fill-rule="evenOdd" stroke-width="0.5px" xml:space="default" style="fill:#676A6B;"/>
    <path d="M466 234 L465.5 235 L465.2 234.8 L465 234.5 L464.8 234.2 L464.5 234 L464.2 233.8 Q464 233.5 463.8 233.2 Q463.5 233 460.2 231.8 L457 230.5 L456.8 230.2 L456.5 230 L456 228.5 Q455.5 227 455 224 L454.5 221 L454.2 221 L454 221 L454.2 216.5 Q454.5 212 455 192 Q455.5 172 460.8 107.8 Q466 43.5 468 41.8 L470 40 L470.5 40.2 Q471 40.5 474 39 Q477 37.5 483.5 38.8 Q490 40 490 41.5 Q490 43 491.5 43 Q493 43 492.8 51.5 Q492.5 60 492 70.5 Q491.5 81 491 100.5 Q490.5 120 489.8 127.5 Q489 135 488.2 135.5 Q487.5 136 487.5 143.5 Q487.5 151 486.5 159.5 Q485.5 168 485 172.5 Q484.5 177 483 184.5 Q481.5 192 480.8 197.2 Q480 202.5 479.2 210.8 Q478.5 219 478.8 222.2 Q479 225.5 472.8 229.2 Q466.5 233 466 234 z M468.2 42.8 Q468 42.5 468.2 42.2 Q468.5 42 468.5 42.5 Q468.5 43 468.2 42.8 z"
          stroke="#070909" fill-rule="evenOdd" stroke-width="0.5px" xml:space="default" style="fill:#070909;"/>
    <path d="M476 309.2 L477 309 L477 310 Q477 311 476 311 Q475 311 474.5 313 Q474 315 472 315.5 Q470 316 469.5 326.8 Q469 337.5 469.5 341.8 Q470 346 469 346 Q468 346 467.5 357.5 Q467 369 468.5 369 Q470 369 470 370 Q470 371 468.8 370.5 Q467.5 370 467 373.5 Q466.5 377 466.2 382 Q466 387 467 387.2 Q468 387.5 467 387.8 Q466 388 466.5 391.2 Q467 394.5 467.5 395.2 Q468 396 467 396 Q466 396 466 399.5 Q466 403 467 403 Q468 403 468 404 Q468 405 466.5 405 Q465 405 463.2 477.5 Q461.5 550 461 549.5 Q460.5 549 460 551.5 L459.5 554 L459.2 554.2 L459 554.5 L458.8 554.8 L458.5 555 L458 553 L457.5 551 L457.2 553.5 L457 556 L456.8 556 L456.5 556 L456.5 503 Q456.5 450 456.8 435 L457 420 L457.2 407 Q457.5 394 458.5 362.5 Q459.5 331 461 325.5 Q462.5 320 465.8 316.8 L469 313.5 L472 311.5 Q475 309.5 476 309.2 z"
          stroke="#171A1A" fill-rule="evenOdd" stroke-width="0.5px" xml:space="default" style="fill:#171A1A;"/>
    <path d="M688.2 712 L694 708 L694.8 712.5 Q695.5 717 695.8 721.5 Q696 726 694.5 726 Q693 726 692.5 738.8 Q692 751.5 691.8 755.8 Q691.5 760 690.5 761 Q689.5 762 688 774.5 Q686.5 787 686.5 793 Q686.5 799 685.5 800 Q684.5 801 682.5 815 Q680.5 829 679.5 833 Q678.5 837 676 840.5 Q673.5 844 671.5 847.5 Q669.5 851 668 855.5 Q666.5 860 665.2 861.2 Q664 862.5 662 862.8 Q660 863 660 864 Q660 865 652.2 870.5 Q644.5 876 643 878 Q641.5 880 641.2 880.2 L641 880.5 L636.5 880.8 L632 881 L631.8 881 L631.5 881 L631.5 880 L631.5 879 L632 872.5 Q632.5 866 633.8 863 L635 860 L635.2 860 L635.5 860 L636 858 L636.5 856 L636.5 850.5 Q636.5 845 635.5 841.5 Q634.5 838 635.5 799 Q636.5 760 638.5 754 Q640.5 748 645.2 741.2 Q650 734.5 659.5 734 Q669 733.5 673.5 730 Q678 726.5 680.2 721.2 Q682.5 716 688.2 712 z"
          stroke="#3F4040" fill-rule="evenOdd" stroke-width="0.5px" xml:space="default" style="fill:#3F4040;"/>
    <path d="M461.2 31 L471 28 L471 29 Q471 30 472 30.2 Q473 30.5 471.5 31.5 L470 32.5 L470.2 32.8 L470.5 33 L470.5 36 L470.5 39 L470.2 39.2 L470 39.5 L470 39.8 L470 40 L469.5 40.2 L469 40.5 L469 40.8 L469 41 L468 41 Q467 41 461.8 95 Q456.5 149 455.5 180.5 Q454.5 212 454.2 216.5 L454 221 L453.8 222 L453.5 223 L453 225.5 L452.5 228 L452.8 230.8 Q453 233.5 454 233.8 Q455 234 455 235 Q455 236 456.2 236.5 Q457.5 237 458.2 240.8 Q459 244.5 453.5 248.5 Q448 252.5 447 252.8 Q446 253 446.5 254.2 Q447 255.5 448.8 256.8 Q450.5 258 450.2 258.2 Q450 258.5 447.5 259 L445 259.5 L445.2 259.8 L445.5 260 L446 261.5 L446.5 263 L447 264.5 L447.5 266 L447.8 266.5 L448 267 L446.5 267.2 L445 267.5 L445 267.8 L445 268 L443 268.2 Q441 268.5 435 270 Q429 271.5 422.5 272.2 Q416 273 416 274 Q416 275 415 275 L414 275 L414 273 L414 271 L412.5 270.8 L411 270.5 L410.8 270.2 L410.5 270 L410.2 269.8 L410 269.5 L409.8 269.2 L409.5 269 L409.2 268 L409 267 L409.2 267 L409.5 267 L410 263.5 Q410.5 260 414 256.5 Q417.5 253 421 246 Q424.5 239 434 143.5 Q443.5 48 445.2 42.5 Q447 37 449.2 35.5 Q451.5 34 461.2 31 z"
          stroke="#656765" fill-rule="evenOdd" stroke-width="0.5px" xml:space="default" style="fill:#656765;"/>
    <path d="M527.8 766.5 L528 772 L527.8 772 Q527.5 772 527.2 771 L527 770 L526 769.8 Q525 769.5 524.5 770.8 Q524 772 523 771.8 Q522 771.5 519.8 767.2 Q517.5 763 515.2 760.8 L513 758.5 L512.8 758.2 L512.5 758 L512.2 757.8 L512 757.5 L511 757 L510 756.5 L507 756.5 L504 756.5 L503.8 756.8 L503.5 757 L503.2 757.2 L503 757.5 L504 757.8 L505 758 L505.2 759 L505.5 760 L505.8 760.2 L506 760.5 L506.2 760.8 L506.5 761 L507.2 762.5 Q508 764 509 764 Q510 764 510.5 765.8 Q511 767.5 511.2 767.8 L511.5 768 L511.8 768.2 L512 768.5 L511.8 768.8 L511.5 769 L511.2 769.2 L511 769.5 L510.8 769.8 L510.5 770 L510 771 L509.5 772 L509 773 L508.5 774 L508 772.5 Q507.5 771 506.5 773 Q505.5 775 504 773 Q502.5 771 501.5 773 Q500.5 775 499.8 774.2 Q499 773.5 498.2 775.8 Q497.5 778 497.8 779.5 Q498 781 495.8 782 L493.5 783 L493.5 784 L493.5 785 L493.8 785.2 L494 785.5 L492.5 786 L491 786.5 L491.2 786.8 L491.5 787 L491.8 787.2 L492 787.5 L492.2 787.8 L492.5 788 L492.8 788.2 L493 788.5 L493.2 788.8 L493.5 789 L493.8 789.2 L494 789.5 L495.5 790 Q497 790.5 501.5 791 L506 791.5 L504.5 792 L503 792.5 L498 792.5 Q493 792.5 488.8 789.8 Q484.5 787 482 783 Q479.5 779 479 771.5 Q478.5 764 480.2 759 Q482 754 483 753.8 Q484 753.5 484.5 752.2 Q485 751 486.2 750.5 Q487.5 750 491.5 748.5 Q495.5 747 496.2 745 L497 743 L502.5 742.8 Q508 742.5 510 742 Q512 741.5 516.2 744.8 Q520.5 748 523.5 753 Q526.5 758 527 759.5 Q527.5 761 527.8 766.5 z"
          stroke="#191918" fill-rule="evenOdd" stroke-width="0.5px" xml:space="default" style="fill:#191918;"/>
    <path d="M415.8 700.8 L416 700.5 L417.5 700.5 L419 700.5 L436 708 Q453 715.5 454 715.8 L455 716 L453.8 726 Q452.5 736 453.5 737 Q454.5 738 454.5 747 Q454.5 756 455 757.5 Q455.5 759 455.5 765.5 Q455.5 772 456.5 786.5 Q457.5 801 458.2 807.5 Q459 814 457.2 814.5 Q455.5 815 453.5 817.5 Q451.5 820 450 823 Q448.5 826 447.2 826.5 Q446 827 444 830.5 Q442 834 441 834 Q440 834 439.8 837.5 Q439.5 841 439 845.5 L438.5 850 L438.2 849.8 L438 849.5 L437.8 849.2 L437.5 849 L437.2 849.2 L437 849.5 L436.5 849.5 L436 849.5 L435.8 849.2 L435.5 849 L435.2 849.2 L435 849.5 L434.5 849.8 L434 850 L433.8 849.5 L433.5 849 L433 848 L432.5 847 L432 845.5 Q431.5 844 430 840.5 Q428.5 837 427.5 839.5 Q426.5 842 423.2 834 L420 826 L419.8 825.5 Q419.5 825 418.2 813.8 Q417 802.5 416.2 797.8 Q415.5 793 414.5 782 Q413.5 771 412.5 757 Q411.5 743 410.2 727 L409 711 L409 710.8 L409 710.5 L411 710.5 L413 710.5 L413.2 710.8 L413.5 711 L413.8 711.2 L414 711.5 L414.2 711.8 L414.5 712 L414.8 712.2 L415 712.5 L415.2 712.8 L415.5 713 L415.5 712 L415.5 711 L415.5 706 L415.5 701 L415.8 700.8 z"
          stroke="#4A4D4E" fill-rule="evenOdd" stroke-width="0.5px" xml:space="default" style="fill:#4A4D4E;"/>
    <path d="M669 370.8 L669 371 L626.5 371.2 Q584 371.5 533 371.2 L482 371 L482.2 364 L482.5 357 L483 355.5 L483.5 354 L483.8 354.2 L484 354.5 L485.5 354.5 L487 354.5 L488 354.2 L489 354 L488.8 355 L488.5 356 L488.2 356.2 L488 356.5 L487.8 356.8 L487.5 357 L487.2 357.2 L487 357.5 L486.8 357.8 L486.5 358 L487.8 359 Q489 360 488.5 360.8 Q488 361.5 487.8 361.2 Q487.5 361 487.2 362.5 L487 364 L488 364.2 L489 364.5 L489.2 364.8 L489.5 365 L489.8 365.2 L490 365.5 L490.2 365.8 L490.5 366 L490.8 365 Q491 364 495.2 363.5 Q499.5 363 499.8 361 Q500 359 501 359 Q502 359 502 361.5 Q502 364 504.5 364 L507 364 L507.2 363 L507.5 362 L507.8 362.2 L508 362.5 L508.2 362.8 L508.5 363 L509.8 362.5 Q511 362 511.5 357.5 Q512 353 523.5 351.2 Q535 349.5 603 349.5 Q671 349.5 671.8 350.2 Q672.5 351 672.8 360 Q673 369 671 369.8 Q669 370.5 669 370.8 z"
          stroke="#7E7F78" fill-rule="evenOdd" stroke-width="0.5px" xml:space="default" style="fill:#7E7F78;"/>
    <path d="M518.8 810.8 L522.5 815 L523 816 L523.5 817 L523.8 817.2 L524 817.5 L524.2 817.8 L524.5 818 L525 815.5 L525.5 813 L526 811 Q526.5 809 526.8 809 L527 809 L527.2 810.5 Q527.5 812 527.8 818 L528 824 L527.8 824 L527.5 824 L526.5 825.5 Q525.5 827 525.2 828 L525 829 L524 829 L523 829 L522.8 826.5 Q522.5 824 521.5 821.5 Q520.5 819 515.8 815.2 L511 811.5 L508.5 811.5 L506 811.5 L504 812 L502 812.5 L501 812.8 L500 813 L501.8 818.5 Q503.5 824 503 824.5 Q502.5 825 502 827.5 L501.5 830 L501 831 L500.5 832 L500.2 829 Q500 826 498 827.8 Q496 829.5 494.8 827.8 L493.5 826 L493.2 825.8 L493 825.5 L492 825.5 L491 825.5 L490 825.5 L489 825.5 L488.8 825.2 L488.5 825 L488.2 825.2 L488 825.5 L487.8 825.8 L487.5 826 L487.2 826.2 L487 826.5 L486.8 826.8 L486.5 827 L487 832 Q487.5 837 488 838.5 L488.5 840 L488.8 840.2 L489 840.5 L490 841 L491 841.5 L491.2 841.8 L491.5 842 L491.8 842.2 L492 842.5 L492.2 842.8 L492.5 843 L492.8 843.2 L493 843.5 L494 843.8 L495 844 L495 845 L495 846 L494 845.8 L493 845.5 L492 845 L491 844.5 L490.8 844.2 L490.5 844 L490.2 843.8 L490 843.5 L489.8 843.2 L489.5 843 L489.2 842.8 L489 842.5 L488.8 842.2 L488.5 842 L488.2 841.8 L488 841.5 L487.8 841.2 L487.5 841 L487.2 840.8 L487 840.5 L486.8 840.2 L486.5 840 L486.2 839.8 L486 839.5 L485.8 839.2 L485.5 839 L485 838 Q484.5 837 483 829.5 Q481.5 822 483.5 818 Q485.5 814 487.2 812.5 Q489 811 489 810 Q489 809 492.5 806.8 Q496 804.5 505.5 805.5 Q515 806.5 518.8 810.8 z"
          stroke="#0E0F0E" fill-rule="evenOdd" stroke-width="0.5px" xml:space="default" style="fill:#0E0F0E;"/>
</svg>