<?xml version="1.0" encoding="utf-8"?>
<!DOCTYPE svg PUBLIC "-//W3C//DTD SVG 1.1//EN" "http://www.w3.org/Graphics/SVG/1.1/DTD/svg11.dtd">
<svg x="0px" y="0px" width="32" height="32" overflow="hidden" viewBox="0, 0, 512, 512" preserveAspectRatio="xMidYMid" font-size="0" id="Layer_1" xml:space="preserve" xmlns="http://www.w3.org/2000/svg" xmlns:xlink="http://www.w3.org/1999/xlink" xmlns:xml="http://www.w3.org/XML/1998/namespace" version="1.1">
  <path d="M496.162 264.005 C496.162 396.643 388.637 504.168 255.999 504.168 C123.361 504.168 15.836 396.643 15.836 264.005 C15.836 196.822 43.422 136.083 87.884 92.494 C100.039 80.579 113.455 69.94501 127.913 60.812 C145.221 49.87801 164.023 41.09501 183.944 34.83801 C206.69 27.693 230.896 23.84101 255.999 23.84101 C388.638 23.842 496.162 131.367 496.162 264.005 z" xml:space="preserve" style="fill:#29ABE2;" />
  <polyline points="152.67,143.918 175.944,143.918 215.972,159.932 199.961,207.966 183.95,199.961 127.412,223.978 86.884,199.962 86.884,167.941 103.896,152.271 127.608,152.271" xml:space="preserve" style="fill:#C7B299;" />
  <path d="M31.847 264.005 C31.847 196.822 59.433 136.083 103.895 92.494 C116.05 80.579 129.466 69.94501 143.924 60.812 C161.233 49.87901 180.034 41.09501 199.955 34.83801 C220.758 28.30301 242.822 24.68301 265.637 24.085 C262.436 23.95901 259.232 23.842 256 23.842 C230.895 23.842 206.691 27.694 183.945 34.839 C164.025 41.096 145.223 49.88 127.914 60.813 C113.456 69.94701 100.04 80.58 87.88501 92.495 C43.42201 136.082 15.83701 196.823 15.83701 264.006 C15.83701 396.644 123.362 504.169 256 504.169 C258.685 504.169 261.342 504.054 264.006 503.966 C135.08 499.734 31.847 393.959 31.847 264.005 z" xml:space="preserve" style="fill:#0C6D95;" />
  <path d="M255.999 23.842 C243.78 23.842 231.784 24.789 220.054 26.55 C335.563 43.967 424.113 143.64 424.113 264.005 C424.113 384.399 335.522 484.088 219.974 501.471 C231.727 503.239 243.754 504.168 255.998 504.168 C388.636 504.168 496.1609 396.643 496.1609 264.005 C496.1609 131.367 388.638 23.842 255.999 23.842 z" xml:space="preserve" style="fill:#54BCE8;" />
  <g xml:space="preserve">
    <polygon points="119.581,464.141 167.289,440.125 167.289,416.109 135.918,408.102 111.901,408.102 79.717,432.119" xml:space="preserve" style="fill:#C7B299;" />
    <path d="M367.775 472.147 L367.775 448.13 L391.941 440.124 L400.021 376.081 L384.048 344.406 L360.069 352.759 L344.058 352.759 L320.041 432.119 L296.024 432.119 L280.013 448.13 L264.002 432.119 L240.38 432.119 L240.38 352.759 L288.018 352.759 L312.035 328.396 L288.018 288.542 L320.04 256.693 L352.062 256.693 L408.1 217.013 L440.867 217.013 L440.867 183.952 L416.478 159.935 L472.18 151.929 C472.182 151.93 568.264 365.052 367.775 472.147 z" xml:space="preserve" style="fill:#C7B299;" />
  </g>
  <g xml:space="preserve">
    <polygon points="268.008,436.122 280.015,448.13 296.027,432.118 272.01,432.118" xml:space="preserve" style="fill:#998675;" />
    <polygon points="360.07,352.759 363.5,351.269 360.07,344.58 336.053,352.759 320.043,352.759 296.027,432.118 320.043,432.118 344.059,352.759" xml:space="preserve" style="fill:#998675;" />
    <path d="M471.996 151.93 L449.394 155.169 C459.022 179.193 515.463 336.132 392.093 439.814 L392.072 440.125 L391.308 440.333 C384.169 446.292 376.129 452.026 367.776 457.594 L367.776 472.146 C568.264 365.052 471.996 151.93 471.996 151.93 z" xml:space="preserve" style="fill:#998675;" />
  </g>
  <path d="M191.956 63.87 C191.956 94.819 135.918 167.941 135.918 167.941 C135.918 167.941 79.88 94.818 79.88 63.87 C79.88 32.922 104.969 7.832001 135.918 7.832001 C166.866 7.832 191.956 32.921 191.956 63.87 z" xml:space="preserve" style="fill:#FBB03B;" />
  <circle cx="135.913" cy="63.874" r="32.022" xml:space="preserve" style="fill:#FFFFFF;" />
  <path d="M416.107 167.941 C416.107 198.89 360.069 272.012 360.069 272.012 C360.069 272.012 304.031 198.89 304.031 167.941 C304.031 136.992 329.12 111.903 360.069 111.903 C391.018 111.902 416.107 136.991 416.107 167.941 z" xml:space="preserve" style="fill:#FBB03B;" />
  <circle cx="360.072" cy="167.94" r="32.022" xml:space="preserve" style="fill:#FFFFFF;" />
  <path d="M183.95 312.038 C183.95 342.987 127.912 416.109 127.912 416.109 C127.912 416.109 71.87401 342.987 71.87401 312.038 C71.87401 281.0891 96.96301 256 127.912 256 C158.861 256 183.95 281.09 183.95 312.038 z" xml:space="preserve" style="fill:#FBB03B;" />
  <circle cx="127.914" cy="312.04" r="32.022" xml:space="preserve" style="fill:#FFFFFF;" />
  <polygon points="255.999,167.941 247.994,191.956 255.999,207.967 247.994,231.984 280.015,256 296.027,223.978 280.015,175.945" xml:space="preserve" style="fill:#C7B299;" />
  <path d="M282.824 267.896 L238.778 234.863 L247.542 208.569 L239.537 192.558 L251.045 158.035 L286.207 169.755 L304.482 224.58 L282.824 267.896 z M257.209 229.105 L277.208 244.104 L287.572 223.377 L273.825 182.136 L260.953 177.845 L256.449 191.355 L264.455 207.366 L257.209 229.105 z" xml:space="preserve" />
  <path d="M431.358 88.647 C384.518 41.807 322.241 16.011 255.999 16.011 C232.557 16.011 209.412 19.278 187.108 25.716 C175.452 10.116 156.844 0 135.918 0 C100.7 0 72.048 28.652 72.048 63.87 C72.048 71.265 74.707 80.498 78.87901 90.443 C33.141 137.068 8.005 198.499 8.005 264.005 C8.005 330.247 33.801 392.524 80.641 439.364 C127.481 486.204 189.758 512 255.999 512 C322.24 512 384.518 486.204 431.359 439.364 C478.198 392.524 503.995 330.247 503.995 264.005 C503.995 197.763 478.198 135.487 431.358 88.647 z M135.918 15.663 C162.499 15.663 184.125 37.288 184.125 63.87 C184.125 84.336 153.531 130.63 135.937 154.808 C130.608 147.466 122.538 136.004 114.518 123.325 C91.194 86.45 87.711 70.246 87.711 63.87 C87.711 37.289 109.337 15.663 135.918 15.663 z M129.701 172.704 L135.917 180.815 L142.133 172.704 C143.886 170.416 149.69 162.76 156.981 152.272 L174.459 152.272 L206.188 164.76 L195.402 197.03 L184.226 191.397 L128.267 215.246 L95.23803 195.52 L95.23803 171.229 L107.097 159.584 L120.014 159.584 C124.796 166.254 128.387 170.99 129.701 172.704 z M127.931 402.976 C122.602 395.633 114.532 384.172 106.512 371.493 C83.189 334.618 79.706 318.415 79.706 312.038 C79.706 285.457 101.331 263.832 127.913 263.832 C154.495 263.832 176.12 285.457 176.12 312.038 C176.119 332.504 145.525 378.798 127.931 402.976 z M121.696 420.872 L127.912 428.983 L134.128 420.872 C134.746 420.066 135.871 418.586 137.382 416.559 L159.98 422.22 L159.98 435.286 L122.348 454.1151 C112.106 446.882 102.388 438.7581 93.27101 429.8051 L113.397 409.679 C117.481 415.334 120.512 419.328 121.696 420.872 z M137.594 464.001 L175.642 444.964 L175.642 409.997 L147.265 402.888 C164.469 378.392 191.783 335.768 191.783 312.038 C191.783 276.82 163.131 248.169 127.913 248.169 C92.69501 248.169 64.04301 276.821 64.04301 312.038 C64.04301 333.866 87.15601 371.685 104.251 396.673 L82.45702 418.467 C44.45502 375.881 23.66702 321.544 23.66702 264.006 C23.66702 204.581 45.74902 148.736 86.05202 105.598 C92.97102 118.895 101.464 132.454 109.15 143.918 L100.693 143.918 L79.57402 164.654 L79.57402 204.407 L127.077 232.777 L183.673 208.657 L204.518 219.164 L225.754 155.626 L177.429 136.608 L167.501 136.608 C183.031 112.628 199.786 82.45299 199.786 63.86899 C199.786 55.33799 198.092 47.19899 195.043 39.75299 C214.823 34.39099 235.285 31.67399 255.997 31.67399 C318.0551 31.67399 376.399 55.84099 420.28 99.72299 C433.751 113.194 445.356 128.032 454.982 143.919 L419.233 143.919 C409.719 120.576 386.791 104.072 360.068 104.072 C324.85 104.072 296.198 132.724 296.198 167.942 C296.198 188.858 317.422 224.461 334.236 249.385 L316.836 249.385 L278.098 287.44 L302.15 326.961 L284.764 344.408 L232.024 344.408 L232.024 439.431 L260.756 439.431 L280.01 458.686 L299.264 439.431 L325.848 439.431 L349.865 360.071 L361.352 360.071 L380.014 353.757 L391.815 377.448 L384.535 434.227 L359.416 442.46 L359.416 471.802 L360.174 471.802 C328.242 487.851 292.77 496.341 255.993 496.341 C213.663 496.337 173.06 485.081 137.594 464.001 z M432.516 188.189 L432.516 208.66 L410.457 208.66 C415.409 199.041 419.5 189.593 421.832 181.208 L432.516 188.189 z M338.669 227.396 C315.345 190.521 311.862 174.318 311.862 167.941 C311.862 141.36 333.487 119.734 360.069 119.734 C386.651 119.734 408.276 141.36 408.276 167.941 C408.276 188.407 377.682 234.701 360.088 258.879 C354.76 251.535 346.689 240.073 338.669 227.396 z M420.282 428.289 C406.528 442.043 391.351 453.859 375.086 463.603 L375.086 453.805 L398.821 446.026 L407.963 374.718 L387.948 334.537 L358.782 344.405 L338.248 344.405 L314.231 423.765 L292.784 423.765 L280.017 436.532 L267.249 423.765 L247.692 423.765 L247.692 360.068 L291.272 360.068 L321.922 329.311 L297.94 289.906 L323.245 265.046 L345.167 265.046 C349.447 270.984 352.633 275.182 353.854 276.775 L360.07 284.886 L366.286 276.775 C369.561 272.502 386.951 249.517 401.785 224.322 L448.18 224.322 L448.18 179.714 L423.789 163.774 C423.697 162.363 423.557 160.966 423.375 159.582 L463.671 159.582 C479.799 191.576 488.33 227.136 488.33 264.007 C488.331 326.064 464.164 384.407 420.282 428.289 z" xml:space="preserve" />
  <path d="M127.608 119.901 L143.271 119.901 L143.271 103.032 C161.744 99.57 175.77 83.332 175.77 63.87 C175.771 41.895 157.893 24.017 135.918 24.017 C113.943 24.017 96.065 41.895 96.065 63.87 C96.065 82.996 109.609 99.013 127.609 102.846 L127.609 119.901 L127.608 119.901 z M111.727 63.87 C111.727 50.531 122.578 39.68 135.917 39.68 C149.256 39.68 160.107 50.531 160.107 63.87 C160.107 77.20901 149.256 88.061 135.917 88.061 C122.579 88.06 111.727 77.207 111.727 63.87 z" xml:space="preserve" />
  <path d="M367.775 223.277 L367.775 207.039 C386.075 203.439 399.922 187.278 399.922 167.94 C399.922 145.965 382.044 128.087 360.069 128.087 C338.094 128.087 320.216 145.965 320.216 167.94 C320.216 187.191 333.937 203.297 352.112 206.994 L352.112 223.277 L367.775 223.277 z M335.88 167.941 C335.88 154.602 346.732 143.751 360.07 143.751 C373.408 143.751 384.26 154.602 384.26 167.941 C384.26 181.28 373.409 192.132 360.07 192.132 C346.731 192.131 335.88 181.279 335.88 167.941 z" xml:space="preserve" />
  <path d="M167.766 312.038 C167.766 290.063 149.887 272.185 127.912 272.185 C105.937 272.185 88.05901 290.063 88.05901 312.038 C88.05901 331.04 101.43 346.969 119.255 350.934 L119.255 368.422 L134.918 368.422 L134.918 351.263 C153.562 347.941 167.766 331.622 167.766 312.038 z M127.912 336.229 C114.573 336.229 103.722 325.378 103.722 312.038 C103.722 298.699 114.573 287.848 127.912 287.848 C141.251 287.848 152.103 298.699 152.103 312.038 C152.103 325.376 141.251 336.229 127.912 336.229 z" xml:space="preserve" />
  <g xml:space="preserve" />
  <g xml:space="preserve" />
  <g xml:space="preserve" />
  <g xml:space="preserve" />
  <g xml:space="preserve" />
  <g xml:space="preserve" />
  <g xml:space="preserve" />
  <g xml:space="preserve" />
  <g xml:space="preserve" />
  <g xml:space="preserve" />
  <g xml:space="preserve" />
  <g xml:space="preserve" />
  <g xml:space="preserve" />
  <g xml:space="preserve" />
  <g xml:space="preserve" />
</svg>