<?xml version="1.0" encoding="utf-8"?>
<!DOCTYPE svg PUBLIC "-//W3C//DTD SVG 1.1//EN" "http://www.w3.org/Graphics/SVG/1.1/DTD/svg11.dtd">
<svg xmlns:xml="http://www.w3.org/XML/1998/namespace" x="0" y="0" width="32" height="32" overflow="hidden" viewBox="0, 0, 200, 200"
     preserveAspectRatio="xMidYMid" font-size="0" id="svg" xml:space="default"
     xmlns="http://www.w3.org/2000/svg" version="1.1">
    <g fill-rule="evenOdd" transform="matrix(1.278146, 0, 0, 1.278146, 278.7644, -187.8876)" id="g205"
       xml:space="default"/>
    <g fill-rule="evenOdd" transform="matrix(1.278146, 0, 0, 1.278146, 388.0114, -163.9225)" id="g124"
       xml:space="default"/>
    <g fill-rule="evenOdd" transform="matrix(1.278146, 0, 0, 1.278146, 302.8407, -292.365)" id="g221"
       xml:space="default"/>
    <g transform="matrix(1.04342, 0, 0, 1.04342, 0.7500002, 12.21828)" id="g5808" xml:space="default">
        <g id="g5029" xml:space="default">
            <g id="g3310" xml:space="default">
                <g transform="matrix(-1, 0, 0, 1, 190.0055, 0)" id="g3041" xml:space="default">
                    <g transform="matrix(2.262985, -0.02038076, 0.02038078, 2.262986, -44.2159, -944.8112)" id="g3759"
                       xml:space="default">
                        <g id="g3755" xml:space="default">
                            <path d="M57.46875 418.0313 C55.58506 418.1065 53.86697 419.1338 52.90625 420.75 L15.9375 483.2813 C14.93071 484.987 14.89562 487.091 15.875 488.8125 C16.85438 490.534 18.70152 491.6088 20.6875 491.625 L93.53125 492.2813 C95.51343 492.2956 97.33639 491.2323 98.34375 489.5313 C99.35111 487.8302 99.37791 485.7215 98.40625 484 L62.5625 420.8438 C61.5339 419.034 59.55423 417.9435 57.46875 418.0313 z"
                                  stroke-width="0.3" stroke-linecap="round" id="path3752" xml:space="default"
                                  nodetypes="cccsccsccc" connector-curvature="0" style="fill:#FFFFFF;"/>
                            <path d="M57.46875 418.0313 C55.58506 418.1065 53.86697 419.1338 52.90625 420.75 L15.9375 483.2813 C14.93071 484.987 14.89562 487.091 15.875 488.8125 C16.85438 490.534 18.70152 491.6088 20.6875 491.625 L93.53125 492.2813 C95.51343 492.2956 97.33639 491.2323 98.34375 489.5313 C99.35111 487.8302 99.37791 485.7215 98.40625 484 L62.5625 420.8438 C61.5339 419.034 59.55423 417.9435 57.46875 418.0313 z M57.5 418.3438 C59.474 418.2607 61.30811 419.2878 62.28125 421 L98.15625 484.1563 C99.07546 485.7849 99.04675 487.797 98.09375 489.4063 C97.14075 491.0155 95.40737 491.9823 93.53125 491.9688 L20.6875 491.3125 C18.80778 491.2971 17.08277 490.2849 16.15625 488.6563 C15.22973 487.0276 15.23504 485.02 16.1875 483.4063 L53.1875 420.9063 C54.09634 419.3773 55.71718 418.415 57.5 418.3438 z"
                                  stroke-width="0.3" stroke-linecap="round" id="path3679" xml:space="default"
                                  nodetypes="cccsccsccccccsccsccc" connector-curvature="0" style="fill:#000000;"/>
                        </g>
                        <path d="M57.55212 420.0644 C56.36713 420.1253 55.2934 420.7789 54.69841 421.8015 L17.69075 484.3139 C17.06009 485.3885 17.05104 486.7161 17.66699 487.799 C18.28293 488.882 19.43083 489.5567 20.68035 489.5703 L93.5406 490.2245 C94.79232 490.2336 95.95416 489.578 96.58923 488.5036 C97.22431 487.4291 97.23634 486.099 96.6208 485.0133 L60.76822 421.8466 C60.12034 420.695 58.8761 420.0055 57.55213 420.0644 z M57.64272 430.5546 L87.53874 483.1859 L26.81809 482.6445 z"
                              stroke-width="9.677505" stroke-linecap="round" stroke-linejoin="round" id="path3668"
                              xml:space="default" connector-curvature="0" style="fill:#FF0000;"/>
                    </g>
                    <g transform="matrix(2.169171, 0, 0, 2.169171, -181.8842, -202.7943)" id="g3017" xml:space="default"
                       style="fill:#000000;"/>
                </g>
                <g transform="matrix(2.123376, 0, 0, 2.123376, -433.9613, -142.3651)" id="g3285" xml:space="default"/>
            </g>
            <g fill-rule="evenOdd" transform="matrix(2.883808, 0, 0, 2.883808, 184.8099, -892.1513)" id="g307"
               xml:space="default" style="fill:#000000;"/>
        </g>
        <g fill-rule="evenOdd" transform="matrix(6.881448, 0, 0, 6.881448, -75.55493, -168.3876)" id="g4971"
           xml:space="default" style="fill:#000000;">
            <g transform="matrix(0.442119, 0, 0, 0.442119, -112.7024, -39.76414)" id="g489" xml:space="default"/>
            <g transform="matrix(0.442119, 0, 0, 0.442119, -112.7024, -39.76414)" id="g555" xml:space="default">
                <path d="M311.133 192.003 C309.0502 192.003 307.2976 190.2505 307.2976 188.1676 C307.2976 186.0595 309.0502 184.2815 311.133 184.2815 C313.2412 184.2815 314.9684 186.0595 314.9684 188.1676 C314.9684 190.2505 313.2412 192.003 311.133 192.003 z"
                      id="_44917088" xml:space="default" class="fil2" connector-curvature="0"/>
                <path d="M308.669 182.707 L306.7386 166.7561 C306.7386 164.394 308.7452 162.3874 311.1328 162.3874 C313.5204 162.3874 315.527 164.394 315.527 166.7561 L313.622 182.707 z"
                      id="_44919480" xml:space="default" class="fil2" connector-curvature="0"/>
            </g>
        </g>
    </g>
</svg>