<?xml version="1.0" encoding="utf-8"?>
<!DOCTYPE svg PUBLIC "-//W3C//DTD SVG 1.1//EN" "http://www.w3.org/Graphics/SVG/1.1/DTD/svg11.dtd">
<svg xmlns:xlink="http://www.w3.org/1999/xlink" xmlns:xml="http://www.w3.org/XML/1998/namespace" x="0" y="0" width="32" height="32" overflow="hidden"
     viewBox="0, 0, 128, 128" preserveAspectRatio="xMidYMid" font-size="0" id="svg"
     xml:space="default" xmlns="http://www.w3.org/2000/svg" version="1.1">
    <defs id="def1" xml:space="default">
        <linearGradient x1="0%" y1="0%" x2="100%" y2="0%" gradientUnits="objectBoundingBox" id="linearGradient15999"
                        xml:space="default">
            <stop offset="0%" stop-color="#FFFFFF" stop-opacity="1" id="stop16001" xml:space="default"/>
            <stop offset="100%" stop-color="#000000" stop-opacity="1" id="stop16003" xml:space="default"/>
        </linearGradient>
        <linearGradient x1="0%" y1="0%" x2="100%" y2="0%" gradientUnits="objectBoundingBox" id="linearGradient15983"
                        xml:space="default">
            <stop offset="0%" stop-color="#000000" stop-opacity="1" id="stop15985" xml:space="default"/>
            <stop offset="100%" stop-color="#FFFFFF" stop-opacity="1" id="stop15987" xml:space="default"/>
        </linearGradient>
        <linearGradient x1="0%" y1="0%" x2="100%" y2="0%" gradientUnits="objectBoundingBox" id="linearGradient5590"
                        xml:space="default">
            <stop offset="0%" stop-color="#FFFFFF" stop-opacity="1" id="stop5592" xml:space="default"/>
            <stop offset="100%" stop-color="#FFFFFF" stop-opacity="0" id="stop5594" xml:space="default"/>
        </linearGradient>
        <linearGradient x1="0%" y1="0%" x2="100%" y2="0%" gradientUnits="objectBoundingBox" id="linearGradient5542"
                        xml:space="default">
            <stop offset="0%" stop-color="#FFFFFF" stop-opacity="1" id="stop5544" xml:space="default"/>
            <stop offset="100%" stop-color="#FFFFFF" stop-opacity="0" id="stop5546" xml:space="default"/>
        </linearGradient>
        <linearGradient x1="0%" y1="0%" x2="100%" y2="0%" gradientUnits="objectBoundingBox" id="linearGradient4708"
                        xml:space="default">
            <stop offset="0%" stop-color="#FFFFFF" stop-opacity="1" id="stop4710" xml:space="default"/>
            <stop offset="100%" stop-color="#FFFFFF" stop-opacity="0" id="stop4712" xml:space="default"/>
        </linearGradient>
        <linearGradient x1="0%" y1="0%" x2="100%" y2="0%" gradientUnits="objectBoundingBox" id="linearGradient4696"
                        xml:space="default">
            <stop offset="0%" stop-color="#FFFFFF" stop-opacity="0.1018182" id="stop4698" xml:space="default"/>
            <stop offset="100%" stop-color="#AB7616" stop-opacity="0.2078431" id="stop4700" xml:space="default"/>
        </linearGradient>
        <linearGradient x1="0%" y1="0%" x2="100%" y2="0%" gradientUnits="objectBoundingBox" id="linearGradient4518"
                        xml:space="default">
            <stop offset="0%" stop-color="#545148" stop-opacity="1" id="stop4520" xml:space="default"/>
            <stop offset="100%" stop-color="#1E1D19" stop-opacity="0.3818182" id="stop4522" xml:space="default"/>
        </linearGradient>
        <linearGradient x1="0%" y1="0%" x2="100%" y2="0%" gradientUnits="objectBoundingBox" id="linearGradient4510"
                        xml:space="default">
            <stop offset="0%" stop-color="#141412" stop-opacity="1" id="stop4512" xml:space="default"/>
            <stop offset="100%" stop-color="#403D38" stop-opacity="1" id="stop4514" xml:space="default"/>
        </linearGradient>
        <linearGradient x1="0%" y1="0%" x2="100%" y2="0%" gradientUnits="objectBoundingBox" id="linearGradient4256"
                        xml:space="default">
            <stop offset="0%" stop-color="#FFFFFF" stop-opacity="1" id="stop4258" xml:space="default"/>
            <stop offset="100%" stop-color="#FFFFFF" stop-opacity="0" id="stop4260" xml:space="default"/>
        </linearGradient>
        <linearGradient x1="0%" y1="0%" x2="100%" y2="0%" gradientUnits="objectBoundingBox" id="linearGradient3171"
                        xml:space="default">
            <stop offset="0%" stop-color="#000000" stop-opacity="1" id="stop3173" xml:space="default"/>
            <stop offset="100%" stop-color="#2C231D" stop-opacity="0.6745098" id="stop3175" xml:space="default"/>
        </linearGradient>
        <linearGradient x1="0%" y1="0%" x2="100%" y2="0%" gradientUnits="objectBoundingBox" id="linearGradient2923"
                        xml:space="default">
            <stop offset="0%" stop-color="#000000" stop-opacity="1" id="stop2925" xml:space="default"/>
            <stop offset="53.5%" stop-color="#434343" stop-opacity="1" id="stop2931" xml:space="default"/>
            <stop offset="100%" stop-color="#000000" stop-opacity="1" id="stop2927" xml:space="default"/>
        </linearGradient>
        <linearGradient x1="0%" y1="0%" x2="100%" y2="0%" gradientUnits="objectBoundingBox" id="linearGradient2915"
                        xml:space="default">
            <stop offset="0%" stop-color="#918E89" stop-opacity="1" id="stop2917" xml:space="default"/>
            <stop offset="100%" stop-color="#FFFFFF" stop-opacity="1" id="stop2919" xml:space="default"/>
        </linearGradient>
        <filter x="none" y="none" width="none" height="none" color-interpolation-filters="auto" id="filter3094"
                xml:space="default">
            <feGaussianBlur stdDeviation="2.17545462" id="feGaussianBlur3096" xml:space="default" collect="always"/>
        </filter>
        <clipPath clipPathUnits="userSpaceOnUse" id="clipPath3104" xml:space="default">
            <path d="M-43.78125 455.0625 L-43.78125 465.6875 C-42.44357 465.8843 -41.40624 467.0143 -41.40625 468.4063 C-41.79949 472.0175 -44.38615 470.0791 -44.28125 473.5938 C-44.19762 476.3958 -41.5838 475.8145 -41.40625 478.75 C-41.79949 482.3612 -44.45645 480.4271 -44.28125 483.9375 C-44.09055 487.7587 -41.63233 485.4659 -41.40625 489 C-41.79949 492.6112 -44.38615 490.6416 -44.28125 494.1563 C-44.19762 496.9583 -41.30975 496.4148 -41.40625 499.3438 C-41.40625 500.0165 -40.91958 500.3786 -37.9375 503.5938 L-37.4375 503.5938 C-35.89217 504.6544 -23.0445 505.5 -7.437498 505.5 C8.169502 505.5 21.39217 505.2794 22.9375 504.2188 L22.90625 504.2188 C25.79061 501.5146 29.3125 502.1088 29.3125 499.5625 C29.3125 496.062 26.86199 498.0175 26.46875 494.4063 C26.69486 490.8722 29.1218 493.1337 29.3125 489.3125 C29.4877 485.8022 26.86199 487.7675 26.46875 484.1563 C26.64633 481.2207 29.22887 481.7708 29.3125 478.9688 C29.4174 475.4541 26.86199 477.4237 26.46875 473.8125 C26.46877 472.4205 27.47482 471.2593 28.8125 471.0625 L28.8125 455.2813 C28.8125 456.6767 12.56254 457.8125 -7.437498 457.8125 C-27.43754 457.8125 -43.65625 456.6767 -43.65625 455.2813 C-43.65625 455.2036 -43.59836 455.1384 -43.5 455.0625 L-43.78125 455.0625 z M-25.78125 515.1563 L-19.125 521.8438 C-18.68154 522.1598 -13.61604 522.4063 -7.437498 522.4063 C-1.463908 522.4063 3.465962 522.1453 4.187502 521.8438 L4.218752 521.8438 C4.258792 521.8232 4.281252 521.8023 4.281252 521.7813 L10.875 515.2188 L10.8125 515.2188 C9.678702 515.6926 1.949352 516.0625 -7.437498 516.0625 C-17.14638 516.0624 -25.0844 515.6529 -25.78125 515.1563 z"
                  stroke-linecap="round" stroke-dashoffset="1.0878" id="path3106" xml:space="default"
                  nodetypes="cccscscscccsccscscscccssccccscccccsc"/>
        </clipPath>
        <filter x="-0.02953877" y="-0.7129655" width="1.059078" height="2.425931" color-interpolation-filters="auto"
                id="filter3159" xml:space="default">
            <feGaussianBlur stdDeviation="0.8915476" id="feGaussianBlur3161" xml:space="default" collect="always"/>
        </filter>
        <radialGradient cx="387.9131" cy="496.8055" r="9.337467" fx="387.9131" fy="496.8055"
                        gradientUnits="userSpaceOnUse" xlink:href="#linearGradient3171"
                        gradientTransform="matrix(1.283138, -0.08158664, 0.04517832, 0.7105333, -93.33767, 176.4572)"
                        id="radialGradient3177" xml:space="default"/>
        <radialGradient cx="388.7768" cy="486.113" r="10.06287" fx="388.7768" fy="486.113"
                        gradientUnits="userSpaceOnUse" xlink:href="#linearGradient3171"
                        gradientTransform="matrix(1.808757, -0.07954545, 0.04204897, 0.9561373, -295.9263, 53.24765)"
                        id="radialGradient3179" xml:space="default"/>
        <radialGradient cx="388.8243" cy="476.1928" r="9.591627" fx="388.8243" fy="476.1928"
                        gradientUnits="userSpaceOnUse" xlink:href="#linearGradient3171"
                        gradientTransform="matrix(1.265034, -0.05426056, 0.03083985, 0.7190022, -78.79725, 155.907)"
                        id="radialGradient3181" xml:space="default"/>
        <radialGradient cx="391.2172" cy="464.1158" r="14.8265" fx="391.2172" fy="464.1158"
                        gradientUnits="userSpaceOnUse" xlink:href="#linearGradient3171"
                        gradientTransform="matrix(1.628812, 1.162799E-06, -4.142032E-07, 0.5798903, -207.0617, 195.9791)"
                        id="radialGradient3183" xml:space="default"/>
        <filter x="-0.1714364" y="-0.5720385" width="1.342873" height="2.144077" color-interpolation-filters="auto"
                id="filter3425" xml:space="default">
            <feGaussianBlur stdDeviation="1.26255333" id="feGaussianBlur3427" xml:space="default" collect="always"/>
        </filter>
        <filter x="-0.1584319" y="-0.4458952" width="1.316864" height="1.89179" color-interpolation-filters="auto"
                id="filter3429" xml:space="default">
            <feGaussianBlur stdDeviation="1.26255333" id="feGaussianBlur3431" xml:space="default" collect="always"/>
        </filter>
        <filter x="-0.1666439" y="-0.5212989" width="1.333288" height="2.042598" color-interpolation-filters="auto"
                id="filter3433" xml:space="default">
            <feGaussianBlur stdDeviation="1.26255333" id="feGaussianBlur3435" xml:space="default" collect="always"/>
        </filter>
        <filter x="-0.1057526" y="-0.278031" width="1.211505" height="1.556062" color-interpolation-filters="auto"
                id="filter3437" xml:space="default">
            <feGaussianBlur stdDeviation="1.26255333" id="feGaussianBlur3439" xml:space="default" collect="always"/>
        </filter>
        <filter x="none" y="none" width="none" height="none" color-interpolation-filters="auto" id="filter4214"
                xml:space="default">
            <feGaussianBlur stdDeviation="0.6088689" id="feGaussianBlur4216" xml:space="default" collect="always"/>
        </filter>
        <filter x="-0.05053556" y="-0.812778" width="1.101071" height="2.625556" color-interpolation-filters="auto"
                id="filter4242" xml:space="default">
            <feGaussianBlur stdDeviation="0.6088689" id="feGaussianBlur4244" xml:space="default" collect="always"/>
        </filter>
        <filter x="none" y="none" width="none" height="none" color-interpolation-filters="auto" id="filter4501"
                xml:space="default">
            <feGaussianBlur stdDeviation="0.6307955" id="feGaussianBlur4503" xml:space="default" collect="always"/>
        </filter>
        <linearGradient x1="-38.71875" y1="486.375" x2="-9.8125" y2="486.375" gradientUnits="userSpaceOnUse"
                        xlink:href="#linearGradient4510" gradientTransform="translate(433.8896, 0)"
                        id="linearGradient4516" xml:space="default"/>
        <linearGradient x1="-0.5281872" y1="487.6875" x2="24.06556" y2="487.6875" gradientUnits="userSpaceOnUse"
                        xlink:href="#linearGradient4518" gradientTransform="translate(433.8896, 0)"
                        id="linearGradient4524" xml:space="default"/>
        <linearGradient x1="4.494709" y1="478.2375" x2="19.47709" y2="478.2375" gradientUnits="userSpaceOnUse"
                        xlink:href="#linearGradient4256" gradientTransform="translate(433.8896, 0)"
                        id="linearGradient4526" xml:space="default"/>
        <filter x="-0.02871227" y="-0.2970771" width="1.057425" height="1.594154" color-interpolation-filters="auto"
                id="filter4579" xml:space="default">
            <feGaussianBlur stdDeviation="0.7097576" id="feGaussianBlur4581" xml:space="default" collect="always"/>
        </filter>
        <radialGradient cx="-149.3156" cy="323.5967" r="82.98096" fx="-145.7198" fy="369.0347"
                        gradientUnits="userSpaceOnUse" xlink:href="#linearGradient4696"
                        gradientTransform="matrix(1, 0, 0, 1.028765, 0, -17.42151)" id="radialGradient4702"
                        xml:space="default"/>
        <linearGradient x1="-149.3156" y1="230.1155" x2="-149.3156" y2="436.968" gradientUnits="userSpaceOnUse"
                        xlink:href="#linearGradient4708" id="linearGradient4720" xml:space="default"/>
        <linearGradient x1="-149.3156" y1="230.1155" x2="-149.3156" y2="436.968" gradientUnits="userSpaceOnUse"
                        xlink:href="#linearGradient4708" id="linearGradient4726" xml:space="default"/>
        <linearGradient x1="-149.3156" y1="230.1155" x2="-149.3156" y2="436.968" gradientUnits="userSpaceOnUse"
                        xlink:href="#linearGradient4708"
                        gradientTransform="matrix(0.9766082, 0, 0, 1.508657, 544.4218, -228.2091)"
                        id="linearGradient4732" xml:space="default"/>
        <linearGradient x1="-149.3156" y1="230.1155" x2="-149.3156" y2="436.968" gradientUnits="userSpaceOnUse"
                        xlink:href="#linearGradient4708" id="linearGradient4738" xml:space="default"/>
        <linearGradient x1="-136.1836" y1="280.5153" x2="-136.1836" y2="341.0497" gradientUnits="userSpaceOnUse"
                        xlink:href="#linearGradient5590" id="linearGradient4842" xml:space="default"/>
        <filter x="none" y="none" width="none" height="none" color-interpolation-filters="auto" id="filter4991"
                xml:space="default">
            <feGaussianBlur stdDeviation="1.23068464" id="feGaussianBlur4993" xml:space="default" collect="always"/>
        </filter>
        <clipPath clipPathUnits="userSpaceOnUse" id="clipPath4995" xml:space="default">
            <path d="M-393.3573 109.3543 C-393.3573 97.81097 -356.7079 97.46966 -356.7079 109.3543 L-356.7079 161.0537 L-393.3573 161.0537 L-393.3573 109.3543 z"
                  stroke-linecap="round" stroke-dashoffset="1.0878" id="path4997" xml:space="default" nodetypes="ccccc"
                  style="fill:#545454;"/>
        </clipPath>
        <filter x="-0.3235887" y="-0.2176621" width="1.647177" height="1.435324" color-interpolation-filters="auto"
                id="filter5113" xml:space="default">
            <feGaussianBlur stdDeviation="5.48557043" id="feGaussianBlur5115" xml:space="default" collect="always"/>
        </filter>
        <filter x="-0.07621775" y="-0.1020787" width="1.152436" height="1.204157" color-interpolation-filters="auto"
                id="filter5159" xml:space="default">
            <feGaussianBlur stdDeviation="2.04160643" id="feGaussianBlur5161" xml:space="default" collect="always"/>
        </filter>
        <clipPath clipPathUnits="userSpaceOnUse" id="clipPath5163" xml:space="default">
            <path d="M-197.2813 61.34375 C-204.7101 61.28484 -209.5224 64.63148 -206.9375 73.75 C-201.4138 93.23589 -195.9063 84.70356 -195.9063 108.5 L-176.2813 109.2813 L-176.2813 109.3438 L-175.5 109.3125 L-174.7188 109.3438 L-174.7188 109.2813 L-155.0938 108.5 C-155.0938 84.70356 -149.5862 93.23589 -144.0625 73.75 C-139.2758 56.86391 -159.7866 59.78754 -175.5 67.4375 C-182.7281 63.91853 -190.953 61.39394 -197.2813 61.34375 z"
                  stroke="#000000" fill-rule="evenOdd" fill-opacity="0.75" stroke-width="1px" id="path5165"
                  xml:space="default" style="fill:none;"/>
        </clipPath>
        <filter x="-0.1091642" y="-0.79608" width="1.218328" height="2.59216" color-interpolation-filters="auto"
                id="filter15979" xml:space="default">
            <feGaussianBlur stdDeviation="1.938956" id="feGaussianBlur15981" xml:space="default" collect="always"/>
        </filter>
        <filter x="-0.3352" y="-0.1345284" width="1.6704" height="1.269057" color-interpolation-filters="auto"
                id="filter17962" xml:space="default">
            <feGaussianBlur stdDeviation="1.27249086" id="feGaussianBlur17964" xml:space="default" collect="always"/>
        </filter>
        <filter x="-0.3352" y="-0.1345284" width="1.6704" height="1.269057" color-interpolation-filters="auto"
                id="filter17966" xml:space="default">
            <feGaussianBlur stdDeviation="1.61814821" id="feGaussianBlur17968" xml:space="default" collect="always"/>
        </filter>
        <radialGradient cx="91.625" cy="38.9375" r="6.5" fx="91.625" fy="38.9375" gradientUnits="userSpaceOnUse"
                        xlink:href="#linearGradient5542"
                        gradientTransform="matrix(-4.875343, 0.256643, 0.1746503, 3.317759, 476.9039, -117.6517)"
                        id="radialGradient3656" xml:space="default"/>
        <radialGradient cx="91.625" cy="38.9375" r="6.5" fx="91.625" fy="38.9375" gradientUnits="userSpaceOnUse"
                        xlink:href="#linearGradient5542"
                        gradientTransform="matrix(1.848247, 8.745036E-08, -2.302425E-07, 4.224831, -76.66, -126.274)"
                        id="radialGradient3659" xml:space="default"/>
        <linearGradient x1="65.8118" y1="43.04992" x2="73.57781" y2="43.04992" gradientUnits="userSpaceOnUse"
                        xlink:href="#linearGradient15983" id="linearGradient3664" xml:space="default"/>
        <linearGradient x1="71.40531" y1="50.05724" x2="85.14222" y2="50.05724" gradientUnits="userSpaceOnUse"
                        xlink:href="#linearGradient15983" id="linearGradient3667" xml:space="default"/>
        <linearGradient x1="56.42106" y1="43.34957" x2="63.28813" y2="43.34957" gradientUnits="userSpaceOnUse"
                        xlink:href="#linearGradient15999" id="linearGradient3670" xml:space="default"/>
        <linearGradient x1="44.10754" y1="49.98233" x2="57.69463" y2="49.98233" gradientUnits="userSpaceOnUse"
                        xlink:href="#linearGradient15999" id="linearGradient3673" xml:space="default"/>
        <linearGradient x1="-24.79632" y1="488.7344" x2="-2.206815" y2="488.7344" gradientUnits="userSpaceOnUse"
                        xlink:href="#linearGradient2915"
                        gradientTransform="matrix(0.4577595, 0, 0, 0.4577595, 67.5828, -114.0521)"
                        id="linearGradient3694" xml:space="default"/>
        <radialGradient cx="-6.999998" cy="455.3081" r="30.96875" fx="-6.999998" fy="455.3081"
                        gradientUnits="userSpaceOnUse" xlink:href="#linearGradient2923"
                        gradientTransform="matrix(0.4577595, 0, 0, 0.6887818, 67.5828, -200.6767)"
                        id="radialGradient3697" xml:space="default"/>
        <radialGradient cx="-149.3156" cy="323.5967" r="82.98096" fx="-145.7198" fy="369.0347"
                        gradientUnits="userSpaceOnUse" xlink:href="#linearGradient4696"
                        gradientTransform="matrix(1, 0, 0, 1.028765, 0, -17.42151)" id="radialGradient3701"
                        xml:space="default"/>
        <filter x="none" y="none" width="none" height="none" color-interpolation-filters="auto" id="filter3284"
                xml:space="default">
            <feGaussianBlur stdDeviation="2.086507" id="feGaussianBlur3286" xml:space="default" collect="always"/>
        </filter>
        <clipPath clipPathUnits="userSpaceOnUse" id="clipPath3288" xml:space="default">
            <path d="M64.35634 2.917622 C43.38852 2.917622 26.37649 19.92965 26.37649 40.89747 C26.37649 47.93796 28.29704 54.53329 31.63961 60.18831 C31.719 60.32261 31.78842 60.45993 31.86939 60.59316 C36.48136 69.08756 44.72487 79.57205 46.06123 89.66618 C46.91394 93.99633 46.86289 95.88469 50.96327 96.49403 C54.43431 97.00984 59.27984 97.36071 63.13083 97.47881 L63.13083 97.53352 C63.51933 97.53352 63.94921 97.51907 64.37823 97.51163 C64.80724 97.51907 65.23712 97.53352 65.62562 97.53352 L65.62562 97.47881 C69.4766 97.36071 74.32214 97.00984 77.79317 96.49403 C81.89356 95.88469 81.83157 93.99633 82.68427 89.66618 C84.07553 79.1574 92.97285 68.22231 97.4451 59.55367 C100.56 54.0428 102.3471 47.67523 102.3471 40.89747 C102.3471 19.92965 85.32417 2.917617 64.35634 2.917622 z"
                  stroke-linecap="round" stroke-dashoffset="1.0878" id="path3290" xml:space="default"
                  style="fill:#2E2E2E;"/>
        </clipPath>
    </defs>
    <path d="M195.9695 44.69798 A19.17744 2.39718 0 1 1 157.6146 44.69798 A19.17744 2.39718 0 1 1 195.9695 44.69798 z"
          stroke-linecap="round" stroke-dashoffset="1.0878"
          transform="matrix(0.8984375, 0, 0, 1.125, -94.56221, 43.8546)" id="path4940" xml:space="default"
          style="fill:#545454;"/>
    <path d="M64.25422 2.934062 C43.28639 2.934062 26.27448 19.94597 26.27448 40.9138 C26.27448 47.95429 28.19614 54.5562 31.53872 60.21122 C31.61811 60.34552 31.68662 60.47852 31.7676 60.61176 C36.37957 69.10615 44.62178 79.59966 45.95814 89.69379 C46.53747 92.63573 46.7163 94.43495 48.04667 95.48731 C47.91304 95.5315 47.80564 95.58456 47.74627 95.63036 L47.61752 95.63036 L80.848 95.7305 C80.848 95.75046 80.83374 95.768 80.81939 95.78772 C80.83372 95.768 80.83369 95.75046 80.83369 95.7305 C80.83369 95.71053 80.83372 95.69299 80.81939 95.67328 C80.77772 95.61597 80.66173 95.55648 80.50468 95.50162 C81.84568 94.45105 81.99738 92.64681 82.5789 89.69379 C83.97015 79.18501 92.86939 68.25044 97.34164 59.5818 C100.4565 54.07093 102.2483 47.69155 102.2483 40.9138 C102.2483 19.94597 85.22205 2.934058 64.25422 2.934062 z M80.81939 95.67328 C80.83373 95.69299 80.848 95.71053 80.848 95.7305 L80.848 95.67328 L80.81939 95.67328 z"
          fill-opacity="0.6886792" stroke-width="2.184553" stroke-linecap="round" stroke-dashoffset="1.0878"
          id="path4583" xml:space="default" style="fill:#FFE839;"/>
    <path d="M50.20224 116.2171 L55.76688 121.7714 L55.78118 121.7714 C56.10017 121.9987 59.65295 122.6093 64.09729 122.6093 C68.3942 122.6093 72.01331 122.0096 72.53233 121.7927 L72.56093 121.7927 L72.56093 121.782 C72.58973 121.7673 72.60384 121.7545 72.60384 121.7394 L78.55473 116.3459 C77.6195 115.9401 71.57082 115.5532 64.17821 115.5532 C56.78559 115.5532 51.46114 115.54 50.20224 116.2171 z"
          stroke-linecap="round" stroke-dashoffset="1.0878" id="path2900" xml:space="default"
          style="fill:url(#radialGradient3697);"/>
    <path d="M47.54152 94.25709 L47.54152 99.12077 C48.15385 99.21086 48.6287 99.7281 48.6287 100.3653 C48.44868 102.0184 47.26462 101.1311 47.31263 102.7399 C47.35091 104.0226 48.54742 103.7565 48.6287 105.1003 C48.44868 106.7533 47.23244 105.868 47.31263 107.4749 C47.39993 109.2241 48.5252 108.1745 48.6287 109.7923 C48.44868 111.4454 47.26462 110.5438 47.31263 112.1526 C47.35091 113.4353 48.67286 113.1865 48.6287 114.5272 C48.6287 114.8352 48.85147 115.001 50.21655 116.4727 L50.44543 116.4727 C51.15281 116.9582 57.03396 117.3453 64.17821 117.3453 C71.32246 117.3453 77.37527 117.2443 78.08266 116.7588 L78.06835 116.7588 C79.38869 115.521 81.00087 115.793 81.00087 114.6274 C81.00087 113.025 79.87914 113.9201 79.69912 112.2671 C79.80263 110.6493 80.91357 111.6845 81.00087 109.9353 C81.08107 108.3285 79.87914 109.2281 79.69912 107.575 C79.7804 106.2312 80.96259 106.4831 81.00087 105.2004 C81.04889 103.5915 79.87914 104.4931 79.69912 102.8401 C79.69913 102.2029 80.15966 101.6713 80.772 101.5812 L80.772 94.35722 C80.772 94.99601 73.33342 95.51592 64.17821 95.51592 C55.023 95.51591 47.59873 94.99601 47.59873 94.35722 C47.59873 94.32169 47.62523 94.29182 47.67026 94.25709 L47.54152 94.25709 z M55.78118 121.7656 L58.82815 124.8268 C59.03114 124.9715 61.34992 125.0843 64.17821 125.0843 C66.91267 125.0843 69.16937 124.9649 69.49966 124.8268 L69.51397 124.8268 C69.5323 124.8174 69.54258 124.8079 69.54258 124.7982 L72.56093 121.7942 L72.53233 121.7942 C72.01331 122.0111 68.47514 122.1804 64.17821 122.1804 C59.73388 122.1804 56.10017 121.9929 55.78118 121.7656 z"
          stroke-linecap="round" stroke-dashoffset="1.0878" id="path2898" xml:space="default"
          style="fill:url(#linearGradient3694);"/>
    <path d="M-127.0042 455.2813 L-127.0042 455.1563 L-127.0667 455.1563 C-127.0354 455.1993 -127.0042 455.2376 -127.0042 455.2813 z"
          stroke-linecap="round" stroke-dashoffset="1.0878" opacity="0.43"
          transform="matrix(0.4577595, 0, 0, 0.4577595, 138.9094, -114.0521)" id="path2896" xml:space="default"
          style="fill:#6A6A6A;"/>
    <path d="M420.3755 458.6665 A35.38443 3.813891 0 1 1 349.6066 458.6665 A35.38443 3.813891 0 1 1 420.3755 458.6665 z"
          stroke-linecap="round" stroke-dashoffset="1.0878"
          transform="matrix(0.4687238, 0, 0, 0.3034218, -116.2741, -44.80851)" id="path2305" xml:space="default"
          style="fill:#2D2D2D;"/>
    <path d="M-50.20314 451.5 L-56.92189 488.2813 L-46.48439 505.5938 L-35.35939 502.2188 L-31.45314 500.4688 L-36.04689 498.875 L-30.57814 496.2188 L-37.48439 495 L-27.92189 491.625 L-36.95314 488.4375 L-31.45314 487.0313 L-38.54689 484.9063 L-27.57814 481.1875 L-36.57814 478 L-33.04689 476.0625 L-38.54689 473.25 L-33.23439 468.8125 L-36.57814 464.9375 L-36.42189 453.9688 L-50.20314 451.5 z M30.57811 451.375 L20.85936 454.0313 L20.67186 464.9375 L24.04686 469.5313 L17.32811 473.5938 L20.67186 477.125 L16.07811 479.4375 L25.10936 479.9688 L16.60936 483.3125 L21.73436 487.0313 L14.85935 490.2188 L23.70311 490.2188 L15.3906 495.1563 L19.26561 497.2813 L15.0156 499.9375 L22.64061 501 L18.39061 503.4688 L38.54686 508.5938 L30.57811 451.375 z"
          clip-path="url(#clipPath3104)" filter="url(#filter3094)" fill-rule="evenOdd" stroke-width="1px"
          transform="matrix(0.4577595, 0, 0, 0.4577595, 67.5828, -114.0521)" id="path3037" xml:space="default"
          style="fill:#0B0B09;"/>
    <path d="M-198.6019 455.4125 C-199.052 455.5716 -199.2894 455.713 -199.2894 455.8813 C-199.2894 457.2767 -183.0707 458.4125 -163.0706 458.4125 C-143.0706 458.4125 -126.8519 457.2767 -126.8519 455.8813 C-126.8519 455.713 -127.0893 455.5716 -127.5394 455.4125 C-127.5506 455.4085 -127.5591 455.4165 -127.5706 455.4125 C-130.951 456.5641 -145.5706 457.4125 -163.0706 457.4125 C-180.5707 457.4125 -195.1903 456.5641 -198.5706 455.4125 C-198.5823 455.4085 -198.5905 455.4165 -198.6019 455.4125 z"
          filter="url(#filter3159)" stroke-linecap="round" stroke-dashoffset="1.0878"
          transform="matrix(0.4577595, 0, 0, 0.4577595, 138.9094, -114.0521)" id="path3110" xml:space="default"
          style="fill:#2D2D2D;"/>
    <path d="M441.5174 459.6666 C436.0307 462.4637 437.8339 465.7693 444.4838 469.4131 C436.5233 470.4387 429.0006 472.925 422.448 472.2607 C416.9748 468.7293 412.5786 463.1979 419.0579 459.6665 C426.8177 460.8963 434.3225 460.9788 441.5174 459.6666 z"
          filter="url(#filter3437)" fill-rule="evenOdd" stroke-width="1px"
          transform="matrix(0.4577595, 0, 0, 0.4577595, -131.0343, -114.0521)" id="path3163" xml:space="default"
          style="fill:url(#radialGradient3183);"/>
    <path d="M437.7549 472.4886 C429.6457 474.3101 426.7827 477.832 436.4323 479.3716 C431.8568 479.8941 425.468 482.9106 419.7994 482.0667 C416.0462 480.1588 417.6554 476.4769 420.9648 474.2865 C425.0442 475.0352 432.2774 472.6926 437.7549 472.4886 z"
          filter="url(#filter3433)" fill-rule="evenOdd" stroke-width="1px"
          transform="matrix(0.4577595, 0, 0, 0.4577595, -131.0343, -114.0521)" id="path3165" xml:space="default"
          style="fill:url(#radialGradient3181);"/>
    <path d="M422.0242 484.6687 C418.3042 485.912 414.1478 489.2028 420.1172 492.6608 C425.5244 493.56 432.1305 489.9858 437.2798 489.8539 C429.774 487.5787 431.4532 484.2104 437.4735 482.217 L422.0242 484.6687 z"
          filter="url(#filter3429)" fill-rule="evenOdd" stroke-width="1px"
          transform="matrix(0.4577595, 0, 0, 0.4577595, -131.0343, -114.0521)" id="path3167" xml:space="default"
          style="fill:url(#radialGradient3179);"/>
    <path d="M434.4921 492.7597 L420.4351 495.4747 C415.7429 497.8449 416.1582 501.4663 419.7994 502.7253 L435.055 500.4302 C431.6219 498.9793 426.4039 494.7592 434.4921 492.7597 z"
          filter="url(#filter3425)" fill-rule="evenOdd" stroke-width="1px"
          transform="matrix(0.4577595, 0, 0, 0.4577595, -131.0343, -114.0521)" id="path3169" xml:space="default"
          style="fill:url(#radialGradient3177);"/>
    <path d="M395.1709 470.7813 L395.7646 472.5625 L424.0771 471.0625 L395.1709 470.7813 z M395.1709 474.7813 L395.7646 476.5625 L424.0771 475.0625 L395.1709 474.7813 z M395.1709 480.7813 L395.7646 482.5625 L424.0771 481.0625 L395.1709 480.7813 z M395.1709 485.7813 L395.7646 487.5625 L424.0771 486.0625 L395.1709 485.7813 z M395.1709 490.7813 L395.7646 492.5625 L424.0771 491.0625 L395.1709 490.7813 z M395.1709 495.7813 L395.7646 497.5625 L424.0771 496.0625 L395.1709 495.7813 z M395.1709 500.7813 L395.7646 501.9688 L424.0771 500.9688 L395.1709 500.7813 z"
          filter="url(#filter4242)" fill-rule="evenOdd" stroke-width="1px"
          transform="matrix(0.4577595, 0, 0, 0.4577595, -131.0343, -114.0521)" id="path3441" xml:space="default"
          style="fill:url(#linearGradient4516);"/>
    <path d="M457.6427 471.7188 L433.3615 473.6563 L457.9552 473.375 L457.6427 471.7188 z M457.6427 473.7188 L433.3615 475.6563 L457.9552 475.375 L457.6427 473.7188 z M457.6427 477.7188 L433.3615 479.6563 L457.9552 479.375 L457.6427 477.7188 z M457.6427 479.7188 L433.3615 481.6563 L457.9552 481.375 L457.6427 479.7188 z M457.6427 483.7188 L433.3615 485.6563 L457.9552 485.375 L457.6427 483.7188 z M457.6427 487.7188 L433.3615 489.6563 L457.9552 489.375 L457.6427 487.7188 z M457.6427 492.7188 L433.3615 494.6563 L457.9552 494.375 L457.6427 492.7188 z M457.6427 494.7188 L433.3615 496.6563 L457.9552 496.375 L457.6427 494.7188 z M457.6427 498.7188 L433.3615 500.6563 L457.9552 500.375 L457.6427 498.7188 z M457.6427 501.7188 L433.3615 503.6563 L457.9552 503.375 L457.6427 501.7188 z"
          filter="url(#filter4214)" fill-rule="evenOdd" stroke-width="1px"
          transform="matrix(0.4577595, 0, 0, 0.4577595, -131.0343, -114.0521)" id="path3455" xml:space="default"
          style="fill:url(#linearGradient4524);"/>
    <path d="M455.3584 468.4375 L440.3896 468.5938 L441.8896 470.25 L455.3584 468.4375 z M455.3584 471.4375 L440.3896 471.5938 L441.8896 473.25 L455.3584 471.4375 z M453.3584 476.4375 L438.3896 476.75 L439.8896 480.0313 L453.3584 476.4375 z M453.3584 486.4375 L438.3896 486.75 L439.8896 490.0313 L453.3584 486.4375 z M453.3584 497.4375 L438.3896 497.75 L438.8409 500.1323 L453.3584 497.4375 z"
          filter="url(#filter4501)" fill-rule="evenOdd" stroke-width="1px"
          transform="matrix(0.4577595, 0, 0, 0.4577595, -131.0343, -114.0521)" id="path4246" xml:space="default"
          style="fill:url(#linearGradient4526);"/>
    <path d="M458.9747 500.8312 L454.3133 506.1283 C435.6676 508.0647 417.2338 507.0855 398.5881 505.0689 C405.6507 504.7965 412.8629 505.588 420.0729 504.8728 C425.5212 504.3323 428.9554 502.6065 434.3358 502.24 C436.0423 502.1238 432.3429 504.0895 434.0212 503.939 C440.0294 503.4001 453.54 502.0027 458.9747 500.8312 z"
          filter="url(#filter4579)" fill-rule="evenOdd" stroke-width="1px"
          transform="matrix(0.4577595, 0, 0, 0.4577595, -131.0343, -114.0521)" id="path4533" xml:space="default"
          style="fill:#2E2E2E;"/>
    <path d="M-149.3275 230.1155 C-195.1328 230.1155 -232.2965 267.2791 -232.2965 313.0845 C-232.2965 328.4648 -228.101 342.8726 -220.799 355.2263 C-220.6255 355.5197 -220.4739 355.8197 -220.297 356.1107 C-210.2219 374.6672 -192.2135 397.5711 -189.2941 419.6223 C-187.4314 429.0817 -187.5429 433.207 -178.5854 434.5381 C-171.0027 435.6649 -160.4174 436.4314 -152.0047 436.6894 L-152.0047 436.8089 C-151.156 436.8089 -150.2169 436.7774 -149.2797 436.7611 C-148.3425 436.7774 -147.4034 436.8089 -146.5547 436.8089 L-146.5547 436.6894 C-138.142 436.4314 -127.5567 435.6649 -119.974 434.5381 C-111.0165 433.207 -111.1519 429.0817 -109.2892 419.6223 C-106.2499 396.6653 -86.81323 372.777 -77.04337 353.8399 C-70.23875 341.8011 -66.3346 327.8908 -66.3346 313.0845 C-66.3346 267.2791 -103.5222 230.1154 -149.3275 230.1155 z"
          stroke-linecap="round" stroke-dashoffset="1.0878" opacity="0.9588015"
          transform="matrix(0.4577595, 0, 0, 0.4577595, 132.7019, -102.4131)" id="path4684" xml:space="default"
          style="fill:url(#radialGradient3701);"/>
    <path d="M-393.3573 109.3543 C-392.1588 98.41027 -356.1086 97.46966 -356.7079 109.3543 L-355.7079 166.0537 L-394.3573 166.0537 L-393.3573 109.3543 z"
          clip-path="url(#clipPath4995)" filter="url(#filter4991)" stroke="#293E60" stroke-width="3.5"
          stroke-linecap="round" stroke-dashoffset="1.0878"
          transform="matrix(0.350688, 0, 0, 0.350688, 196.0485, 38.58079)" id="path4965" xml:space="default"
          style="fill:none;"/>
    <path d="M-393.3573 109.3543 C-392.1588 98.41027 -356.1086 97.46966 -356.7079 109.3543 L-355.7079 166.0537 L-394.3573 166.0537 L-393.3573 109.3543 z"
          clip-path="url(#clipPath4995)" filter="url(#filter5113)" stroke="#2D585B" stroke-width="3.5"
          stroke-linecap="round" stroke-dashoffset="1.0878"
          transform="matrix(0.1165169, 0, 0, 0.350688, 108.198, 38.58079)" id="path4999" xml:space="default"
          style="fill:none;"/>
    <path d="M-197.1563 61.34375 C-204.5851 61.28484 -209.3974 64.63148 -206.8125 73.75 C-201.2888 93.23589 -195.7813 84.70356 -195.7813 108.5 L-176.1563 109.2813 L-176.1563 109.3438 L-175.375 109.3125 L-174.5938 109.3438 L-174.5938 109.2813 L-154.9688 108.5 C-154.9688 84.70356 -149.4612 93.23589 -143.9375 73.75 C-139.1508 56.86391 -159.6616 59.78754 -175.375 67.4375 C-182.6031 63.91853 -190.828 61.39394 -197.1563 61.34375 z M-195.2188 65.1875 C-189.4492 65.23325 -181.965 67.5417 -175.375 70.75 C-161.0488 63.7754 -142.3546 61.10467 -146.7188 76.5 C-151.7548 94.26562 -156.7813 86.49187 -156.7813 108.1875 L-174.6563 108.9063 L-174.6563 108.9688 L-175.375 108.9375 L-176.0938 108.9688 L-176.0938 108.9063 L-193.9688 108.1875 C-193.9688 86.49188 -198.9952 94.26563 -204.0313 76.5 C-206.3879 68.18649 -201.9917 65.13378 -195.2188 65.1875 z"
          clip-path="url(#clipPath5163)" filter="url(#filter5159)" fill-rule="evenOdd" stroke-width="1px"
          transform="matrix(0.2633781, 0, 0, 0.2633781, 110.8333, 47.13429)" id="path5117" xml:space="default"
          style="fill:#334D74;"/>
    <path d="M-393.3573 109.3543 C-392.1588 98.41027 -356.1086 97.46966 -356.7079 109.3543 L-355.7079 166.0537 L-394.3573 166.0537 L-393.3573 109.3543 z"
          clip-path="url(#clipPath4995)" filter="url(#filter5113)" stroke="#2D585B" stroke-width="3.5"
          stroke-linecap="round" stroke-dashoffset="1.0878"
          transform="matrix(0.1165169, 0, 0, 0.3001834, 108.198, 17.30216)" id="path5167" xml:space="default"
          style="fill:none;"/>
    <path d="M57.63213 64.43516 L44.17004 35.5295" stroke="url(#linearGradient3673)" fill-rule="evenOdd"
          fill-opacity="0.75" stroke-width="0.12" id="path5171" xml:space="default" style="fill:none;"/>
    <path d="M63.22563 49.49234 L56.48356 37.20679" stroke="url(#linearGradient3670)" fill-rule="evenOdd"
          fill-opacity="0.75" stroke-width="0.12" id="path5173" xml:space="default" style="fill:none;"/>
    <path d="M71.46781 64.43516 L85.07972 35.67933" stroke="url(#linearGradient3667)" fill-rule="evenOdd"
          fill-opacity="0.75" stroke-width="0.12" id="path5177" xml:space="default" style="fill:none;"/>
    <path d="M65.8743 49.49234 L73.51531 36.6075" stroke="url(#linearGradient3664)" fill-rule="evenOdd"
          fill-opacity="0.75" stroke-width="0.12" id="path5179" xml:space="default" style="fill:none;"/>
    <path d="M44.97257 36.65732 C49.48669 40.64454 53.31586 38.93555 57.25812 38.15556 C60.04985 39.51542 70.714 40.32447 72.93656 37.7218 C73.83003 39.06413 83.50599 38.82775 84.60096 36.58241"
          filter="url(#filter15979)" stroke="#FFFFFF" fill-rule="evenOdd" fill-opacity="0.75" stroke-width="4"
          stroke-linecap="round" id="path5205" xml:space="default" style="fill:none;"/>
    <path d="M6.158033 -206.1972 L6.158033 -208.9919 L6.158033 -206.1972 z" fill-opacity="0.7568808" stroke-width="0.5"
          stroke-linecap="round" stroke-linejoin="round" stroke-dashoffset="4" id="path2276" xml:space="default"
          style="fill:#FFFFFF;"/>
    <path d="M44.97257 36.65732 C49.48669 40.64454 53.31586 38.93555 57.25812 38.15556 C60.04985 39.51542 70.714 40.32447 72.93656 37.7218 C73.83003 39.06413 83.50599 38.82775 84.60096 36.58241"
          stroke="#FFFFFF" fill-rule="evenOdd" fill-opacity="0.75" stroke-width="0.9" stroke-linecap="round"
          id="path15969" xml:space="default" style="fill:none;"/>
    <path d="M100.543 41.49286 C100.2819 47.66113 100.271 53.53408 97.40715 58.60091 C92.9349 67.26955 84.03565 78.20412 82.6444 88.7129 C81.7917 93.04304 81.85248 94.92704 77.7521 95.53638 C74.28106 96.05219 69.44384 96.40531 65.59286 96.52342 L65.59286 96.58064 C65.20436 96.58064 64.76304 96.55947 64.33402 96.55203 C63.90501 96.55946 63.47799 96.58064 63.08949 96.58064 L63.08949 96.52342 C59.2385 96.40532 54.4013 96.0522 50.93025 95.53638 C46.82987 94.92704 46.87634 93.04305 46.02364 88.7129 C44.68728 78.61876 36.44507 68.13956 31.8331 59.64517 C31.75212 59.51194 31.68361 59.36463 31.60422 59.23033 C28.53331 54.03492 27.31557 49.62968 27.0313 43.23161 C27.3796 19.01877 43.85263 5.17179 64.31972 5.17179 C84.75334 5.171785 99.70606 21.26401 100.543 41.49286 z"
          clip-path="url(#clipPath3288)" filter="url(#filter3284)" stroke="#FFAA00" stroke-width="6"
          stroke-linecap="round" stroke-dashoffset="1.0878" id="path3278" xml:space="default" style="fill:none;"/>
    <path d="M64.17821 123.9458 C61.1617 123.9458 58.71371 124.2973 58.71371 124.7555 C58.71371 125.2137 61.16169 125.5964 64.17821 125.5964 C67.19473 125.5964 69.64272 125.2137 69.64272 124.7555 C69.64272 124.2973 67.19472 123.9458 64.17821 123.9458 z"
          stroke-linecap="round" stroke-dashoffset="1.0878" id="path2266" xml:space="default" style="fill:#6A6A6A;"/>
    <path d="M-116.9593 310.7723 A29.66359 29.66359 0 1 1 -176.2865 310.7723 A29.66359 29.66359 0 1 1 -116.9593 310.7723 z"
          stroke-linecap="round" stroke-dashoffset="1.0878"
          transform="matrix(0.7566428, 0, 0, 0.4621304, 174.9412, -123.4322)" id="path4834" xml:space="default"
          style="fill:url(#linearGradient4842);"/>
    <path d="M91.43053 23.79643 L86.89277 28.21351 C92.25587 34.32775 93.72022 42.4676 90.80297 50.08169 L96.76482 52.66435 C97.85876 49.59263 98.47855 46.28478 98.47855 42.84057 C98.47855 35.57008 95.81632 28.92299 91.43053 23.79643 z"
          filter="url(#filter17966)" stroke-linecap="round" stroke-dashoffset="1.0878" opacity="0.9588015" id="path5533"
          xml:space="default" style="fill:url(#radialGradient3659);"/>
    <path d="M37.98802 23.69773 L41.55646 27.17127 C37.33899 31.97942 36.18743 38.38049 38.48153 44.36811 L33.7932 46.39909 C32.93294 43.98353 32.44555 41.38228 32.44555 38.6738 C32.44555 32.95638 34.53909 27.72919 37.98802 23.69773 z"
          filter="url(#filter17962)" stroke-linecap="round" stroke-dashoffset="1.0878" opacity="0.7715356" id="path5550"
          xml:space="default" style="fill:url(#radialGradient3656);"/>
</svg>