<?xml version="1.0" encoding="utf-8"?>
<!DOCTYPE svg PUBLIC "-//W3C//DTD SVG 1.1//EN" "http://www.w3.org/Graphics/SVG/1.1/DTD/svg11.dtd">
<svg x="0px" y="0px" width="32" height="32" overflow="hidden" viewBox="0, 0, 233.131, 233.131" preserveAspectRatio="xMidYMid" font-size="0" id="Capa_1" xml:space="preserve" xmlns="http://www.w3.org/2000/svg" xmlns:xlink="http://www.w3.org/1999/xlink" xmlns:xml="http://www.w3.org/XML/1998/namespace" version="1.1">
  <g xml:space="preserve">
    <path d="M187.188 0 L45.943 0 C36.164 0 28.208 7.963 28.208 17.75 L28.208 215.396 C28.208 225.175 36.164 233.13 45.943 233.13 L187.188 233.13 C196.967 233.13 204.922 225.174 204.922 215.396 L204.922 17.75 C204.923 7.963 196.967 0 187.188 0 z M189.923 215.396 C189.923 216.904 188.697 218.13 187.189 218.13 L45.943 218.13 C44.46 218.13 43.208 216.878 43.208 215.396 L43.208 17.75 C43.208 16.234 44.435 15 45.943 15 L187.188 15 C188.696 15 189.922 16.234 189.922 17.75 L189.922 215.396 z" xml:space="preserve" />
    <path d="M171.136 33.37 L61.995 33.37 C57.853 33.37 54.495 36.728 54.495 40.87 L54.495 184.118 C54.495 188.26 57.853 191.618 61.995 191.618 L171.136 191.618 C175.278 191.618 178.636 188.26 178.636 184.118 L178.636 40.87 C178.636 36.728 175.278 33.37 171.136 33.37 z M163.636 176.618 L69.495 176.618 L69.495 48.37 L163.636 48.37 L163.636 176.618 z" xml:space="preserve" />
    <rect x="82.824" y="70.083" width="67.482" height="15" xml:space="preserve" />
    <rect x="82.824" y="139.905" width="67.482" height="15" xml:space="preserve" />
    <rect x="82.824" y="104.995" width="67.482" height="15" xml:space="preserve" />
  </g>
  <g xml:space="preserve" />
  <g xml:space="preserve" />
  <g xml:space="preserve" />
  <g xml:space="preserve" />
  <g xml:space="preserve" />
  <g xml:space="preserve" />
  <g xml:space="preserve" />
  <g xml:space="preserve" />
  <g xml:space="preserve" />
  <g xml:space="preserve" />
  <g xml:space="preserve" />
  <g xml:space="preserve" />
  <g xml:space="preserve" />
  <g xml:space="preserve" />
  <g xml:space="preserve" />
</svg>