<?xml version="1.0" encoding="utf-8"?>
<!DOCTYPE svg PUBLIC "-//W3C//DTD SVG 1.1//EN" "http://www.w3.org/Graphics/SVG/1.1/DTD/svg11.dtd">
<svg x="0" y="0" width="32" height="32" overflow="hidden" viewBox="0, 0, 200, 200" preserveAspectRatio="xMidYMid" font-size="0" id="svg602" xml:space="default" xmlns="http://www.w3.org/2000/svg" xmlns:xlink="http://www.w3.org/1999/xlink" xmlns:xml="http://www.w3.org/XML/1998/namespace" version="1.1">
  <defs id="defs605" xml:space="default" />
  <path d="M21.61737 1.61017 L21.78137 7.803825 L97.75462 102.5063 L20.93867 193.8962 L20.71681 199.6516 L169.6703 198.8796 C171.125 180.446 175.1212 161.3839 178.5454 143.2085 L173.7045 141.9983 C169.1931 152.1756 165.9859 163.0593 156.3577 169.8169 C145.8019 177.2252 131.872 176.2885 119.647 176.2885 L51.06659 176.2885 L120.9736 91.84626 L57.94209 13.05188 L94.63531 12.90576 C118.158 12.90576 151.6204 7.224609 160.9279 35.49696 C162.519 40.32984 163.6219 45.34872 164.0225 50.42326 L169.2669 50.42326 L165.2328 1.61017 z" stroke-width="0.403414" font-size="12px" id="path603" xml:space="default" />
</svg>