<?xml version="1.0" encoding="utf-8"?>
<!DOCTYPE svg PUBLIC "-//W3C//DTD SVG 1.1//EN" "http://www.w3.org/Graphics/SVG/1.1/DTD/svg11.dtd">
<svg x="0" y="0" width="32" height="32" overflow="hidden" viewBox="0, 0, 60, 60" preserveAspectRatio="xMidYMid" font-size="0" id="svg1" xml:space="default" xmlns="http://www.w3.org/2000/svg" xmlns:xlink="http://www.w3.org/1999/xlink" xmlns:xml="http://www.w3.org/XML/1998/namespace" version="1.1">
  <defs id="d1" xml:space="default">
    <linearGradient x1="0%" y1="0%" x2="100%" y2="0%" gradientUnits="objectBoundingBox" id="linearGradient772" xml:space="default">
      <stop offset="0%" stop-color="#000000" stop-opacity="1" id="stop773" xml:space="default" />
      <stop offset="100%" stop-color="#FFFFFF" stop-opacity="1" id="stop774" xml:space="default" />
    </linearGradient>
    <linearGradient x1="0%" y1="0%" x2="100%" y2="0%" gradientUnits="objectBoundingBox" xlink:href="#linearGradient772" id="linearGradient775" xml:space="default" />
  </defs>
  <path d="M43.18701 46.68401 L43.18701 6.736025" stroke="#333333" fill-rule="evenOdd" fill-opacity="0.75" stroke-width="5" stroke-linecap="round" stroke-linejoin="round" transform="translate(0.719783, 0.359892)" id="path850" xml:space="default" style="fill:none;" />
  <path d="M3.874308 13.06822 L5.749308 7.970566 C5.917276 7.521347 6.055949 7.189316 6.165324 6.974472 C6.274699 6.755722 6.425089 6.572128 6.616496 6.423691 C6.807901 6.271347 7.057901 6.195175 7.366496 6.195175 C7.682901 6.195175 7.938761 6.271347 8.134073 6.423691 C8.333292 6.576035 8.489542 6.767441 8.602823 6.99791 C8.720011 7.224472 8.85673 7.548691 9.01298 7.970566 L10.88212 13.06822 C10.99931 13.37682 11.07548 13.6151 11.11064 13.78307 C11.1497 13.94713 11.16923 14.11314 11.16923 14.28111 C11.16923 14.5233 11.08329 14.71861 10.91142 14.86705 C10.74345 15.01158 10.51884 15.08385 10.23759 15.08385 C10.04228 15.08385 9.878214 15.04478 9.745401 14.96666 C9.612589 14.88853 9.505167 14.77916 9.423136 14.63853 C9.345011 14.49791 9.274698 14.32603 9.212198 14.12291 L8.977823 13.35533 L5.784464 13.35533 L5.54423 14.12291 C5.442667 14.43932 5.319621 14.67955 5.175089 14.84361 C5.034464 15.00377 4.817667 15.08385 4.524699 15.08385 C4.247355 15.08385 4.020792 15.01158 3.845011 14.86705 C3.673136 14.71861 3.587198 14.5233 3.587198 14.28111 C3.587198 14.13658 3.602823 13.98619 3.634073 13.82994 C3.66923 13.66978 3.749308 13.41588 3.874308 13.06822 z M8.397745 11.53307 L7.425089 8.374863 L7.401651 8.374863 L6.358683 11.53307 L8.397745 11.53307 z" stroke-width="1pt" font-family="VAG Rounded Black SSi" font-size="12" font-weight="900" transform="matrix(2.72409, 0, 0, 2.72409, -2.585736, -12.84039)" id="path838" xml:space="default" style="fill:#0000FF;" />
  <path d="M17.49436 40.90293 L20.65842 40.90293 C20.99045 40.90293 21.24436 40.98496 21.42014 41.14902 C21.59983 41.30918 21.68967 41.52988 21.68967 41.81113 C21.68967 42.09238 21.60178 42.31504 21.426 42.4791 C21.25022 42.64317 20.99436 42.7252 20.65842 42.7252 L16.35178 42.7252 C15.8635 42.7252 15.51194 42.6334 15.29709 42.44981 C15.08615 42.26231 14.98069 41.99473 14.98069 41.64707 C14.98069 41.49863 15.00412 41.37168 15.051 41.26621 C15.09787 41.15684 15.19553 40.99473 15.34397 40.77988 L19.0178 35.83457 L16.1467 35.83457 C15.81858 35.83457 15.56467 35.75645 15.38498 35.6002 C15.2053 35.44395 15.11545 35.23496 15.11545 34.97324 C15.11545 34.80137 15.15451 34.64902 15.23264 34.51621 C15.31076 34.3834 15.42795 34.27988 15.5842 34.20567 C15.74436 34.13145 15.93186 34.09434 16.1467 34.09434 L20.32444 34.09434 C20.63694 34.09434 20.88303 34.14902 21.06272 34.2584 C21.2424 34.36387 21.36155 34.49082 21.42014 34.63926 C21.48264 34.78379 21.51389 34.93027 21.51389 35.07871 C21.51389 35.20371 21.47873 35.34434 21.40842 35.50059 C21.33811 35.65684 21.2424 35.82285 21.12131 35.99863 C21.00022 36.17442 20.82639 36.4166 20.59983 36.7252 L17.49436 40.90293 z" stroke-width="1pt" font-family="VAG Rounded Black SSi" font-size="12" font-weight="900" transform="matrix(2.72409, 0, 0, 2.72409, -32.81664, -59.62631)" id="path837" xml:space="default" style="fill:#FF0000;" />
  <path d="M28.413 -2.341068 L15.49379 6.940182 L28.10435 17.25268 L28.413 -2.341068 z" stroke="#333333" fill-rule="evenOdd" stroke-width="3.712009" stroke-linecap="round" stroke-linejoin="round" transform="matrix(-2.588533E-17, -1, 1, -2.588533E-17, 36.45098, 71.15664)" id="path869" xml:space="default" style="fill:#FFFFFF;" />
</svg>