<?xml version="1.0" encoding="utf-8"?>
<!DOCTYPE svg PUBLIC "-//W3C//DTD SVG 1.1//EN" "http://www.w3.org/Graphics/SVG/1.1/DTD/svg11.dtd">
<svg x="0" y="0" width="32" height="32" overflow="hidden" viewBox="0, 0, 512, 512" preserveAspectRatio="xMidYMid" font-size="0" id="Layer_1" xml:space="preserve" xmlns="http://www.w3.org/2000/svg" xmlns:xlink="http://www.w3.org/1999/xlink" xmlns:xml="http://www.w3.org/XML/1998/namespace" version="1.1">
  <defs id="defs15" xml:space="preserve" />
  <g id="g10" xml:space="preserve">
    <polygon points="0,240.128 232.19,240.128 232.19,66.915 0,95.924" clip-rule="evenOdd" fill-rule="evenOdd" id="polygon2" xml:space="preserve" style="fill:#E1584B;" />
    <polygon points="232.19,271.856 0,271.856 0,416.061 232.19,445.085" clip-rule="evenOdd" fill-rule="evenOdd" id="polygon4" xml:space="preserve" style="fill:#0CA3D1;" />
    <polygon points="263.937,271.856 263.937,448.71 512,480 512,271.856" clip-rule="evenOdd" fill-rule="evenOdd" id="polygon6" xml:space="preserve" style="fill:#F3AB4B;" />
    <polygon points="263.937,240.128 512,240.128 512,32 263.937,62.821" clip-rule="evenOdd" fill-rule="evenOdd" id="polygon8" xml:space="preserve" style="fill:#36B39B;" />
  </g>
  <g transform="matrix(0.1667976, 0, 0, 0.1667976, 268.7389, 239.9349)" id="g958" xml:space="preserve">
    <path d="M-330.3986 -790.2375 C-349.7547 -751.9788 -362.4959 -704.9406 -363.6049 -647.2405 C-368.3087 -402.496 -352.9543 -440.3476 -362.4296 -328.0432 C-365.9168 -286.7123 -384.2703 -224.7341 -414.4088 -164.243 C-448.8664 -95.08304 -494.4135 -40.93163 -521.1686 -1.178177 C-575.915 80.16544 -628.7745 150.6021 -668.6671 231.4184 C-691.3366 277.3435 -707.6246 341.9099 -714.7015 388.3323 C-719.4326 419.363 -719.9821 459.4858 -718.9224 497.0879 C-746.9772 521.4609 -761.3873 562.5116 -790.2151 593.8072 C-808.8094 613.9459 -844.751 620.4867 -884.5847 628.2024 C-918.76 634.7432 -954.9213 648.0464 -967.5624 668.4054 C-968.9738 670.6767 -970.2495 673.0318 -971.4203 675.4517 C-1000.203 730.8691 -964.9756 825.9817 -982.1569 896.3417 C-989.4324 926.2551 -1001.854 954.4044 -1002.075 980.2015 C-1002.15 993.5051 -999.1361 1007.616 -989.8743 1023.638 C-979.7322 1041.278 -957.4619 1053.845 -925.7842 1064.797 C-896.2382 1075.013 -857.8725 1083.98 -813.2604 1094.49 L-797.8251 1098.091 C-777.7612 1102.87 -757.7696 1107.646 -737.5582 1111.689 C-724.402 1114.409 -716.7573 1115.731 -710.2184 1116.908 C-681.776 1121.979 -670.9718 1123.963 -595.1224 1153.582 C-576.8207 1160.712 -556.5366 1168.355 -535.0754 1174.896 C-492.6677 1188.052 -444.7472 1197.607 -400.5011 1189.596 C-378.0835 1185.554 -356.917 1177.027 -338.1021 1162.329 C-318.6255 1147.116 -299.8836 1126.61 -286.5804 1105.81 C-283.0241 1100.264 -279.7359 1094.522 -276.8565 1088.613 C-274.3333 1083.627 -272.0933 1078.518 -270.2232 1073.303 C-268.4405 1068.55 -266.9544 1063.619 -265.8717 1058.668 C-248.0258 1049.77 -203.8653 1036.342 -98.7218 1035.325 C59.73825 1033.781 165.2794 1090.963 165.2794 1090.963 L165.3544 1089.788 C166.6768 1097.285 168.2939 1104.266 170.3524 1110.954 C173.3665 1120.729 177.4082 1129.696 182.8465 1138.369 C188.3596 1146.968 195.1951 1155.126 203.8676 1163.138 C213.2747 1171.811 224.5936 1179.823 237.5298 1186.658 C249.5833 1192.979 263.1068 1198.27 277.9527 1202.166 C291.4761 1205.695 306.1018 1208.047 321.6096 1208.781 C336.0896 1209.516 351.2283 1208.855 367.031 1206.577 C393.7106 1202.755 414.2894 1194.303 432.0017 1183.352 C449.274 1172.695 463.3851 1159.906 477.7905 1146.824 L478.2324 1146.457 L478.2324 1146.457 C487.7142 1137.857 497.3416 1129.112 507.9986 1121.1 C515.127 1115.734 521.6693 1110.736 527.9172 1105.886 C537.1772 1098.757 542.3229 1094.715 547.5413 1090.599 C563.1965 1078.325 579.3644 1065.536 595.5345 1053.482 C612.2918 1041.061 630.0772 1028.42 649.4081 1016.073 C664.0338 1006.666 680.4968 996.0087 696.2991 985.6464 C712.6163 974.915 729.6666 963.6707 745.7621 952.6463 C774.5112 933.1197 814.1884 908.9173 829.2192 877.4807 C834.2393 867.7557 836.9345 857.3319 836.2051 846.1268 C833.8535 810.1873 791.2986 777.7747 753.6693 745.5822 C735.3674 729.8544 716.9203 714.2733 707.2928 698.3237 C699.5026 685.4624 690.0936 666.0584 687.4489 651.9473 C680.0211 612.8159 680.1796 583.5823 661.6516 557.7332 C644.6481 534.0109 629.7861 527.1869 603.579 524.2261 C599.6507 523.7824 595.9577 523.2313 592.3776 522.6494 C609.403 459.9694 614.285 420.174 611.1702 367.6674 C604.0548 247.7198 528.7018 120.7773 430.2297 -23.81796 C397.0201 -72.5826 358.1642 -123.0136 330.5617 -166.2482 C298.5848 -216.3345 265.2762 -274.2633 252.4403 -326.8958 C242.7756 -366.5252 238.6686 -441.3252 237.3498 -565.9008 C242.0536 -756.7734 182.9616 -844.895 111.4497 -899.8712 C39.93639 -954.847 -65.01747 -953.965 -102.8686 -950.6581 L-102.8686 -950.6581 L-102.8686 -950.6581 L-102.8696 -950.6591 C-134.6031 -947.8923 -268.0947 -915.8706 -330.3979 -790.2372 z" fill-rule="evenOdd" id="path3216" xml:space="preserve" nodetypes="csssssccccccccccccccccccccccccccccccccccccccccccccccccsccsssscscccccc" connector-curvature="0" style="fill:#282828;" />
    <path d="M-806.0478 629.3009 C-843.6537 647.3687 -930.2482 647.0013 -951.2549 682.9916 C-974.3175 722.579 -959.4072 766.4285 -959.1874 816.9617 C-959.113 852.7299 -959.7017 892.5405 -974.7575 934.9195 C-987.0975 969.8082 -991.2837 982.1468 -973.5834 1012.849 C-955.8826 1043.624 -879.0565 1058.387 -775.1271 1083.213 C-671.1249 1107.966 -704.2504 1089.677 -587.8337 1135.141 C-515.7081 1163.344 -413.9091 1197.939 -347.9528 1146.452 C-323.6413 1127.428 -283.7596 1084.389 -281.3348 1042.45 C-279.9391 1018.505 -282.1438 992.9451 -287.8716 977.4476 C-306.8952 925.7369 -344.9411 903.6301 -381.0764 849.5723 C-447.2544 749.1676 -517.5439 653.9794 -573.732 570.3951 C-613.3938 511.2697 -645.2704 496.9467 -672.2266 501.6472 C-755.0763 516.2631 -728.3403 591.9877 -806.0494 629.3008 L-806.0494 629.3008 L-806.0494 629.3008 L-806.0484 629.3008 z" fill-rule="evenOdd" id="path3218" xml:space="preserve" connector-curvature="0" style="fill:#FCC624;" />
    <path d="M247.7625 543.8185 C211.2701 569.5997 219.1736 646.8718 217.0325 687.5751 C213.782 749.8502 213.338 819.2906 211.1969 846.9185 C207.6504 892.6451 173.0043 995.9198 177.2162 1044.676 C181.3534 1093.359 184.8984 1121.873 215.1862 1149.797 C245.5471 1177.721 298.9576 1198.553 364.9258 1189.023 C430.8945 1179.492 455.862 1138.493 498.6362 1106.434 C541.3336 1074.373 585.2891 1036.328 641.7273 1000.13 C698.1651 963.8589 789.0299 904.4644 802.1053 888.4347 C815.1807 872.3306 824.0452 858.4435 814.59 837.3149 C805.2078 816.1867 772.2618 783.5351 736.2848 753.8378 C642.4672 676.2714 682.9703 604.1696 643.7966 566.0533 C631.8455 553.1766 622.9643 546.0802 609.0934 543.2557 C534.2178 528.007 513.6475 557.4163 469.6826 553.0953 C422.2768 548.4374 440.0992 558.8593 342.7841 545.8735 C309.2864 542.0684 270.8871 528.8042 247.7625 543.8156 L247.7625 543.8156 z" fill-rule="evenOdd" id="path3220" xml:space="preserve" connector-curvature="0" style="fill:#FCC624;" />
    <path d="M-310.7167 -315.6327 C-309.8691 -314.7367 -310.185 -313.1499 -309.2425 -312.2115 C-298.1591 -301.1726 -285.3403 -290.3518 -274.1639 -277.691 C-261.3134 -263.1331 -249.5365 -246.8498 -238.5993 -236.8721 C-218.4885 -218.5254 -199.3826 -208.7207 -171.4712 -205.2758 C-117.5671 -198.6225 -77.26508 -213.5696 -31.80698 -243.55 C-10.41858 -257.6611 19.20008 -283.6789 36.32508 -296.5415 C64.84148 -318.0032 72.99958 -316.3129 81.45168 -327.1155 C90.19858 -338.36 94.46057 -367.7589 91.88857 -381.6496 C89.83128 -392.3809 86.08247 -399.5092 74.46957 -406.8594 C61.53327 -415.0172 39.26437 -423.6163 0.6783752 -436.6984 L0.6063752 -436.7714 C-19.13925 -443.9874 -39.48171 -451.258 -56.97888 -457.9361 C-96.15248 -473.1496 -121.6772 -484.6764 -157.3017 -481.8236 C-173.6848 -480.5117 -189.8112 -476.9925 -203.6805 -471.6082 L-203.6805 -471.5356 C-229.776 -460.559 -255.0301 -443.6788 -275.7579 -429.1606 C-293.9852 -416.4449 -312.6543 -399.5417 -323.4585 -382.1949 C-329.862 -371.9308 -339.998 -350.7532 -330.5426 -338.5769 C-330.5176 -338.5455 -306.3928 -326.187 -282.177 -311.8669 C-243.0276 -288.717 -198.3079 -276.7603 -158.3804 -278.9843 C-126.6232 -280.7528 -91.17607 -290.7831 -65.58047 -303.1027 C-39.81967 -315.5023 -8.144768 -335.0576 22.72929 -358.8805 C27.50739 -362.4089 36.6088 -371.3459 42.29889 -374.0422 C47.31629 -376.4192 63.48969 -375.0403 62.74709 -369.5478 C62.16549 -365.247 43.17179 -357.5703 36.32539 -352.4852 C2.551594 -327.4009 -35.04947 -302.8321 -59.48866 -291.568 C-84.73846 -279.9306 -127.2346 -266.4943 -155.9566 -264.799 C-182.1965 -263.2508 -204.4783 -266.1617 -227.2884 -273.8747 C-249.3415 -281.3318 -262.4146 -287.8068 -285.8955 -301.3685 C-293.3844 -305.6936 -300.5841 -309.3044 -310.7194 -315.6327 z" fill-rule="evenOdd" id="path3222" xml:space="preserve" nodetypes="cccssccccccccsccccccscccccscsccc" connector-curvature="0" style="fill:#FCC624;" />
    <path d="M168.8613 -303.748 C125.839 -304.2569 84.29305 -270.8793 70.63477 -225.8867 C59.32259 -188.3524 59.83594 -158.5292 61.67188 -142.2207 L61.67188 -142.2187 C74.30788 -138.3992 87.45447 -133.4023 102.5137 -127.5996 C93.18437 -148.6088 93.8477 -175.8618 106.1875 -198.3398 C123.8173 -230.5873 158.7091 -240.9445 184.125 -221.4042 C209.468 -201.8655 215.7846 -159.9213 198.082 -127.6738 C191.6904 -115.994 183.0227 -107.1803 173.3262 -101.5976 C190.1471 -95.79479 203.664 -90.87361 214.6094 -86.39252 C228.7288 -104.3167 247.4265 -132.9095 255.3047 -157.3515 C268.1235 -197.1197 258.2442 -267.6822 204.7676 -294.8613 C193.0696 -300.8064 180.9076 -303.6055 168.8613 -303.748 z M-112.4375 -284.6113 C-119.2914 -284.6236 -126.6274 -283.343 -134.4551 -280.6113 L-134.4571 -280.6113 C-168.3934 -268.7859 -181.322 -211.7094 -169.3477 -159.9961 C-162.7361 -131.4953 -151.0583 -104.3909 -133.6485 -87.56836 C-130.0491 -90.35886 -126.3771 -93.07652 -122.7032 -95.57422 C-119.8399 -97.63032 -116.9757 -99.61479 -114.1836 -101.5254 C-136.1472 -112.2492 -150.6163 -145.524 -146.7969 -177.7715 C-142.8303 -211.3406 -120.4997 -231.1743 -96.91997 -221.9922 C-73.34016 -212.8101 -57.47475 -178.0652 -61.44145 -144.4961 C-61.95425 -140.0894 -62.76163 -135.9016 -63.86333 -132.0078 C-56.88613 -135.6072 -50.56865 -138.4723 -44.69145 -140.75 C-43.22095 -141.3372 -41.82769 -141.9272 -40.43169 -142.3672 C-38.22829 -159.2625 -38.52146 -177.7001 -42.19536 -196.1387 C-52.4843 -246.774 -75.42664 -284.5451 -112.4375 -284.6113 z M244.3594 29.89063 C236.2789 34.07732 222.174 39.95361 200.6504 56.62891 C185.0055 68.8232 156.0646 94.16557 133.8809 109.5176 C119.3959 119.5458 103.5417 128.2163 87.94531 135.0059 C65.49961 144.7801 43.58772 150.6602 27.07422 151.0938 C-32.12268 154.224 -60.28159 139.5627 -87.27148 111.4355 C-98.59219 99.63764 -107.1681 86.7125 -121.4492 70.94141 C-127.7761 63.95451 -136.5304 54.67157 -145.457 48.29297 C-145.6996 56.04507 -170.5523 221.4995 -204 294.6426 C-237.4478 367.7858 -235.8072 342.9337 -258.2852 419.3867 C-289.5022 447.7128 -323.7244 523.817 -346.2559 589.3262 C-369.4992 666.2344 -387.1099 725.5363 -388.5645 811.6836 C-400.1812 788.53 -408.5369 763.6213 -411.8203 736.5273 C-423.3911 641.3847 -398.2035 527.9027 -323.0098 446.209 C-319.8265 442.7502 -319.8926 441.3364 -321.3047 441.4258 C-322.403 441.4954 -324.3161 442.4746 -326.1484 444.1094 C-420.056 527.8958 -442.3842 682.4354 -432.7266 751.4844 C-425.8222 800.8497 -412.9436 843.4438 -386.7402 878.0723 C-386.7342 878.1587 -386.7302 878.2416 -386.7246 878.3281 C-386.2818 878.8332 -385.8303 879.3256 -385.3828 879.8242 C-378.5037 888.6901 -370.7449 897.0333 -361.9473 904.8145 C-361.9466 904.8151 -361.9463 904.8154 -361.9453 904.8165 C-346.606 921.7522 -327.4553 940.2373 -288.4511 969.8809 C-216.6717 1024.433 -166.3675 1053.237 -156.4687 1088.713 C-143.2924 1135.937 -172.8271 1167.167 -209.6543 1186.369 C-182.7275 1213.31 -96.76981 1268.505 59.97659 1261.607 C198.019 1255.533 284.5852 1203.289 358.4805 1113.148 C358.9529 1092.406 361.2228 1057.696 362.25 1020.229 C363.2304 984.4465 363.4381 948.6129 368.9141 920.8223 C370.2034 914.2819 372.6707 908.0876 374.8789 902.6407 C383.8944 880.4021 408.158 865.2521 431.377 864.1602 C443.5842 863.5859 456.3976 862.7028 468.6485 865.2442 C470.913 847.5485 472.674 830.5272 473.9121 813.9805 C489.7299 809.3938 517.5485 805.0657 550.9668 803.9512 C602.749 802.2241 664.7754 807.0558 696.0957 826.6973 C689.1179 820.5942 680.5656 815.2103 671.457 810.8516 C634.8138 793.3168 584.626 787.4178 533.4707 785.8282 C547.1411 749.5385 561.2713 697.4855 559.7734 658.5469 C555.8416 556.3455 505.0389 477.6223 432.6367 422.8633 C430.8378 421.503 429.0858 420.4712 428.4063 420.3692 C427.7267 420.2672 428.1187 421.0954 430.6133 423.4571 C514.459 502.8253 542.4864 593.2184 535.5 680.9297 C532.7733 715.1621 517.9181 753.9656 500.918 785.3204 C492.9517 785.3074 483.5551 785.7219 475.5176 785.8653 C479.5799 678.4351 458.4597 588.3033 398.5781 462.8184 C392.8482 451.9474 365.4419 405.8411 349.082 392.8282 C336.2972 330.2795 334.6129 333.3484 309.0352 276.088 C270.2441 189.2493 256.1865 88.87569 244.3594 29.89069 z" fill-rule="evenOdd" transform="translate(-160, -342.6378)" id="path3224" xml:space="preserve" connector-curvature="0" style="fill:#F5F5F5;" />
    <path d="M552.0433 533.1688 C553.3327 530.7475 555.9444 521.0378 556.142 519.066 C561.0756 469.8943 465.4206 458.83 390.9668 461.3134 C357.1827 462.4401 330.8533 466.4246 315.1292 471.0669 C287.7354 479.1543 274.247 497.7067 271.2121 520.9164 C265.0683 567.9028 279.0109 667.1619 325.6315 688.8784 C373.8419 711.3349 446.8509 679.2803 489.9489 630.9289 C519.1329 598.1886 537.7173 560.0696 552.0432 533.1688 z" fill-rule="evenOdd" id="path3232" xml:space="preserve" connector-curvature="0" style="fill:#282828;" />
    <path d="M-180.5552 -456.538 C-183.7149 -461.2413 -196.8726 -458.8167 -203.1934 -456.538 C-209.4412 -454.1859 -214.2919 -447.3504 -211.7184 -442.7196 C-210.3962 -440.368 -207.5294 -439.1912 -205.3251 -439.6329 C-201.9437 -440.368 -198.3423 -444.1167 -193.7859 -447.5708 C-188.9348 -451.3195 -181.8794 -454.6262 -180.5571 -456.538 L-180.5571 -456.538 z" fill-rule="evenOdd" id="path3234" xml:space="preserve" connector-curvature="0" style="fill:#282828;" />
    <path d="M-139.6921 -456.3906 C-141.6035 -458.3749 -118.3036 -463.1531 -109.118 -455.9503 C-99.85832 -448.7475 -100.4455 -443.0887 -103.2379 -440.075 C-106.1772 -436.9883 -133.2984 -453.8185 -139.6921 -456.392 L-139.6921 -456.391 z" fill-rule="evenOdd" id="path3236" xml:space="preserve" connector-curvature="0" style="fill:#282828;" />
  </g>
</svg>