<?xml version="1.0" encoding="utf-8"?>
<!DOCTYPE svg PUBLIC "-//W3C//DTD SVG 1.1//EN" "http://www.w3.org/Graphics/SVG/1.1/DTD/svg11.dtd">
<svg xmlns:xml="http://www.w3.org/XML/1998/namespace" x="0px" y="0px" width="32" height="32" overflow="hidden" viewBox="0, 0, 1000, 1000" preserveAspectRatio="xMidYMid" font-size="0" id="svg" xml:space="preserve"  xmlns="http://www.w3.org/2000/svg" version="1.1">
  <path d="M220 640 C277.9 640 325 687.1 325 745 C325 802.9 277.9 850 220 850 C162.1 850 115 802.9 115 745 C115 687.1 162.1 640 220 640 M220 605 C142.7 605 80 667.7 80 745 C80 822.3 142.7 885 220 885 C297.3 885 360 822.3 360 745 C360 667.7 297.3 605 220 605 z" id="pGraySmall" xml:space="preserve" style="fill:#808080;" />
  <path d="M778.4 570 C875.5 570 954.8 649 954.8 746.1 C954.8 843.2 876 920 778.9 920 L221.1 920 C124 920 45 843.2 45 746.1 C45 649 124 570 221.1 570 L777.8 570 M778.9 535 L221.1 535 C104.5 535 10 629.5 10 746.1 C10 862.7 104.5 955 221.1 955 L778.9 955 C895.5 955 990 862.7 990 746.1 C990 629.5 895.5 535 778.9 535 z" id="pGray" xml:space="preserve" style="fill:#808080;" />
  <path d="M780 150 C837.9 150 885 197.1 885 255 C885 312.9 837.9 360 780 360 C722.1 360 675 312.9 675 255 C675 197.1 722.1 150 780 150 M780 115 C702.7 115 640 177.7 640 255 C640 332.3 702.7 395 780 395 C857.3 395 920 332.3 920 255 C920 177.7 857.3 115 780 115 z" id="pGreenSmall" xml:space="preserve" style="fill:#00FF00;" />
  <path d="M222.2 80 L778.9 80 C876 80 955 159 955 256.1 C955 353.2 876 430 778.9 430 L221.1 430 C124 430 45.3 353.2 45.3 256.1 C45.3 159 124.5 80 221.6 80 M221.1 45 C104.5 45 10 139.5 10 256.1 C10 372.7 104.5 465 221.1 465 L778.9 465 C895.5 465 990 372.7 990 256.1 C990 139.5 895.5 45 778.9 45 z" stroke="#0000FF" stroke-width="0" id="pGreen" xml:space="preserve" style="fill:#00FF00;" />
</svg>