<?xml version="1.0" encoding="utf-8"?>
<!DOCTYPE svg PUBLIC "-//W3C//DTD SVG 1.1//EN" "http://www.w3.org/Graphics/SVG/1.1/DTD/svg11.dtd">
<svg x="0px" y="0px" width="32" height="32" overflow="hidden" viewBox="0, 0, 1000, 1000" preserveAspectRatio="xMidYMid" font-size="0" id="svg14" xml:space="preserve" xmlns="http://www.w3.org/2000/svg" xmlns:xlink="http://www.w3.org/1999/xlink" xmlns:xml="http://www.w3.org/XML/1998/namespace" version="1.1">
  <defs id="defs18" xml:space="preserve" />
  <path d="M220 640 C277.9 640 325 687.1 325 745 C325 802.9 277.9 850 220 850 C162.1 850 115 802.9 115 745 C115 687.1 162.1 640 220 640 M220 605 C142.7 605 80 667.7 80 745 C80 822.3 142.7 885 220 885 C297.3 885 360 822.3 360 745 C360 667.7 297.3 605 220 605 z" id="path4" xml:space="preserve" style="fill:#808080;" />
  <path d="M778.4 570 C875.5 570 954.8 649 954.8 746.1 C954.8 843.2 876 920 778.9 920 L221.1 920 C124 920 45 843.2 45 746.1 C45 649 124 570 221.1 570 L777.8 570 M778.9 535 L221.1 535 C104.5 535 10 629.5 10 746.1 C10 862.7 104.5 955 221.1 955 L778.9 955 C895.5 955 990 862.7 990 746.1 C990 629.5 895.5 535 778.9 535 z" id="path6" xml:space="preserve" style="fill:#808080;" />
  <path d="M780 150 C837.9 150 885 197.1 885 255 C885 312.9 837.9 360 780 360 C722.1 360 675 312.9 675 255 C675 197.1 722.1 150 780 150 M780 115 C702.7 115 640 177.7 640 255 C640 332.3 702.7 395 780 395 C857.3 395 920 332.3 920 255 C920 177.7 857.3 115 780 115 z" id="path8" xml:space="preserve" style="fill:#00FF00;" />
  <path d="M222.2 80 L778.9 80 C876 80 955 159 955 256.1 C955 353.2 876 430 778.9 430 L221.1 430 C124 430 45.3 353.2 45.3 256.1 C45.3 159 124.5 80 221.6 80 M221.1 45 C104.5 45 10 139.5 10 256.1 C10 372.7 104.5 465 221.1 465 L778.9 465 C895.5 465 990 372.7 990 256.1 C990 139.5 895.5 45 778.9 45 z" stroke="#0000FF" stroke-width="0" id="path10" xml:space="preserve" style="fill:#00FF00;" />
  <path d="M191.4661 914.8475 C100.6522 899.3646 33.67718 807.263 49.87897 720.1423 C63.40347 647.418 116.5211 591.5495 186.4407 576.5081 C203.4988 572.8385 290.9566 571.8509 512.7119 572.8236 L815.678 574.1525 L840.0513 583.9942 C886.3695 602.697 922.9653 640.0494 942.108 688.1607 C954.4431 719.1625 953.9897 773.2383 941.1188 806.1529 C922.7376 853.1589 885.1805 889.4603 835.457 908.282 C811.79 917.2407 807.0958 917.3824 512.7119 918.0297 C348.4111 918.3909 203.8505 916.9589 191.4661 914.8475 z M281.7797 873.0601 C311.7433 858.3931 340.623 827.3092 351.7786 797.7184 C364.0871 765.0698 362.2539 710.5566 347.9156 682.8414 C314.1121 617.5015 239.5878 587.9131 169.4915 612.0018 C137.5844 622.9667 98.60572 662.1506 87.01241 694.9152 C74.02595 731.6171 76.21855 773.3101 92.91917 807.2338 C108.6788 839.2462 135.6494 864.717 166.765 876.9733 C198.094 889.3137 252.3458 887.4678 281.7797 873.0601 z" stroke="#808080" stroke-width="12" id="path836" xml:space="preserve" style="fill:#808080;" />
</svg>