<?xml version="1.0" encoding="utf-8"?>
<!DOCTYPE svg PUBLIC "-//W3C//DTD SVG 1.1//EN" "http://www.w3.org/Graphics/SVG/1.1/DTD/svg11.dtd">
<svg x="0" y="0" width="32" height="32" overflow="hidden" viewBox="0, 0, 96, 96" preserveAspectRatio="xMidYMid" font-size="0" id="svg795" xml:space="default" xmlns="http://www.w3.org/2000/svg" xmlns:xlink="http://www.w3.org/1999/xlink" xmlns:xml="http://www.w3.org/XML/1998/namespace" version="1.1">
  <defs id="d1" xml:space="default">
    <linearGradient x1="0%" y1="0%" x2="100%" y2="0%" gradientUnits="objectBoundingBox" id="linearGradient853" xml:space="default">
      <stop offset="0%" stop-color="#B5B5B5" stop-opacity="1" id="stop854" xml:space="default" />
      <stop offset="100%" stop-color="#FFFFFF" stop-opacity="1" id="stop855" xml:space="default" />
    </linearGradient>
    <linearGradient x1="0%" y1="0%" x2="100%" y2="0%" gradientUnits="objectBoundingBox" id="linearGradient816" xml:space="default">
      <stop offset="0%" stop-color="#0C1535" stop-opacity="0.698039" id="stop817" xml:space="default" />
      <stop offset="100%" stop-color="#FFFFFF" stop-opacity="0" id="stop818" xml:space="default" />
    </linearGradient>
    <linearGradient x1="0%" y1="0%" x2="100%" y2="0%" gradientUnits="objectBoundingBox" id="linearGradient808" xml:space="default">
      <stop offset="0%" stop-color="#000000" stop-opacity="1" id="stop809" xml:space="default" />
      <stop offset="100%" stop-color="#FFFFFF" stop-opacity="1" id="stop810" xml:space="default" />
    </linearGradient>
    <linearGradient x1="26.0383" y1="28.16274" x2="26.16081" y2="57.26001" gradientUnits="userSpaceOnUse" xlink:href="#linearGradient808" gradientTransform="scale(1.563194, 0.639716)" id="linearGradient811" xml:space="default" />
    <linearGradient x1="35.06142" y1="26.61899" x2="67.4911" y2="46.46923" gradientUnits="userSpaceOnUse" xlink:href="#linearGradient816" id="linearGradient815" xml:space="default" />
    <linearGradient x1="80.63593" y1="66.7976" x2="82.33561" y2="59.08853" gradientUnits="userSpaceOnUse" xlink:href="#linearGradient853" gradientTransform="scale(0.89191, 1.121189)" id="linearGradient857" xml:space="default" />
  </defs>
  <g id="g825" xml:space="default">
    <path d="M4.59365 19.0073 L5.42885 31.1178 C5.42885 31.1178 8.352079 32.3706 8.14328 32.5794 C7.93448 32.7882 11.0665 70.1638 11.0665 70.1638 C11.0665 70.1638 11.0665 72.6694 13.1545 74.131 C15.2426 75.5927 33.8259 89.1648 35.7052 90.00001 C37.5844 90.83521 39.4636 91.04401 42.178 89.79121 C44.8925 88.53841 61.3878 81.8567 63.8934 80.81271 C66.3991 79.76871 68.4871 78.72471 69.1135 74.131 C69.7399 69.53741 73.2283 37.4832 73.2283 37.4832 C73.6713 37.63091 73.2283 34.041 74.4812 34.24981 C75.734 34.45861 77.6744 34.24981 78.3008 30.7002 C78.9272 27.1506 79.5536 22.76571 79.5536 22.76571 C79.5536 22.76571 78.36201 19.87831 76.2739 18.2079 C74.186 16.5375 44.8714 3.26062 44.0362 3.05182 C43.201 2.84303 37.4263 3.66773 34.7118 4.71174 C31.9974 5.75576 6.89047 12.952 4.59365 19.0073 z" fill-rule="evenOdd" fill-opacity="0.298246" transform="matrix(1.037424, 0, 0, 0.954524, -4.453626, 3.976088)" id="path824" xml:space="default" />
    <path d="M4.59365 19.0073 L5.42885 31.1178 C5.42885 31.1178 8.352079 32.3706 8.14328 32.5794 C7.93448 32.7882 11.0665 70.1638 11.0665 70.1638 C11.0665 70.1638 11.0665 72.6694 13.1545 74.131 C15.2426 75.5927 33.8259 89.1648 35.7052 90.00001 C37.5844 90.83521 39.4636 91.04401 42.178 89.79121 C44.8925 88.53841 61.3878 81.8567 63.8934 80.81271 C66.3991 79.76871 68.4871 78.72471 69.1135 74.131 C69.7399 69.53741 73.2283 37.4832 73.2283 37.4832 C73.6713 37.63091 73.2283 34.041 74.4812 34.24981 C75.734 34.45861 77.6744 34.24981 78.3008 30.7002 C78.9272 27.1506 79.5536 22.76571 79.5536 22.76571 C79.5536 22.76571 78.36201 19.87831 76.2739 18.2079 C74.186 16.5375 44.8714 3.26062 44.0362 3.05182 C43.201 2.84303 37.4263 3.66773 34.7118 4.71174 C31.9974 5.75576 6.89047 12.952 4.59365 19.0073 z" fill-rule="evenOdd" transform="translate(-3.838782, -2.21468)" id="path812" xml:space="default" style="fill:#1F1D1C;" />
    <path d="M9.3961 20.0513 C8.76969 22.3481 8.56088 26.1066 9.3961 27.9858 C10.4401 28.821 21.9243 32.997 38.002 41.1403 C45.1012 37.5906 70.5751 31.5354 72.0367 30.7002 C73.4983 29.865 74.3336 28.4034 74.5424 27.1506 C74.7512 25.8978 75.37759 22.3481 73.916 21.5129 C69.3223 17.5457 43.0132 6.47915 41.134 6.89675 C39.2548 7.31436 16.0777 14.6225 9.3961 20.0513 z" fill-rule="evenOdd" transform="translate(-3.838782, -2.21468)" id="path803" xml:space="default" style="fill:#FFEC98;" />
    <path d="M20.4626 19.6337 C20.9846 18.5897 40.8208 11.1772 41.8648 11.5948 C42.9088 12.0124 43.4308 11.908 44.8925 12.7432 C46.3541 13.5784 61.5966 20.4689 61.3878 20.4689 C61.179 20.4689 40.7164 28.4034 40.7164 28.4034 C40.7164 28.4034 21.089 21.3041 20.4626 19.6337 z" fill-rule="evenOdd" transform="translate(-3.838782, -2.21468)" id="path813" xml:space="default" />
    <path d="M20.045 19.8425 L25.4739 22.1393 C25.4739 22.1393 30.6939 19.8425 32.7819 19.0073 C34.87 18.1721 40.09 16.5017 40.09 16.5017 L40.7164 11.6992 C40.7164 11.6992 30.6939 14.6224 28.8147 15.6664 C26.9355 16.7105 20.8802 18.5897 20.045 19.8425 z" fill-rule="evenOdd" transform="translate(-3.986428, -2.362328)" id="path799" xml:space="default" style="fill:#E9A341;" />
    <path d="M42.3868 11.908 L41.7604 17.3369 C41.7604 17.3369 53.2445 22.7657 53.4533 22.7657 C53.6621 22.7657 61.8054 20.6777 61.8054 20.6777 C61.8054 20.6777 45.5189 12.5344 42.3868 11.908 z" fill-rule="evenOdd" transform="translate(-3.838782, -2.21468)" id="path800" xml:space="default" style="fill:#E7A240;" />
    <path d="M27.3531 23.1833 C27.3531 23.1833 35.914 18.3809 39.4636 18.5897 C43.0132 18.7985 53.1401 23.7053 52.2005 23.8097 C50.7389 24.8537 40.5076 28.6122 40.2988 28.4034 C31.1115 24.645 27.7707 22.9745 27.3531 23.1833 z" fill-rule="evenOdd" transform="translate(-3.838782, -2.21468)" id="path801" xml:space="default" style="fill:url(#linearGradient811);" />
    <path d="M37.7932 42.9151 C40.2988 43.7503 55.5414 34.8762 70.5751 32.997 C66.399 51.1628 66.6079 68.911 65.98151 70.3726 C65.3551 71.83421 65.3551 74.7574 61.8054 76.2191 C56.37661 77.4719 40.7164 84.5712 36.74921 86.2416 C34.66121 85.1976 25.05631 74.5486 16.49541 71.4166 z" fill-rule="evenOdd" transform="translate(-3.838782, -2.21468)" id="path802" xml:space="default" style="fill:#578CC7;" />
    <path d="M9.15402 29.3177 C9.15402 29.3177 24.3615 34.3377 33.9585 40.6864 C35.8779 54.5651 34.992 76.1213 33.9585 84.3895 C31.3008 83.3559 14.6169 68.739 11.9593 69.182 C11.9593 68.739 9.30167 29.613 9.15402 29.3177 z" fill-rule="evenOdd" id="path819" xml:space="default" style="fill:#4C5B86;" />
    <path d="M37.5844 45.3163 L38.002 54.7124 C38.002 54.7124 40.7164 50.5364 37.5844 45.3163 z" fill-rule="evenOdd" transform="translate(-3.838782, -2.21468)" id="path804" xml:space="default" style="fill:#1F1D1C;" />
    <path d="M33.5155 32.5659 L33.9585 38.9147 L5.31524 25.6266 C5.31524 25.6266 3.98643 17.3584 5.46288 18.2443 C6.93934 19.1302 33.3679 32.4183 33.5155 32.5659 z" fill-rule="evenOdd" id="path820" xml:space="default" style="fill:#E7A240;" />
    <path d="M39.046 62.8557 L36.958 86.4504 L39.046 85.4064 C39.046 85.4064 39.8812 69.5374 39.046 62.85571 z" fill-rule="evenOdd" transform="translate(-3.838782, -2.21468)" id="path805" xml:space="default" style="fill:#1F1D1C;" />
    <path d="M9.3961 20.2601 C9.3961 20.2601 25.6827 27.5682 28.6059 29.6562 C31.5291 31.7442 36.5404 35.085 37.5844 34.8762 C38.6284 34.6674 11.6929 25.0625 9.396101 20.2601 z" fill-rule="evenOdd" fill-opacity="0.996841" transform="translate(-3.838782, -2.21468)" id="path806" xml:space="default" style="fill:#1F1D1C;" />
    <path d="M41.3428 34.4586 C41.3428 34.4586 54.2885 29.2386 57.6294 27.777 C60.9702 26.3154 72.8719 21.7217 74.3336 21.5129 C75.7952 21.3041 44.26611 35.2938 41.3428 34.4586 z" fill-rule="evenOdd" transform="translate(-3.838782, -2.21468)" id="path807" xml:space="default" style="fill:#1F1D1C;" />
    <path d="M34.2538 45.1158 C18.9478 35.9125 16.4871 37.3397 9.59695 38.4717 C9.49852 36.0601 9.1048 31.4339 9.30167 28.8747 C16.1918 31.1386 25.4442 35.0267 34.1061 40.5388 C45.4256 37.1921 55.8592 32.6643 67.0311 30.4988 C66.3913 32.9596 65.7514 35.4204 65.1116 37.8811 C55.8592 37.6351 44.9827 41.0801 34.2538 45.1158 z" fill-rule="evenOdd" stroke-width="1pt" id="path823" xml:space="default" style="fill:url(#linearGradient815);" />
  </g>
  <path d="M52.6182 77.5763 L52.4094 80.7083 L54.7062 81.1259 L54.1842 84.1535 C54.1842 84.1535 56.6898 84.77991 56.8986 84.67551 C57.1074 84.57111 58.569 82.69191 58.569 82.69191 L67.65189 80.81271 L67.0255 76.53231 C67.0255 76.53231 61.0747 77.78511 61.2835 77.68071 C61.4923 77.57631 64.7287 74.96621 64.7287 74.96621 C64.7287 74.96621 62.8495 71.93861 62.7451 71.93861 C62.6407 71.93861 55.437 76.94991 55.437 76.94991 L52.61819 77.57631 z" fill-rule="evenOdd" fill-opacity="0.333333" transform="matrix(1.143836, 0, 0, 1.090081, -3.049116, -2.408676)" id="path859" xml:space="default" style="fill:#080808;" />
  <path d="M52.6182 77.5763 L52.4094 80.7083 L54.7062 81.1259 L54.1842 84.1535 C54.1842 84.1535 56.6898 84.77991 56.8986 84.67551 C57.1074 84.57111 58.569 82.69191 58.569 82.69191 L67.65189 80.81271 L67.0255 76.53231 C67.0255 76.53231 61.0747 77.78511 61.2835 77.68071 C61.4923 77.57631 64.7287 74.96621 64.7287 74.96621 C64.7287 74.96621 62.8495 71.93861 62.7451 71.93861 C62.6407 71.93861 55.437 76.94991 55.437 76.94991 L52.61819 77.57631 z" fill-rule="evenOdd" transform="translate(4.489245, 4.071646)" id="path850" xml:space="default" style="fill:#515D79;" />
  <path d="M55.2282 83.2139 C55.2282 83.2139 55.8546 81.3347 55.8546 80.2907 C55.8546 79.2467 55.3326 79.0379 56.3766 77.8895 C57.4206 76.7411 61.5967 73.1914 62.2231 73.60899 C62.8495 74.0266 63.2671 74.75739 63.2671 74.86179 C63.2671 74.96619 57.9426 77.9939 57.6294 78.82909 C57.3162 79.66429 57.525 79.55989 58.1514 79.55989 C58.7778 79.55989 65.7727 77.57629 65.9815 77.88949 C66.1903 78.20269 66.7123 79.24669 66.2947 79.66429 C65.8771 80.08189 58.4646 81.02149 57.525 81.54349 C56.5854 82.06549 56.3766 83.52708 55.959 83.52708 C55.5414 83.52708 55.3326 83.10948 55.2282 83.21388 z" fill-rule="evenOdd" transform="translate(4.489245, 4.071646)" id="path846" xml:space="default" style="fill:#FFFFFF;" />
  <path d="M53.4534 78.3071 C53.6622 78.3071 55.0194 78.5159 55.0194 78.5159 L54.8106 80.1863 L53.5578 80.1863 L53.4534 78.3071 z" fill-rule="evenOdd" transform="translate(4.267783, 3.924007)" id="path847" xml:space="default" style="fill:#FFFFFF;" />
  <path d="M64.9375 72.7738 C64.9375 72.7738 69.3224 75.0706 70.9928 76.3234 C72.6632 77.5763 74.1248 80.1863 74.96 79.9775 C75.7952 79.7687 82.6857 65.9877 82.8945 64.7349 C83.1033 63.4821 83.7297 62.3337 82.8945 62.0205 C82.0593 61.7073 72.4544 57.4268 72.2456 58.0532 L70.1576 62.1249 C69.218 64.7349 63.3715 72.3562 64.7287 73.2958" fill-rule="evenOdd" fill-opacity="0.315789" transform="matrix(1.10556, 0, 0, 1, -2.322087, 5.654173)" id="path953" xml:space="default" />
  <path d="M64.9375 72.7738 C64.9375 72.7738 69.3224 75.0706 70.9928 76.3234 C72.6632 77.5763 74.1248 80.1863 74.96 79.9775 C75.7952 79.7687 82.6857 65.9877 82.8945 64.7349 C83.1033 63.4821 83.7297 62.3337 82.8945 62.0205 C82.0593 61.7073 72.4544 57.4268 72.2456 58.0532 C72.0368 58.6797 71.0972 59.5149 70.1576 62.1249 C69.218 64.7349 63.3715 72.3562 64.7287 73.2958" fill-rule="evenOdd" transform="translate(4.489243, 3.357353)" id="path954" xml:space="default" style="fill:#515D79;" />
  <path d="M67.2343 72.1474 C68.5916 72.8782 72.1412 74.2354 73.1852 75.697 C74.22919 77.1587 74.96 77.6807 74.96 77.6807 C74.96 77.6807 82.3725 65.1525 81.3285 64.0041 C80.2845 62.85571 75.5864 59.20171 74.5424 59.9325 C73.4984 60.6633 67.3387 70.68581 67.2343 72.1474 z" fill-rule="evenOdd" transform="translate(4.489243, 3.357353)" id="path955" xml:space="default" style="fill:url(#linearGradient857);" />
  <path d="M38.7143 25.2857 C38.7143 25.2857 42.4286 29.4286 43.2857 34.4286 C44.1429 39.4286 42.8571 45 44 47.2857 C45.14289 49.5714 57.85709 42.8571 57.85709 42.8571 C57.85709 42.8571 55.71429 25.4286 54.14289 23.4286 C52.5714 21.4286 51 20.4286 50.71429 20.5714 C50.42859 20.7143 38.71429 25.2857 38.71429 25.2857 z" fill-rule="evenOdd" id="path956" xml:space="default" style="fill:#515D79;" />
  <path d="M40.2857 24.5714 C40.2857 24.5714 43.5714 29.8571 44.1429 32 C44.7143 34.1429 44.8572 45.7143 46.2858 45.8572 C47.7143 46 56.5714 41.7143 56.5714 41.7143 C56.5714 41.7143 54.4286 26 53 24.1429 C51.5714 22.2857 49.8571 20.7143 49.8571 20.7143 L40.2857 24.5714 z" fill-rule="evenOdd" id="path958" xml:space="default" style="fill:#FFFFFF;" />
</svg>