<?xml version="1.0" encoding="utf-8"?>
<!DOCTYPE svg PUBLIC "-//W3C//DTD SVG 1.1//EN" "http://www.w3.org/Graphics/SVG/1.1/DTD/svg11.dtd">
<svg x="0" y="0" width="32" height="32" viewBox="0, 0, 500, 500" preserveAspectRatio="xMidYMid" font-size="0" id="svg36" xml:space="default" xmlns="http://www.w3.org/2000/svg" xmlns:xlink="http://www.w3.org/1999/xlink" xmlns:xml="http://www.w3.org/XML/1998/namespace" version="1.1">
  <defs id="defs40" xml:space="default" />
  <namedview id="namedview38" xml:space="default" />
  <rect x="275" y="0" width="225" height="225" id="rect2" xml:space="default" style="fill:#40A73C;" />
  <rect x="0" y="275" width="225" height="225" id="rect4" xml:space="default" style="fill:#059192;" />
  <circle cx="250" cy="250" r="180" stroke="#000000" stroke-width="44px" id="circle6" xml:space="default" style="fill:none;" />
  <rect x="0" y="0" width="225" height="225" id="rect8" xml:space="default" style="fill:#FEFE04;" />
  <rect x="275" y="275" width="225" height="225" id="rect10" xml:space="default" style="fill:#FD921E;" />
  <polygon points="250,250 430,0 500,70" id="polygon12" xml:space="default" style="fill:#40A73C;" />
  <polygon points="250,250 0,430 70,500" id="polygon14" xml:space="default" style="fill:#059192;" />
  <rect x="225" y="0" width="50" height="500" id="rect16" xml:space="default" style="fill:#FFFFFF;" />
  <rect x="0" y="225" width="500" height="50" id="rect18" xml:space="default" style="fill:#FFFFFF;" />
  <polygon points="472,313 332,313 325,314 353,485 367,482 353,396" id="polygon20" xml:space="default" style="fill:#000000;" />
  <path d="M90 225 A47.5 105.5 0 0 1 106 112 A75.5 87.5 22.5 0 1 163 163 A90.5 82.5 0 0 1 207 168 A144 164 0 0 0 124 86 A136 150 0 0 0 172 15 L163 15 A171 169 0 0 1 105 70 A142 163 0 0 1 34 15 L20 15 A328 514 0 0 0 79 96 A102 146 0 0 0 49 225 z" id="path22" xml:space="default" style="fill:#000000;" />
  <circle cx="104" cy="35" r="19" id="circle24" xml:space="default" style="fill:#000000;" />
  <ellipse cx="104" cy="45" rx="6" ry="5" id="ellipse26" xml:space="default" style="fill:#FEFE04;" />
  <polygon points="82,47 16,60 16,55 82,43" id="polygon28" xml:space="default" style="fill:#FEFE04;" />
  <polygon points="87,53 29,87 29,82 87,48" id="polygon30" xml:space="default" style="fill:#FEFE04;" />
  <polygon points="82,47 16,60 21,70" id="polygon32" xml:space="default" style="fill:#000000;" />
  <polygon points="87,53 29,87 39,96" id="polygon34" xml:space="default" style="fill:#000000;" />
  <g transform="matrix(0, 1.992832, -1.13333, 0, 475.0933, 101.6953)" id="layer1" xml:space="default">
    <g transform="matrix(0.4723397, 0, 0, 0.4723397, 0.3155722, 35.92742)" id="g1327" xml:space="default">
      <rect x="106.762" y="297.722" width="315.716" height="101.394" id="rect2044" xml:space="default" style="fill:#0056A6;" />
      <path d="M165.053 221.692 L0.303 348.413 L165.053 475.15 z" id="path2046" xml:space="default" connector-curvature="0" style="fill:#0056A6;" />
    </g>
  </g>
</svg>