<?xml version="1.0" encoding="utf-8"?>
<!DOCTYPE svg PUBLIC "-//W3C//DTD SVG 1.1//EN" "http://www.w3.org/Graphics/SVG/1.1/DTD/svg11.dtd">
<svg x="0px" y="0px" width="32" height="45.22766" overflow="hidden" viewBox="0, 0, 433.8305, 613.1605" preserveAspectRatio="xMidYMid" font-size="0" id="Ebene_1" xml:space="preserve" xmlns="http://www.w3.org/2000/svg" xmlns:xlink="http://www.w3.org/1999/xlink" xmlns:xml="http://www.w3.org/XML/1998/namespace" version="1.1">
  <defs id="d1" xml:space="preserve">
    <radialGradient cx="298.1253" cy="350.8242" r="340.9629" fx="298.1253" fy="350.8242" gradientUnits="userSpaceOnUse" xlink:href="#linearGradient3528" gradientTransform="matrix(1, 0, 0, 1.112913, 0, -39.61257)" id="radialGradient3526" xml:space="preserve" />
    <linearGradient x1="0%" y1="0%" x2="100%" y2="0%" gradientUnits="objectBoundingBox" id="linearGradient3528" xml:space="preserve">
      <stop offset="0%" stop-color="#05FF00" stop-opacity="1" id="stop3530" xml:space="preserve" />
      <stop offset="100%" stop-color="#0D8D0B" stop-opacity="0.7927461" id="stop3532" xml:space="preserve" />
    </linearGradient>
    <radialGradient cx="298.1253" cy="350.8242" r="340.9629" fx="298.1253" fy="350.8242" gradientUnits="userSpaceOnUse" xlink:href="#linearGradient3528" gradientTransform="matrix(1, 0, 0, 1.112913, 0, -39.61257)" id="r1" xml:space="preserve" />
    <radialGradient cx="298.1253" cy="350.8242" r="340.9629" fx="298.1253" fy="350.8242" gradientUnits="userSpaceOnUse" xlink:href="#linearGradient3528" gradientTransform="matrix(1, 0, 0, 1.112913, 0, -39.61257)" id="radialGradient3536" xml:space="preserve" />
    <radialGradient cx="298.1253" cy="350.8242" r="340.9629" fx="298.1253" fy="350.8242" gradientUnits="userSpaceOnUse" xlink:href="#linearGradient3528" gradientTransform="matrix(1, 0, 0, 1.112913, 0, -39.61257)" id="radialGradient3538" xml:space="preserve" />
    <radialGradient cx="298.1253" cy="350.8242" r="340.9629" fx="298.1253" fy="350.8242" gradientUnits="userSpaceOnUse" xlink:href="#linearGradient3528" gradientTransform="matrix(1, 0, 0, 1.112913, 0, -39.61257)" id="radialGradient3540" xml:space="preserve" />
    <radialGradient cx="298.1253" cy="350.8242" r="340.9629" fx="298.1253" fy="350.8242" gradientUnits="userSpaceOnUse" xlink:href="#linearGradient3528" gradientTransform="matrix(1, 0, 0, 1.112913, 0, -39.61257)" id="radialGradient3542" xml:space="preserve" />
    <radialGradient cx="298.1253" cy="350.8242" r="340.9629" fx="298.1253" fy="350.8242" gradientUnits="userSpaceOnUse" xlink:href="#linearGradient3528" gradientTransform="matrix(1, 0, 0, 1.112913, 0, -39.61257)" id="radialGradient3544" xml:space="preserve" />
    <radialGradient cx="298.1253" cy="350.8242" r="340.9629" fx="298.1253" fy="350.8242" gradientUnits="userSpaceOnUse" xlink:href="#linearGradient3528" gradientTransform="matrix(1, 0, 0, 1.112913, 0, -39.61257)" id="radialGradient3546" xml:space="preserve" />
    <radialGradient cx="298.1253" cy="350.8242" r="340.9629" fx="298.1253" fy="350.8242" gradientUnits="userSpaceOnUse" xlink:href="#linearGradient3528" gradientTransform="matrix(1, 0, 0, 1.112913, 0, -39.61257)" id="radialGradient3548" xml:space="preserve" />
  </defs>
  <path d="M433.8278 274.6469 C433.9637 255.0656 412.4869 254.3913 398.0844 255.486 C384.4805 255.486 370.8767 255.486 357.2728 255.486 C357.2728 231.8485 357.2728 208.211 357.2728 184.5735 C384.9336 158.3695 415.1756 132.5633 433.3432 98.58549 C436.9108 78.60715 414.4349 74.70237 399.5968 76.64874 C385.4897 76.64874 371.3826 76.64874 357.2755 76.64874 C360.4066 62.21269 349.8835 47.38417 334.2296 51.09828 C314.6553 52.14118 308.462 27.13462 291.3513 20.69168 C236.4153 -13.83747 154.1055 -5.653559 113.5926 47.40168 C102.356 55.60965 79.80761 44.535 76.86752 64.62371 C80.84245 79.2934 69.043 77.03943 58.43597 76.6434 C41.83757 77.95637 24.07061 73.54845 8.438597 79.85084 C-14.15114 100.0333 19.62037 123.8389 31.33509 140.2206 C43.34199 159.4338 72.21975 170.5206 76.55234 192.1193 C76.55234 213.2406 76.55234 234.362 76.55234 255.4833 C54.97646 256.3249 32.96959 253.7118 11.68969 256.9551 C-15.96726 272.9908 16.05301 300.5923 28.40334 315.8323 C41.62342 335.5495 68.93806 348.3739 76.55234 369.4495 C76.55234 391.0741 76.55234 412.6987 76.55234 434.3233 C54.97638 435.164 32.97017 432.5534 11.68969 435.7936 C-15.96816 451.828 16.05252 479.4338 28.40334 494.6739 C41.62225 514.3909 68.93773 527.2131 76.55234 548.2867 C77.21124 566.4341 75.14066 584.9029 77.7709 602.822 C84.75246 618.7265 104.1796 611.5453 117.7092 613.1605 C193.4272 612.9305 269.1956 613.6204 344.882 612.8156 C362.6213 607.2368 355.9949 586.0533 357.2728 572.0699 C357.2728 562.1293 357.2728 552.1886 357.2728 542.248 C384.9366 516.048 415.1757 490.2395 433.3432 456.2623 C436.9135 436.2813 414.4349 432.3805 399.5968 434.326 C385.4897 434.326 371.3826 434.326 357.2755 434.326 C357.2755 410.6884 357.2755 387.0509 357.2755 363.4134 C384.9315 337.2054 415.174 311.4009 433.3405 277.4232 z M216.9153 562.0649 C175.4649 563.6423 142.1907 518.2864 155.9832 479.1949 C166.7446 439.4538 219.3221 420.9087 252.5868 445.2276 C287.4877 466.9597 290.1562 522.5081 257.4966 547.4825 C246.2058 556.8734 231.6023 562.1241 216.9153 562.0649 z M216.9153 383.2276 C175.4693 384.8026 142.1915 339.452 155.9832 300.3621 C166.7443 260.621 219.3218 242.0679 252.5868 266.3926 C287.4853 288.1255 290.1567 343.6689 257.4966 368.6429 C246.2061 378.0345 231.6027 383.2869 216.9153 383.2276 z M216.9153 204.385 C175.471 205.9575 142.1918 160.6089 155.9832 121.5193 C166.7462 81.77992 219.3226 63.22879 252.5868 87.55267 C287.4847 109.2852 290.1576 164.8293 257.4966 189.8023 C246.2058 199.1931 231.6024 204.4443 216.9153 204.385 z" stroke="#000000" stroke-width="2.677966" id="path2" xml:space="preserve" style="fill:#E3E3E3;" />
  <g transform="matrix(0.5110047, 0, 0, 0.5110047, 147.0101, 429.3425)" id="g1344" xml:space="preserve">
    <g transform="matrix(0.267932, 0, 0, 0.267932, 54.52761, 45.26935)" id="g1316" xml:space="preserve" style="fill:url(#radialGradient3526);">
      <path d="M498.9174 728.9939 C496.2846 726.3611 495.911 721.948 497.5767 713.1587 C499.726 701.8176 504.6565 686.1263 512.5035 665.6544 C516.1312 656.1902 519.8607 645.4158 520.7911 641.7114 L522.483 634.976 L514.6973 627.6315 C505.6549 619.1014 487.5896 604.5431 456.6428 580.8471 C417.545 550.9099 381.913 521.9306 358.3693 500.9219 C345.7499 489.6612 341.6921 486.9979 339.1928 488.3354 C335.5794 490.2693 308.7376 518.1045 268.7725 561.3622 C191.6684 644.8184 144.7793 694.3486 138.9436 698.504 L136.0485 700.5656 L132.294 698.0809 C112.5828 685.0367 34.60392 614.5009 14.50963 591.5392 C7.079171 583.0484 1.14286 572.9064 1.14286 568.7025 C1.14286 567.4153 2.099228 565.4058 3.268121 564.2369 C5.139888 562.3652 6.123924 562.1868 11.51812 562.7413 C18.58038 563.4672 37.28187 568.2764 58.14286 574.731 C80.59692 581.6784 83.13114 581.7923 91.52666 576.2314 C97.24061 572.4466 105.4923 562.9656 142.7627 517.3622 C208.2837 437.192 212.1429 431.8359 212.1429 421.0705 C212.1429 413.5927 210.2626 410.0826 204.8544 407.4646 C199.1732 404.7144 195.6745 404.8127 187.4383 407.9541 C166.3924 415.9814 161.5687 417.4438 157.4733 417.0385 C151.4305 416.4406 143.1823 412.2685 118.0152 397.0796 C105.7104 389.6534 83.94286 376.9376 69.64286 368.8223 C33.03395 348.0466 29.0546 345.1621 27.62078 338.3622 C26.21511 331.6958 20.27209 325.0136 -0.8571396 306.3426 C-24.22066 285.6972 -37.01434 272.31 -40.49854 264.8622 C-44.85055 255.5593 -43.15545 248.751 -33.19101 235.5121 C-21.87994 220.484 -14.84095 215.3622 -5.498522 215.3622 C3.943039 215.3622 12.66656 221.0901 32.64286 240.4063 C54.78226 261.814 62.95907 267.7534 78.64286 273.8192 C84.14286 275.9464 99.44286 282.2858 112.6429 287.9068 C137.6409 298.5517 156.2827 305.1177 164.1544 306.05 C172.5435 307.0435 181.4328 300.186 193.8407 283.1489 C208.4861 263.0394 213.5982 256.4815 223.757 244.771 C236.8717 229.653 246.1429 216.8422 246.1429 213.8382 C246.1429 207.8179 234.5478 198.79 221.255 194.4606 C206.0936 189.5226 191.5871 178.0725 185.9276 166.5764 C182.8444 160.3136 182.6431 159.2588 182.6465 149.3832 C182.6496 141.9055 183.4983 134.4374 185.582 123.5654 L188.5138 108.2686 L178.1122 97.83148 C171.8548 91.55264 168.0956 87.05761 168.6768 86.54911 C176.2605 79.91388 182.4015 76.61445 190.2852 74.9395 C194.5586 74.0316 202.0948 64.66207 210.3929 49.94041 C214.6553 42.37828 218.1429 35.82025 218.1429 35.36702 C218.1429 34.91378 214.8804 32.7425 210.8929 30.54193 C197.9714 23.41101 177.247 8.808105 167.4137 -0.09453392 C163.0286 -4.064694 162.7798 -4.545504 163.8711 -6.940654 C167.5784 -15.07743 192.8055 -12.77359 233.2727 -0.6026039 L240.9026 1.692176 L247.2258 -5.222824 C263.6367 -23.16957 270.556 -28.63781 276.8542 -28.63781 C278.3893 -28.63781 292.4697 -22.6455 308.144 -15.32155 C323.8184 -7.997613 357.5679 7.605147 383.1429 19.35126 C408.7179 31.09736 429.8186 40.8433 430.0334 41.00889 C430.2483 41.17448 429.6328 50.21792 428.6657 61.10542 C427.6986 71.99292 427.0729 81.6427 427.2751 82.54937 C427.503 83.57093 439.052 89.90729 457.6429 99.21073 C474.1429 107.4678 490.7826 116.3923 494.62 119.0429 C502.2837 124.3364 504.707 128.2266 502.0168 130.9169 C497.8973 135.0363 468.897 135.2679 443.3028 131.3857 C427.5643 128.9984 419.0888 128.8216 415.2613 130.8009 C407.3257 134.9046 366.1429 195.9357 366.1429 203.5923 C366.1429 206.754 370.7252 217.3923 383.9194 244.8622 C407.4222 293.7943 415.2664 312.0376 424.9822 340.3622 C436.4341 373.748 437.4786 375.9522 449.5026 392.1085 C467.1895 415.8741 488.1095 438.8568 562.1495 515.8622 C624.1939 580.3917 633.2878 590.3828 636.7853 597.8622 C639.2919 603.2226 639.7964 609.5131 638.0815 614.0237 C636.1277 619.1627 621.8139 635.6491 602.6429 654.8412 C568.2797 689.2426 532.2612 719.8133 517.1724 727.3846 C511.274 730.3444 501.1596 731.236 498.9175 728.9939 z" id="path1332" xml:space="preserve" connector-curvature="0" style="fill:url(#r1);" />
      <path d="M498.9174 728.9939 C496.2846 726.3611 495.911 721.948 497.5767 713.1587 C499.726 701.8176 504.6565 686.1263 512.5035 665.6544 C516.1312 656.1902 519.8607 645.4158 520.7911 641.7114 L522.483 634.976 L514.6973 627.6315 C505.6549 619.1014 487.5896 604.5431 456.6428 580.8471 C417.545 550.9099 381.913 521.9306 358.3693 500.9219 C345.5843 489.5134 341.7058 486.9905 339.0982 488.386 C335.4551 490.3358 308.3464 518.4647 268.287 561.8622 C193.2304 643.1732 144.8071 694.3289 138.9437 698.504 L136.0485 700.5656 L132.294 698.0809 C112.5828 685.0367 34.60392 614.5009 14.50963 591.5392 C7.079171 583.0484 1.14286 572.9064 1.14286 568.7025 C1.14286 567.4153 2.099228 565.4058 3.268121 564.2369 C5.139888 562.3652 6.123924 562.1868 11.51812 562.7413 C18.58038 563.4672 37.28187 568.2764 58.14286 574.731 C80.59692 581.6784 83.13114 581.7923 91.52666 576.2314 C97.24061 572.4466 105.4923 562.9656 142.7627 517.3622 C208.2837 437.192 212.1429 431.8359 212.1429 421.0705 C212.1429 413.5927 210.2626 410.0826 204.8544 407.4646 C199.1732 404.7144 195.6745 404.8127 187.4383 407.9541 C166.3924 415.9814 161.5687 417.4438 157.4733 417.0385 C151.4808 416.4456 143.4213 412.3841 119.1242 397.7125 C107.3095 390.5783 85.49284 377.8359 70.64285 369.3962 C32.50533 347.7213 28.76929 345.0296 27.65324 338.4238 C26.77106 333.2022 21.34966 326.5674 8.142843 314.5466 C-29.825 279.9885 -36.71435 272.9514 -40.49856 264.8622 C-44.98991 255.2614 -42.93503 247.8972 -31.84843 233.8622 C-20.51398 219.5134 -14.60132 215.3622 -5.498541 215.3622 C3.94302 215.3622 12.66654 221.0902 32.64285 240.4063 C54.78225 261.814 62.95905 267.7534 78.64285 273.8192 C84.14285 275.9464 99.44284 282.2858 112.6428 287.9068 C137.6409 298.5518 156.2827 305.1177 164.1544 306.05 C172.5435 307.0436 181.4327 300.1861 193.8407 283.1489 C208.4345 263.1104 213.5934 256.4838 223.7569 244.7212 C242.4328 223.1072 246.9017 216.5219 245.8195 212.21 C244.3763 206.4601 233.1159 198.3237 221.2549 194.4606 C206.0936 189.5227 191.5871 178.0726 185.9276 166.5765 C182.8444 160.3136 182.6431 159.2588 182.6465 149.3833 C182.6496 141.9056 183.4983 134.4375 185.582 123.5654 L188.5138 108.2686 L178.1122 97.83153 C171.8548 91.55268 168.0956 87.05766 168.6768 86.54916 C176.2605 79.91393 182.4015 76.61449 190.2852 74.93954 C194.5586 74.03165 202.0948 64.66212 210.3929 49.94045 C214.6553 42.37832 218.1429 35.82029 218.1429 35.36706 C218.1429 34.91383 214.8804 32.74254 210.8929 30.54197 C197.9714 23.41106 177.247 8.808151 167.4137 -0.09448814 C163.0222 -4.070428 162.7785 -4.542658 163.8756 -6.950638 C165.5527 -10.63149 171.4456 -11.98164 183.1429 -11.3651 C194.7732 -10.75208 203.8422 -8.917809 224.7862 -2.942419 L240.9296 1.663331 L247.2393 -5.237219 C263.634 -23.16705 270.5575 -28.63777 276.8542 -28.63777 C278.3892 -28.63777 292.4696 -22.6438 308.144 -15.31783 C323.8183 -7.99187 357.5678 7.611871 383.1428 19.35714 C408.7178 31.10242 429.8186 40.84669 430.0334 41.01109 C430.2482 41.17549 429.6327 50.21796 428.6656 61.10546 C427.6986 71.99296 427.0728 81.64274 427.2751 82.54941 C427.503 83.57097 439.0519 89.90733 457.6428 99.21077 C474.1428 107.4678 490.7825 116.3923 494.6199 119.0429 C502.2836 124.3365 504.707 128.2266 502.0167 130.9169 C497.8973 135.0363 468.8969 135.2679 443.3028 131.3857 C427.5642 128.9984 419.0888 128.8217 415.2613 130.801 C407.3256 134.9047 366.1428 195.9358 366.1428 203.5924 C366.1428 206.7469 370.7134 217.3637 383.9097 244.8622 C407.6492 294.3307 415.2734 312.0583 424.9822 340.3622 C432.8097 363.1817 436.4191 372.4515 439.5714 377.8306 C443.5136 384.5573 455.8211 400.7784 466.2008 412.9278 C487.1771 437.4801 500.5641 451.8425 561.6783 515.3622 C622.4587 578.5349 633.3329 590.4795 636.7852 597.8622 C639.2919 603.2227 639.7964 609.5131 638.0815 614.0237 C636.1276 619.1628 621.8138 635.6492 602.6429 654.8413 C568.2795 689.2426 532.2611 719.8134 517.1723 727.3848 C511.274 730.3445 501.1595 731.2361 498.9174 728.994 z" id="path1330" xml:space="preserve" connector-curvature="0" style="fill:url(#radialGradient3536);" />
      <path d="M498.9174 728.9939 C496.2846 726.3611 495.911 721.948 497.5767 713.1587 C499.726 701.8176 504.6565 686.1263 512.5035 665.6544 C516.1312 656.1902 519.8581 645.4258 520.7855 641.7337 L522.4718 635.0207 L515.0573 627.9304 C506.5572 619.8018 488.1767 604.9892 456.6429 580.8549 C418.5674 551.7139 381.8024 521.8072 358.3693 500.9138 C345.58 489.5107 341.7045 486.9912 339.0982 488.386 C335.4551 490.3358 308.3464 518.4647 268.287 561.8621 C193.7184 642.6445 144.7556 694.3655 138.9083 698.5292 L136.0485 700.5655 L132.294 698.0809 C112.5828 685.0367 34.60392 614.5009 14.50963 591.5392 C7.079171 583.0484 1.14286 572.9064 1.14286 568.7025 C1.14286 567.4153 2.099228 565.4058 3.268121 564.2369 C5.139888 562.3652 6.123924 562.1868 11.51812 562.7413 C18.67043 563.4765 37.49263 568.3328 58.50183 574.8634 C77.50342 580.77 81.35486 581.2467 87.63333 578.4695 C94.60225 575.3868 101.4232 567.8815 138.6891 522.2907 C210.012 435.035 212.1429 432.0986 212.1429 421.0706 C212.1429 413.5928 210.2626 410.0827 204.8544 407.4647 C199.1732 404.7144 195.6745 404.8127 187.4383 407.9542 C166.3924 415.9814 161.5687 417.4438 157.4733 417.0386 C151.4808 416.4457 143.4213 412.3841 119.1242 397.7126 C107.3095 390.5784 85.49284 377.836 70.64285 369.3962 C32.50533 347.7214 28.76929 345.0297 27.65324 338.4238 C26.74985 333.0767 21.25576 326.4377 7.142843 313.6391 C-28.36516 281.438 -36.8948 272.6941 -40.58994 264.7072 C-44.96307 255.2548 -42.84718 247.7425 -31.95749 234.0582 C-20.25553 219.3532 -14.60744 215.3623 -5.498539 215.3623 C3.943022 215.3623 12.66654 221.0902 32.64285 240.4063 C54.84684 261.8765 63.18771 267.9403 78.64285 273.8484 C84.14285 275.9509 99.44284 282.2736 112.6428 287.8989 C137.6273 298.5463 156.2734 305.1166 164.1544 306.05 C170.0797 306.7518 175.1758 304.248 182.063 297.2513 C187.0131 292.2225 188.8104 289.934 206.321 266.3622 C211.0196 260.0372 219.3142 249.7487 224.7534 243.4989 C242.174 223.4821 246.8904 216.477 245.8195 212.2101 C244.3764 206.4601 233.1159 198.3237 221.255 194.4606 C206.0936 189.5227 191.5871 178.0726 185.9276 166.5765 C182.8444 160.3137 182.6431 159.2588 182.6465 149.3833 C182.6496 141.9056 183.4983 134.4375 185.582 123.5655 L188.5138 108.2686 L178.1122 97.83154 C171.8548 91.5527 168.0956 87.05767 168.6768 86.54917 C176.2605 79.91394 182.4015 76.61451 190.2852 74.93956 C194.5586 74.03166 202.0948 64.66213 210.3929 49.94047 C214.6553 42.37834 218.1429 35.82031 218.1429 35.36708 C218.1429 34.91385 214.8804 32.74256 210.8929 30.54199 C197.9714 23.41108 177.247 8.808167 167.4137 -0.09447289 C163.0222 -4.070413 162.7785 -4.542643 163.8756 -6.950623 C165.5527 -10.63147 171.4456 -11.98162 183.1429 -11.36508 C194.7732 -10.75206 203.8422 -8.917793 224.7862 -2.942404 L240.9296 1.663346 L247.2393 -5.237204 C263.634 -23.16703 270.5575 -28.63775 276.8542 -28.63775 C278.3892 -28.63775 292.4696 -22.64378 308.144 -15.31781 C323.8183 -7.991855 357.5678 7.611886 383.1428 19.35715 C408.7178 31.10244 429.8186 40.8467 430.0334 41.0111 C430.2482 41.1755 429.6327 50.21798 428.6656 61.10548 C427.6986 71.99297 427.0728 81.64275 427.2751 82.54942 C427.503 83.57098 439.0519 89.90734 457.6428 99.21078 C474.1428 107.4679 490.7825 116.3923 494.6199 119.043 C502.2836 124.3365 504.707 128.2267 502.0167 130.9169 C497.8973 135.0364 468.8969 135.2679 443.3028 131.3857 C427.5642 128.9984 419.0888 128.8217 415.2613 130.801 C407.2874 134.9245 366.1428 195.8989 366.1428 203.5924 C366.1428 206.7469 370.7134 217.3637 383.9097 244.8622 C407.7273 294.4935 415.5816 312.7674 425.0534 340.5879 C432.528 362.5422 436.3349 372.308 439.5714 377.8306 C443.5135 384.5573 455.821 400.7784 466.2008 412.9278 C487.1771 437.4801 500.5641 451.8425 561.6783 515.3622 C622.4587 578.5349 633.3329 590.4795 636.7852 597.8622 C639.2919 603.2227 639.7964 609.5131 638.0815 614.0237 C636.1276 619.1628 621.8138 635.6492 602.6429 654.8413 C568.2795 689.2426 532.2611 719.8134 517.1723 727.3848 C511.274 730.3445 501.1595 731.2361 498.9174 728.994 z" id="path1328" xml:space="preserve" connector-curvature="0" style="fill:url(#radialGradient3538);" />
      <path d="M499.4554 729.644 C493.3376 725.4059 497.1815 706.4772 512.408 665.8622 C516.5319 654.8622 520.4746 643.4146 521.1696 640.4229 L522.4331 634.9836 L515.038 627.9053 C507.4885 620.6791 483.9474 601.627 460.6428 583.8823 C425.7722 557.3311 397.1625 534.3094 371.8152 512.4045 C347.0539 491.006 344.0818 488.5795 341.951 488.0222 C338.2227 487.0473 323.3149 502.0583 262.66 567.8622 C188.2701 648.567 138.9132 700.3802 136.4357 700.3681 C129.9995 700.3367 37.35219 617.6414 14.50963 591.5392 C7.079171 583.0484 1.14286 572.9064 1.14286 568.7025 C1.14286 567.4153 2.099228 565.4058 3.268121 564.2369 C5.139888 562.3652 6.123924 562.1868 11.51812 562.7413 C18.67043 563.4765 37.49263 568.3328 58.50183 574.8634 C77.50342 580.77 81.35486 581.2467 87.63333 578.4695 C94.63094 575.3741 101.7521 567.5399 138.8279 522.1482 C210.6402 434.2289 212.1429 432.1592 212.1429 421.1636 C212.1429 413.5936 210.2792 410.0907 204.8544 407.4647 C199.1732 404.7144 195.6745 404.8127 187.4383 407.9542 C170.9465 414.2444 161.4286 417.3433 158.6429 417.3296 C153.4972 417.3042 145.0339 413.104 119.9283 398.116 C106.5713 390.1418 84.39286 377.2077 70.64286 369.3733 C32.75861 347.7879 29.04363 345.1101 27.62078 338.3622 C26.20886 331.6661 19.12784 323.7405 -1.85714 305.3684 C-32.12099 278.8727 -42.8376 265.9265 -42.8376 255.8622 C-42.8376 248.5646 -35.97552 237.3728 -23.63771 224.5478 C-17.04786 217.6978 -12.43565 215.3622 -5.498522 215.3622 C4.118436 215.3622 12.09454 220.6921 34.14286 241.852 C55.78967 262.6265 63.17116 267.934 78.64286 273.8483 C84.14286 275.9508 99.44286 282.2793 112.6429 287.9117 C145.6886 302.0121 162.3091 307.3163 169.2766 305.9854 C176.0106 304.6991 186.2606 294.2639 200.3537 274.3464 C208.4869 262.8518 216.9087 252.317 229.12 238.3622 C239.3811 226.636 246.1462 216.899 246.1363 213.8706 C246.1158 207.6208 235.7299 199.5263 221.212 194.4451 C205.2491 188.8582 191.5831 178.0644 185.9276 166.5764 C182.8444 160.3136 182.6431 159.2588 182.6465 149.3832 C182.6496 141.9055 183.4983 134.4375 185.582 123.5654 L188.5138 108.2686 L178.1122 97.8315 C171.8548 91.55265 168.0956 87.05762 168.6768 86.54913 C176.2605 79.91389 182.4015 76.61446 190.2852 74.93951 C194.5586 74.03162 202.0948 64.66209 210.3929 49.94042 C214.6553 42.37829 218.1429 35.79115 218.1429 35.30232 C218.1429 34.8135 216.6804 33.67234 214.8929 32.76641 C204.6841 27.59245 185.2028 14.46689 172.6077 4.27667 C163.1568 -3.369629 162.5862 -4.12068 163.9514 -7.116899 C165.5462 -10.61711 171.6597 -11.97039 183.1429 -11.36513 C194.7732 -10.75211 203.8422 -8.917839 224.7862 -2.94245 L240.9296 1.663301 L247.2393 -5.237249 C263.634 -23.16708 270.5575 -28.6378 276.8542 -28.6378 C278.3892 -28.6378 292.6946 -22.53488 308.644 -15.07574 C324.5934 -7.61661 358.3428 7.984441 383.6428 19.59327 C408.9428 31.2021 429.8214 40.8402 430.0396 41.01127 C430.3474 41.25263 427.6659 75.60542 426.8201 82.25609 C426.7066 83.14866 437.8165 89.26277 457.7108 99.25609 C497.9222 119.4552 506.9809 125.9527 501.9478 130.9858 C497.896 135.0376 468.6917 135.2368 443.3028 131.3857 C427.4127 128.9754 419.093 128.8195 415.1506 130.8582 C407.2342 134.9519 366.1429 195.9371 366.1429 203.5924 C366.1429 206.7469 370.7134 217.3637 383.9097 244.8622 C407.5832 294.1932 415.6119 312.8438 424.6562 339.5162 C436.6599 374.9161 440.6854 382.3849 460.6849 406.3622 C482.1804 432.133 497.9564 449.163 561.6585 515.3622 C622.6301 578.7238 633.3305 590.4744 636.7852 597.8622 C639.5128 603.6951 639.8095 610.155 637.5669 614.8809 C628.4366 634.1216 541.9227 714.9651 517.1722 727.3846 C512.5179 729.7201 501.5789 731.1152 499.4554 729.6441 z" id="path1326" xml:space="preserve" connector-curvature="0" style="fill:url(#radialGradient3540);" />
      <path d="M499.4554 729.644 C493.3376 725.4059 497.1815 706.4772 512.408 665.8622 C516.5319 654.8622 520.4767 643.4055 521.1744 640.4028 L522.4427 634.9435 L514.4886 627.4028 C506.0371 619.3906 486.2878 603.5718 445.6429 572.2587 C415.6533 549.1546 394.4353 531.9526 371.8152 512.4045 C347.054 491.006 344.0819 488.5795 341.951 488.0222 C338.2227 487.0473 323.3149 502.0583 262.66 567.8622 C188.2701 648.567 138.9132 700.3802 136.4357 700.3681 C130.007 700.3367 37.39494 617.67 14.51391 591.5392 C7.080926 583.0505 1.14286 572.9088 1.14286 568.7025 C1.14286 567.4153 2.099228 565.4058 3.268121 564.2369 C5.139888 562.3652 6.123924 562.1868 11.51812 562.7413 C18.67043 563.4765 37.49263 568.3328 58.50183 574.8634 C77.50342 580.77 81.35486 581.2467 87.63333 578.4695 C94.63029 575.3744 101.7498 567.5422 138.8302 522.1482 C211.0357 433.7536 212.1429 432.2286 212.1429 421.1636 C212.1429 413.4783 210.2965 410.0991 204.587 407.3352 C198.63 404.4515 193.4469 405.0143 182.4118 409.743 C172.3273 414.0644 161.8274 417.3702 158.2875 417.3385 C153.4993 417.2955 144.5283 412.802 119.9283 398.1245 C106.5713 390.1551 84.39286 377.2123 70.64286 369.3627 C32.51436 347.5959 29.03989 345.0923 27.62078 338.3622 C26.20886 331.6661 19.12784 323.7405 -1.85714 305.3684 C-32.12099 278.8727 -42.8376 265.9265 -42.8376 255.8622 C-42.8376 248.5646 -35.97552 237.3728 -23.63771 224.5478 C-17.04786 217.6978 -12.43565 215.3622 -5.498522 215.3622 C4.120099 215.3622 12.07091 220.7054 34.64286 242.3385 C56.02281 262.8292 63.26871 267.9917 79.30096 274.1563 C85.16292 276.4103 100.5199 282.7523 113.4277 288.2496 C135.547 297.67 149.431 302.7497 160.4221 305.4431 C173.2192 308.5792 178.3749 304.2127 205.9761 266.8622 C210.8533 260.2622 219.2986 249.7487 224.7433 243.4989 C242.3987 223.233 246.8969 216.5028 245.7748 212.032 C244.2965 206.142 234.3478 199.0425 221.0506 194.3886 C205.2536 188.8598 191.5596 178.0168 185.9288 166.579 C182.8485 160.3219 182.6453 159.2584 182.6441 149.3858 C182.6432 141.8806 183.4848 134.4747 185.5783 123.5654 L188.5138 108.2686 L178.1052 97.82446 L167.6967 87.38033 L171.1697 84.39075 C175.646 80.53765 185.7783 75.3622 188.8454 75.3622 C194.1876 75.3622 203.5849 63.16532 215.733 40.46446 C218.1851 35.88218 218.3965 34.93533 217.1322 34.19701 C196.9031 22.38408 185.7327 14.87588 172.6076 4.269791 C163.1596 -3.365009 162.5858 -4.1198 163.9513 -7.116899 C165.5461 -10.61711 171.6596 -11.97039 183.1428 -11.36513 C194.7732 -10.75211 203.8422 -8.917839 224.7862 -2.94245 L240.9296 1.663301 L247.2393 -5.237249 C263.6339 -23.16708 270.5575 -28.6378 276.8541 -28.6378 C278.3892 -28.6378 292.6946 -22.53488 308.644 -15.07574 C324.5934 -7.61661 358.3428 7.984441 383.6428 19.59327 C408.9428 31.2021 429.8214 40.8402 430.0396 41.01127 C430.3474 41.25263 427.6659 75.60542 426.8201 82.25609 C426.7066 83.14866 437.8165 89.26277 457.7108 99.25609 C497.9222 119.4552 506.9809 125.9527 501.9478 130.9858 C497.896 135.0376 468.6917 135.2368 443.3028 131.3857 C428.7453 129.1775 419.6763 128.8287 415.7395 130.3255 C408.6243 133.0307 366.1428 195.7781 366.1428 203.5824 C366.1428 206.8586 370.7891 217.5329 387.1579 251.8622 C410.3741 300.5524 415.5335 312.6128 424.6559 339.5155 C436.4752 374.3715 440.0272 381.1551 457.8259 402.8622 C478.9237 428.593 491.2896 442.0383 552.0969 505.3622 C625.0036 581.2864 633.2415 590.2842 636.7852 597.8622 C639.5128 603.6951 639.8095 610.155 637.5669 614.8809 C628.4447 634.1046 541.9008 714.9761 517.1722 727.3846 C512.5179 729.7201 501.5789 731.1152 499.4554 729.6441 z" id="path1324" xml:space="preserve" connector-curvature="0" style="fill:url(#radialGradient3542);" />
      <path d="M499.4554 729.644 C493.3376 725.4059 497.1815 706.4772 512.408 665.8622 C516.5319 654.8622 520.4633 643.4615 521.1445 640.5273 L522.383 635.1925 L518.5129 631.1503 C516.3843 628.9271 509.4678 622.7772 503.1428 617.4838 C492.4346 608.5222 484.1103 601.9908 438.1428 566.4835 C414.8206 548.4683 392.285 530.0945 371.8152 512.4045 C347.0539 491.006 344.0818 488.5795 341.951 488.0223 C338.2224 487.0473 323.3064 502.0668 262.6613 567.8622 C195.7802 640.4233 144.543 694.517 138.8656 698.5596 L136.0027 700.5982 L130.494 696.8043 C120.3914 689.8461 88.48859 662.5726 65.14286 640.9357 C25.07792 603.8033 9.217976 587.2025 4.184436 577.1295 C0.591147 569.9387 0.390433 567.1146 3.268121 564.2369 C5.139888 562.3652 6.123924 562.1868 11.51812 562.7413 C18.67043 563.4765 37.49263 568.3328 58.50183 574.8634 C76.44633 580.4414 81.30455 581.1572 86.49634 578.9879 C95.31281 575.3041 98.41627 571.84 153.8042 503.8587 C208.3581 436.9012 212.1429 431.5363 212.1429 421.1636 C212.1429 413.4843 210.2955 410.0986 204.6017 407.3423 C198.4407 404.3598 194.2144 404.9436 179.8331 410.7639 C173.4805 413.3349 165.8416 415.9505 162.8577 416.5764 C157.9874 417.5979 156.8018 417.4785 151.2668 415.4085 C147.8758 414.1404 135.3231 407.2641 123.3721 400.128 C111.421 392.9919 89.04286 379.9396 73.64286 371.1229 C32.12365 347.3525 29.05603 345.1689 27.62078 338.3622 C26.20426 331.6443 19.55322 324.2154 -2.35714 304.8784 C-33.10948 277.738 -42.8376 265.9586 -42.8376 255.8622 C-42.8376 248.5646 -35.97552 237.3728 -23.63771 224.5478 C-17.04786 217.6978 -12.43565 215.3622 -5.498522 215.3622 C4.13589 215.3622 12.2818 220.8405 34.64286 242.3584 C55.66354 262.5864 63.23875 267.9802 79.30096 274.1563 C85.16292 276.4103 100.5199 282.7523 113.4277 288.2496 C135.547 297.67 149.431 302.7497 160.4221 305.4431 C173.2192 308.5792 178.3749 304.2127 205.9761 266.8622 C210.8533 260.2622 219.2986 249.7487 224.7433 243.4989 C242.3987 223.233 246.8969 216.5028 245.7748 212.032 C244.2965 206.142 234.3478 199.0425 221.0506 194.3886 C205.2536 188.8598 191.5596 178.0168 185.9288 166.579 C182.8485 160.3219 182.6453 159.2584 182.6441 149.3858 C182.6432 141.8806 183.4848 134.4747 185.5783 123.5654 L188.5138 108.2686 L178.1052 97.82446 L167.6967 87.38033 L171.1697 84.39075 C175.646 80.53765 185.7783 75.3622 188.8454 75.3622 C194.1876 75.3622 203.5849 63.16532 215.733 40.46446 C218.1851 35.88218 218.3965 34.93533 217.1322 34.19701 C190.4369 18.60811 164.1897 -0.4405518 163.3423 -4.840408 C162.8514 -7.389448 167.0215 -10.49706 171.9183 -11.23138 C182.821 -12.86635 198.7634 -10.36682 224.7862 -2.942449 L240.9296 1.663301 L247.2393 -5.237248 C263.6357 -23.16904 270.5618 -28.64134 276.853 -28.63498 C278.3874 -28.63338 292.4678 -22.6319 308.1428 -15.29825 C323.8178 -7.964599 357.5678 7.63745 383.1428 19.37297 C408.7178 31.10849 429.8214 40.84798 430.0396 41.01629 C430.3474 41.25378 427.6654 75.60985 426.8201 82.25609 C426.7066 83.14866 437.8165 89.26277 457.7108 99.25609 C497.9222 119.4552 506.9809 125.9527 501.9478 130.9858 C497.896 135.0376 468.6917 135.2368 443.3028 131.3857 C428.7453 129.1775 419.6763 128.8287 415.7395 130.3255 C408.6243 133.0307 366.1428 195.7781 366.1428 203.5824 C366.1428 206.8586 370.7891 217.5329 387.1579 251.8622 C410.3741 300.5524 415.5335 312.6128 424.6559 339.5155 C436.8277 375.4112 440.7761 382.6452 462.0202 407.9722 C483.6964 433.8144 498.6966 449.9871 561.1605 514.8622 C622.4303 578.4971 633.317 590.4456 636.7852 597.8622 C639.5128 603.6951 639.8095 610.155 637.5669 614.8809 C628.4447 634.1046 541.9008 714.9761 517.1722 727.3846 C512.5179 729.7201 501.5789 731.1152 499.4554 729.6441 z" id="path1322" xml:space="preserve" connector-curvature="0" style="fill:url(#radialGradient3544);" />
      <path d="M499.4554 729.644 C493.3376 725.4059 497.1815 706.4772 512.408 665.8622 C516.5319 654.8622 520.4637 643.4597 521.1454 640.5234 L522.3849 635.1846 L518.0139 630.6766 C509.7579 622.1619 498.5706 613.1685 438.6428 566.8712 C415.1922 548.7543 392.6959 530.4138 371.8152 512.3886 C346.953 490.9265 344.0752 488.5778 341.9627 488.0254 C338.1543 487.0295 324.5917 500.6843 262.6653 567.8622 C195.3591 640.8763 146.1453 692.8348 139.4766 697.9212 L135.9839 700.5852 L130.4846 696.7977 C120.3909 689.8458 88.47912 662.5638 65.14286 640.9357 C25.07792 603.8033 9.217976 587.2025 4.184436 577.1295 C0.591147 569.9387 0.390433 567.1146 3.268121 564.2369 C5.139888 562.3652 6.123924 562.1868 11.51812 562.7413 C18.67043 563.4765 37.49263 568.3328 58.50183 574.8634 C76.44633 580.4414 81.30455 581.1572 86.49634 578.9879 C95.31798 575.3019 98.51299 571.736 153.8073 503.8622 C208.3569 436.9026 212.1429 431.5354 212.1429 421.1636 C212.1429 413.4843 210.2955 410.0986 204.6017 407.3423 C198.4407 404.3598 194.2144 404.9436 179.8331 410.7639 C173.4805 413.3349 165.8416 415.9505 162.8577 416.5764 C157.9874 417.5979 156.8018 417.4785 151.2668 415.4085 C147.8758 414.1404 135.3231 407.2641 123.3721 400.128 C111.421 392.9919 89.04286 379.9396 73.64286 371.1229 C32.12365 347.3525 29.05603 345.1689 27.62078 338.3622 C26.20426 331.6443 19.55322 324.2154 -2.35714 304.8784 C-39.64909 271.9665 -46.99321 261.0691 -40.91076 247.6718 C-36.70099 238.3993 -21.44855 220.7376 -14.64698 217.2595 C-9.87974 214.8216 -1.644558 214.8146 3.64286 217.2439 C9.896028 220.1169 19.49688 227.8136 33.11666 240.8723 C56.136 262.9433 62.99508 267.8865 79.30096 274.1563 C85.16292 276.4103 100.4629 282.713 113.301 288.1624 C126.139 293.6117 138.6679 298.804 141.1429 299.7009 C149.3191 302.6636 163.317 306.3622 166.3536 306.3622 C174.4211 306.3622 182.9034 298.3687 200.6358 274.0556 C207.5326 264.5992 217.6783 251.6872 223.1818 245.3622 C242.1781 223.5302 246.9115 216.5608 245.7868 212.0795 C244.2966 206.1421 234.3906 199.0575 221.0506 194.3886 C205.2536 188.8598 191.5597 178.0168 185.9288 166.579 C182.8485 160.3219 182.6453 159.2584 182.6441 149.3858 C182.6432 141.8806 183.4849 134.4747 185.5784 123.5654 L188.5139 108.2686 L178.1982 97.91766 L167.8824 87.56672 L171.2627 84.47043 C175.3382 80.73727 185.6095 75.3622 188.6677 75.3622 C193.3963 75.3622 198.835 69.55546 206.9316 55.8622 C217.5059 37.97866 218.8219 35.1837 217.1322 34.19701 C190.4369 18.60811 164.1897 -0.4405556 163.3424 -4.840412 C162.8515 -7.389452 167.0215 -10.49706 171.9183 -11.23138 C182.8191 -12.86604 198.7639 -10.36668 224.7723 -2.946472 L240.9018 1.655258 L247.7325 -5.741272 C264.3903 -23.77871 270.563 -28.6378 276.8188 -28.6378 C278.3344 -28.6378 294.8898 -21.49427 313.6086 -12.7633 C332.3275 -4.032322 366.0929 11.5777 388.6429 21.92564 C411.1929 32.27357 429.8214 40.87107 430.0396 41.03117 C430.3476 41.25715 427.6638 75.62296 426.8202 82.25609 C426.7067 83.14866 437.8166 89.26277 457.7108 99.25609 C497.9223 119.4552 506.981 125.9527 501.9479 130.9858 C497.8961 135.0376 468.6918 135.2368 443.3029 131.3857 C428.7453 129.1775 419.6763 128.8287 415.7395 130.3255 C408.6244 133.0307 366.1429 195.7781 366.1429 203.5824 C366.1429 206.8744 370.8199 217.6004 387.1951 251.8622 C406.9904 293.2801 416.2359 314.8737 424.4718 338.9249 C434.3034 367.6361 436.8611 373.7161 443.084 383.1693 C456.8373 404.0616 486.5447 437.5115 546.6954 499.8333 C617.0421 572.7189 633.3395 590.451 636.7933 597.8622 C639.5121 603.6964 639.8061 610.1624 637.567 614.8809 C628.4565 634.08 541.8692 714.9921 517.1724 727.3846 C512.5181 729.7201 501.5791 731.1152 499.4555 729.6441 z" id="path1320" xml:space="preserve" connector-curvature="0" style="fill:url(#radialGradient3546);" />
      <path d="M499.4554 729.644 C493.3376 725.4059 497.1815 706.4772 512.408 665.8622 C516.5319 654.8622 520.4746 643.4146 521.1696 640.4229 L522.4331 634.9836 L515.038 627.9047 C506.0687 619.3188 491.1103 607.2477 456.1428 580.3773 C415.3685 549.0447 376.4606 517.3463 355.6683 498.5203 C345.5608 489.3686 341.6561 487.0171 338.9617 488.4591 C335.2948 490.4215 309.021 517.687 268.0557 562.0412 C191.499 644.9311 146.239 692.7632 139.4985 697.9044 L136.0277 700.5518 L132.3353 698.0925 C112.4299 684.835 34.43399 614.3 14.5112 591.5392 C7.079815 583.0492 1.14286 572.9072 1.14286 568.7025 C1.14286 567.4153 2.099228 565.4058 3.268121 564.2369 C5.139888 562.3652 6.123924 562.1868 11.51812 562.7413 C18.67043 563.4765 37.49263 568.3328 58.50183 574.8634 C77.50342 580.77 81.35486 581.2467 87.63333 578.4695 C94.74638 575.3231 101.7601 567.5402 143.3756 516.6144 C210.1601 434.8889 212.1429 432.1367 212.1429 421.1637 C212.1429 413.4844 210.2955 410.0987 204.6017 407.3423 C198.4407 404.3599 194.2144 404.9437 179.8331 410.764 C173.4805 413.335 165.8416 415.9506 162.8577 416.5764 C157.9874 417.598 156.8018 417.4785 151.2668 415.4086 C147.8758 414.1405 135.3231 407.2642 123.3721 400.1281 C111.421 392.9919 89.04286 379.9396 73.64286 371.1229 C32.12365 347.3525 29.05603 345.1689 27.62078 338.3622 C26.20426 331.6443 19.55322 324.2154 -2.35714 304.8784 C-39.64909 271.9665 -46.99321 261.0691 -40.91076 247.6718 C-36.70099 238.3993 -21.44855 220.7376 -14.64698 217.2595 C-9.87974 214.8216 -1.644558 214.8146 3.64286 217.2439 C9.896028 220.1169 19.49688 227.8136 33.11666 240.8723 C56.20986 263.0141 62.91739 267.8359 79.64286 274.3183 C85.69286 276.6631 100.9929 282.9665 113.6429 288.3259 C126.2929 293.6853 138.6679 298.804 141.1429 299.7009 C149.3191 302.6636 163.317 306.3622 166.3536 306.3622 C174.4258 306.3622 182.8315 298.5193 199.7781 275.1759 C211.4643 259.0785 216.2369 253.1262 230.3117 237.0947 C239.0451 227.1472 246.1429 216.7878 246.1429 213.9886 C246.1429 210.6061 242.1869 205.5859 236.5985 201.8766 C231.371 198.4067 227.569 196.6726 216.7999 192.8464 C210.1342 190.4781 198.4744 182.4931 192.7577 176.3815 C190.1426 173.5858 186.8099 168.7252 185.3517 165.5803 C181.5331 157.3447 181.6036 144.2776 185.5783 123.5654 L188.5138 108.2686 L178.1981 97.91766 L167.8824 87.56672 L171.2626 84.47043 C175.3381 80.73727 185.6095 75.3622 188.6677 75.3622 C193.3963 75.3622 198.835 69.55546 206.9316 55.8622 C217.5059 37.97866 218.8219 35.1837 217.1322 34.19701 C190.4369 18.60811 164.1897 -0.4405556 163.3423 -4.840412 C162.8504 -7.394912 167.0253 -10.49763 171.9479 -11.23581 C182.6744 -12.84435 199.131 -10.26195 224.7723 -2.946472 L240.9018 1.655258 L247.7236 -5.741272 C263.8746 -23.25282 270.7127 -28.6378 276.7985 -28.6378 C278.3029 -28.6378 297.7833 -20.14099 320.0883 -9.756002 C342.3933 0.6289778 376.1679 16.23888 395.1429 24.93265 C414.1179 33.62642 429.8214 40.87062 430.0396 41.03091 C430.3468 41.25656 427.6844 75.36801 426.8202 82.27989 C426.7047 83.20321 437.4793 89.13148 457.7175 99.27989 C497.4191 119.1882 506.495 125.6182 502.1994 130.7941 C498.7097 134.999 469.0856 135.2965 443.3029 131.3857 C428.0572 129.0732 418.7509 128.8317 415.1429 130.6551 C407.7547 134.3888 368.0053 193.2732 366.4648 202.7663 C365.8571 206.5107 370.7318 217.8994 390.9036 259.8622 C407.3838 294.1454 416.215 314.9522 424.4344 338.8622 C428.0267 349.3122 432.4048 361.6003 434.1637 366.1692 C442.5448 387.9408 468.4862 418.7107 548.1429 501.3637 C619.9967 575.9202 633.3331 590.4373 636.7933 597.8622 C639.5121 603.6964 639.8061 610.1624 637.567 614.8809 C628.5579 633.8661 542.2845 714.6287 517.7106 727.0812 C512.5272 729.7079 501.7348 731.223 499.4555 729.644 z" id="path1318" xml:space="preserve" connector-curvature="0" style="fill:url(#radialGradient3548);" />
    </g>
  </g>
</svg>