<?xml version="1.0" encoding="utf-8"?>
<!DOCTYPE svg PUBLIC "-//W3C//DTD SVG 1.1//EN" "http://www.w3.org/Graphics/SVG/1.1/DTD/svg11.dtd">
<svg xmlns:xlink="http://www.w3.org/1999/xlink" xmlns:xml="http://www.w3.org/XML/1998/namespace" x="0" y="0" width="32" height="32" overflow="hidden"
     viewBox="0, 0, 16, 16" preserveAspectRatio="xMidYMid" font-size="0" id="svg"
     xml:space="default" xmlns="http://www.w3.org/2000/svg" version="1.1">
    <defs id="def1" xml:space="default">
        <linearGradient x1="0%" y1="0%" x2="100%" y2="0%" gradientUnits="objectBoundingBox" id="linearGradient3829"
                        xml:space="default">
            <stop offset="0%" stop-color="#FFFFFF" stop-opacity="1" id="stop3835" xml:space="default"/>
            <stop offset="52.34026%" stop-color="#FFB600" stop-opacity="1" id="stop3839" xml:space="default"/>
            <stop offset="100%" stop-color="#FFE45C" stop-opacity="1" id="stop3837" xml:space="default"/>
        </linearGradient>
        <linearGradient x1="8" y1="8" x2="13" y2="13.5" gradientUnits="userSpaceOnUse" xlink:href="#linearGradient3829"
                        id="linearGradient3843" xml:space="default"/>
        <linearGradient x1="8" y1="8" x2="4.21182" y2="3.5" gradientUnits="userSpaceOnUse"
                        xlink:href="#linearGradient3829" id="linearGradient3845" xml:space="default"/>
        <linearGradient x1="8" y1="8" x2="9.742383" y2="10.63896" gradientUnits="userSpaceOnUse"
                        xlink:href="#linearGradient3829" id="linearGradient3847" xml:space="default"/>
    </defs>
    <g display="inline" id="layer5" xml:space="default">
        <g display="inline" transform="translate(0, -0.75)" id="g4665" xml:space="default">
            <rect x="5" y="3.5" width="8" height="12" display="inline" enable-background="accumulate" stroke="#3E9364"
                  stroke-width="0.5" stroke-linecap="round" stroke-linejoin="round" id="rect4636" xml:space="default"
                  text-align="start" marker="none" marker-start="none" marker-mid="none" marker-end="none"
                  overflow="visible" style="fill:#BEE5A8;"/>
            <path d="M3 2 L5 3.5 L5 15.5 L3 14 L3 2 z" display="inline" enable-background="accumulate" stroke="#3E9364"
                  stroke-width="0.5" stroke-linecap="round" stroke-linejoin="round" id="rect4638" xml:space="default"
                  nodetypes="ccccc" marker="none" overflow="visible" style="fill:#ACE54A;"/>
            <path d="M3 2 L11 2 L13 3.5 L5 3.5 L3 2 z" display="inline" enable-background="accumulate" stroke="#3E9364"
                  stroke-width="0.5" stroke-linecap="round" stroke-linejoin="round" id="rect4641" xml:space="default"
                  nodetypes="ccccc" marker="none" overflow="visible" style="fill:#ACE54A;"/>
            <rect x="6" y="14.5" width="5" height="0.5" display="inline" enable-background="accumulate"
                  stroke-width="0.5" stroke-linecap="round" stroke-linejoin="round" id="rect4644" xml:space="default"
                  marker="none" marker-start="none" marker-mid="none" marker-end="none" overflow="visible"
                  style="fill:#FFFF00;"/>
            <rect x="6" y="13.5" width="1.5" height="0.5" display="inline" enable-background="accumulate"
                  stroke-width="0.5" stroke-linecap="round" stroke-linejoin="round" id="rect4646" xml:space="default"
                  marker="none" marker-start="none" marker-mid="none" marker-end="none" overflow="visible"
                  style="fill:#FFFF00;"/>
            <rect x="6" y="5.5" width="6" height="0.5" display="inline" enable-background="accumulate"
                  stroke-width="0.5" stroke-linecap="round" stroke-linejoin="round" id="rect4648" xml:space="default"
                  marker="none" marker-start="none" marker-mid="none" marker-end="none" overflow="visible"
                  style="fill:#FFFF00;"/>
            <rect x="6" y="4.5" width="2.5" height="0.5" display="inline" enable-background="accumulate"
                  stroke-width="0.5" stroke-linecap="round" stroke-linejoin="round" id="rect4650" xml:space="default"
                  marker="none" marker-start="none" marker-mid="none" marker-end="none" overflow="visible"
                  style="fill:#FFFF00;"/>
            <rect x="9.5" y="4.5" width="2.5" height="0.5" display="inline" enable-background="accumulate"
                  stroke-width="0.5" stroke-linecap="round" stroke-linejoin="round" id="rect4652" xml:space="default"
                  marker="none" marker-start="none" marker-mid="none" marker-end="none" overflow="visible"
                  style="fill:#FFFF00;"/>
            <rect x="6" y="6.5" width="1" height="0.5" display="inline" enable-background="accumulate"
                  stroke-width="0.5" stroke-linecap="round" stroke-linejoin="round" id="rect4654" xml:space="default"
                  marker="none" marker-start="none" marker-mid="none" marker-end="none" overflow="visible"
                  style="fill:#FFFF00;"/>
            <rect x="7.5" y="6.5" width="3" height="0.5" display="inline" enable-background="accumulate"
                  stroke-width="0.5" stroke-linecap="round" stroke-linejoin="round" id="rect4656" xml:space="default"
                  marker="none" marker-start="none" marker-mid="none" marker-end="none" overflow="visible"
                  style="fill:#FFFF00;"/>
            <rect x="11" y="6.5" width="1" height="0.5" display="inline" enable-background="accumulate"
                  stroke-width="0.5" stroke-linecap="round" stroke-linejoin="round" id="rect4658" xml:space="default"
                  marker="none" marker-start="none" marker-mid="none" marker-end="none" overflow="visible"
                  style="fill:#FFFF00;"/>
            <path d="M7.310403 10.65965 L6.35549 10.65965 L6.203972 11.13886 L5.590854 11.13886 L6.468247 8.508448 L7.195884 8.508448 L8.073277 11.13886 L7.458396 11.13886 L7.310403 10.65965 M6.507007 10.17162 L7.155361 10.17162 L6.832946 9.12509 L6.507007 10.17162 M8.388644 8.508448 L9.401698 8.508448 C9.703557 8.508451 9.934944 8.583035 10.09586 8.732201 C10.25677 8.880197 10.33723 9.091617 10.33723 9.366461 C10.33723 9.642483 10.25677 9.855077 10.09586 10.00424 C9.934944 10.15224 9.703557 10.22624 9.401698 10.22624 L9 10.22624 L9 11.13886 L8.388644 11.13886 L8.388644 8.508448 M9 9 L9 9.734684 L9.33651 9.734684 C9.455139 9.734685 9.546754 9.702972 9.611356 9.639545 C9.675955 9.574946 9.708255 9.483918 9.708257 9.366461 C9.708255 9.249007 9.675955 9.158566 9.611356 9.095139 C9.546754 9.031715 9.455139 9.000002 9.33651 9 L9 9 M10.77064 8.508448 L12.41796 8.508448 L12.41796 9.021142 L11.382 9.021142 L11.382 9.510931 L12.35629 9.510931 L12.35629 10.02362 L11.382 10.02362 L11.382 10.62617 L12.45319 10.62617 L12.45319 11.13886 L10.77064 11.13886 L10.77064 8.508448"
                  display="inline" stroke-width="1pt" font-family="DejaVu Sans" font-size="4px" font-style="normal"
                  font-weight="700" id="text4660" xml:space="default" text-align="start" line-height="125%"
                  inkscape-font-specification="DejaVu Sans Bold Semi-Condensed" font-stretch="semi-condensed"
                  writing-mode="lr-tb" style="fill:#3E9364;"/>
        </g>
    </g>
</svg>