<?xml version="1.0" encoding="utf-8"?>
<!DOCTYPE svg PUBLIC "-//W3C//DTD SVG 1.1//EN" "http://www.w3.org/Graphics/SVG/1.1/DTD/svg11.dtd">
<svg viewBox="0 0 24 24" id="icon-3653"><title>Community Celebration Event</title>  <rect width="24" height="24" fill="none"></rect> <circle cx="12" cy="12" r="12" fill="#FFFFFF"></circle> <circle cx="12" cy="12" r="10" fill="#8F1A1D"></circle> <path d="M9.7,12c0.1,0,0.3,0,0.4,0c0.2,0.1,0.4,0.3,0.5,0.5c0.1,0.4-0.1,0.8-0.5,0.9c-0.4,0.1-0.8-0.1-0.9-0.4  C9.1,12.6,9.2,12.2,9.7,12C9.7,12,9.7,12,9.7,12z M7.2,14.4c0,0,0.3,0.2,0.8,0.2c0.5,0,1-0.1,1-0.1c-0.1-0.4-0.5-0.7-0.9-0.7  C7.6,13.8,7.3,14.1,7.2,14.4z M9.5,10.9L8.7,10c-0.3,0.2-0.3,0.6-0.1,0.8c0.2,0.2,0.5,0.3,0.7,0.1C9.4,11,9.5,10.9,9.5,10.9z   M17.8,7.4h-2.6l-0.1,8.1h2L17.8,7.4z M6.4,17.5h8.2l0.1-1.7H6.3L6.4,17.5z M7.2,12.5c0.1,0.2,0.4,0.3,0.6,0.2  c0.3-0.1,0.5-0.4,0.4-0.7c-0.1-0.2-0.2-0.3-0.4-0.4c-0.1,0-0.2,0-0.3,0c-0.1,0-0.1,0.1-0.2,0.1L7.2,12.5z M15.1,17.6l2.2,0.1  l0.1-1.8h-2.2L15.1,17.6z M7.8,10.4C8,10.3,8.1,10.1,8,9.9c0,0,0,0,0,0c0-0.1-0.1-0.2-0.2-0.2c-0.1,0-0.1,0-0.2,0l0,0l-0.1,0.6  C7.5,10.4,7.7,10.4,7.8,10.4z M15,7.3l-0.3,8.2H6.2L5.7,7L15,7.3z M9.5,14.6c0.6-0.2,1.1-0.5,1.6-0.9c0.2-0.1,0.3-0.3,0.4-0.5  c0.1-0.2,0.1-0.4,0-0.5l0,0L8,9l0.1-0.1V8.7l0.1-0.2L8.1,8.2V8L7.9,7.9L7.7,7.7L7.5,7.8L7.2,7.7L7,7.9L6.8,8v0.3L6.6,8.5l0.2,0.2V9  l0.3,0l0.2,0.2l0.2-0.1c0,0-0.6,4.8-0.6,5S7.5,15.2,9.5,14.6z M12.1,8.1c-1.6,0-2.5,1.2-2.5,2.2l0.3,0.3l0,0C10,10,10.2,9.5,10.6,9  l0.6-0.1c-0.6,0.5-1,1.3-1,2.1l1.4,1.5l0,0c0,0,0.1,0.1,0.1,0.1c0.1,0.2,0,0.5-0.1,0.7c-0.1,0.2-0.3,0.4-0.4,0.6L11,14  c0.2,0.2,0.5,0.4,0.8,0.4l-0.1,0.2v0.1H12c0,0,0.1-0.1,0.1-0.1l-0.1-0.2c1-0.1,2.6-2.1,2.6-3.5C14.5,9.3,13.7,8.1,12.1,8.1z" fill="#FFFFFF"></path> </svg>