<?xml version="1.0" encoding="utf-8"?>
<!DOCTYPE svg PUBLIC "-//W3C//DTD SVG 1.1//EN" "http://www.w3.org/Graphics/SVG/1.1/DTD/svg11.dtd">
<svg xmlns:xml="http://www.w3.org/XML/1998/namespace" x="0" y="0" width="32" height="32" overflow="hidden" viewBox="0, 0, 16, 16"
     preserveAspectRatio="xMidYMid" font-size="0" id="svg" xml:space="default"
     xmlns="http://www.w3.org/2000/svg" version="1.1">
    <g display="inline" id="layer11" xml:space="default">
        <path d="M15.5 8 A7.5 7.5 0 1 1 0.5 8 A7.5 7.5 0 1 1 15.5 8 z" display="inline" enable-background="accumulate"
              stroke="#072A5E" stroke-width="0.5" stroke-linecap="round" id="path5228" xml:space="default" type="arc"
              cx="8" cy="8" rx="7.5" ry="7.5" marker="none" overflow="visible" style="fill:#FFFFFF;"/>
        <g display="inline" transform="translate(2.218437, -2.218437)" id="g5296" xml:space="default">
            <path d="M13 8 A5 5 0 0 1 8 13 A5 5 0 0 1 3 8 A5 5 0 0 1 8 3 A5 5 0 0 1 13 8 z" display="inline"
                  enable-background="accumulate" stroke="#072A5E" stroke-width="0.5" stroke-linecap="round"
                  transform="matrix(1.10125, 0, 0, 1.10125, -3.028438, 1.408437)" id="path5234" xml:space="default"
                  ry="5" rx="5" cy="8" cx="8" type="arc" marker="none" overflow="visible" style="fill:#FFFFFF;"/>
            <g display="inline" transform="matrix(0.734581, -0.6785211, -0.6785211, -0.734581, 8.398026, 21.46883)"
               id="g5280" xml:space="default">
                <path d="M5.78125 4.71875 C2.931766 4.71875 0.5939549 6.881496 0.3125 9.65625 C0.5693579 8.402073 1.670241 7.46875 3 7.46875 C4.519725 7.46875 5.75 8.699025 5.75 10.21875 C5.75 11.73847 6.980276 12.96875 8.5 12.96875 C10.01972 12.96875 11.25 11.73847 11.25 10.21875 L11.28125 10.21875 C11.28125 7.1793 8.820701 4.71875 5.78125 4.71875 z"
                      display="inline" enable-background="accumulate" stroke-width="0.5" stroke-linecap="round"
                      id="path5267" xml:space="default" marker="none" overflow="visible" style="fill:#072A5E;"/>
                <path d="M5.8125 15.5 C8.661984 15.5 10.99979 13.33725 11.28125 10.5625 C11.02439 11.81668 9.92351 12.75 8.59375 12.75 C7.074025 12.75 5.84375 11.51972 5.84375 10 C5.84375 8.480275 4.613474 7.25 3.09375 7.25 C1.574025 7.25 0.34375 8.480275 0.34375 10 L0.3125 10 C0.3125 13.03945 2.77305 15.5 5.8125 15.5 z"
                      display="inline" enable-background="accumulate" stroke-width="0.5" stroke-linecap="round"
                      id="path5278" xml:space="default" marker="none" overflow="visible" style="fill:#2E9630;"/>
            </g>
            <path d="M-1 4 L-3.25 5.299038 L-3.25 2.700962 z" display="inline" enable-background="accumulate"
                  stroke="#FFFFFF" stroke-width="0.5" stroke-linecap="round" stroke-linejoin="round"
                  transform="matrix(0.8660254, 0.5, -0.5, 0.8660254, 12.16506, 6.285898)" id="path5288"
                  xml:space="default" randomized="0" rounded="0" flatsided="true" arg2="1.0471976" arg1="0" r2="0.75"
                  r1="1.5" cy="4" cx="-2.5" sides="3" type="star" marker="none" overflow="visible" style="fill:none;"/>
            <path d="M2 13 L3 12.5 C3 12.5 2 11 4.5 8.5 C1.5 10 2 13 2 13 z" display="inline" fill-rule="evenOdd"
                  stroke-width="1px" id="path5290" xml:space="default" nodetypes="cccc" style="fill:#FFFFFF;"/>
            <path d="M5.5 12 L4.5 12 C4.5 12 4 10.5 3 10.5 C2.5 10 1.5 9.5 1.5 8 C2 9 2.5 9.5 3.5 10 C4.5 10 5.5 12 5.5 12 z"
                  display="inline" fill-rule="evenOdd" stroke-width="1px" id="path5292" xml:space="default"
                  nodetypes="cccccc" style="fill:#FFFFFF;"/>
            <path d="M3.5 8 A0.5 0.5 0 0 1 3 8.5 A0.5 0.5 0 0 1 2.5 8 A0.5 0.5 0 0 1 3 7.5 A0.5 0.5 0 0 1 3.5 8 z"
                  display="inline" enable-background="accumulate" stroke-width="0.5" stroke-linecap="round"
                  stroke-linejoin="round" transform="translate(0, 0.5)" id="path5294" xml:space="default" ry="0.5"
                  rx="0.5" cy="8" cx="3" type="arc" marker="none" overflow="visible" style="fill:#FFFFFF;"/>
        </g>
        <path d="M13 8 A5 5 0 1 1 3 8 A5 5 0 1 1 13 8 z" display="inline" enable-background="accumulate"
              stroke="#072A5E" stroke-width="0.5" stroke-linecap="round"
              transform="matrix(1.10125, 0, 0, 1.10125, -0.8034375, -0.8165625)" id="path5230" xml:space="default"
              type="arc" cx="8" cy="8" rx="5" ry="5" marker="none" overflow="visible" style="fill:none;"/>
    </g>
</svg>