<?xml version="1.0" encoding="utf-8"?>
<!DOCTYPE svg PUBLIC "-//W3C//DTD SVG 1.1//EN" "http://www.w3.org/Graphics/SVG/1.1/DTD/svg11.dtd">
<svg xmlns:xlink="http://www.w3.org/1999/xlink" xmlns:xml="http://www.w3.org/XML/1998/namespace" x="0" y="0" width="32" height="32" overflow="hidden"
     viewBox="0, 0, 16, 16" preserveAspectRatio="xMidYMid" font-size="0" id="svg"
     xml:space="default" xmlns="http://www.w3.org/2000/svg" version="1.1">
    <defs id="def1" xml:space="default">
        <linearGradient x1="0%" y1="0%" x2="100%" y2="0%" gradientUnits="objectBoundingBox" id="linearGradient3829"
                        xml:space="default">
            <stop offset="0%" stop-color="#FFFFFF" stop-opacity="1" id="stop3835" xml:space="default"/>
            <stop offset="52.34026%" stop-color="#FFB600" stop-opacity="1" id="stop3839" xml:space="default"/>
            <stop offset="100%" stop-color="#FFE45C" stop-opacity="1" id="stop3837" xml:space="default"/>
        </linearGradient>
        <linearGradient x1="8" y1="8" x2="13" y2="13.5" gradientUnits="userSpaceOnUse" xlink:href="#linearGradient3829"
                        id="linearGradient3843" xml:space="default"/>
        <linearGradient x1="8" y1="8" x2="4.21182" y2="3.5" gradientUnits="userSpaceOnUse"
                        xlink:href="#linearGradient3829" id="linearGradient3845" xml:space="default"/>
        <linearGradient x1="8" y1="8" x2="9.742383" y2="10.63896" gradientUnits="userSpaceOnUse"
                        xlink:href="#linearGradient3829" id="linearGradient3847" xml:space="default"/>
    </defs>
    <g display="inline" id="layer13" xml:space="default">
        <path d="M15.5 8 A7.5 7.5 0 1 1 0.5 8 A7.5 7.5 0 1 1 15.5 8 z" display="inline" enable-background="accumulate"
              stroke-width="0.5" stroke-linecap="round" id="path5366" xml:space="default" type="arc" cx="8" cy="8"
              rx="7.5" ry="7.5" marker="none" overflow="visible" style="fill:#A0D4E0;"/>
        <path d="M0.6524609 6.5 C0.9365143 5.219037 1.495119 4.191402 2.24685 3.321536 C2.998582 2.451671 3.94344 1.739574 5 1.089687 C6.329664 2.194491 5.324873 2.628214 5.5 3.5 C5.675127 4.371786 5.265455 6.770233 4.5 7 C3.489701 7.303262 3.175576 5.81036 2.5 6.5 C1.518415 7.502018 1.719331 7.003739 0.6524609 6.5 z"
              display="inline" enable-background="accumulate" stroke-width="0.5" stroke-linecap="round"
              stroke-linejoin="round" id="path5368" xml:space="default" nodetypes="cscccsc" marker="none"
              overflow="visible" style="fill:#205910;"/>
        <path d="M15.5 8 C15.5 12.14 12.14 15.5 8 15.5 C6 13 4.5 13 5.5 12 C6.5 11 11.68377 12.63246 12 12 C13 10 13.5 11.5 15.5 8 z"
              display="inline" enable-background="accumulate" stroke-width="0.5" stroke-linecap="round" id="path5373"
              xml:space="default" nodetypes="ccssc" marker="none" overflow="visible" style="fill:#205910;"/>
        <path d="M15.5 8 A7.5 7.5 0 1 1 0.5 8 A7.5 7.5 0 1 1 15.5 8 z" display="inline" enable-background="accumulate"
              stroke="#000000" stroke-width="0.5" stroke-linecap="round" id="path5371" xml:space="default" ry="7.5"
              rx="7.5" cy="8" cx="8" type="arc" marker="none" overflow="visible" style="fill:none;"/>
        <path d="M15.49999 8.009396 A7.5 7.5 0 0 1 6.058857 15.24444 L8 8 z" display="inline"
              enable-background="accumulate" stroke="#000000" stroke-width="0.5" stroke-linecap="round"
              stroke-linejoin="round" transform="matrix(0, -1, 1, 0, 0, 16)" id="path5582" xml:space="default"
              type="arc" cx="8" cy="8" rx="7.5" ry="7.5" start="0.0012527608" end="1.8325957" marker="none"
              overflow="visible" style="fill:url(#linearGradient3843);"/>
        <path d="M3.264774 10 C2.621868 6.117754 4.435955 2.007191 6.835314 0.9669465 C7.235208 0.7935724 7.586 0.7188473 8 0.7188473 L8 8 L3.264774 10 z"
              display="inline" enable-background="accumulate" stroke="#000000" stroke-width="0.6881298"
              stroke-linecap="round" stroke-linejoin="round" transform="matrix(0.5279579, 0, 0, 1, 3.776337, 0)"
              id="path6098" xml:space="default" nodetypes="csccc" marker="none" overflow="visible"
              style="fill:url(#linearGradient3845);"/>
        <path d="M15.49999 8.009396 C12.64016 9.862502 9.742383 10.63896 6.102823 10.5789 L8 8 L15.49999 8.009396 z"
              display="inline" enable-background="accumulate" stroke="#000000" stroke-width="0.5" stroke-linecap="round"
              stroke-linejoin="round" transform="matrix(0.9659258, 0.258819, -0.258819, 0.9659258, 2.343146, -1.797959)"
              id="path6102" xml:space="default" transform-center-x="-1.7460034" transform-center-y="3.7507688"
              nodetypes="cccc" marker="none" overflow="visible" style="fill:url(#linearGradient3847);"/>
    </g>
</svg>