<?xml version="1.0" encoding="utf-8"?>
<!DOCTYPE svg PUBLIC "-//W3C//DTD SVG 1.1//EN" "http://www.w3.org/Graphics/SVG/1.1/DTD/svg11.dtd">
<svg xmlns:xml="http://www.w3.org/XML/1998/namespace" x="0" y="0" width="32" height="32" overflow="hidden" viewBox="0, 0, 220, 220" preserveAspectRatio="xMidYMid" font-size="0" id="svg" xml:space="preserve"  xmlns="http://www.w3.org/2000/svg" version="1.1">
  <path d="M110.936 25.0657 C161.056 25.0657 201.686 53.2717 201.686 88.0657 C201.686 102.984 194.217 116.691 181.733 127.483 L177.186 132.566 L167.186 139.566 L160.186 151.066 L153.186 165.066 L145.686 175.566 L140.686 174.566 L139.186 165.565 L137.925 148.233 C129.4 150.074 120.335 151.066 110.936 151.066 C60.8163 151.066 20.1862 122.86 20.1862 88.0657 C20.1862 53.2717 60.8163 25.0657 110.936 25.0657 z" stroke="#000000" stroke-width="5" stroke-linejoin="round" xml:space="preserve" style="fill:#A9090B;" />
  <g xml:space="preserve">
    <path d="M81.5868 100.229 C81.5868 105.9 79.9669 110.293 76.7271 113.407 C73.4873 116.522 68.796 118.079 62.653 118.079 C58.5944 118.079 55.3773 117.529 53.0018 116.428 L53.0018 108.973 C56.1024 110.592 59.2289 111.401 62.3812 111.401 C65.5206 111.401 67.953 110.511 69.6779 108.732 C71.403 106.952 72.2656 104.531 72.2656 101.471 L72.2656 98.9102 L72.149 98.9102 C69.9935 102.382 66.8153 104.117 62.6143 104.117 C58.7174 104.117 55.6234 102.766 53.3319 100.063 C51.0404 97.3594 49.8947 93.7348 49.8947 89.1884 C49.8947 84.0921 51.1683 80.0453 53.7153 77.0482 C56.2626 74.051 59.6172 72.5524 63.7794 72.5524 C67.5015 72.5524 70.2881 74.0131 72.1393 76.9344 L72.2656 76.9344 L72.2656 73.1595 L81.5868 73.1595 L81.5868 100.229 z M72.3822 88.9134 L72.3822 86.5803 C72.3822 84.7149 71.8253 83.1247 70.712 81.8095 C69.5986 80.4943 68.152 79.8366 66.3719 79.8366 C64.3394 79.8366 62.7421 80.6238 61.5802 82.1983 C60.4183 83.7728 59.8373 85.9921 59.8373 88.8565 C59.8373 91.3099 60.3892 93.2526 61.4928 94.6848 C62.5963 96.117 64.1063 96.8331 66.0223 96.8331 C67.9189 96.8331 69.453 96.1075 70.6246 94.6563 C71.7963 93.2053 72.3822 91.291 72.3822 88.9134 z" stroke="#FFFFFF" stroke-width="2" stroke-linejoin="round" xml:space="preserve" style="fill:#E4E4E1;" />
    <path d="M94.9473 68.3034 C93.4003 68.3034 92.1332 67.8307 91.146 66.8854 C90.1588 65.9401 89.6652 64.7783 89.6652 63.3998 C89.6652 61.9898 90.1588 60.8359 91.146 59.9379 C92.1332 59.04 93.4003 58.5911 94.9473 58.5911 C96.5137 58.5911 97.7856 59.04 98.7632 59.9379 C99.7406 60.8359 100.229 61.9898 100.229 63.3998 C100.229 64.8351 99.7406 66.0112 98.7632 66.9282 C97.7856 67.8449 96.5137 68.3034 94.9473 68.3034 z M99.6079 103.51 L90.2866 103.51 L90.2866 73.1595 L99.6079 73.1595 L99.6079 103.51 z" stroke="#FFFFFF" stroke-width="2" stroke-linejoin="round" xml:space="preserve" style="fill:#E4E4E1;" />
    <path d="M137.514 100.229 C137.514 105.9 135.894 110.293 132.654 113.407 C129.415 116.522 124.723 118.079 118.58 118.079 C114.522 118.079 111.305 117.529 108.929 116.428 L108.929 108.973 C112.03 110.592 115.156 111.401 118.308 111.401 C121.448 111.401 123.88 110.511 125.605 108.732 C127.33 106.952 128.193 104.531 128.193 101.471 L128.193 98.9102 L128.076 98.9102 C125.921 102.382 122.743 104.117 118.542 104.117 C114.645 104.117 111.551 102.766 109.259 100.063 C106.968 97.3594 105.822 93.7348 105.822 89.1884 C105.822 84.0921 107.096 80.0453 109.643 77.0482 C112.19 74.051 115.544 72.5524 119.707 72.5524 C123.429 72.5524 126.215 74.0131 128.067 76.9344 L128.193 76.9344 L128.193 73.1595 L137.514 73.1595 L137.514 100.229 z M128.309 88.9134 L128.309 86.5803 C128.309 84.7149 127.753 83.1247 126.639 81.8095 C125.526 80.4943 124.079 79.8366 122.299 79.8366 C120.267 79.8366 118.669 80.6238 117.507 82.1983 C116.346 83.7728 115.765 85.9921 115.765 88.8565 C115.765 91.3099 116.316 93.2526 117.42 94.6848 C118.524 96.117 120.034 96.8331 121.95 96.8331 C123.846 96.8331 125.38 96.1075 126.552 94.6563 C127.724 93.2053 128.309 91.291 128.309 88.9134 z" stroke="#FFFFFF" stroke-width="2" stroke-linejoin="round" xml:space="preserve" style="fill:#E4E4E1;" />
    <path d="M172.313 103.51 L162.992 103.51 L162.992 98.986 L162.866 98.986 C160.762 102.407 157.648 104.117 153.525 104.117 C150.483 104.117 148.089 103.287 146.345 101.628 C144.6 99.9677 143.728 97.7531 143.728 94.9836 C143.728 89.1347 147.33 85.7582 154.535 84.8539 L163.05 83.7632 C163.05 80.7409 161.196 79.2297 157.487 79.2297 C153.752 79.2297 150.201 80.2414 146.835 82.2647 L146.835 75.1323 C148.188 74.4494 150.041 73.8487 152.394 73.3303 C154.747 72.8117 156.888 72.5524 158.817 72.5524 C167.814 72.5524 172.313 76.8522 172.313 85.4516 L172.313 103.51 z M163.05 91.2087 L163.05 89.2264 L157.244 89.9188 C154.033 90.2982 152.428 91.6292 152.428 93.9118 C152.428 94.9424 152.818 95.7881 153.598 96.4489 C154.378 97.1097 155.435 97.4401 156.768 97.4401 C158.626 97.4401 160.137 96.852 161.303 95.676 C162.468 94.4998 163.05 93.0108 163.05 91.2087 z" stroke="#FFFFFF" stroke-width="2" stroke-linejoin="round" xml:space="preserve" style="fill:#E4E4E1;" />
  </g>
</svg>