<?xml version="1.0" encoding="utf-8"?>
<!DOCTYPE svg PUBLIC "-//W3C//DTD SVG 1.1//EN" "http://www.w3.org/Graphics/SVG/1.1/DTD/svg11.dtd">
<svg viewBox="0 0 24 24" id="icon-3773"><title>Geocaching HQ</title><g fill="none" fill-rule="evenodd"><circle fill="#FFF" cx="12" cy="12" r="12"></circle><circle fill="#00B265" cx="12" cy="12" r="10"></circle><path fill="#FFF" d="M9.59 8.186v2.72H7.15v-2.72H5.915v6.775H7.15v-2.838h2.438v2.838h1.237V8.186zm8.198 5.796l1.15 1.508h-1.49l-.584-.763a3.27 3.27 0 0 1-1.616.403c-.993 0-1.819-.347-2.476-1.041a3.485 3.485 0 0 1-.986-2.482c0-.64.153-1.23.46-1.766a3.442 3.442 0 0 1 1.261-1.278 3.337 3.337 0 0 1 1.725-.474c.939 0 1.745.343 2.418 1.03s1.01 1.524 1.01 2.511c0 .908-.29 1.692-.872 2.352z"></path><path d="M17.001 12.951c.267-.4.4-.844.4-1.33 0-.635-.212-1.175-.634-1.618a2.043 2.043 0 0 0-1.535-.665c-.618 0-1.135.215-1.552.647-.417.431-.626.98-.626 1.645 0 .741.263 1.328.788 1.759a2.15 2.15 0 0 0 1.4.506c.3 0 .583-.06.847-.178l-1.184-1.545h1.502l.594.78z" fill="#00B265"></path></g></svg>