<?xml version="1.0" encoding="utf-8"?>
<!DOCTYPE svg PUBLIC "-//W3C//DTD SVG 1.1//EN" "http://www.w3.org/Graphics/SVG/1.1/DTD/svg11.dtd">
<svg viewBox="0 0 24 24" id="icon-4738"><title>Geocaching HQ Block Party</title>  <rect width="24" height="24" style="fill:none"></rect> <circle cx="12" cy="12" r="12" style="fill:#fff"></circle> <circle cx="12" cy="12" r="10" style="fill:#12b265"></circle> <path d="M6.34,16l1.43,1.43V8.13L6.34,6.69ZM16,6.34H6.69L8.13,7.77h9.3Zm-5.12,3.78a.29.29,0,0,1,.3-.29.3.3,0,1,1,0,.59A.29.29,0,0,1,10.88,10.12ZM8.46,8.46v9.31h9.31V8.46Zm4.39,7.23a2.53,2.53,0,0,1-1.33-.54l-.41.42a3.14,3.14,0,0,0,1.74.7v.67H9.29V13.39H10a3.16,3.16,0,0,0,.72,1.74l.41-.41a2.63,2.63,0,0,1-.55-1.33h2.31Zm0-2.84H10.54a2.51,2.51,0,0,1,.64-1.67A2,2,0,0,1,12,12.4h.59a2.26,2.26,0,0,0-1-1.48,1.59,1.59,0,0,0,.69-1.19H12a1.39,1.39,0,0,1-.79,1c-.66-.39-.76-.73-.79-1h-.23a1.51,1.51,0,0,0,.69,1.19A3.15,3.15,0,0,0,10,12.85H9.29V9.29h3.56Zm4.09,4.09h-2.1l-.41-1.66a1,1,0,0,1,.75-.35,1.08,1.08,0,0,0,.91-.79,2,2,0,0,1-1-.08,1.7,1.7,0,0,0-.95,0,.64.64,0,0,0-.29.16l.67,2.69H13.39V13.39h3.55Zm0-4.09h-.67a3.14,3.14,0,0,0-.7-1.74l-.42.41a2.53,2.53,0,0,1,.54,1.33h-2.3V10.54a2.63,2.63,0,0,1,1.33.55l.41-.41A3.16,3.16,0,0,0,13.39,10V9.29h3.55Z" style="fill:#fff"></path> </svg>