<?xml version="1.0" encoding="utf-8"?>
<!DOCTYPE svg PUBLIC "-//W3C//DTD SVG 1.1//EN" "http://www.w3.org/Graphics/SVG/1.1/DTD/svg11.dtd">
<svg viewBox="0 0 24 24" id="icon-3774"><title>Geocaching HQ Celebration</title>  <rect width="24" height="24" fill="none"></rect> <circle cx="12" cy="12" r="12" fill="#FFFFFF"></circle> <circle cx="12" cy="12" r="10" fill="#12B265"></circle> <polygon points="9.6,10.9 7.2,10.9 7.2,8.2 5.9,8.2 5.9,15 7.2,15 7.2,12.1 9.6,12.1 " fill="#FFFFFF"></polygon> <polygon points="9.3,8.2 8.7,9.4 9.6,9.4 9.6,15 10.8,15 10.8,8.2 " fill="#FFC642"></polygon> <g> <path d="M15.2,8.1c2,0,3.4,1.5,3.4,3.5c0,2-1.5,3.5-3.4,3.5c-2,0-3.4-1.5-3.4-3.5C11.8,9.6,13.3,8.1,15.2,8.1z    M15.2,13.9c1.3,0,2.1-1,2.1-2.2c0-1.3-0.9-2.2-2.1-2.2c-1.2,0-2.1,1-2.1,2.2C13.1,12.9,14,13.9,15.2,13.9z" fill="#FFC642"></path> </g> <polygon points="16.4,12.2 14.9,12.2 17.5,15.5 18.9,15.5 " fill="#FFFFFF"></polygon> </svg>