<?xml version="1.0" encoding="utf-8"?>
<!DOCTYPE svg PUBLIC "-//W3C//DTD SVG 1.1//EN" "http://www.w3.org/Graphics/SVG/1.1/DTD/svg11.dtd">
<svg x="0" y="0" width="64" height="64.2235" viewBox="0, 0, 63, 63.22" preserveAspectRatio="xMidYMid" font-size="0" xml:space="preserve" xmlns="http://www.w3.org/2000/svg" xmlns:xlink="http://www.w3.org/1999/xlink" xmlns:xml="http://www.w3.org/XML/1998/namespace" version="1.1">
  <g xml:space="preserve">
    <path d="M38.1419 16.8546 L46.0696 25.1541 L51.0245 19.6417 L42.9729 12.5812 L38.1419 16.8546 z" fill-rule="evenOdd" stroke-width="5" stroke-linejoin="round" xml:space="preserve" style="fill:#FFFFFF;" />
    <path d="M49.4056 21.7444 C52.013 25.7878 53.5258 30.6007 53.5258 35.766 C53.5258 50.0983 41.8794 61.7168 27.5129 61.7168 C13.1464 61.7168 1.50002 50.0983 1.50002 35.766 C1.50002 21.4337 13.1464 9.81494 27.5129 9.81494 C32.5157 9.81494 37.1886 11.2238 41.1547 13.6656 M38.9555 16.1788 L48.153 6.98132 L47.9052 5.12329 L48.2768 3.20325 L49.4846 1.93359 L52.2097 1.50012 L54.9039 2.3053 L57.0097 4.16321 L59.3632 6.70264 L60.8497 8.52966 L61.5 10.233 L61.4381 12.0292 L60.8187 14.2278 L58.9297 14.8162 L56.2355 15.3427 L55.2445 15.4664 L53.5413 17.2936 L50.6923 20.1117 L46.3568 24.1993" stroke="#000000" fill-rule="evenOdd" stroke-width="3" stroke-linejoin="round" xml:space="preserve" style="fill:#FFFFFF;" />
    <path d="M48.482 6.42004 L50.0846 8.68079 L51.8537 10.5116 L53.9207 12.4626 L56.3827 13.7633 L58.7633 14.433" stroke="#000000" stroke-width="2" stroke-linejoin="round" xml:space="preserve" style="fill:none;" />
    <path d="M51.1997 31.0992 C51.7292 31.0692 52.5046 30.6488 52.5419 35.6638 C52.6451 49.5616 41.3242 60.8289 27.4864 60.8289 C13.9912 60.8289 2.98782 50.1129 2.45148 36.6908 C3.92606 36.5887 5.40073 36.4867 6.13802 36.4357 C6.87532 36.3845 6.87532 36.3845 6.93501 36.8851 C6.99463 37.3856 7.11392 38.3866 7.3327 39.5077 C7.55141 40.6288 7.86957 41.87 8.44626 43.2213 C9.02289 44.5726 9.85812 46.0341 11.0015 47.5256 C12.1449 49.0172 13.5965 50.5387 14.8194 51.5697 C16.0424 52.6007 17.0367 53.1412 17.8221 53.5016 C18.6076 53.8619 19.1843 54.0421 19.4726 54.1322 C19.761 54.2223 19.761 54.2223 19.6814 54.0621 C19.6019 53.902 19.4428 53.5817 19.0252 53.0612 C18.6076 52.5406 17.9315 51.8199 17.1063 50.849 C16.2811 49.8781 15.3067 48.6569 14.4416 47.3254 C13.5767 45.994 12.821 44.5526 12.3537 42.9911 C11.8864 41.4296 11.7075 39.7479 11.6378 38.4166 C11.5682 37.0852 11.608 36.1042 11.6278 35.6138 C11.6478 35.1232 11.6478 35.1232 12.2642 35.0331 C12.8806 34.943 14.1136 34.7628 16.629 34.4025 C19.1446 34.0421 22.9426 33.5016 26.7308 33.0812 C30.519 32.6608 34.2972 32.3605 36.8412 32.1741 C39.3853 31.9877 40.6953 31.9152 42.8826 31.755 C45.0701 31.5948 48.1349 31.347 51.1997 31.0992 z" stroke-width="5" stroke-linejoin="round" xml:space="preserve" style="fill:#97D324;" />
    <path d="M43.84 16.3593 C44.7977 16.3593 45.5742 17.0525 45.5742 17.9076 C45.5742 18.7628 44.7977 19.4559 43.84 19.4559 C42.8822 19.4559 42.1058 18.7628 42.1058 17.9076 C42.1058 17.0525 42.8822 16.3593 43.84 16.3593 z" stroke-width="0.2" stroke-linejoin="round" xml:space="preserve" style="fill:#96D224;" />
    <path d="M38.8232 33.7321 C40.3795 33.7321 41.6412 35.0077 41.6412 36.5812 C41.6412 38.1547 40.3795 39.4302 38.8232 39.4302 C37.2668 39.4302 36.0051 38.1547 36.0051 36.5812 C36.0051 35.0077 37.2668 33.7321 38.8232 33.7321 z" stroke-width="0.2" stroke-linejoin="round" xml:space="preserve" style="fill:#FFFFFF;" />
    <path d="M41.3006 45.3141 C42.3439 45.3141 43.1896 46.1182 43.1896 47.1102 C43.1896 48.1022 42.3439 48.9064 41.3006 48.9064 C40.2573 48.9064 39.4116 48.1022 39.4116 47.1102 C39.4116 46.1182 40.2573 45.3141 41.3006 45.3141 z" stroke-width="0.2" stroke-linejoin="round" xml:space="preserve" style="fill:#FFFFFF;" />
    <path d="M34.9831 51.6315 C36.3 51.6315 37.3676 52.6298 37.3676 53.8612 C37.3676 55.0927 36.3 56.0908 34.9831 56.0908 C33.6662 56.0908 32.5986 55.0927 32.5986 53.8612 C32.5986 52.6298 33.6662 51.6315 34.9831 51.6315 z" stroke-width="0.2" stroke-linejoin="round" xml:space="preserve" style="fill:#FFFFFF;" />
    <path d="M41.6413 23.8844 C43.0095 23.8844 44.1187 24.952 44.1187 26.2689 C44.1187 27.5858 43.0095 28.6534 41.6413 28.6534 C40.273 28.6534 39.1638 27.5858 39.1638 26.2689 C39.1638 24.952 40.273 23.8844 41.6413 23.8844 z" stroke-width="0.2" stroke-linejoin="round" xml:space="preserve" style="fill:#96D224;" />
  </g>
</svg>