<?xml version="1.0" encoding="utf-8"?>
<!DOCTYPE svg PUBLIC "-//W3C//DTD SVG 1.1//EN" "http://www.w3.org/Graphics/SVG/1.1/DTD/svg11.dtd">
<svg viewBox="0 0 48 48" id="icon-1304"><title>GPS Adventures Exhibit</title><circle cx="24" cy="24" r="24" fill="#fff"></circle><circle cx="24" cy="24" r="20" fill="#ede9d1"></circle><path d="M30.611 26.472c-.145.163-.317.618-.511.723a1.73 1.73 0 0 1-.156.513c-.309.644-.986 1.06-1.724 1.06-.275 0-.543-.057-.794-.168a1.853 1.853 0 0 1-.934-.903 2.023 2.023 0 0 1-1.051.296c-.134 0-.263-.014-.389-.042a1.652 1.652 0 0 1-.634.493 1.98 1.98 0 0 1-1.987-.197c-.18.413-.513.762-.948.961a1.973 1.973 0 0 1-.825.179c-.74 0-1.422-.414-1.74-1.054a1.792 1.792 0 0 1-.165-.525c-.078-.041-.152-.404-.223-.455a7.963 7.963 0 0 0-1.729 3.27c-.541 2.106-.194 4.288.975 6.144 1.169 1.856 3.021 3.164 5.216 3.683a8.708 8.708 0 0 0 6.401-.936c1.934-1.122 3.296-2.9 3.837-5.006a7.793 7.793 0 0 0-.975-6.144" fill="#173599"></path><path d="M22.026 10.658l.11-.103a1.03 1.03 0 0 0 .324-.947c-.092-.514-.553-.888-1.096-.888a1.2 1.2 0 0 0-.188.015c-.606.099-1.013.653-.909 1.233.058.325.269.602.581.759l.127.065.065 1.869h1.672l-.686-2.003" fill="#ffcb16"></path><path d="M30.823 29.462l-.074-.655-.194-.02.143.43-.179.386.304-.141zm-1.074 2.862l-.184-.031.757.584-.169-.374-.534-.815.286.165-.196-.817.127.051.283-.418-.275-.871-.184-.012.071-.151.56.23-.202-.475.356-.772-.569-.23-.101-.376-.224-.298c-.35.487-.934.789-1.562.789-.275 0-.543-.057-.794-.168a1.871 1.871 0 0 1-.812-.686l-.048.041-.126.505-.47.073.079.275-.625.088-.011.204-.932-.124-.533 1.169.246.13.026-.084.306.174-.008-.722.153.217.085-.031.024.602-.351.161-.201-.187.077.238-.289.27-.442-.456-.036.066.113.163-.166.2.178-.126.099.311.25-.01.076.452-.303.14.059.267.211-.045.135-.246.301-.205.563.304.217-.118.091.108.095-.3.287.194.277-.084.051.323-.86.244-.328-.229-.278.099-.345.078-.167.191-.219.823-.042.65.725.531.606-.319.643.904.481.956.553.545.472-.749.144-.765-.073-1.869-.413.061.113-.078.031-.428.228-.611.427-.182 1.01.909.257-1.094.525.324.418.747zm-8.441-.723l-.163-.212-.022.191.185.021zm-.165-.214l.003.003v-.005l-.003.002zm1.569 3.596l-.855-.637-.94.154-.458.164-.136-.282-.357-.219-.184.239-.252-.019-.073-.655.293-.178.469.15-.112-.385s.192-.776.365-1.061c0 0 .215-.194.329-.234l-.212-.242.355-.234-.516-.669-.609-.015.008.955-.761-.446.444-1.23.431.151-.151.33.57-.252-1.025-.76.489-.558a1.985 1.985 0 0 1-.486-.169l-.527.403.307.184-.282.205.129.097-.086.272-.254.166.328.239-.289.279-.271-.5s-.119.153-.176.173l-.331-.072-.294.891-.029.983.231.724.999 1.336-.018-.213.703.447 1.339.425-.232.49.323.619.784.788.385.96.331.84.319.239-.042-.323.049-.984.186-.424-.041-1.037.269-1.038-.436-.067zm-.622-5.457l.101-.124.018-1.261-.113.007a1.894 1.894 0 0 1-.847.765 1.973 1.973 0 0 1-1.089.161l-.001.012-.116.226.55-.019.388.81.539.453.57-1.03zm11.751-17.175a4.583 4.583 0 0 0-.546-.033c-.56 0-1.033.409-1.369 1.185-.005.013-.514 1.605-.206 3.192.129.66-.174.72-1.453.97l-.188.037c-1.352.266-2.724.181-4.077.558l-.231-.409c.752-.624 1.164-1.359 1.16-2.071a1.855 1.855 0 0 0-.03-.322c-.105-.591-.349-1.329-1.304-1.794l-.099-.048-.028-.102c-.454-1.629-1.483-2.765-2.502-2.765a1.37 1.37 0 0 0-.22.018c-.486.08-.742.378-1.082.839-.078.105-.15.222-.215.346l-.153.292-.243-.229a2.834 2.834 0 0 0-.334-.274c-.377-.255-.786-.391-1.185-.391a5.29 5.29 0 0 0-.472.022c-.402.066-.772.327-1.07.754-.392.562-.615 1.343-.61 2.142.002.17.017.356.048.568l.016.113-.081.083c-.436.446-.647.953-.644 1.548.001.168.019.346.055.544.1.565.458 1.069 1.031 1.459.318.216.714.397 1.177.538l.085.025.048.071c.105.153.22.327.345.518l.12.185-.181.131a52.045 52.045 0 0 0-3.796 3.024l-.267.236c-.607.536-.836.724-1.036.724l-.043-.001-.034-.01c-.104-.029-.202-.121-.319-.297-.813-1.228-2.165-2.235-3.217-2.396a2.526 2.526 0 0 0-.39-.031c-.719 0-1.236.33-1.495.956-.656 1.583.489 4.576 3.179 6.338.885.58 1.651.874 2.277.874.274 0 .526-.058.747-.173 1.074-.56 1.143-2.3 1.146-2.642l.001-.067.037-.057c1.213-1.868 2.747-3.478 3.986-4.553l.247-.214.143.289c.443.895.867 1.521.87 1.984a1.16 1.16 0 0 1-.005.124c-.012.077-.125.754-.609 1.076a.98.98 0 0 1-.204.104l-.199.074-.106-.178a1.072 1.072 0 0 0-1.359-.412c-.255.115-.446.32-.541.574a.97.97 0 0 0 .041.772c.134.27.39.468.702.542l.212.05-.025.209a.97.97 0 0 0 .092.55c.174.352.549.58.955.58.157 0 .31-.033.452-.098.397-.182.631-.573.597-.997l-.01-.117.771-.664.108.367c.017.056.035.112.062.166.174.352.548.579.955.579.157 0 .31-.033.452-.098a.747.747 0 0 0 .453-.588l.069-.433.341.291c.152.13.333.197.538.197.07 0 .143-.008.218-.024.427-.091.69-.364.72-.749l.033-.42.358.244c.119.082.232.153.34.216l.161.092-.048.173c-.13.466.106.95.56 1.151.137.06.282.091.431.091.401 0 .768-.226.936-.574a.953.953 0 0 0 .083-.538l-.028-.208.212-.052c.303-.076.55-.271.677-.536a.944.944 0 0 0 .032-.753.998.998 0 0 0-.533-.554 1.055 1.055 0 0 0-1.157.206l-.087.085-.123-.016c-.799-.104-1.39-.379-1.807-.839-.812-.896-.72-2.134-.643-3.544l.012-.216.224-.01c.88-.039 5.884.183 6.877.254l.083.006.063.054c.231.198 1.048.842 1.858.842h.001c.158 0 .309-.025.448-.076.727-.264 1.161-1.199 1.292-2.778.194-2.328-1.006-5.527-2.533-5.881zm-19.262 16.09c-.559.497-2.07-.433-3.352-1.757-1.282-1.324-1.869-2.995-1.31-3.493.559-.497 2.053.368 3.335 1.691 1.282 1.326 1.886 3.061 1.327 3.559zm8.72-16.3c.442-.076 1.01.367 1.368 1.228.548 1.318.191 1.694-.792 1.862-.984.168-1.454-.065-1.416-1.484.026-.925.399-1.53.84-1.606zm-4.848 1.456c.179-.91.647-1.45 1.095-1.457.449-.008.936.517 1.147 1.421.322 1.384-.092 1.701-1.092 1.717-.997.016-1.423-.287-1.15-1.681zm6.066 11.458a.644.644 0 0 0-.128.164l-.221.435-.224-.434a30.006 30.006 0 0 0-.582-1.082c-.274-.48-.619-1.871-.839-2.658l-.068-.241.188-.053c.117-.025.249-.052.341-.066a2.8 2.8 0 0 0 .312-.079l.257-.077.059.252c.089.385.271 1.153.472 1.919.166.633.311 1.137.432 1.5l.111.315-.11.105zm-2.33-6.723a7.495 7.495 0 0 1-1.224.029c-1.934-.122-2.672-1.078-2.92-1.548.661-.083 2.285-.283 4.156-.475l1.004-.101c.914-.092 1.865-.187 2.756-.29-.183.635-.913 2.099-3.772 2.385zm12.729 1.678c-.666.118-1.613-1.32-1.892-3.009-.28-1.688-.108-3.265.556-3.383.667-.118 1.575 1.269 1.855 2.959.28 1.688.148 3.315-.519 3.433zm-3.999 13.128l-.362.366.244.807.484.029.219-.314.126.015.265-.631.002-.445-.418-.087-.56.26zm-1.623 4.165l.43.124.476-.407.325-1.05-.65.894-.581.439zm2.177-6.085l-.173-.726-.163-.726-.342.161.312.554.366.737zm-.802.975l-.087-.507-.169.637.256-.13z" fill="#5cb933"></path><path d="M12.324 21.726c.031.105.126.464.145.852.018.363-.05.578-.059.711.044.154.113.321.291.182.228-.178.527-.694.461-1.086a6.098 6.098 0 0 0-.838-.659zm9.762 3.777c-.453-.066-.728-.491-.818-.652a1.005 1.005 0 0 1-.411.289l-.036.013c-.15.432.652.805 1.156.679.562-.14.337-.296.109-.329zm-1.212-11.242a3.259 3.259 0 0 0-.04-.306c-.06-.34-.178-.703-.371-.964-.451-.604-.806.418-.868.785-.057.329-.074.788.151 1.072.191.239.681.332.947.162.258-.164.203-.497.181-.749zm-.391.19a.236.236 0 0 1-.237-.236.235.235 0 1 1 .471-.002.236.236 0 0 1-.234.238zm-2.303 1.317c-.197-.121-.371-.538-.421-.666l-.092-.329-.06.062a2.192 2.192 0 0 0-.546.914c.089.114.283.22.283.22v-.001c.222.137.515.174.515.174-.232-.144-.437-.708-.437-.708l-.034-.15.066.088c.144.326.726.396.726.396zm14.166-1.295c-.183-.321-.257-.819-.279-1.013-.07.259-.157.663-.192 1.157.145.267.348.495.519.546.219.064.311-.063.291-.223-.06-.118-.225-.267-.339-.467zm-4.849 9.705c-.129.196-.376.485-.739.542-.227.036-.45.193.113.328.527.126 1.375-.297 1.123-.749a3.805 3.805 0 0 1-.497-.121zm-.632-9.621c.034-.044.078-.105.11-.168a2.249 2.249 0 0 0-.857-.734l.001.254s.003.597-.167.807c0 0 .525-.252.549-.604l.031-.09.02.138s.003.596-.166.807c-.001-.001.333-.164.479-.41zm-3.915-1.528c-.124.296-.148.676-.122 1.02.008.108.021.21.036.307.042.25.07.585.361.687.301.104.754-.098.88-.373.148-.328.018-.769-.118-1.076-.151-.342-.747-1.255-1.037-.565zm.202 1.34a.236.236 0 0 1-.237-.236.235.235 0 1 1 .471-.002.236.236 0 0 1-.234.238z" fill="#173599"></path><path d="M30.794 17.022c.72 1.516 2.321 2.418 2.321 2.418-.506-.76-.851-1.708-1.021-3.112-.002.411-.345.505-1.3.694zm-15.899 7.153c.91 1.247 1.453 2.553 1.429 3.547a5.021 5.021 0 0 0 .179-1.265l.001-.067.037-.057c.174-.269.362-.533.555-.793-.149-.408-1.49-1.067-2.201-1.365zm18.323-.423l2.946 3.538.098-.589-2.517-2.784-.527-.165zm5.586.274l-4.145-1.981-.651.022 4.998 2.609-.202-.65zm-27.537 9.295l.096.732 3.291-3.686-.187-.201-3.2 3.155zm3.628.06l.259.395 1.19-2.491-.178-.088-1.271 2.184zm4.943-13.748s1.266.977 3.17.507c2.281-.562 3.17-2.029 3.17-2.029s-2.045 1.295-3.699 1.522c-1.848.254-2.641 0-2.641 0zM8 8" fill="#166a30"></path></svg>