<?xml version="1.0" encoding="utf-8"?>
<!DOCTYPE svg PUBLIC "-//W3C//DTD SVG 1.1//EN" "http://www.w3.org/Graphics/SVG/1.1/DTD/svg11.dtd">
<svg x="0" y="0" width="64" height="64" overflow="hidden" viewBox="0, 0, 16, 16" preserveAspectRatio="xMidYMid" font-size="0" id="svg4099" xml:space="default" xmlns="http://www.w3.org/2000/svg" xmlns:xlink="http://www.w3.org/1999/xlink" xmlns:xml="http://www.w3.org/XML/1998/namespace" version="1.1">
  <defs id="defs4101" xml:space="default" />
  <g display="inline" id="layer10" xml:space="default">
    <path d="M8 2 C3.86 2 0.5 4.24 0.5 7 C0.5 9.76 3.86 12 8 12 C8.697913 12 9.35878 11.93157 10 11.8125 L10 14 L11.46875 11.4375 C13.8572 10.60088 15.5 8.922453 15.5 7 C15.5 4.24 12.14 2 8 2 z" display="inline" stroke="#000000" stroke-width="0.5" stroke-linecap="round" stroke-linejoin="round" id="path5114" xml:space="default" style="fill:#FFFFFF;" />
    <path d="M3.734449 6.144328 C3.831735 5.978461 3.947365 5.852465 4.081339 5.766337 C4.215308 5.678621 4.362835 5.634761 4.523923 5.634758 C4.801431 5.634761 5.012755 5.729658 5.157895 5.919448 C5.303026 6.109242 5.375594 6.385159 5.375598 6.747199 L5.375598 8.378778 L4.600478 8.378778 L4.600478 6.981649 C4.602069 6.960917 4.602867 6.939385 4.60287 6.917056 C4.604462 6.894728 4.605259 6.862831 4.605263 6.821362 C4.605259 6.631571 4.579741 6.49441 4.528708 6.409878 C4.479263 6.323756 4.397923 6.280694 4.284688 6.280692 C4.13955 6.280694 4.02711 6.34768 3.947368 6.481649 C3.86762 6.615622 3.826153 6.809402 3.822966 7.062989 L3.822966 8.378778 L3.047846 8.378778 L3.047846 6.981649 C3.047844 6.684999 3.024718 6.49441 2.978468 6.409878 C2.932214 6.323756 2.850077 6.280694 2.732057 6.280692 C2.585325 6.280694 2.47129 6.348477 2.389951 6.484041 C2.310205 6.618014 2.270333 6.810199 2.270334 7.060596 L2.270334 8.378778 L1.495214 8.378778 L1.495214 5.699352 L2.270334 5.699352 L2.270334 6.091696 C2.364432 5.940184 2.472885 5.826149 2.595693 5.749591 C2.718499 5.673039 2.854065 5.634761 3.002392 5.634758 C3.168259 5.634761 3.314989 5.679419 3.442583 5.76873 C3.571767 5.858047 3.669056 5.983246 3.734449 6.144328 M8.5 7.031888 L8.5 7.275907 L6.698565 7.275907 C6.716107 7.476865 6.780701 7.627583 6.892344 7.72806 C7.005581 7.828539 7.162678 7.878778 7.363636 7.878778 C7.526314 7.878778 7.692183 7.852463 7.861244 7.79983 C8.031896 7.745605 8.206536 7.664265 8.385167 7.555811 L8.385167 8.216099 C8.203347 8.292654 8.020731 8.35007 7.837321 8.388348 C7.6555 8.42822 7.473682 8.448156 7.291866 8.448156 C6.854863 8.448156 6.515151 8.325349 6.272727 8.079735 C6.031898 7.832527 5.911483 7.486434 5.911483 7.041457 C5.911483 6.604457 6.030303 6.260758 6.267942 6.010357 C6.505581 5.759961 6.832534 5.634761 7.248804 5.634758 C7.628387 5.634761 7.931417 5.761556 8.157895 6.015141 C8.385962 6.268732 8.499997 6.607647 8.5 7.031888 M7.708134 6.747199 C7.708132 6.584521 7.66507 6.45374 7.578947 6.354855 C7.494416 6.254378 7.382773 6.204139 7.244019 6.204137 C7.095692 6.204139 6.97448 6.251188 6.880383 6.345285 C6.787878 6.437791 6.729664 6.571762 6.705741 6.747199 L7.708134 6.747199 M10.72966 7.924232 C10.6228 8.080533 10.50558 8.195365 10.37799 8.26873 C10.2504 8.342095 10.10207 8.378778 9.933015 8.378778 C9.639553 8.378778 9.396331 8.250389 9.203349 7.99361 C9.011962 7.735238 8.916268 7.40669 8.916268 7.007965 C8.916268 6.607647 9.011962 6.279896 9.203349 6.024711 C9.396331 5.767935 9.639553 5.639546 9.933015 5.639544 C10.10207 5.639546 10.2504 5.676229 10.37799 5.749591 C10.50558 5.822959 10.6228 5.938589 10.72966 6.096481 L10.72966 5.699352 L11.50478 5.699352 L11.50478 8.108443 C11.50478 8.539065 11.38198 8.867614 11.13636 9.09409 C10.89234 9.322159 10.53748 9.436193 10.07177 9.436194 C9.921849 9.436193 9.775916 9.423434 9.633971 9.397917 C9.49362 9.372397 9.352471 9.333323 9.210526 9.280692 L9.210526 8.613228 C9.346092 8.699352 9.478468 8.763147 9.607656 8.804616 C9.736841 8.847677 9.866825 8.869208 9.997608 8.869209 C10.2496 8.869208 10.43461 8.807805 10.55263 8.684999 C10.67065 8.562191 10.72966 8.370007 10.72966 8.108443 L10.72966 7.924232 M10.2201 6.256768 C10.06061 6.256771 9.936203 6.322161 9.84689 6.45294 C9.75917 6.583724 9.71531 6.768732 9.715311 7.007965 C9.71531 7.25358 9.758372 7.440182 9.844498 7.567773 C9.930621 7.693771 10.05582 7.756769 10.2201 7.756769 C10.38118 7.756769 10.50638 7.691379 10.59569 7.560596 C10.68501 7.429816 10.72966 7.245605 10.72966 7.007965 C10.72966 6.768732 10.68501 6.583724 10.59569 6.45294 C10.50638 6.322161 10.38118 6.256771 10.2201 6.256768 M13.32775 7.173037 C13.16667 7.173038 13.04545 7.203341 12.96412 7.263946 C12.88277 7.324553 12.8421 7.413867 12.84211 7.531888 C12.8421 7.640342 12.8748 7.725669 12.94019 7.787869 C13.00558 7.848476 13.09649 7.878778 13.21292 7.878778 C13.35805 7.878778 13.48006 7.821362 13.57895 7.706529 C13.67783 7.590103 13.72727 7.444967 13.72727 7.271122 L13.72727 7.173037 L13.32775 7.173037 M14.50479 6.85007 L14.50479 8.378778 L13.72727 8.378778 L13.72727 7.981649 C13.6236 8.144329 13.50718 8.263148 13.37799 8.338108 C13.2488 8.411473 13.09171 8.448156 12.9067 8.448156 C12.6563 8.448156 12.45295 8.367614 12.29665 8.20653 C12.14194 8.04385 12.06459 7.833324 12.06459 7.57495 C12.06459 7.260756 12.16188 7.030294 12.35646 6.883563 C12.55104 6.736834 12.85646 6.663469 13.27273 6.663467 L13.72727 6.663467 L13.72727 6.596481 C13.72727 6.460917 13.67863 6.362033 13.58134 6.29983 C13.48565 6.236037 13.33652 6.204139 13.13397 6.204137 C12.9681 6.204139 12.81419 6.22248 12.67225 6.259161 C12.5303 6.295846 12.39793 6.350869 12.27512 6.424232 L12.27512 5.771122 C12.44099 5.726468 12.60686 5.692975 12.77273 5.670644 C12.94019 5.646723 13.10686 5.634761 13.27273 5.634758 C13.70813 5.634761 14.02233 5.730455 14.21531 5.92184 C14.40829 6.111635 14.50478 6.421045 14.50479 6.85007" display="inline" stroke-width="1pt" text-anchor="middle" font-family="DejaVu Sans" font-size="5px" font-style="normal" font-weight="700" id="text5122" xml:space="default" text-align="center" line-height="125%" inkscape-font-specification="DejaVu Sans Bold Semi-Condensed" font-stretch="semi-condensed" writing-mode="lr-tb" style="fill:#B22426;" />
  </g>
</svg>