<?xml version="1.0" encoding="utf-8"?>
<!DOCTYPE svg PUBLIC "-//W3C//DTD SVG 1.1//EN" "http://www.w3.org/Graphics/SVG/1.1/DTD/svg11.dtd">
<svg x="0" y="0" width="64" height="64" overflow="hidden" viewBox="0, 0, 16, 16" preserveAspectRatio="xMidYMid" font-size="0" id="svg4099" xml:space="default" xmlns="http://www.w3.org/2000/svg" xmlns:xlink="http://www.w3.org/1999/xlink" xmlns:xml="http://www.w3.org/XML/1998/namespace" version="1.1">
  <defs id="defs4101" xml:space="default" />
  <g display="inline" id="layer6" xml:space="default">
    <path d="M8.086459 10.55536 C8.144098 9.210436 8.317019 8.883808 9.508239 7.961574 C10.98766 6.827993 11.16058 6.6935 11.29507 6.57822 C11.96753 6.001824 12.3518 5.118013 12.3518 4.195778 C12.3518 2.101539 10.66103 0.7758221 7.971179 0.7758221 C5.435033 0.7758221 3.648201 2.005471 3.648201 3.773087 C3.648201 4.810601 4.41673 5.559919 5.473459 5.559919 C6.453333 5.559919 7.125797 4.92588 7.125797 4.02286 C7.125797 3.504104 6.91445 3.081411 6.510974 2.773999 C6.165135 2.505013 6.145922 2.485801 6.145922 2.351308 C6.145922 2.082322 6.568614 1.870977 7.164224 1.870977 C8.317017 1.870977 8.970268 2.639508 8.970268 3.984433 C8.970268 4.772176 8.682069 5.752052 8.201738 6.616647 C7.14501 8.499543 6.991305 8.88381 6.991305 9.748405 C6.991305 9.940537 7.010518 10.24795 7.048944 10.55536 L8.086459 10.55536 M7.606128 11.61209 C6.60704 11.61209 5.800084 12.41905 5.800084 13.41813 C5.800084 14.39801 6.60704 15.22418 7.586915 15.22418 C8.605215 15.22418 9.412172 14.41722 9.412172 13.41813 C9.412172 12.41905 8.605215 11.61209 7.606128 11.61209" display="inline" stroke="#000000" stroke-width="0.5" text-anchor="middle" font-family="Century Schoolbook L" font-size="144px" font-style="normal" font-weight="700" id="text4865" xml:space="default" text-align="center" line-height="125%" inkscape-font-specification="Century Schoolbook L Bold" font-stretch="normal" writing-mode="lr-tb" style="fill:#0025C1;" />
  </g>
</svg>