<?xml version="1.0" encoding="utf-8"?>
<!DOCTYPE svg PUBLIC "-//W3C//DTD SVG 1.1//EN" "http://www.w3.org/Graphics/SVG/1.1/DTD/svg11.dtd">
<svg xmlns:xml="http://www.w3.org/XML/1998/namespace" x="0" y="0" width="32" height="32" overflow="hidden" viewBox="0, 0, 220, 220" preserveAspectRatio="xMidYMid" font-size="0" id="svg" xml:space="preserve"  xmlns="http://www.w3.org/2000/svg" version="1.1">
  <path d="M187.415 70.4821 L186.748 88.8154 L182.748 100.482 L177.415 110.482 L172.415 118.482 L165.748 125.482 L160.748 128.482 L156.082 129.482 L153.415 123.149 L153.415 114.482 L153.748 107.482 L157.082 100.149 L165.082 94.1489 L173.082 87.8156 L181.082 80.4823 L187.415 70.4821 z" stroke="#000000" stroke-width="5" stroke-linejoin="bevel" xml:space="preserve" style="fill:#FFFFFF;" />
  <path d="M27.0818 72.4821 L38.7484 85.4821 L41.415 87.1489 L49.0817 95.1489 L55.0817 99.4823 L61.415 102.482 L65.7484 109.149 L69.0817 118.482 L70.7484 127.482 L71.415 134.816 L68.415 137.482 L62.415 134.149 L54.0817 125.816 L44.415 115.482 L38.7484 106.482 L33.7484 97.4823 L30.7484 87.1489 L29.0817 79.1489 L27.0818 72.4821 z" stroke="#000000" stroke-width="5" stroke-linejoin="bevel" xml:space="preserve" style="fill:#FFFFFF;" />
  <path d="M60.0818 100.149 L58.7484 81.4821 L58.7484 67.4823 L60.7484 54.8156 L67.415 43.8156 L73.0817 36.8156 L81.415 30.1489 L91.0817 24.4823 L101.748 22.8156 L120.415 23.8156 L131.748 26.8156 L141.415 31.1489 L150.082 36.8156 L156.415 42.8156 L161.415 52.4823 L164.082 62.4823 L166.082 71.8156 L163.748 83.8156 L159.415 93.4823 L155.082 101.482 L154.415 110.482 L155.082 121.149 L156.748 128.816 L161.748 137.482 L168.748 144.482 L174.082 149.816 L182.415 154.149 L189.082 158.149 L190.415 161.482 L188.082 165.482 L182.415 172.816 L175.748 179.482 L167.748 184.482 L161.415 187.816 L153.748 189.816 L144.748 192.149 L133.082 192.149 L122.082 192.149 L114.748 190.149 L108.415 187.149 L102.415 182.482 L97.415 179.149 L92.7484 183.149 L87.415 187.482 L83.415 190.816 L77.0817 192.149 L65.415 193.482 L57.0817 192.816 L50.0817 187.482 L51.415 184.149 L58.0817 179.816 L64.415 173.816 L69.415 165.482 L70.7484 154.482 L71.415 145.482 L71.0817 133.482 L69.415 125.149 L66.415 116.816 L63.7484 110.149 L60.0818 100.149 z" stroke="#000000" stroke-width="5" stroke-linejoin="bevel" xml:space="preserve" style="fill:#FFFFFF;" />
  <path d="M81.7484 100.482 L91.4152 108.815 L97.7484 109.816 L105.748 110.482 L115.748 109.149 L123.415 107.816 L129.748 104.816 L135.415 101.149 L134.415 104.149 L128.415 112.482 L121.415 123.482 L115.415 131.482 L109.415 138.816 L106.748 140.482 L100.415 133.816 L95.7484 125.816 L90.415 117.482 L85.7484 109.149 L82.0817 102.816 L81.7484 100.482 z" stroke="#000000" stroke-width="5" stroke-linejoin="bevel" xml:space="preserve" style="fill:#FF0000;" />
  <path d="M85.0818 50.8154 L93.7484 59.1488 L99.0817 63.1489 L101.415 69.8156 L101.748 91.8156 L90.0817 90.8156 L89.7484 73.4823 L90.0817 61.8156 L85.0818 50.8154 z" stroke="#2D2D2D" stroke-width="5" stroke-linejoin="bevel" xml:space="preserve" style="fill:#000000;" />
  <path d="M130.469 51.8042 L121.803 60.1376 L116.47 64.1377 L114.136 70.8043 L113.803 92.8043 L125.47 91.8043 L125.803 74.4711 L125.47 62.8043 L130.469 51.8042 z" stroke="#2D2D2D" stroke-width="5" stroke-linejoin="bevel" xml:space="preserve" style="fill:#000000;" />
  <filter x="none" y="none" width="none" height="none" color-interpolation-filters="auto" id="Filter_GaussianBlur1_" xml:space="preserve">
    <feGaussianBlur stdDeviation="1.88976" xml:space="preserve" />
  </filter>
  <path d="M95.0818 28.8154 L117.082 33.1488 L129.082 38.4823 L138.748 45.8156 L146.748 55.8156 L148.082 68.8156 L147.748 86.4823 L145.082 103.482 C145.082 103.482 144.415 116.482 144.082 118.149 C143.748 119.816 143.082 126.816 143.082 126.816 L146.415 136.149 L150.415 144.149 L158.082 151.482 L167.082 157.482 L175.415 161.482 L182.748 163.149 L186.269 158.378 L174.519 151.878 L166.894 145.003 L159.269 136.628 L153.415 123.149 L154.082 107.482 L156.415 97.4823 L162.144 80.8781 L163.748 67.4823 L156.644 46.3781 L148.748 38.1489 L133.894 29.1281 L116.415 25.1489 L103.082 24.8156 L95.0818 28.8154 z" filter="url(#Filter_GaussianBlur1_)" stroke-width="0.2" stroke-linejoin="bevel" xml:space="preserve" style="fill:#858383;" />
  <filter x="none" y="none" width="none" height="none" color-interpolation-filters="auto" id="Filter_GaussianBlur2_" xml:space="preserve">
    <feGaussianBlur stdDeviation="1.88976" xml:space="preserve" />
  </filter>
  <path d="M60.2172 180.514 L55.5922 183.826 L51.9047 186.451 L56.9984 190.566 L61.4984 191.732 L68.3317 191.899 L73.9984 191.732 L81.7172 189.451 L85.9984 186.066 L88.7172 183.514 L82.3317 184.399 L75.8317 186.566 L69.4984 185.899 L64.665 182.899 L61.8422 179.451 L60.2172 180.514 z" filter="url(#Filter_GaussianBlur2_)" stroke-width="0.2" stroke-linejoin="bevel" xml:space="preserve" style="fill:#858383;" />
  <filter x="none" y="none" width="none" height="none" color-interpolation-filters="auto" id="Filter_GaussianBlur3_" xml:space="preserve">
    <feGaussianBlur stdDeviation="1.88976" xml:space="preserve" />
  </filter>
  <path d="M102.748 180.545 L111.217 186.326 L119.155 189.139 L124.717 190.014 L143.332 190.899 L150.498 189.232 L160.332 185.399 L156.498 183.732 L150.832 184.732 L142.832 187.066 L133.998 186.899 L120.332 183.566 L112.665 181.066 L102.748 180.545 z" filter="url(#Filter_GaussianBlur3_)" stroke-width="0.2" stroke-linejoin="bevel" xml:space="preserve" style="fill:#858383;" />
</svg>