<?xml version="1.0" encoding="utf-8"?>
<!DOCTYPE svg PUBLIC "-//W3C//DTD SVG 1.1//EN" "http://www.w3.org/Graphics/SVG/1.1/DTD/svg11.dtd">
<svg x="0" y="0" width="32" height="32" viewBox="0, 0, 220, 220" preserveAspectRatio="xMidYMid" font-size="0" xml:space="preserve" xmlns="http://www.w3.org/2000/svg" xmlns:xlink="http://www.w3.org/1999/xlink" xmlns:xml="http://www.w3.org/XML/1998/namespace" version="1.1">
  <g xml:space="preserve">
    <path d="M115.231 29.471 C132.717 30.8078 145.809 36.2447 158.156 44.4051 L169.34 29.7503 C154.521 18.5664 136.447 11.5288 116.81 10.3429 L115.231 29.471 z" stroke-width="0.2" stroke-linejoin="round" xml:space="preserve" style="fill:#808080;" />
    <path d="M27.6381 91.0484 C28.4751 87.9108 29.4973 84.8589 30.6928 81.9012 L17.5663 77.385 C16.3788 80.9126 15.3864 84.5291 14.6018 88.2218 L27.6381 91.0484 z" stroke-width="0.2" stroke-linejoin="round" xml:space="preserve" style="fill:#808080;" />
    <path d="M100.016 196.864 C97.7472 196.498 95.5059 196.05 93.2954 195.524 L91.9336 204.123 C94.3569 204.608 96.81 205.004 99.2888 205.31 L100.016 196.864 z" stroke-width="0.2" stroke-linejoin="round" xml:space="preserve" style="fill:#808080;" />
    <path d="M82.418 192.221 C67.758 186.766 54.9064 177.748 45.093 166.25 L37.5234 173.311 C48.8867 185.835 63.4622 195.436 79.8655 200.915 L82.418 192.221 z" stroke-width="0.2" stroke-linejoin="round" xml:space="preserve" style="fill:#808080;" />
    <path d="M40.0109 159.684 C38.4272 157.421 36.9528 155.082 35.595 152.673 L26.3087 158.286 C27.9475 160.99 29.7155 163.608 31.6035 166.133 L40.0109 159.684 z" stroke-width="0.2" stroke-linejoin="round" xml:space="preserve" style="fill:#808080;" />
    <path d="M193.644 130.913 C192.512 137.159 190.887 143.187 188.656 148.903 L194.663 151.761 C197.29 145.555 199.154 139.07 200.158 132.449 L193.644 130.913 z" stroke-width="0.2" stroke-linejoin="round" xml:space="preserve" style="fill:#808080;" />
    <path d="M185.531 155.902 C182.803 161.277 179.436 166.309 175.319 170.906 L180.001 175.1 C184.303 170.17 188.03 164.813 191.102 159.151 L185.531 155.902 z" stroke-width="0.2" stroke-linejoin="round" xml:space="preserve" style="fill:#808080;" />
    <path d="M168.598 177.437 C166.674 179.066 164.626 180.62 162.447 182.094 L166.538 187.673 C168.784 185.968 170.94 184.165 173.001 182.275 L168.598 177.437 z" stroke-width="0.2" stroke-linejoin="round" xml:space="preserve" style="fill:#808080;" />
    <path d="M189.559 83.4358 C191.285 88.6559 192.894 96.1438 194.386 107.561 L199.948 107.508 C198.487 95.9112 196.611 87.7874 194.485 81.9202 L189.559 83.4358 z" stroke-width="0.2" stroke-linejoin="round" xml:space="preserve" style="fill:#808080;" />
    <path d="M179.204 67.1187 C182.39 70.0491 185.262 71.4806 187.823 77.8175 L191.922 76.7849 C188.991 70.1641 185.488 67.7615 182.043 65.8107 L179.204 67.1187 z" stroke-width="0.2" stroke-linejoin="round" xml:space="preserve" style="fill:#808080;" />
    <path d="M200.835 115.817 L195.321 115.385 C195.355 115.694 195.389 116.004 195.422 116.318 C195.276 118.441 195.088 120.548 194.852 122.636 L200.982 123.487 C201.065 120.938 201.017 118.379 200.835 115.817 z" stroke-width="0.2" stroke-linejoin="round" xml:space="preserve" style="fill:#808080;" />
    <path d="M111.631 206.068 C128.327 206.068 143.673 201.637 156.763 194.144 L153.029 187.545 C142.796 192.588 130.289 196.216 115.069 198.067 C112.067 198.067 109.096 197.926 106.164 197.649 L106.025 205.912 C107.882 206.015 109.751 206.068 111.631 206.068 z" stroke-width="0.2" stroke-linejoin="round" xml:space="preserve" style="fill:#808080;" />
    <path d="M12.4642 108.651 C12.4642 123.267 15.7289 137.061 21.5502 149.42 L31.6301 144.671 C27.3109 134.637 24.9224 123.635 24.9224 112.068 C24.9224 107.675 25.26 103.392 25.9114 99.235 L13.0605 97.7942 C12.6666 101.359 12.4642 104.982 12.4642 108.651 z" stroke-width="0.2" stroke-linejoin="round" xml:space="preserve" style="fill:#808080;" />
    <path d="M172.422 55.0677 C176.696 52.772 186.634 46.3999 184.481 43.9124 C182.359 41.4612 180.118 39.117 177.769 36.8888 L165.581 49.675 C167.854 51.3907 170.126 53.1911 172.422 55.0677 z" stroke-width="0.2" stroke-linejoin="round" xml:space="preserve" style="fill:#808080;" />
    <path d="M96.3116 11.25 L98.7578 30.5749 C101.074 30.219 103.421 29.942 105.794 29.7469 L105.088 10.3346 C102.127 10.5089 99.1999 10.8161 96.3116 11.25 z" stroke-width="0.2" stroke-linejoin="round" xml:space="preserve" style="fill:#808080;" />
    <path d="M20.8815 68.8756 L33.9803 74.8138 C45.1665 53.5578 65.8113 38.1201 90.7957 32.136 L86.4022 13.2702 C57.1599 20.8333 33.0021 41.6038 20.8815 68.8756 z" stroke-width="0.2" stroke-linejoin="round" xml:space="preserve" style="fill:#808080;" />
  </g>
  <ellipse cx="109.297" cy="113.401" rx="76.5" ry="77" stroke-width="0.2" stroke-linejoin="round" xml:space="preserve" style="fill:#12508C;" />
  <path d="M77.7968 108.561 L139.463 83.2278 L113.463 145.895 L77.7968 108.561 z" stroke-width="0.2" stroke-linejoin="round" xml:space="preserve" style="fill:#FFFFFF;" />
  <g xml:space="preserve">
    <path d="M200.63 54.2105 L195.03 54.2105 L195.03 70.1704 L190.55 70.1704 L190.55 54.2105 L184.95 54.2105 L184.95 50.5705 L200.63 50.5705 L200.63 54.2105 z" stroke-width="0.2" stroke-linejoin="round" xml:space="preserve" style="fill:#000000;" />
    <path d="M225.55 70.1704 L221.07 70.1704 L221.07 58.4411 C221.07 57.1751 221.127 55.7766 221.24 54.2454 L221.131 54.2454 C220.903 55.45 220.698 56.3162 220.514 56.8443 L215.92 70.1704 L212.311 70.1704 L207.634 56.9798 C207.506 56.6241 207.3 55.7126 207.017 54.2454 L206.895 54.2454 C207.011 56.1792 207.07 57.8752 207.07 59.3335 L207.07 70.1704 L203.15 70.1704 L203.15 50.5705 L209.559 50.5705 L213.562 62.1905 C213.883 63.1178 214.116 64.0513 214.262 64.9904 L214.345 64.9904 C214.59 63.9054 214.85 62.9619 215.124 62.1598 L219.127 50.5705 L225.55 50.5705 L225.55 70.1704 z" stroke-width="0.2" stroke-linejoin="round" xml:space="preserve" style="fill:#000000;" />
  </g>
</svg>