<?xml version="1.0" encoding="utf-8"?>
<!DOCTYPE svg PUBLIC "-//W3C//DTD SVG 1.1//EN" "http://www.w3.org/Graphics/SVG/1.1/DTD/svg11.dtd">
<svg xmlns:xml="http://www.w3.org/XML/1998/namespace" x="0" y="0" width="32" height="38.56314" overflow="hidden" viewBox="0, 0, 51, 61.46" preserveAspectRatio="xMidYMid" font-size="0" id="svg" xml:space="preserve"  xmlns="http://www.w3.org/2000/svg" version="1.1">
  <g id="g44" xml:space="preserve">
    <g id="g16" xml:space="preserve">
      <path d="M30.5315 34.6832 C30.909 35.2367 31.4877 36.2433 31.7268 37.1493 C31.9659 38.0552 31.8652 38.8605 31.6136 39.5399 C31.3619 40.2194 30.9593 40.7728 30.3554 41.2384 C29.7514 41.704 28.9462 42.0814 27.4363 42.5344 C25.9264 42.9874 23.712 43.5157 21.7743 44.0946 C19.8367 44.6735 18.1758 45.3025 16.9931 46.0322 C15.8104 46.7621 15.1058 47.5924 14.6654 48.4606 C14.225 49.3287 14.0489 50.2347 14.0615 51.1909 C14.0741 52.1471 14.2754 53.1537 14.3509 53.6571 C14.4264 54.1603 14.376 54.1603 13.986 53.9464 C13.5959 53.7325 12.8662 53.3048 12.1238 52.4491 C11.3815 51.5936 10.6266 50.3102 9.51933 48.6116 C8.4121 46.913 6.95258 44.7992 5.99633 43.4781 C5.04009 42.1569 4.58713 41.6285 3.98318 41.1755 C3.37924 40.7225 2.62432 40.3451 2.02038 40.1187 C1.41644 39.8922 0.96347 39.8167 0.736992 39.7159 C0.510521 39.6154 0.510521 39.4896 0.497932 38.9233 C0.485352 38.3571 0.460182 37.3506 0.623756 36.3314 C0.787323 35.3123 1.13962 34.2805 1.68066 33.3998 C2.22169 32.519 2.95145 31.7892 3.54282 31.2357 C4.13418 30.682 4.58713 30.3046 5.1659 29.9144 C5.74469 29.5245 6.44929 29.1218 7.31745 28.757 C8.18562 28.3921 9.21735 28.0649 10.0352 27.8888 C10.853 27.7126 11.457 27.6875 14.7158 28.7191 C17.9745 29.7509 23.8881 31.8396 26.933 32.9342 C29.9779 34.0289 30.154 34.1295 30.5315 34.6832 z" stroke="#000000" stroke-linejoin="round" id="path2" xml:space="preserve" style="fill:#FFFFFF;" />
      <path d="M21.0617 37.9517 C21.2043 37.8888 21.5314 37.8134 21.9257 37.7504 C22.3199 37.6874 22.7813 37.6371 23.1336 37.5951 C23.4859 37.5532 23.7291 37.5197 24.0982 37.5238 C24.4673 37.528 24.9622 37.5699 25.541 37.7125 C26.1198 37.8551 26.7824 38.0985 27.2312 38.2494 C27.6799 38.4005 27.9148 38.4591 28.1077 38.4171 C28.3006 38.3754 28.4516 38.2325 28.6361 38.1571 C28.8207 38.0817 29.0388 38.0734 29.3575 38.0692 C29.6763 38.0648 30.0957 38.0648 30.4144 38.0858 C30.7332 38.1068 30.9513 38.1488 31.1484 38.2494 C31.3455 38.3501 31.5217 38.5094 31.6307 38.7401 C31.7397 38.9708 31.7817 39.2728 31.7146 39.5873 C31.6475 39.902 31.4713 40.2291 31.2323 40.5226 C30.9932 40.8163 30.6912 41.0763 30.2466 41.332 C29.8021 41.5879 29.215 41.8395 28.611 42.045 C28.0071 42.2506 27.3863 42.4099 27.0256 42.4813 C26.665 42.5526 26.5643 42.5358 26.4468 42.4603 C26.3294 42.3848 26.1952 42.2506 25.8429 41.9696 C25.4906 41.6886 24.9202 41.2607 24.1611 40.6652 C23.402 40.0697 22.4541 39.3063 21.8963 38.8534 C21.3385 38.4005 21.1707 38.2578 21.0659 38.1613 C20.9611 38.0648 20.9191 38.0145 21.0617 37.9517 z" stroke="#000000" stroke-linejoin="round" id="path4" xml:space="preserve" style="fill:#000000;" />
      <path d="M17.4548 34.672 C17.6477 34.8019 17.9665 35.1122 18.4488 35.5778 C18.9311 36.0433 19.577 36.6642 19.9755 37.0541 C20.3739 37.4442 20.5249 37.6036 20.6339 37.7167 C20.743 37.83 20.8101 37.8971 20.8394 37.9391 C20.8688 37.9811 20.8604 37.9978 20.7346 38.0145 C20.6088 38.0314 20.3655 38.0482 19.988 38.0985 C19.6105 38.1488 19.0989 38.2325 18.5914 38.3795 C18.0839 38.5262 17.5806 38.736 17.1445 38.9457 C16.7083 39.1554 16.3392 39.3651 16.0288 39.5538 C15.7185 39.7426 15.4669 39.9103 15.2361 40.0697 C15.0055 40.2291 14.7958 40.38 14.6616 40.4764 C14.5274 40.5729 14.4687 40.6149 14.4058 40.6233 C14.3429 40.6317 14.2757 40.6066 14.0408 40.4178 C13.806 40.2291 13.4034 39.8767 13.0217 39.5118 C12.64 39.147 12.2794 38.7694 11.9942 38.476 C11.709 38.1823 11.4993 37.9727 11.3651 37.8342 C11.2308 37.6959 11.1722 37.6288 11.147 37.5784 C11.1218 37.528 11.1302 37.4945 11.2267 37.3854 C11.3232 37.2765 11.5077 37.0919 11.8348 36.8654 C12.1619 36.639 12.6317 36.3705 13.0385 36.1649 C13.4453 35.9596 13.7892 35.8168 14.1415 35.6742 C14.4938 35.5316 14.8545 35.389 15.232 35.2382 C15.6094 35.087 16.0037 34.9279 16.2931 34.827 C16.5825 34.7264 16.767 34.6844 16.8886 34.6635 C17.0103 34.6425 17.069 34.6425 17.1319 34.6173 C17.1948 34.5922 17.2619 34.5419 17.4548 34.672 z" stroke="#000000" stroke-linejoin="round" id="path6" xml:space="preserve" style="fill:#000000;" />
      <path d="M12.9378 31.0609 C13.0762 31.2202 13.4034 31.5221 13.8144 31.8829 C14.2254 32.2435 14.7203 32.663 15.1523 33.0027 C15.5843 33.3424 15.9534 33.6024 16.2428 33.7743 C16.5322 33.9464 16.7418 34.0302 16.9264 34.0931 C17.1109 34.1561 17.2703 34.198 17.438 34.2441 C17.6058 34.2902 17.782 34.3406 18.0588 34.3658 C18.3356 34.391 18.713 34.391 19.0108 34.3993 C19.3086 34.4076 19.5267 34.4244 19.6609 34.4286 C19.7951 34.4327 19.8454 34.4244 19.6358 34.2147 C19.426 34.005 18.9563 33.5941 18.3146 33.0907 C17.6729 32.5875 16.8593 31.9918 16.2679 31.5977 C15.6766 31.2035 15.3075 31.0105 15.0726 30.9183 C14.8377 30.826 14.7371 30.8344 14.4603 30.8302 C14.1835 30.826 13.7305 30.8092 13.4411 30.8134 C13.1517 30.8175 13.0259 30.8427 12.9378 30.8636 C12.8498 30.8846 12.7994 30.9015 12.9378 31.0609 z" stroke="#000000" stroke-linejoin="round" id="path8" xml:space="preserve" style="fill:#000000;" />
      <path d="M9.6078 28.4313 C9.73779 28.5109 9.94747 28.6954 10.2369 28.926 C10.5262 29.1567 10.8954 29.4335 11.1931 29.6559 C11.4909 29.8781 11.7174 30.0459 11.927 30.2179 C12.1368 30.3898 12.3297 30.566 12.443 30.6792 C12.5562 30.7924 12.5897 30.8427 12.5604 30.8931 C12.531 30.9435 12.4387 30.9938 12.2584 31.0734 C12.0781 31.1532 11.8096 31.2621 11.3693 31.4677 C10.9289 31.6732 10.3166 31.9752 9.79653 32.2435 C9.27644 32.5121 8.84864 32.7468 8.45023 32.9901 C8.05179 33.2333 7.68268 33.485 7.45621 33.6527 C7.22973 33.8206 7.14587 33.9044 7.02423 33.896 C6.90259 33.8876 6.74325 33.787 6.55033 33.6444 C6.35738 33.5018 6.1309 33.3173 5.77024 33.0111 C5.40954 32.705 4.91461 32.2771 4.57489 31.9835 C4.23518 31.6899 4.05067 31.5306 3.98358 31.4048 C3.91644 31.2789 3.96677 31.1866 4.7049 30.7672 C5.44306 30.3478 6.86907 29.6012 7.72883 29.161 C8.58859 28.7206 8.88221 28.5863 9.06254 28.5109 C9.24287 28.4354 9.31001 28.4186 9.36874 28.3976 C9.42742 28.3766 9.47775 28.3514 9.6078 28.4313 z" stroke="#000000" stroke-linejoin="round" id="path10" xml:space="preserve" style="fill:#000000;" />
      <path d="M3.79062 40.7574 C3.70673 40.6149 3.69836 40.4723 3.71095 40.1996 C3.72353 39.9271 3.75705 39.5244 3.83255 39.1678 C3.90804 38.8114 4.02551 38.5011 4.17649 38.1781 C4.32748 37.8551 4.51199 37.5197 4.7217 37.1715 C4.93142 36.8234 5.16625 36.4628 5.40531 36.1146 C5.64438 35.7665 5.88766 35.431 6.08057 35.1752 C6.27348 34.9193 6.41611 34.7433 6.52935 34.609 C6.64259 34.4747 6.72644 34.3824 6.78094 34.3322 C6.8355 34.2819 6.86066 34.2736 6.90264 34.2777 C6.94456 34.2819 7.00324 34.2987 7.25071 34.4747 C7.49818 34.651 7.93433 34.9865 8.42085 35.3849 C8.90738 35.7833 9.44418 36.2448 9.82583 36.576 C10.2075 36.9073 10.434 37.1086 10.5682 37.2428 C10.7024 37.3771 10.7444 37.4442 10.757 37.5029 C10.7695 37.5616 10.7527 37.6119 10.6143 37.7042 C10.4759 37.7965 10.2159 37.9307 9.98526 38.1152 C9.75455 38.2997 9.55325 38.5345 9.28902 38.9163 C9.02479 39.298 8.69765 39.8264 8.42921 40.3003 C8.1608 40.7743 7.95113 41.1937 7.77499 41.6215 C7.59884 42.0492 7.45621 42.4855 7.33456 42.8168 C7.21296 43.1481 7.1123 43.3746 7.04517 43.5634 C6.97808 43.7521 6.94456 43.903 6.91522 43.9994 C6.88583 44.0958 6.86066 44.1378 6.82291 44.1464 C6.78516 44.1547 6.73484 44.1295 6.47897 43.8358 C6.22315 43.5424 5.76184 42.9803 5.34663 42.4938 C4.93142 42.0072 4.56231 41.5963 4.29809 41.3195 C4.03387 41.0426 3.87452 40.9 3.79062 40.7574 z" stroke="#000000" stroke-linejoin="round" id="path12" xml:space="preserve" style="fill:#000000;" />
      <path d="M14.3429 54.1742 C14.217 54.1449 13.9989 54.0695 13.7054 53.9142 C13.4118 53.7589 13.0427 53.5242 12.7239 53.2013 C12.4052 52.8783 12.1368 52.4673 11.8222 51.9556 C11.5077 51.444 11.147 50.8317 10.9205 50.299 C10.694 49.7662 10.6017 49.3134 10.5388 48.9108 C10.4759 48.5081 10.4424 48.1558 10.5305 47.577 C10.6186 46.9982 10.8282 46.193 11.1469 45.35 C11.4657 44.507 11.8935 43.6262 12.2584 43.0223 C12.6233 42.4183 12.9253 42.0912 13.2272 41.7766 C13.5292 41.462 13.8312 41.16 14.0451 41.0009 C14.259 40.8414 14.3848 40.8246 14.5023 40.8456 C14.6197 40.8666 14.7287 40.9252 14.9593 41.118 C15.19 41.3112 15.5423 41.6383 16.1085 42.1205 C16.6747 42.6029 17.4548 43.2404 17.9498 43.6639 C18.4446 44.0875 18.6543 44.2972 18.8011 44.4734 C18.9479 44.6495 19.0318 44.7921 19.0695 44.9012 C19.1073 45.0103 19.0989 45.0858 19.036 45.1486 C18.9731 45.2115 18.8556 45.2618 18.6292 45.35 C18.4027 45.4381 18.0672 45.5638 17.6478 45.7736 C17.2283 45.9833 16.7251 46.2769 16.2763 46.6417 C15.8276 47.0067 15.4333 47.4427 15.1439 47.8412 C14.8545 48.2396 14.67 48.6003 14.54 49.0406 C14.41 49.4811 14.3344 50.0011 14.2967 50.5128 C14.259 51.0245 14.259 51.5277 14.2884 52.0436 C14.3177 52.5594 14.3764 53.088 14.4225 53.4445 C14.4687 53.8009 14.5022 53.9855 14.5022 54.0861 C14.5022 54.1869 14.4687 54.2036 14.3429 54.1742 z" stroke="#000000" stroke-linejoin="round" id="path14" xml:space="preserve" style="fill:#000000;" />
    </g>
    <g id="g36" xml:space="preserve">
      <path d="M33.0983 5.52197 C31.7058 5.6394 29.0552 6.17615 26.3207 6.88074 C23.5862 7.58533 20.7678 8.45789 17.9326 9.59851 C15.0974 10.7394 12.2455 12.1486 10.2323 13.3229 C8.21918 14.4972 7.04483 15.4366 6.05502 16.6949 C5.06525 17.953 4.25999 19.5302 3.89089 20.4025 C3.52183 21.2748 3.58896 21.4425 5.13239 22.7175 C6.67576 23.9926 9.69547 26.3748 12.3126 28.4215 C14.9296 30.4681 17.1441 32.1793 19.6774 33.8234 C22.2105 35.4674 25.0625 37.0444 26.6226 37.8663 C28.1828 38.6884 28.4513 38.7555 28.5016 38.6215 C28.5519 38.4872 28.3841 38.1517 28.2667 37.6149 C28.1493 37.078 28.0822 36.3397 28.5184 35.6185 C28.9546 34.8971 29.894 34.1925 31.2025 33.6556 C32.5111 33.1188 34.1887 32.7496 35.8663 32.5485 C37.5439 32.347 39.2216 32.3136 40.0604 32.2465 C40.8992 32.1793 40.8992 32.0787 39.8758 27.7001 C38.8525 23.3214 36.8058 14.6649 35.7153 10.1857 C34.6249 5.70642 34.4907 5.40442 33.0983 5.52197 z" stroke="#000000" stroke-linejoin="round" id="path18" xml:space="preserve" style="fill:#FFFFFF;" />
      <path d="M25.9619 7.42322 C25.5372 7.52942 24.7036 7.75745 23.8968 7.97839 C23.09 8.19934 22.3099 8.41321 21.6116 8.6178 C20.9133 8.82214 20.2967 9.01721 19.677 9.23108 C19.0574 9.44495 18.4346 9.67786 18.1294 9.80676 C17.8243 9.93567 17.8369 9.96082 17.9376 10.1434 C18.0382 10.3258 18.227 10.6655 18.5226 11.1531 C18.8183 11.6406 19.2209 12.276 19.5544 12.8359 C19.8878 13.3959 20.152 13.8802 20.3942 14.3363 C20.6364 14.7924 20.8566 15.2203 20.9856 15.4625 C21.1146 15.7047 21.1523 15.7614 21.1712 15.7897 C21.19 15.818 21.19 15.818 21.5015 15.7267 C21.8129 15.6354 22.4357 15.453 23.0742 15.2611 C23.7128 15.0692 24.3671 14.868 25.0024 14.6824 C25.6378 14.4967 26.2544 14.3269 26.8048 14.1665 C27.3553 14.006 27.8397 13.8551 28.2046 13.7292 C28.5695 13.6034 28.8148 13.5028 28.9312 13.4242 C29.0476 13.3456 29.035 13.2889 28.9092 12.9933 C28.7834 12.6975 28.5443 12.1627 28.299 11.5934 C28.0536 11.024 27.802 10.4202 27.5566 9.85083 C27.3113 9.28149 27.0722 8.7467 26.9118 8.39758 C26.7514 8.04846 26.6696 7.88489 26.613 7.77161 C26.5563 7.65833 26.5249 7.59546 26.4966 7.53333 C26.4683 7.47131 26.4431 7.40991 26.4227 7.37146 C26.4023 7.33289 26.3865 7.31714 25.9619 7.42322 z" stroke="#000000" stroke-linejoin="round" id="path20" xml:space="preserve" style="fill:#000000;" />
      <path d="M13.8751 19.2217 C13.9128 19.1965 13.9128 19.1713 13.5605 18.7687 C13.2082 18.3661 12.5036 17.5861 11.8242 16.8373 C11.1448 16.0887 10.4905 15.3715 10.0438 14.8998 C9.59717 14.4279 9.35812 14.2014 9.2197 14.1259 C9.0813 14.0504 9.04356 14.1259 8.74787 14.3712 C8.4522 14.6166 7.89858 15.0319 7.33868 15.5226 C6.77877 16.0133 6.21258 16.5795 5.75961 17.1268 C5.30666 17.6741 4.96694 18.2025 4.70272 18.5989 C4.4385 18.9952 4.24976 19.2594 4.0799 19.6244 C3.91004 19.9891 3.75906 20.4547 3.68356 20.7379 C3.60807 21.0209 3.60807 21.1216 3.63324 21.1844 C3.65839 21.2474 3.70873 21.2726 4.46995 21.8828 C5.23117 22.493 6.70328 23.6884 7.49595 24.3175 C8.28863 24.9467 8.40186 25.0094 8.46478 25.0221 C8.52769 25.0345 8.54028 24.9969 8.62835 24.7767 C8.71642 24.5565 8.87998 24.1539 9.04984 23.8016 C9.2197 23.4493 9.39585 23.1473 9.59717 22.8705 C9.79848 22.5936 10.025 22.342 10.2514 22.0905 C10.4779 21.8387 10.7044 21.587 10.9812 21.3165 C11.258 21.046 11.5852 20.7567 11.8934 20.5114 C12.2017 20.266 12.4911 20.0647 12.7364 19.8949 C12.9818 19.725 13.1831 19.5865 13.3341 19.4922 C13.4851 19.3978 13.5857 19.3475 13.6738 19.3097 C13.7619 19.2721 13.8373 19.2468 13.8751 19.2217 z" stroke="#000000" stroke-linejoin="round" id="path22" xml:space="preserve" style="fill:#000000;" />
      <path d="M18.2192 24.5139 C18.1531 24.5422 18.1469 24.5485 17.6341 23.9225 C17.1214 23.2965 16.1022 22.0385 15.4071 21.1735 C14.7119 20.3083 14.3408 19.8365 14.1583 19.5944 C13.9759 19.3522 13.9822 19.3395 14.1489 19.2169 C14.3156 19.0941 14.6427 18.8615 15.1523 18.5626 C15.6619 18.2638 16.3539 17.8988 16.9295 17.6158 C17.5052 17.3326 17.9644 17.1313 18.3607 16.9552 C18.7571 16.7791 19.0905 16.6281 19.4114 16.4833 C19.7322 16.3387 20.0405 16.2003 20.3047 16.0902 C20.5689 15.9801 20.7891 15.8983 20.9306 15.8417 C21.0722 15.785 21.1351 15.7535 21.1697 15.7411 C21.2043 15.7284 21.2106 15.7347 21.2955 15.892 C21.3804 16.0492 21.544 16.3575 21.7925 16.7948 C22.041 17.2321 22.3745 17.7982 22.8085 18.506 C23.2426 19.2137 23.7774 20.063 24.1076 20.5883 C24.4379 21.1136 24.5637 21.3148 24.6266 21.4281 C24.6896 21.5414 24.6896 21.5665 24.5795 21.62 C24.4694 21.6735 24.2492 21.7552 23.8214 21.9377 C23.3936 22.1202 22.7582 22.4032 22.2266 22.6454 C21.695 22.8877 21.2672 23.089 20.8457 23.2841 C20.4242 23.4791 20.009 23.6678 19.6252 23.8502 C19.2415 24.0326 18.8892 24.2089 18.713 24.2969 C18.5369 24.3849 18.5369 24.3849 18.474 24.41 C18.4111 24.4353 18.2852 24.4857 18.2192 24.5139 z" stroke="#000000" stroke-linejoin="round" id="path24" xml:space="preserve" style="fill:#000000;" />
      <path d="M18.0022 24.5831 C18.021 24.58 18.0336 24.5863 18.2349 24.8127 C18.4362 25.0392 18.8263 25.486 19.3327 26.115 C19.8391 26.744 20.462 27.5557 20.8803 28.1124 C21.2987 28.6692 21.5126 28.9711 21.7202 29.2543 C21.9278 29.5374 22.1291 29.8016 22.2675 29.9684 C22.4059 30.135 22.4814 30.2042 22.4877 30.2577 C22.494 30.3112 22.4311 30.349 22.2832 30.4843 C22.1354 30.6195 21.9026 30.8522 21.6982 31.1227 C21.4937 31.3932 21.3176 31.7015 21.1729 32.0255 C21.0282 32.3495 20.9149 32.6891 20.8489 33.0414 C20.7828 33.3937 20.7639 33.7587 20.7545 33.9694 C20.7451 34.1802 20.7451 34.2367 20.2701 33.9318 C19.7951 33.6266 18.8452 32.9596 17.7662 32.1953 C16.6873 31.431 15.4794 30.5691 14.8409 30.0846 C14.2023 29.6002 14.1331 29.4933 14.1048 29.3738 C14.0765 29.2543 14.0891 29.1222 14.1394 28.8893 C14.1898 28.6566 14.2778 28.3231 14.4131 28.037 C14.5483 27.7506 14.7308 27.5116 15.017 27.1656 C15.3033 26.8197 15.6933 26.3666 16.0173 26.0521 C16.3413 25.7375 16.5992 25.5614 16.8352 25.3883 C17.0711 25.2155 17.285 25.0455 17.4643 24.9166 C17.6436 24.7876 17.7883 24.6996 17.8732 24.6492 C17.9581 24.5989 17.9833 24.5863 18.0022 24.5831 z" stroke="#000000" stroke-linejoin="round" id="path26" xml:space="preserve" style="fill:#000000;" />
      <path d="M28.1905 27.37 C28.1811 27.3544 28.1685 27.348 27.9987 27.4015 C27.8288 27.455 27.5017 27.5682 27.1022 27.735 C26.7027 27.9017 26.2309 28.1219 25.8377 28.3137 C25.4445 28.5056 25.1299 28.6692 24.7147 28.9052 C24.2995 29.141 23.7836 29.4493 23.4314 29.6696 C23.0791 29.8896 22.8903 30.0219 22.7771 30.1067 C22.6638 30.1915 22.6261 30.2294 22.733 30.4055 C22.84 30.5817 23.0916 30.8962 23.5477 31.4342 C24.0038 31.972 24.6644 32.7333 25.2935 33.4535 C25.9226 34.174 26.5203 34.8534 26.8851 35.256 C27.25 35.6586 27.3821 35.7843 27.5677 35.8944 C27.7533 36.0045 27.9924 36.099 28.2251 36.1429 C28.4579 36.187 28.6844 36.1808 28.9706 35.973 C29.2569 35.7655 29.6029 35.3566 29.8514 34.9979 C30.0999 34.6394 30.2509 34.3312 30.3704 34.0984 C30.4899 33.8656 30.578 33.7084 30.6378 33.5165 C30.6975 33.3246 30.729 33.098 30.7196 32.9 C30.7101 32.7018 30.6598 32.5319 30.5151 32.1953 C30.3704 31.8588 30.1313 31.3555 29.8514 30.7452 C29.5714 30.135 29.2506 29.4178 28.9927 28.8768 C28.7347 28.3358 28.5397 27.9708 28.4359 27.7758 C28.3321 27.5808 28.3195 27.5557 28.2975 27.5273 C28.2755 27.499 28.244 27.4677 28.2251 27.4393 C28.2063 27.411 28.2 27.3859 28.1905 27.37 z" stroke="#000000" stroke-linejoin="round" id="path28" xml:space="preserve" style="fill:#000000;" />
      <path d="M31.701 19.5314 C31.7481 19.5345 31.7544 19.5597 31.8708 19.89 C31.9872 20.2203 32.2137 20.8556 32.5125 21.6483 C32.8113 22.441 33.1825 23.391 33.4373 24.0768 C33.6921 24.7623 33.8305 25.184 33.8777 25.3947 C33.9249 25.6053 33.8808 25.6053 33.7298 25.6337 C33.5788 25.662 33.3209 25.7186 32.9749 25.8131 C32.6289 25.9073 32.1948 26.0394 31.7419 26.1747 C31.2889 26.3099 30.8171 26.4484 30.3924 26.5712 C29.9678 26.6937 29.5903 26.8007 29.2475 26.9076 C28.9046 27.0146 28.5963 27.1216 28.439 27.172 C28.2818 27.2223 28.2755 27.2159 28.0899 26.9642 C27.9043 26.7126 27.5394 26.2157 27.1211 25.5991 C26.7027 24.9825 26.2309 24.2465 25.8691 23.6647 C25.5074 23.0826 25.2558 22.6549 25.089 22.3561 C24.9223 22.0573 24.8405 21.8873 24.7934 21.7963 C24.7462 21.705 24.7336 21.6924 24.806 21.6547 C24.8783 21.6168 25.0356 21.5541 25.6143 21.3652 C26.1931 21.1765 27.1934 20.8619 28.0333 20.601 C28.8731 20.3397 29.5526 20.1322 30.0999 19.9686 C30.6472 19.8051 31.0624 19.6855 31.3141 19.6163 C31.5657 19.5471 31.6538 19.5282 31.701 19.5314 z" stroke="#000000" stroke-linejoin="round" id="path30" xml:space="preserve" style="fill:#000000;" />
      <path d="M35.6046 12.2841 C35.5731 12.2621 35.5039 12.2621 35.1956 12.2872 C34.8874 12.3124 34.3401 12.3627 33.7047 12.4572 C33.0693 12.5514 32.3458 12.6898 31.6318 12.844 C30.9177 12.9982 30.2131 13.168 29.7979 13.2687 C29.3827 13.3693 29.2569 13.4008 29.2726 13.5895 C29.2883 13.7782 29.4456 14.1241 29.6249 14.549 C29.8042 14.9735 30.0055 15.4768 30.2131 15.9706 C30.4207 16.4645 30.6346 16.9489 30.8391 17.4176 C31.0435 17.8864 31.2386 18.3392 31.3675 18.6569 C31.4965 18.9747 31.5594 19.1571 31.6034 19.2704 C31.6475 19.3835 31.6727 19.4276 31.6915 19.4496 C31.7104 19.4716 31.723 19.4716 31.8268 19.4559 C31.9306 19.4402 32.1256 19.4088 32.5282 19.3363 C32.9309 19.264 33.5411 19.1508 34.0475 19.025 C34.554 18.899 34.9566 18.7607 35.3152 18.6538 C35.6738 18.5468 35.9883 18.4713 36.2714 18.421 C36.5545 18.3707 36.8062 18.3456 36.9792 18.3297 C37.1522 18.3141 37.2465 18.3077 37.2906 18.2889 C37.3346 18.2701 37.3283 18.2386 37.061 17.3043 C36.7936 16.3702 36.2651 14.5331 35.982 13.5643 C35.6989 12.5956 35.6612 12.4948 35.6455 12.4225 C35.6297 12.3502 35.636 12.306 35.6046 12.2841 z" stroke="#000000" stroke-linejoin="round" id="path32" xml:space="preserve" style="fill:#000000;" />
      <path d="M38.8413 24.7499 C38.7879 24.731 38.7061 24.7372 38.3789 24.775 C38.0518 24.8127 37.4793 24.882 36.9414 24.9733 C36.4035 25.0643 35.9003 25.1776 35.4693 25.2721 C35.0384 25.3663 34.6798 25.4418 34.4501 25.4984 C34.2205 25.5551 34.1199 25.5929 34.0758 25.6464 C34.0318 25.6998 34.0444 25.7689 34.1734 26.1307 C34.3023 26.4926 34.5477 27.1467 34.8622 27.9803 C35.1768 28.8138 35.5605 29.8268 35.8216 30.4967 C36.0827 31.1667 36.2211 31.4938 36.328 31.7361 C36.435 31.9783 36.5105 32.1356 36.7244 32.2015 C36.9383 32.2677 37.2906 32.2426 37.6932 32.2267 C38.0958 32.2111 38.5488 32.2047 38.9829 32.2015 C39.417 32.1985 39.8322 32.1985 40.1625 32.2111 C40.4927 32.2236 40.7381 32.2489 40.8608 32.2614 L40.9834 32.2614 C40.9834 32.2489 40.9834 32.2236 40.6469 31.0001 C40.3103 29.7765 39.6371 27.3544 39.2974 26.1307 C38.9577 24.9071 38.9514 24.882 38.9357 24.8473 C38.92 24.8127 38.8948 24.7687 38.8413 24.7499 z" stroke="#000000" stroke-linejoin="round" id="path34" xml:space="preserve" style="fill:#000000;" />
    </g>
    <path d="M44.5064 45.1608 C42.1662 35.6534 38.2657 19.8419 36.3406 11.9362 C34.4156 4.0304 34.4659 4.0304 34.793 4.00513 C35.1202 3.97998 35.7241 3.92957 36.0261 3.92957 C36.328 3.92957 36.328 3.97998 38.7186 13.4418 C41.1093 22.9034 45.8905 41.7767 48.2811 51.2133 C50.6717 60.65 50.6717 60.65 50.3414 60.7081 C50.0111 60.7662 49.3506 60.8827 48.9731 60.9535 C48.5957 61.0243 48.5013 61.0494 48.0641 59.4604 C47.6269 57.8715 46.8467 54.6682 44.5064 45.1608 z" stroke="#000000" stroke-linejoin="round" id="path38" xml:space="preserve" style="fill:#FFFFFF;" />
    <path d="M34.8201 -0.00012207 C33.2357 -0.00012207 31.9513 1.06177 31.9513 2.3717 C31.9513 3.68152 33.2357 4.74329 34.8201 4.74329 C36.4044 4.74329 37.6888 3.68152 37.6888 2.3717 C37.6888 1.06177 36.4044 -0.00012207 34.8201 -0.00012207 z" stroke-width="0.2" stroke-linejoin="round" id="path40" xml:space="preserve" style="fill:#000000;" />
    <path d="M35.2668 0.570679 C34.1933 0.570679 33.3229 1.27197 33.3229 2.13708 C33.3229 3.00232 34.1933 3.70361 35.2668 3.70361 C36.3404 3.70361 37.2108 3.00232 37.2108 2.13708 C37.2108 1.27197 36.3404 0.570679 35.2668 0.570679 z" stroke-width="0.2" stroke-linejoin="round" id="path42" xml:space="preserve" style="fill:#FFFFFF;" />
  </g>
</svg>