<?xml version="1.0" encoding="utf-8"?>
<!DOCTYPE svg PUBLIC "-//W3C//DTD SVG 1.1//EN" "http://www.w3.org/Graphics/SVG/1.1/DTD/svg11.dtd">
<svg x="0px" y="0px" width="64" height="64" overflow="hidden" viewBox="0, 0, 272.523, 272.523" preserveAspectRatio="xMidYMid" font-size="0" id="carparking" xml:space="preserve" xmlns="http://www.w3.org/2000/svg" xmlns:xlink="http://www.w3.org/1999/xlink" xmlns:xml="http://www.w3.org/XML/1998/namespace" version="1.1">
  <defs id="defs43" xml:space="preserve" />
  <path d="M193.26 118.059 C192.383 118.059 191.483 118.185 190.583 118.432 L180.411 121.234 L169.85 95.504 C166.857 88.215 158.012 82.284 150.133 82.284 L51.28301 82.284 C43.40301 82.284 34.55901 88.215 31.56701 95.504 L21.01901 121.198 L10.97301 118.431 C10.07401 118.184 9.174013 118.058 8.297012 118.058 L11.86301 143.498 L10.15801 147.651 C7.378013 154.421 5.115012 165.887 5.115012 173.209 L5.115012 224.324 C5.115012 230.23 9.921013 235.036 15.82701 235.036 L29.81701 235.036 C35.72301 235.036 40.52901 230.23 40.52901 224.324 L40.52901 211.56 L160.886 211.56 L160.886 224.324 C160.886 230.23 165.692 235.036 171.598 235.036 L185.586 235.036 C191.492 235.036 196.298 230.23 196.298 224.324 L196.298 173.21 C196.298 165.889 194.035 154.423 191.255 147.652 L189.55 143.499 L190.844 143.499 C196.75 143.499 201.556 138.693 201.556 132.787 L201.556 126.791 C201.557 121.732 198.067 118.059 193.26 118.059 z M28.698 137.681 L44.676 98.763 C46.466 94.403 51.786 90.835 56.499 90.835 L144.917 90.835 C149.63 90.835 154.95 94.402 156.74 98.763 L172.718 137.681 C174.507 142.041 172.116 145.609 167.403 145.609 L34.014 145.609 C29.3 145.608 26.909 142.041 28.698 137.681 z M64.365 186.908 C64.365 189.265 62.436 191.192 60.081 191.192 L29.729 191.192 C27.372 191.192 25.444 189.264 25.444 186.908 L25.444 172.342 C25.444 169.986 27.372 168.058 29.729 168.058 L60.081 168.058 C62.436 168.058 64.365 169.986 64.365 172.342 L64.365 186.908 z M175.684 186.908 C175.684 189.265 173.755 191.192 171.4 191.192 L141.048 191.192 C138.693 191.192 136.764 189.264 136.764 186.908 L136.764 172.342 C136.764 169.986 138.693 168.058 141.048 168.058 L171.4 168.058 C173.755 168.058 175.684 169.986 175.684 172.342 L175.684 186.908 z" id="path2" xml:space="preserve" />
  <g id="g8" xml:space="preserve">
    <path d="M259.125 37.486 L208.39 37.486 C201.002 37.486 194.992 43.497 194.992 50.884 L194.992 101.62 C194.992 109.008 201.003 115.019 208.39 115.019 L228.757 115.019 L228.757 228.891 C228.757 231.653 230.995 233.891 233.757 233.891 C236.519 233.891 238.757 231.653 238.757 228.891 L238.757 115.02 L259.125 115.02 C266.513 115.02 272.523 109.009 272.523 101.621 L272.523 50.885 C272.523 43.497 266.513 37.486 259.125 37.486 z M247.634 79.553 C244.716 82.18 240.418 83.512 234.86 83.512 L227.513 83.512 C226.631 83.512 225.913 84.231 225.913 85.113 L225.913 97.502 C225.913 98.848 224.818 99.942 223.472 99.942 L217.908 99.942 C216.561 99.942 215.467 98.847 215.467 97.502 L215.467 55.007 C215.467 53.66 216.562 52.565 217.908 52.565 L231.924 52.565 C241.209 52.565 244.675 53.964 247.523 56.381 C250.527 58.93 252.049 62.834 252.049 67.987 C252.048 73.022 250.564 76.912 247.634 79.553 z" id="path4" xml:space="preserve" />
    <path d="M239.681 62.825 C238.325 61.801 235.926 61.281 232.552 61.281 L227.513 61.281 C226.631 61.281 225.913 61.999 225.913 62.88 L225.913 73.062 C225.913 73.943 226.631 74.661 227.513 74.661 L230.532 74.661 C231.641 74.661 233.433 74.579 234.526 74.478 C235.587 74.381 238.582 73.94701 239.681 73.117 C241 72.119 241.669 70.39301 241.669 67.98801 C241.669 65.56 241 63.823 239.681 62.825 z" id="path6" xml:space="preserve" />
  </g>
  <path d="M9.057779 230.9491 L5.590865 227.4821 L6.001285 193.7081 C6.397397 161.1115 6.513127 159.6456 9.320879 151.6592 L12.23005 143.3843 L9.090264 142.7563 C0.3991842 141.0181 -3.039249 125.9715 3.932412 120.1855 C5.747161 118.6794 9.327143 118.8083 18.01349 120.6924 C21.58908 121.468 21.59616 121.4595 25.41956 111.8324 C32.8638 93.08828 36.95045 87.12679 44.24469 84.37083 C46.3724 83.56693 66.14146 83.1426 101.4678 83.1426 L155.4402 83.1426 L160.9321 86.62543 C166.6866 90.27481 168.3244 93.03312 176.3493 112.5889 C179.9956 121.4749 179.3061 121.1444 190.6889 119.4613 C198.1713 118.3549 200.928 121.1262 200.928 129.7546 C200.928 137.08 198.1552 141.4463 192.7491 142.6337 C190.0775 143.2204 189.3962 143.8748 189.9516 145.3205 C194.6096 157.4471 195.4244 163.7221 196.0026 191.9212 C196.3243 207.6087 196.2306 222.3467 195.7943 224.6721 C195.3581 226.9976 193.7601 230.1413 192.2433 231.6581 C189.763 234.1384 188.4846 234.416 179.5415 234.416 C164.3462 234.416 161.7581 232.2799 161.7029 219.6928 L161.6662 211.3208 L101.0414 211.3208 L40.41655 211.3208 L40.41655 218.3067 C40.41655 225.8223 38.32364 231.2913 34.70673 233.227 C33.48482 233.8809 27.99399 234.416 22.50489 234.416 C12.95378 234.416 12.37564 234.2669 9.057781 230.9491 z M63.28077 190.3042 C65.14285 188.4421 65.14285 170.6878 63.28077 168.8257 C61.34662 166.8915 28.72456 166.8915 26.79041 168.8257 C24.92833 170.6878 24.92833 188.4421 26.79041 190.3042 C28.72456 192.2383 61.34662 192.2383 63.28077 190.3042 z M174.8634 189.8753 C176.1842 188.5545 176.6781 185.7487 176.6781 179.5649 C176.6781 167.3834 176.7744 167.44 156.0409 167.44 C144.3521 167.44 138.5995 167.8734 137.6472 168.8257 C135.7851 170.6878 135.7851 188.4421 137.6472 190.3042 C138.5995 191.2565 144.3521 191.6899 156.0409 191.6899 C169.963 191.6899 173.3781 191.3607 174.8634 189.8753 z M172.1462 144.7201 C174.6223 142.243 173.5703 138.1655 165.1971 117.7854 C159.7628 104.5586 155.7166 96.38025 153.4853 94.11281 L150.0762 90.64853 L102.8039 90.3228 C51.78103 89.97124 49.55976 90.19385 45.78316 96.03719 C42.49347 101.1272 27.60147 138.9364 27.94648 141.3227 C28.70723 146.5844 29.92442 146.6668 102.4276 146.3632 C152.9183 146.1518 171.1445 145.7222 172.1462 144.7201 z" stroke-width="1.154759" id="path815" xml:space="preserve" style="fill:#000000;" />
  <path d="M231.2404 232.4964 C230.1122 232.0412 229.797 219.0742 229.797 173.1176 L229.797 114.3211 L217.6146 114.3211 C195.7069 114.3211 195.1542 113.3833 195.1542 76.21406 C195.1542 53.81284 195.4633 48.7748 197.0421 45.44791 C200.3618 38.45201 202.1209 38.10703 234.4741 38.10703 L263.5159 38.10703 L267.3385 41.9296 C272.3686 46.95969 272.8171 50.45954 272.3359 80.92607 C271.9153 107.5612 271.6397 108.8342 265.5112 112.4544 C263.1365 113.8572 259.3105 114.3211 250.1158 114.3211 L237.8803 114.3211 L237.8803 172.4055 C237.8803 235.6733 237.9329 235.1969 231.2404 232.4965 z M226.0933 92.24362 L226.4313 84.60064 L234.2941 84.03806 C238.9503 83.70491 243.6257 82.60781 245.7586 81.34787 C253.6258 76.7006 254.94 62.81099 248.1157 56.43612 C244.0578 52.64554 238.871 51.68389 225.1779 52.18343 L215.3625 52.54152 L215.048 75.02528 C214.875 87.39134 215.0002 98.20401 215.3261 99.05343 C215.7247 100.0923 217.5288 100.4814 220.837 100.2422 L225.7553 99.88662 z" stroke-width="1.154759" id="path817" xml:space="preserve" style="fill:#000000;" />
  <path d="M226.3327 68.13074 L226.3327 62.35695 L232.6432 62.35695 C237.7004 62.35695 239.1912 62.80057 240.1492 64.59055 C243.2113 70.3123 240.0777 73.90453 232.024 73.90453 L226.3327 73.90453 z" stroke-width="1.154759" id="path819" xml:space="preserve" style="fill:#0000FF;" />
  <path d="M233.6162 234.5843 C232.3809 233.8043 231.9463 222.0844 231.4174 175.2889 L230.7582 116.9656 L218.0163 116.1593 C211.0083 115.7158 204.2891 114.8257 203.0847 114.1811 C198.0567 111.4902 197.1976 106.2108 197.1931 77.97497 C197.1891 54.97799 197.4579 50.90548 199.195 47.61295 C200.2983 45.52154 202.4009 43.3542 203.8674 42.79665 C205.3339 42.2391 219.3547 41.40585 235.0248 40.94498 L263.5159 40.10703 L266.4783 42.87439 C272.4206 48.42542 272.6855 49.93857 272.6855 78.32269 C272.6855 94.69855 272.1982 106.1651 271.4056 108.4389 C269.576 113.6872 265.4265 115.3038 251.4686 116.2062 L239.1975 116.9995 L239.1945 147.7193 C239.1905 192.1304 237.9075 231.8863 236.4136 233.8786 C235.6276 234.9268 234.5778 235.1916 233.6159 234.5843 z M227.6499 95.43102 C227.6499 87.22115 228.2328 86.68399 237.1767 86.65142 C239.5584 86.64242 241.5071 86.13232 241.5071 85.51714 C241.5071 84.90195 242.2905 84.69927 243.2481 85.06673 C245.863 86.07014 250.726 82.34454 252.5737 77.92225 C256.291 69.02565 253.1295 59.12759 245.5605 55.96507 C242.9133 54.85899 237.3168 54.30243 228.8418 54.30243 L216.1024 54.30243 L216.1024 78.55235 L216.1024 102.8023 L221.8762 102.8023 L227.6499 102.8023 z" stroke-width="1.154759" id="path821" xml:space="preserve" style="fill:#0000FF;" />
  <path d="M18.69301 237.3465 C15.08968 236.9325 6.539892 231.083 7.757873 229.865 C8.029463 229.5934 8.689873 214.0852 9.225463 195.4022 C10.09306 165.1378 10.46748 160.6915 12.65862 154.6329 C15.2872 147.3647 15.13002 145.8439 11.75023 145.8439 C10.57393 145.8439 8.266212 144.2451 6.621963 142.2911 C4.320453 139.5559 3.632422 137.4709 3.632422 133.232 C3.632422 125.2179 5.764353 123.696 16.37667 124.1343 L24.7694 124.4809 L29.23584 113.7399 C34.25743 101.6638 37.70585 95.79839 42.2698 91.57028 C45.35695 88.71031 45.64092 88.67641 72.72038 87.93501 C87.7543 87.5234 112.9028 87.09975 128.6061 86.99355 L157.1574 86.80048 L162.2071 90.27477 C168.4619 94.57819 169.9723 96.86489 176.2414 111.5225 C179.3446 118.778 182.0529 123.5053 183.3752 123.9745 C184.5476 124.3904 188.6396 124.4827 192.4685 124.1795 C201.0112 123.5032 202.5173 124.8635 202.5173 133.2553 C202.5173 139.9667 199.7301 144.7909 195.2182 145.8887 C191.9411 146.686 191.884 148.2088 194.7647 157.9689 C196.4447 163.6608 196.8941 170.6684 197.2829 197.2307 C197.7292 227.7295 197.6285 229.7669 195.5081 233.1414 C193.6259 236.1368 192.3476 236.8182 187.6514 237.3294 C179.2073 238.2485 168.7377 236.7127 166.9704 234.2957 C166.1491 233.1726 165.1157 228.3961 164.6739 223.6813 L163.8706 215.109 L103.7063 215.4079 L43.54195 215.7068 L42.10422 224.2945 C41.23049 229.5134 39.85771 233.6487 38.60476 234.836 C36.44445 236.8831 26.05798 238.1927 18.69301 237.3465 z M65.28078 194.3042 C66.69862 192.963 66.5729 173.6797 65.13696 172.2438 C63.84309 170.9499 34.14921 170.57 30.28074 171.7978 C28.07465 172.498 27.88235 173.4378 27.88235 183.5195 C27.88235 190.5325 28.29826 194.2231 29.03711 193.7664 C29.67223 193.3739 30.19187 193.5803 30.19187 194.225 C30.19187 196.3707 63.01794 196.4447 65.28078 194.3042 z M177.9081 193.8783 C179.8113 191.5851 179.1093 172.8746 177.1349 173.2694 C176.341 173.4282 175.6914 173.0385 175.6914 172.4034 C175.6914 171.1475 143.7319 170.7346 140.5658 171.9495 C139.0811 172.5192 138.7392 174.6632 138.7392 183.4009 C138.7392 190.9208 139.1729 194.3264 140.1826 194.7338 C140.9765 195.0541 149.487 195.3572 159.0948 195.4074 C172.7624 195.4787 176.856 195.146 177.9081 193.8783 z M167.8968 149.7104 L175.6914 148.9742 L175.6914 145.2803 C175.6914 143.2487 174.6809 138.6492 173.4457 135.0591 C169.7017 124.1769 160.4149 103.1179 159.36 103.1179 C158.8156 103.1179 158.3701 102.4085 158.3701 101.5415 C158.3701 100.6744 157.2931 98.59585 155.9767 96.92241 L153.5834 93.87979 L106.0334 93.88579 C77.15478 93.88979 56.81178 94.35652 54.22622 95.07463 C51.3843 95.86395 49.2238 97.49339 47.72747 99.97592 C44.17294 105.8732 33.4981 133.106 34.25863 134.3365 C34.63734 134.9493 34.44772 135.4507 33.83725 135.4507 C31.54976 135.4507 28.82005 148.013 31.05793 148.2413 C33.61569 148.5023 36.25599 149.2132 36.84131 149.7985 C37.75099 150.7082 158.1889 150.6268 167.8968 149.71 z" stroke="#000000" stroke-width="1.154759" id="path823" xml:space="preserve" style="fill:#D40000;" />
</svg>