<?xml version="1.0" encoding="utf-8"?>
<!DOCTYPE svg PUBLIC "-//W3C//DTD SVG 1.1//EN" "http://www.w3.org/Graphics/SVG/1.1/DTD/svg11.dtd">
<svg x="0" y="0" width="64" height="64" overflow="hidden" viewBox="0, 0, 18, 18" preserveAspectRatio="xMidYMid" font-size="0" id="svg7" xml:space="default" xmlns="http://www.w3.org/2000/svg" xmlns:xlink="http://www.w3.org/1999/xlink" xmlns:xml="http://www.w3.org/XML/1998/namespace" version="1.1">
  <defs id="defs8" xml:space="default" />
  <path d="M15.98475 1.916949 C14.88475 0.9169492 13.48475 0.6169491 12.88475 1.516949 C12.18475 2.616949 13.38475 3.216949 12.58475 4.016949 C12.08475 4.616949 10.58475 3.216949 10.58475 3.216949 L9.784746 2.416949 L8.384747 3.816949 C7.784747 4.516949 6.284747 5.316949 5.784747 4.916949 C5.084747 4.316949 5.884747 3.116949 5.284747 2.316949 C4.584747 1.316949 3.184747 1.516949 2.284747 2.616949 C1.284747 3.716949 0.8847466 5.01695 1.784747 5.616949 C2.884747 6.316949 3.684747 5.316949 4.484747 6.116949 C4.884747 6.516949 4.284747 7.816949 3.984747 8.216949 L1.684747 10.51695 L8.184747 17.01695 L9.884747 15.31695 C10.58475 14.61695 11.38475 13.31695 10.98475 12.91695 C10.38475 12.21695 9.284747 13.01695 8.484747 12.51695 C7.484747 11.81695 7.684747 10.51695 8.784747 9.516949 C9.884748 8.516949 11.28475 8.216949 11.88475 9.116949 C12.58475 10.21695 11.48475 10.91695 12.28475 11.71695 C12.68475 12.11695 13.88475 11.51695 14.28475 11.11695 L16.38475 9.016949 L15.28475 7.916949 C14.68475 7.316949 13.38475 5.916949 13.88475 5.416949 C14.48475 4.716949 15.58475 5.616949 16.38475 5.016949 C17.28475 4.216949 16.98475 2.916949 15.98475 1.916949 z" id="path2" xml:space="default" style="fill:#000000;" />
  <path d="M5.763815 14.54348 L2.545114 11.32424 L3.744386 10.11824 C5.036241 8.819128 5.260994 8.488549 5.410089 7.668243 C5.512143 7.10676 5.39679 6.849932 4.959438 6.664914 C4.783583 6.59052 4.554445 6.579262 3.942489 6.614953 C3.211382 6.657592 3.128443 6.649684 2.828998 6.508776 C1.933473 6.087376 1.895799 5.158796 2.725108 3.948122 C3.657272 2.587295 4.947518 2.141277 5.811825 2.881092 C6.22288 3.232939 6.333857 3.580468 6.286837 4.368598 C6.222486 5.447161 6.417505 5.853613 6.993799 5.842045 C7.744484 5.826977 8.417511 5.417765 9.597961 4.25867 C10.1226 3.74352 10.57111 3.322033 10.59464 3.322033 C10.61817 3.322033 10.85875 3.540298 11.12925 3.807067 C11.71903 4.388719 12.50885 4.920116 12.8757 4.982095 C13.19906 5.036726 13.38454 4.94887 13.56269 4.65669 C13.72264 4.394375 13.72902 4.11728 13.58766 3.571777 C13.38809 2.801589 13.65129 2.165337 14.26672 1.930304 C15.50893 1.455903 17.54068 2.972741 17.67702 4.47631 C17.72082 4.959312 17.61324 5.295858 17.30655 5.635334 C16.98206 5.994499 16.69849 6.061641 15.90579 5.966994 C15.22363 5.885546 15.00621 5.925969 14.72881 6.185825 C14.4474 6.449445 14.57324 6.951576 15.09222 7.635839 C15.23726 7.827076 15.74492 8.38946 16.22034 8.885578 C16.69576 9.381697 17.08475 9.812399 17.08475 9.842693 C17.08475 9.872983 16.58268 10.39872 15.96903 11.01099 C14.73549 12.24178 14.29261 12.53804 13.60042 12.59544 C13.26787 12.62302 13.23303 12.61092 13.06307 12.40893 C12.8194 12.11935 12.78558 11.94514 12.87424 11.43604 C12.98379 10.80694 12.9671 10.40236 12.81977 10.11594 C12.51056 9.514808 11.96303 9.264923 11.27132 9.409251 C10.67488 9.5337 10.07127 9.865444 9.554809 10.35265 C8.589433 11.26334 8.358399 12.31273 8.962049 13.04506 C9.317302 13.47604 9.473842 13.52215 10.51704 13.50306 C11.42685 13.48641 11.44406 13.48886 11.65263 13.66436 C11.80828 13.79534 11.86441 13.89986 11.86441 14.05879 C11.86441 14.34474 11.48234 15.12785 11.11578 15.59322 C10.80998 15.98145 9.090818 17.76271 9.021916 17.76271 C9.000246 17.76271 7.534101 16.31405 5.763815 14.54347 z" stroke="#000000" stroke-width="0.06779661" id="path817" xml:space="default" style="fill:#00FF66;" />
</svg>