<?xml version="1.0" encoding="utf-8"?>
<!DOCTYPE svg PUBLIC "-//W3C//DTD SVG 1.1//EN" "http://www.w3.org/Graphics/SVG/1.1/DTD/svg11.dtd">
<svg xmlns:xml="http://www.w3.org/XML/1998/namespace" x="0" y="0" width="32" height="28.896" overflow="hidden" viewBox="0, 0, 60, 54.18" preserveAspectRatio="xMidYMid" font-size="0" id="svg" xml:space="preserve"  xmlns="http://www.w3.org/2000/svg" version="1.1">
  <g transform="translate(-4.13264, -2.984684)" id="g14" xml:space="preserve">
    <g id="g6" xml:space="preserve">
      <path d="M8.576164 17.8564 C8.107674 16.4832 7.946152 15.20166 7.999985 13.58618 C8.053841 11.9707 8.323082 10.02124 9.5239 8.56201 C10.72476 7.10254 12.85721 6.133301 14.67327 6 C16.48937 5.866699 17.98906 6.56958 19.0217 7.88208 C20.0542 9.1947 20.6196 11.11719 21.0397 12.75684 C21.4597 14.39648 21.7343 15.75366 22.0897 17.0621 C22.4451 18.3706 22.8813 19.6307 23.4063 20.9231 C23.9314 22.2156 24.5453 23.5403 25.1228 24.7047 C25.7003 25.8691 26.2416 26.8735 26.5121 27.5264 C26.7827 28.1793 26.7827 28.481 25.7057 29.3855 C24.6288 30.2903 22.4748 31.7981 21.2524 32.6111 C20.03 33.4243 19.7392 33.5427 19.2061 33.322 C18.673 33.1013 17.89753 32.5413 16.8367 31.2327 C15.77588 29.9241 14.42963 27.8669 13.34188 26.23 C12.25411 24.593 11.42482 23.376 10.62244 22.0352 C9.82009 20.6943 9.04465 19.2295 8.576164 17.8564 z" stroke-width="0.2" stroke-linejoin="round" id="path2" xml:space="preserve" connector-curvature="0" style="fill:#7A1111;" />
      <path d="M22.3401 35.1636 C23.4279 34.2966 25.4526 32.6704 26.5781 31.8843 C27.7036 31.098 27.9297 31.1519 28.2205 31.4104 C28.5113 31.6687 28.8667 32.1318 29.4214 32.8696 C29.976 33.6074 30.7299 34.6199 31.1015 35.7021 C31.4731 36.7844 31.4623 37.9369 31.0719 38.8873 C30.6815 39.8378 29.9114 40.5863 28.8398 40.9686 C27.7682 41.3508 26.395 41.3672 25.4984 41.1328 C24.6018 40.8987 24.1818 40.4141 23.6002 39.7031 C23.0187 38.9924 22.2755 38.0554 21.807 37.4414 C21.3385 36.8276 21.1447 36.5369 21.1231 36.3376 C21.1016 36.1384 21.2524 36.0305 22.3401 35.1636 z" stroke-width="0.2" stroke-linejoin="round" id="path4" xml:space="preserve" connector-curvature="0" style="fill:#7A1111;" />
    </g>
    <g id="g12" xml:space="preserve">
      <path d="M56.8604 23.4451 C56.3056 22.1045 55.5807 21.0353 54.4737 19.8574 C53.3666 18.6797 51.8773 17.3936 50.012 17.0903 C48.1465 16.7871 45.905 17.467 44.4531 18.566 C43.0011 19.665 42.3387 21.183 42.4298 22.8506 C42.521 24.5181 43.3656 26.3352 44.1327 27.844 C44.8999 29.3529 45.5896 30.5535 46.1866 31.7709 C46.7837 32.9883 47.28811 34.2227 47.747 35.54 C48.206 36.8572 48.6196 38.2576 48.9547 39.5134 C49.2898 40.7693 49.5464 41.8809 49.7742 42.5499 C50.0021 43.219 50.2012 43.4454 51.6074 43.4138 C53.0135 43.3821 55.6268 43.0925 57.0817 42.896 C58.5367 42.6997 58.8333 42.5967 59.0879 42.0789 C59.3426 41.561 59.5552 40.6284 59.4879 38.9453 C59.4207 37.2621 59.0736 34.8284 58.8097 32.8806 C58.5459 30.9329 58.3652 29.4714 58.0825 27.9346 C57.7998 26.3977 57.4151 24.7856 56.8604 23.4451 z" stroke-width="0.2" stroke-linejoin="round" id="path8" xml:space="preserve" connector-curvature="0" style="fill:#7A1111;" />
      <path d="M57.9502 45.5314 C56.5608 45.5984 53.9664 45.7139 52.602 45.8665 C51.2377 46.019 51.1034 46.2087 51.0556 46.595 C51.0079 46.9811 51.0468 47.5636 51.1173 48.4838 C51.1878 49.4041 51.29 50.6622 51.7256 51.7205 C52.1612 52.7787 52.9301 53.6371 53.8508 54.0931 C54.7716 54.5492 55.8441 54.6029 56.9014 54.1825 C57.9586 53.7622 59.0006 52.8677 59.5194 52.0997 C60.0381 51.3319 60.0336 50.6906 60.001 49.7727 C59.9685 48.8549 59.908 47.6605 59.8545 46.8901 C59.8011 46.1198 59.7547 45.7734 59.6393 45.6095 C59.5239 45.4456 59.3396 45.4644 57.9502 45.5314 z" stroke-width="0.2" stroke-linejoin="round" id="path10" xml:space="preserve" connector-curvature="0" style="fill:#7A1111;" />
    </g>
  </g>
</svg>