<?xml version="1.0" encoding="utf-8"?>
<!DOCTYPE svg PUBLIC "-//W3C//DTD SVG 1.1//EN" "http://www.w3.org/Graphics/SVG/1.1/DTD/svg11.dtd">
<svg xmlns:xml="http://www.w3.org/XML/1998/namespace" x="0" y="0" width="32" height="24" overflow="hidden" viewBox="0, 0, 257, 192.75" preserveAspectRatio="xMidYMid" font-size="0px" id="svg" xml:space="preserve"  xmlns="http://www.w3.org/2000/svg" version="1.1">
  <g transform="matrix(1.00459, 0, 0, 2.804768, -0.01544294, -341.5016)" id="g1186" xml:space="preserve">
    <rect x="10.7501" y="161.9169" width="16.9167" height="16.9166" stroke-width="0.2" id="rect1157" xml:space="preserve" style="fill:#DADADA;" />
    <rect x="80.3334" y="139.9169" width="38.6667" height="38.6667" stroke-width="0.2" id="rect1159" xml:space="preserve" style="fill:#DADADA;" />
    <rect x="130.667" y="133.5503" width="45" height="45" stroke-width="0.2" id="rect1161" xml:space="preserve" style="fill:#DADADA;" />
    <rect x="188.667" y="127.8336" width="62.4668" height="56.7111" stroke-width="0.2" id="rect1163" xml:space="preserve" style="fill:#BEBDBD;" />
    <rect x="39.2668" y="150.5503" width="28.4333" height="28.4333" stroke-width="0.2" id="rect1165" xml:space="preserve" style="fill:#CED0D3;" />
    <rect x="3.36438" y="124.9169" width="249.636" height="62.6667" stroke="#ABABAB" stroke-width="6" id="rect1167" xml:space="preserve" style="fill:none;" />
    <path d="M209.091 133.7659 L213.091 133.7659 L213.091 137.7659 L209.091 137.7659 z M217.091 133.7659 L221.091 133.7659 L221.091 137.7659 L217.091 137.7659 z M225.091 133.7659 L229.091 133.7659 L229.091 137.7659 L225.091 137.7659 z M233.091 133.7659 L237.091 133.7659 L237.091 137.7659 L233.091 137.7659 z M241.091 133.7659 L243.091 133.7659 L243.091 139.7659 L239.091 139.7659 L239.091 135.7659 L241.091 137.7659 z M243.091 143.7659 L243.091 147.7659 L239.091 147.7659 L239.091 143.7659 z M243.091 151.7659 L243.091 155.7659 L239.091 155.7659 L239.091 151.7659 z M243.091 159.7659 L243.091 163.7659 L239.091 163.7659 L239.091 159.7659 z M243.091 167.7659 L243.091 171.7659 L239.091 171.7659 L239.091 167.7659 z M243.091 175.7659 L243.091 177.7659 L237.091 177.7659 L237.091 173.7659 L241.091 173.7659 L239.091 175.7659 z M233.091 177.7659 L229.091 177.7659 L229.091 173.7659 L233.091 173.7659 z M225.091 177.7659 L221.091 177.7659 L221.091 173.7659 L225.091 173.7659 z M217.091 177.7659 L213.091 177.7659 L213.091 173.7659 L217.091 173.7659 z M209.091 177.7659 L205.091 177.7659 L205.091 173.7659 L209.091 173.7659 z M201.091 177.7659 L199.091 177.7659 L199.091 171.7659 L203.091 171.7659 L203.091 175.7659 L201.091 173.7659 z M199.091 167.7659 L199.091 163.7659 L203.091 163.7659 L203.091 167.7659 z M199.091 159.7659 L199.091 155.7659 L203.091 155.7659 L203.091 159.7659 z M199.091 151.7659 L199.091 147.7659 L203.091 147.7659 L203.091 151.7659 z M199.091 143.7659 L199.091 139.7659 L203.091 139.7659 L203.091 143.7659 z M199.091 135.7659 L199.091 133.7659 C199.758 133.7659 200.424 133.7659 201.091 133.7659 L205.091 133.7659 L205.091 137.7659 L201.091 137.7659 L203.091 135.7659 z" stroke-linejoin="round" id="path1169" xml:space="preserve" connector-curvature="0" style="fill:#861D23;" />
  </g>
</svg>