<?xml version="1.0" encoding="UTF-8" standalone="no"?>
<svg
   xmlns:dc="http://purl.org/dc/elements/1.1/"
   xmlns:cc="http://creativecommons.org/ns#"
   xmlns:rdf="http://www.w3.org/1999/02/22-rdf-syntax-ns#"
   xmlns:svg="http://www.w3.org/2000/svg"
   xmlns="http://www.w3.org/2000/svg"
   xmlns:sodipodi="http://sodipodi.sourceforge.net/DTD/sodipodi-0.dtd"
   xmlns:inkscape="http://www.inkscape.org/namespaces/inkscape"
   x="0"
   y="0"
   width="64"
   height="48"
   overflow="hidden"
   viewBox="0 0 257 192.75003"
   preserveAspectRatio="xMidYMid"
   font-size="0"
   xml:space="preserve"
   version="1.1"
   id="svg955"
   sodipodi:docname="sizeNotChosen.svg"
   style="font-size:0px;overflow:hidden"
   inkscape:version="0.92.2 (5c3e80d, 2017-08-06)"><metadata
     id="metadata961"><rdf:RDF><cc:Work
         rdf:about=""><dc:format>image/svg+xml</dc:format><dc:type
           rdf:resource="http://purl.org/dc/dcmitype/StillImage" /><dc:title></dc:title></cc:Work></rdf:RDF></metadata><defs
     id="defs959" /><sodipodi:namedview
     pagecolor="#ffffff"
     bordercolor="#666666"
     borderopacity="1"
     objecttolerance="10"
     gridtolerance="10"
     guidetolerance="10"
     inkscape:pageopacity="0"
     inkscape:pageshadow="2"
     inkscape:window-width="1920"
     inkscape:window-height="1017"
     id="namedview957"
     showgrid="false"
     inkscape:zoom="9.69"
     inkscape:cx="32"
     inkscape:cy="9.3385201"
     inkscape:window-x="-8"
     inkscape:window-y="-8"
     inkscape:window-maximized="1"
     inkscape:current-layer="svg955" /><rect
     x="10.7501"
     y="161.91692"
     width="16.9167"
     height="16.916599"
     xml:space="preserve"
     style="fill:#dadada;stroke-width:0.2"
     id="rect937" /><rect
     x="80.333397"
     y="139.91692"
     width="38.666698"
     height="38.666698"
     xml:space="preserve"
     style="fill:#dadada;stroke-width:0.2"
     id="rect939" /><rect
     x="130.66701"
     y="133.55032"
     width="45"
     height="45"
     xml:space="preserve"
     style="fill:#dadada;stroke-width:0.2"
     id="rect941" /><rect
     x="188.66701"
     y="127.83362"
     width="62.466801"
     height="56.711102"
     xml:space="preserve"
     style="fill:#bebdbd;stroke-width:0.2"
     id="rect943" /><rect
     x="39.2668"
     y="150.55032"
     width="28.4333"
     height="28.4333"
     xml:space="preserve"
     style="fill:#ced0d3;stroke-width:0.2"
     id="rect945" /><rect
     x="5.8091087"
     y="5.6438913"
     width="245.69592"
     height="181.75848"
     xml:space="preserve"
     style="fill:none;stroke:#ababab;stroke-width:10.13737583"
     id="rect947" /><g
     xml:space="preserve"
     id="g953"
     transform="translate(0,117.75002)"><path
       d="m 212.859,25.6339 1.819,1.9494 -2.924,2.7293 -1.819,-1.9495 z m 3.639,3.8989 1.82,1.9495 -2.925,2.7293 -1.819,-1.9495 z m 3.639,3.899 1.82,1.9495 -2.925,2.7292 -1.819,-1.9494 z m 3.639,3.8989 1.82,1.9495 -2.925,2.7293 -1.819,-1.9495 z m 3.639,3.899 1.819,1.9495 -2.924,2.7293 -1.819,-1.9495 z m 3.639,3.899 1.82,1.9494 -2.925,2.7293 -1.819,-1.9495 z m 3.639,3.8989 1.82,1.9495 -2.924,2.7293 -1.82,-1.9495 z m -25.473,-27.2927 1.819,1.9495 -2.924,2.7293 -1.819,-1.9495 z"
       xml:space="preserve"
       style="fill:#861d23;stroke-linejoin:round"
       id="path949"
       inkscape:connector-curvature="0" /><path
       d="m 233.724,29.2007 -1.95,1.8195 -2.729,-2.9242 1.949,-1.8195 z m -3.899,3.639 -1.95,1.8195 -2.729,-2.9242 1.949,-1.8195 z m -3.9,3.639 -1.949,1.8195 -2.729,-2.9242 1.949,-1.8195 z m -3.899,3.6391 -1.949,1.8195 -2.729,-2.9242 1.949,-1.8195 z m -3.898,3.639 -1.95,1.8195 -2.729,-2.9242 1.949,-1.8195 z m -3.899,3.639 -1.95,1.8195 -2.729,-2.9242 1.95,-1.8195 z m -3.899,3.6391 -1.95,1.8195 -2.729,-2.9242 1.949,-1.8196 z m 27.292,-25.4733 -1.949,1.8196 -2.729,-2.9243 1.949,-1.8195 z"
       xml:space="preserve"
       style="fill:#861d23;stroke-linejoin:round"
       id="path951"
       inkscape:connector-curvature="0" /></g></svg>