<?xml version="1.0" encoding="UTF-8" standalone="no"?>
<svg
   xmlns:dc="http://purl.org/dc/elements/1.1/"
   xmlns:cc="http://creativecommons.org/ns#"
   xmlns:rdf="http://www.w3.org/1999/02/22-rdf-syntax-ns#"
   xmlns:svg="http://www.w3.org/2000/svg"
   xmlns="http://www.w3.org/2000/svg"
   xmlns:sodipodi="http://sodipodi.sourceforge.net/DTD/sodipodi-0.dtd"
   xmlns:inkscape="http://www.inkscape.org/namespaces/inkscape"
   x="0"
   y="0"
   width="64"
   height="48"
   overflow="hidden"
   viewBox="0 0 257 192.75003"
   preserveAspectRatio="xMidYMid"
   font-size="0"
   xml:space="preserve"
   version="1.1"
   id="svg1171"
   sodipodi:docname="sizeVirtual.svg"
   style="font-size:0px;overflow:hidden"
   inkscape:version="0.92.2 (5c3e80d, 2017-08-06)"><metadata
     id="metadata1177"><rdf:RDF><cc:Work
         rdf:about=""><dc:format>image/svg+xml</dc:format><dc:type
           rdf:resource="http://purl.org/dc/dcmitype/StillImage" /><dc:title></dc:title></cc:Work></rdf:RDF></metadata><defs
     id="defs1175" /><sodipodi:namedview
     pagecolor="#ffffff"
     bordercolor="#666666"
     borderopacity="1"
     objecttolerance="10"
     gridtolerance="10"
     guidetolerance="10"
     inkscape:pageopacity="0"
     inkscape:pageshadow="2"
     inkscape:window-width="1920"
     inkscape:window-height="1017"
     id="namedview1173"
     showgrid="false"
     inkscape:zoom="10.39"
     inkscape:cx="32"
     inkscape:cy="9.3385201"
     inkscape:window-x="-8"
     inkscape:window-y="-8"
     inkscape:window-maximized="1"
     inkscape:current-layer="svg1171" /><g
     id="g1186"
     transform="matrix(1.0045901,0,0,2.8047675,-0.01544294,-341.50163)"><rect
       id="rect1157"
       style="fill:#dadada;stroke-width:0.2"
       xml:space="preserve"
       height="16.916599"
       width="16.9167"
       y="161.91692"
       x="10.7501" /><rect
       id="rect1159"
       style="fill:#dadada;stroke-width:0.2"
       xml:space="preserve"
       height="38.666698"
       width="38.666698"
       y="139.91692"
       x="80.333397" /><rect
       id="rect1161"
       style="fill:#dadada;stroke-width:0.2"
       xml:space="preserve"
       height="45"
       width="45"
       y="133.55032"
       x="130.66701" /><rect
       id="rect1163"
       style="fill:#bebdbd;stroke-width:0.2"
       xml:space="preserve"
       height="56.711102"
       width="62.466801"
       y="127.83362"
       x="188.66701" /><rect
       id="rect1165"
       style="fill:#ced0d3;stroke-width:0.2"
       xml:space="preserve"
       height="28.4333"
       width="28.4333"
       y="150.55032"
       x="39.2668" /><rect
       id="rect1167"
       style="fill:none;stroke:#ababab;stroke-width:6"
       xml:space="preserve"
       height="62.666698"
       width="249.636"
       y="124.91691"
       x="3.3643799" /><path
       inkscape:connector-curvature="0"
       id="path1169"
       style="fill:#861d23;stroke-linejoin:round"
       xml:space="preserve"
       d="m 209.091,133.76592 h 4 v 4 h -4 z m 8,0 h 4 v 4 h -4 z m 8,0 h 4 v 4 h -4 z m 8,0 h 4 v 4 h -4 z m 8,0 h 2 v 6 h -4 v -4 l 2,2 z m 2,10 v 4 h -4 v -4 z m 0,8 v 4 h -4 v -4 z m 0,8 v 4 h -4 v -4 z m 0,8 v 4 h -4 v -4 z m 0,8 v 2 h -6 v -4 h 4 l -2,2 z m -10,2 h -4 v -4 h 4 z m -8,0 h -4 v -4 h 4 z m -8,0 h -4 v -4 h 4 z m -8,0 h -4 v -4 h 4 z m -8,0 h -2 v -6 h 4 v 4 l -2,-2 z m -2,-10 v -4 h 4 v 4 z m 0,-8 v -4 h 4 v 4 z m 0,-8 v -4 h 4 v 4 z m 0,-8 v -4 h 4 v 4 z m 0,-8 v -2 c 0.667,0 1.333,0 2,0 h 4 v 4 h -4 l 2,-2 z" /></g></svg>