<?xml version="1.0" encoding="UTF-8" standalone="no"?>
<svg
   xmlns:dc="http://purl.org/dc/elements/1.1/"
   xmlns:cc="http://creativecommons.org/ns#"
   xmlns:rdf="http://www.w3.org/1999/02/22-rdf-syntax-ns#"
   xmlns:svg="http://www.w3.org/2000/svg"
   xmlns="http://www.w3.org/2000/svg"
   xmlns:sodipodi="http://sodipodi.sourceforge.net/DTD/sodipodi-0.dtd"
   xmlns:inkscape="http://www.inkscape.org/namespaces/inkscape"
   x="0"
   y="0"
   width="64"
   height="48"
   overflow="hidden"
   viewBox="0 0 257 192.75003"
   preserveAspectRatio="xMidYMid"
   font-size="0"
   xml:space="preserve"
   version="1.1"
   id="svg1015"
   sodipodi:docname="sizeOther.svg"
   style="font-size:0px;overflow:hidden"
   inkscape:version="0.92.2 (5c3e80d, 2017-08-06)"><metadata
     id="metadata1021"><rdf:RDF><cc:Work
         rdf:about=""><dc:format>image/svg+xml</dc:format><dc:type
           rdf:resource="http://purl.org/dc/dcmitype/StillImage" /><dc:title></dc:title></cc:Work></rdf:RDF></metadata><defs
     id="defs1019" /><sodipodi:namedview
     pagecolor="#ffffff"
     bordercolor="#666666"
     borderopacity="1"
     objecttolerance="10"
     gridtolerance="10"
     guidetolerance="10"
     inkscape:pageopacity="0"
     inkscape:pageshadow="2"
     inkscape:window-width="1920"
     inkscape:window-height="1017"
     id="namedview1017"
     showgrid="false"
     inkscape:zoom="11.93"
     inkscape:cx="32"
     inkscape:cy="22.750088"
     inkscape:window-x="-8"
     inkscape:window-y="-8"
     inkscape:window-maximized="1"
     inkscape:current-layer="svg1015" /><g
     xml:space="preserve"
     id="g1013"
     transform="matrix(1,0,0,2.818353,0,-5.5956814)"><rect
       x="10.7502"
       y="42.167099"
       width="16.9167"
       height="16.916599"
       xml:space="preserve"
       style="fill:#dadada;stroke-width:0.2"
       id="rect997" /><rect
       x="80.333504"
       y="20.167101"
       width="38.666698"
       height="38.666698"
       xml:space="preserve"
       style="fill:#dadada;stroke-width:0.2"
       id="rect999" /><rect
       x="130.66701"
       y="13.8004"
       width="45"
       height="45"
       xml:space="preserve"
       style="fill:#dadada;stroke-width:0.2"
       id="rect1001" /><rect
       x="188.66701"
       y="8.0837603"
       width="62.466801"
       height="56.711102"
       xml:space="preserve"
       style="fill:#bebdbd;stroke-width:0.2"
       id="rect1003" /><rect
       x="39.266998"
       y="30.8004"
       width="28.4333"
       height="28.4333"
       xml:space="preserve"
       style="fill:#ced0d3;stroke-width:0.2"
       id="rect1005" /><rect
       x="3.3645"
       y="5.1670499"
       width="249.636"
       height="62.666698"
       xml:space="preserve"
       style="fill:none;stroke:#ababab;stroke-width:6"
       id="rect1007" /><g
       xml:space="preserve"
       id="g1011"><path
         d="m 235.42,25.8417 c 0,1.855 -0.28,3.4941 -0.84,4.9175 -0.56,1.4233 -1.353,2.657 -2.38,3.7012 -1.021,1.0442 -2.249,1.9804 -3.684,2.8088 -1.435,0.8283 -3.053,1.5808 -4.856,2.2575 v 6.2737 h -9.52 v -9.275 c 1.342,-0.3442 2.557,-0.6985 3.644,-1.0631 1.088,-0.3646 2.227,-0.9552 3.417,-1.7719 1.12,-0.7292 1.997,-1.575 2.63,-2.5375 0.633,-0.9625 0.949,-2.0533 0.949,-3.2725 0,-1.8141 -0.608,-3.1077 -1.824,-3.8806 -1.217,-0.7729 -2.927,-1.1594 -5.132,-1.1594 -1.359,0 -2.891,0.2611 -4.594,0.7831 -1.703,0.5221 -3.264,1.1944 -4.681,2.0169 h -1.129 v -8.3037 c 1.19,-0.49 3.022,-1.0019 5.495,-1.5357 2.473,-0.5337 4.982,-0.8006 7.525,-0.8006 4.597,0 8.243,1.0004 10.938,3.0013 2.695,2.0008 4.042,4.6141 4.042,7.84 z m -10.64,31.1587 h -11.2 v -7.28 h 11.2 z"
         xml:space="preserve"
         style="fill:#861d23;stroke-width:0.2;stroke-linejoin:round"
         id="path1009"
         inkscape:connector-curvature="0" /></g></g></svg>