<?xml version="1.0" encoding="utf-8"?>
<!-- Generator: Adobe Illustrator 13.0.0, SVG Export Plug-In . SVG Version: 6.00 Build 14948)  -->
<!DOCTYPE svg PUBLIC "-//W3C//DTD SVG 1.1//EN" "http://www.w3.org/Graphics/SVG/1.1/DTD/svg11.dtd">
<svg version="1.1" id="Layer_1" xmlns="http://www.w3.org/2000/svg"  x="0px" y="0px"
	 width="800px" height="600px" viewBox="0 0 800 600" enable-background="new 0 0 800 600" xml:space="preserve">
<g>
	<path fill="#BF2121" d="M359.05,215.74c2.047,0,4.689,0.939,7.931,2.814c7.331,4.604,11,8.614,11,12.023
		c0,1.195-1.023,2.558-3.07,4.093c-2.046,1.879-4.181,4.349-6.396,7.419c-7.163,9.381-14.242,17.651-21.233,24.814
		c2.047,3.242,3.837,6.739,5.373,10.489c4.772,14.498,7.163,34.279,7.163,59.35c0,22.684-1.279,39.396-3.837,50.14
		c-2.218,9.554-5.628,16.54-10.232,20.978c-3.925,3.749-6.823,5.628-8.698,5.628c-1.879,0-3.669-1.279-5.372-3.838
		c-6.483-7.846-13.73-15.517-21.745-23.023c0-0.68,0.34-1.023,1.023-1.023c7.842,2.73,15.177,4.094,22,4.094
		c2.726,0,4.689-1.107,5.884-3.326c2.047-3.237,3.666-10.4,4.861-21.488c1.535-13.471,2.302-27.884,2.302-43.233
		c0-0.852,0-1.618,0-2.302c-4.605,6.651-9.381,12.79-14.326,18.419c-6.483,7.334-13.73,13.39-21.745,18.162
		c-6.995,4.438-15.265,8.019-24.814,10.745c-0.684,0-1.023-0.34-1.023-1.023c0-0.68,1.023-1.703,3.07-3.07
		c14.837-11.256,25.666-20.721,32.489-28.396c6.991-7.675,14.41-17.651,22.256-29.931c1.191-2.215,2.214-4.349,3.07-6.395
		c-0.512-4.261-1.111-8.27-1.791-12.023c-0.855-3.75-2.135-7.419-3.837-11c-0.684,0.512-1.367,1.023-2.046,1.535
		c-8.186,7.846-17.483,14.414-27.884,19.698c-6.995,3.753-11.768,5.627-14.326,5.627c-1.367,0-2.046-0.339-2.046-1.022
		c0-0.512,0.851-1.363,2.558-2.558c9.549-7.331,19.098-15.945,28.651-25.838c2.726-2.898,5.456-5.884,8.186-8.954
		c-3.925-5.116-11.344-12.279-22.256-21.488c-2.218-1.535-3.326-2.898-3.326-4.093c0-1.363,0.68-2.046,2.046-2.046
		c1.703,0,6.396,2.73,14.07,8.186c5.968,3.414,11.084,7.335,15.349,11.768c3.582-4.772,6.907-9.633,9.977-14.582
		c4.433-7.331,6.651-14.154,6.651-20.465C354.958,217.362,356.32,215.74,359.05,215.74z M408.935,212.67
		c3.409,0,7.587,1.367,12.535,4.093c5.116,2.902,8.526,5.716,10.233,8.442c1.534,3.242,2.302,6.396,2.302,9.465
		c0,4.437-1.279,7.507-3.837,9.209c3.237-0.852,6.395-1.875,9.465-3.07c5.628-2.046,9.377-3.07,11.256-3.07
		c1.535,0,6.308,1.707,14.326,5.116c5.795,3.07,8.697,5.716,8.697,7.931c0,1.023-0.6,2.39-1.791,4.093
		c-2.218,2.558-4.181,7.163-5.883,13.814l-10.489,37.861c-1.534,5.46-4.521,8.186-8.953,8.186c-1.707,0-3.158-1.362-4.349-4.093
		c-4.438,0-8.442,0.428-12.023,1.279l-20.722,2.813c-3.925,0.512-6.823,0.768-8.698,0.768c-1.706,0-3.157-0.084-4.348-0.256
		c-0.344,17.907-0.6,39.996-0.768,66.257c0,2.73,0.34,4.093,1.023,4.093c1.535,0,10.401-4.349,26.604-13.046
		c2.559-1.363,4.006-2.047,4.35-2.047c0.68,0,1.023,0.344,1.023,1.023c0,1.367-1.023,3.069-3.07,5.116
		c-16.544,15.009-27.204,24.982-31.977,29.931c-2.73,3.237-5.033,4.86-6.907,4.86c-2.39,0-4.349-1.279-5.884-3.837
		c-2.046-4.438-3.07-7.763-3.07-9.978c0-3.409,0.768-7.162,2.302-11.256c1.535-3.921,2.47-12.447,2.814-25.581
		c1.191-17.735,1.791-48.434,1.791-92.094c-0.172-7.331-1.195-12.959-3.07-16.884c-1.023-1.875-1.623-3.581-1.791-5.116
		c0-2.046,1.279-3.07,3.837-3.07c3.582,0,6.991,1.023,10.232,3.07c1.703,1.195,3.07,2.302,4.093,3.326
		c9.038-0.68,17.651-2.13,25.837-4.349c-2.558,0-5.971-4.261-10.232-12.791c-4.604-9.721-6.906-15.773-6.906-18.163
		C406.889,213.525,407.568,212.842,408.935,212.67z M397.423,284.81c-0.172,6.312-0.344,13.902-0.512,22.768
		c9.722-1.023,18.759-2.643,27.116-4.861c4.945-1.362,8.271-2.046,9.978-2.046c1.702,0,4.349,0.855,7.931,2.558
		c0.168-0.168,0.256-0.34,0.256-0.512c1.702-4.093,3.493-12.279,5.371-24.558c-1.194,0.684-2.729,1.195-4.604,1.535
		c-3.582,0.684-6.652,1.195-9.21,1.535c-2.39,0.512-8.274,1.535-17.651,3.07c-5.288,0.855-9.041,1.279-11.256,1.279
		C401.771,285.578,399.298,285.322,397.423,284.81z M399.726,257.438c-0.172,3.242-0.512,6.483-1.023,9.721
		c-0.344,3.07-0.684,6.995-1.023,11.768c0.852-0.168,1.619-0.256,2.302-0.256c10.401-1.535,20.549-3.749,30.443-6.651
		c2.726-0.851,4.177-1.279,4.349-1.279c1.534,0,4.517,0.428,8.954,1.279c2.046,0.684,3.58,1.279,4.604,1.791
		c1.023-7.163,1.535-13.559,1.535-19.187c0-3.921-1.367-5.884-4.093-5.884c-2.218,0-10.744,1.879-25.581,5.628
		C413.367,256.247,406.545,257.27,399.726,257.438z M464.959,313.718c1.875,0,5.028,1.878,9.465,5.628
		c4.262,3.413,6.396,6.483,6.396,9.209c0,2.047-1.451,3.581-4.349,4.604c-4.949,1.707-10.576,4.182-16.885,7.419
		c-6.994,3.753-12.279,6.312-15.859,7.675c12.106,11.428,21.572,19.357,28.395,23.791c8.526,5.46,22.256,11.855,41.187,19.186
		c2.387,0.684,3.582,1.451,3.582,2.303c0,1.367-1.279,2.391-3.837,3.07c-13.646,3.237-23.195,4.86-28.652,4.86
		c-3.413,0-6.906-1.111-10.488-3.326c-3.925-2.726-14.926-15.261-33-37.604c-5.461-6.991-10.66-12.875-15.605-17.651
		c-4.776-5.116-9.297-8.61-13.559-10.489c-1.878-0.339-2.813-1.278-2.813-2.813c0-2.047,1.619-3.07,4.86-3.07
		c4.605,0,11.168,4.01,19.698,12.023c2.726,2.559,5.284,4.949,7.675,7.163c4.261-3.749,8.014-7.758,11.256-12.023
		c3.07-3.921,6.307-9.721,9.721-17.396C462.996,314.573,463.936,313.718,464.959,313.718z"/>
</g>
</svg>
